<svg id="Logos" xmlns="http://www.w3.org/2000/svg" viewBox="0 0 320 240"><defs><style>.cls-1{fill:#737474;}</style></defs><title>logo-card-disney-vacation-club</title><g id="logo-disney-vacation-club"><path class="cls-1" d="M41.82,118c-.21,3.24-.25,6.85-.23,9.13a18.74,18.74,0,0,1-9.71-6.33c-.58-.91,1.58-1.45,2.63-1.76a33.14,33.14,0,0,1,7.31-1m96.92,2.57c-.41,2.76-3.8,5.08-5.49,5.56a5.39,5.39,0,0,1-1.47.17,28.05,28.05,0,0,1,6.32-8.48c.46-.46.76,1.81.64,2.75m-63.87-6.73c-.66,0-.86.93-1,1.41a65.36,65.36,0,0,0-.65,11.23c0,1.41-.18,3.33,1.58,3.68.7.18,2,0,2.1-.47a91.3,91.3,0,0,0-.46-14,2.55,2.55,0,0,0-1.58-1.87m47.73-.17c-2.33-.33-7.25.64-10.7,1.16-.48.06-.36.47-.23.82.29,1.41,1.8,1.17,2.8,1.71a17.77,17.77,0,0,1-1.23,2.8c-.53.18-1.4.06-1.46.87,0,.51.35.84.31,1.49-.55,1.38-1.5,2.85-1.13,4.66.44,1.6,1.2,3.32,2.33,3.56,3.64.71,6.62-1.34,9.37-3.39.48-.48-.44-1.95-.76-2-2.46-.29-4.74.77-7.2.71a10,10,0,0,1,1.12-3.18c2-.29,5,.14,6.2-.81a1.82,1.82,0,0,0-.12-1.86,14.09,14.09,0,0,0-5.05-.25c.24-.78.51-1.65.77-2.45a21.19,21.19,0,0,0,3.75,0c1.25-.11,2.75.11,3.63-.88.25-.5-.73-1.85-1.29-2.28a2.57,2.57,0,0,0-1.11-.64m-29.42.23c-5-.84-10.53-.59-14.1,2.87a4,4,0,0,0-.53,2.81A2.27,2.27,0,0,0,80,120.91c3.92.88,8.94-.17,12.28,2.46.41.53,0,1.09-.47,1.35-3.09,1.29-6.39,2.2-10,1.45-.49-.14-1.23-.65-1-1.16,1.46-2.22,3.91-.06,5.73.24a4.89,4.89,0,0,0,3.92-1.11c.32-.6-.78-1-1.53-1.17-2.57-.7-6.19-1.52-8.59.11a2.71,2.71,0,0,0-.76,3c2,3.22,5.8,4.3,9.35,3.74,2.42-.38,5.33-1.22,5.92-4,.27-1.74.17-3.62-1.29-4.85-3.4-2.29-8.25-1-12-2.58-.12-.17-.05-.23.17-.35,4-1.23,8.66-.76,12.76-1.75.59-.17,1.13-1.13.87-1.59a3.76,3.76,0,0,0-2.16-.81m36.43.24c-3,3.62-6.25,8.41-3.73,13.16a45.87,45.87,0,0,0-3.34,13.62,4,4,0,0,0,2.11,2.94c.35.16,1.19.64,1.28.22a75.43,75.43,0,0,1,3.64-13.57,7.12,7.12,0,0,0,4.56-.76c3.5-1.69,6.84-5.38,7-9.41a6.11,6.11,0,0,0-2.64-5.45,1.85,1.85,0,0,0-1.81.06c-3.62,2.11-8,7-9,9.12-.16-4.14,3.34-6.78,3.64-10.58,0-.95-1.28.06-1.71.65m-24.86-3c-.62-.08-.55.79-.41,1.29.76,3.22,1.93,6.31,2.23,9.7.06.71.3,1.65-.18,2.23-2.51-3.1-4-6.79-7-9.48-.48-.39-1.07,0-1.35.53a24.59,24.59,0,0,0-2.16,9.36c-.12,1.78-.47,4.15,1.4,5.09.52.18,1.26.1,1.46-.41.82-2.69.71-5.82.82-8.83,0-.28.19-.83.35-.58,1.26,2.43,2.53,4.58,3.92,6.84.7,1.14,1.32,2.24,2.63,2.16a4.22,4.22,0,0,0,2.93-2.22,15.55,15.55,0,0,0-1.58-12.63c-.76-1.18-1.63-2.69-3-3m-21.52-7.72c.39,1-.93,2.63-2.19,3.38a10.69,10.69,0,0,1-6.51,1.57,6.72,6.72,0,0,1,1.89-2.56c1.71-1.67,4-3.74,6.23-3,.26.09.41.2.58.64m-7.37-1.05a18,18,0,0,0-4.15,4.44c-.59-1,.35-2.11,1.05-3a4.46,4.46,0,0,1,3.1-1.46M78,98.92c-3.57.65-7.49,2.81-8.66,6.5a4,4,0,0,0,1.11,3.8c-.11.9-.23,2.17.76,2.81s1.35-.73,1.94-1.23c3.27,1.28,6.43-.24,8.89-2.17,1.93-1.63,4.26-3.62,3.32-6.31a3.11,3.11,0,0,0-2.74-1.7A4.83,4.83,0,0,0,78,98.92m-18.2,4.8C50.28,97.76,38,93.54,26.08,97a4.21,4.21,0,0,0-2.45,3.51c.76.94,1.93.76,3.16.76.29-.18.81-.18.88-.59-.42-.88-1.59-.58-2.23-1.05.35-.35.88-.23,1.29-.47,11.57-1.7,23,1.89,32.06,8.42,4.79,3.46,9.35,8.6,7.78,14.8-2.08,6-10.18,6.91-16.5,6.84a11,11,0,0,1-3.86-.69c0-3.75,0-8.38-.1-10.77a28.78,28.78,0,0,1,11,2.11c.65.42-1.23,1.68-1.94,2.34-.38.45,1,.89,2,.82a4.55,4.55,0,0,0,3.26-2.75,3.12,3.12,0,0,0-1-3.17c-3.57-3-8.47-3-13.28-3.14a37.68,37.68,0,0,0-.4-5.72,2.7,2.7,0,0,0-2.18-2.42,6.25,6.25,0,0,0-1.16,3.63c-.2,1.63-.37,3.41-.53,4.91,0,0-2.62.51-4.15.88s-7.6,2.3-7.08,5.38c.68,2.73,5,6,8,8a30.55,30.55,0,0,0,3,1.69A6.68,6.68,0,0,0,43,134.19c.31.29,1.37.18,2.18,0,1-.4,1-1.47,1.1-2.27,1.05.17,2.29.47,4.11.7,7.25.9,16.14-1.17,20.11-8.42,3.34-7-2.45-13.72-6.8-17.47a45.1,45.1,0,0,0-3.91-3"/><path class="cls-1" d="M153.4,129.23h-2.14l-6-18.16h2.86l4.19,13.21,4.17-13.21h2.92Z"/><path class="cls-1" d="M166.92,129.23v-1.17a4.23,4.23,0,0,1-3.44,1.32,4.62,4.62,0,0,1-3.47-1.16,4,4,0,0,1-1-2.79c0-2.17,1.51-3.72,4.5-3.72h3.4v-.92c0-1.66-.79-2.43-2.83-2.43a3.14,3.14,0,0,0-2.84,1.27l-1.68-1.6c1.2-1.43,2.45-1.89,4.62-1.89,3.56,0,5.32,1.53,5.32,4.45v8.64Zm0-5.71h-3c-1.58,0-2.37.66-2.37,1.86s.74,1.83,2.45,1.83a3,3,0,0,0,2.34-.74,2.45,2.45,0,0,0,.57-1.9Z"/><path class="cls-1" d="M178,129.38c-2.91,0-5.76-1.78-5.76-6.62s2.85-6.62,5.76-6.62a5.36,5.36,0,0,1,4.26,1.81l-1.79,1.75a3,3,0,0,0-2.47-1.23,2.93,2.93,0,0,0-2.39,1.14,6.85,6.85,0,0,0,0,6.31,2.91,2.91,0,0,0,2.39,1.15,3,3,0,0,0,2.47-1.23l1.79,1.71A5.34,5.34,0,0,1,178,129.38Z"/><path class="cls-1" d="M191.85,129.23v-1.17a4.25,4.25,0,0,1-3.44,1.32,4.6,4.6,0,0,1-3.47-1.16,4,4,0,0,1-1-2.79c0-2.17,1.51-3.72,4.49-3.72h3.4v-.92c0-1.66-.8-2.43-2.83-2.43a3.17,3.17,0,0,0-2.85,1.27l-1.68-1.6c1.21-1.43,2.45-1.89,4.62-1.89,3.57,0,5.34,1.53,5.34,4.45v8.64Zm0-5.71h-3c-1.58,0-2.37.66-2.37,1.86s.73,1.83,2.45,1.83a3.05,3.05,0,0,0,2.34-.74,2.49,2.49,0,0,0,.57-1.9Z"/><path class="cls-1" d="M201.81,129.23a3.36,3.36,0,0,1-3.55-3.6v-7.35h-1.48v-2h1.48V112.6h2.6v3.69h2.5v2h-2.5v7.23a1.31,1.31,0,0,0,1.44,1.5h1.06v2.22Z"/><path class="cls-1" d="M206.17,113.75V111h2.75v2.76Zm.07,15.48V116.29h2.61v12.94Z"/><path class="cls-1" d="M220.53,127.85a5.22,5.22,0,0,1-3.87,1.53,5.14,5.14,0,0,1-3.85-1.53c-1.24-1.27-1.54-2.9-1.54-5.09s.3-3.81,1.54-5.09a5.18,5.18,0,0,1,3.85-1.53,5.26,5.26,0,0,1,3.87,1.53c1.23,1.28,1.53,2.92,1.53,5.09S221.76,126.58,220.53,127.85Zm-2-8.64a2.62,2.62,0,0,0-1.91-.74,2.55,2.55,0,0,0-1.89.74c-.79.79-.9,2.14-.9,3.55s.11,2.75.9,3.54a2.61,2.61,0,0,0,1.89.77,2.69,2.69,0,0,0,1.91-.77c.79-.79.89-2.14.89-3.54S219.36,120,218.57,119.21Z"/><path class="cls-1" d="M232.29,129.23v-7.88c0-2-1.15-2.88-2.6-2.88a2.57,2.57,0,0,0-2.67,2.88v7.88h-2.61V116.29H227v1.31a4.6,4.6,0,0,1,3.45-1.46,4.45,4.45,0,0,1,3.18,1.18A4.72,4.72,0,0,1,234.9,121v8.26Z"/><path class="cls-1" d="M251.21,129.38a6.35,6.35,0,0,1-4.71-1.83c-1.76-1.78-1.83-3.59-1.83-7.4s.07-5.62,1.83-7.4a6.68,6.68,0,0,1,11.18,3.75h-2.8a3.63,3.63,0,0,0-3.67-3.13,3.55,3.55,0,0,0-2.69,1.12c-.91,1-1.09,2.06-1.09,5.66s.18,4.7,1.09,5.67a3.58,3.58,0,0,0,2.69,1.11,3.67,3.67,0,0,0,3.71-3.13h2.76A6.29,6.29,0,0,1,251.21,129.38Z"/><path class="cls-1" d="M263.93,129.23a3.29,3.29,0,0,1-3.54-3.57V111.07H263v14.44c0,1,.36,1.5,1.4,1.5h1.15v2.22Z"/><path class="cls-1" d="M275.72,129.23v-1.3a4.61,4.61,0,0,1-3.45,1.45,4.5,4.5,0,0,1-3.18-1.16,4.7,4.7,0,0,1-1.3-3.65v-8.28h2.59v7.89c0,2,1.15,2.89,2.61,2.89a2.58,2.58,0,0,0,2.68-2.89v-7.89h2.6v12.94Z"/><path class="cls-1" d="M290.52,128.24a4.49,4.49,0,0,1-3.16,1.14,4,4,0,0,1-3.42-1.53v1.38h-2.55V111.07H284v6.53a4,4,0,0,1,3.4-1.46,4.45,4.45,0,0,1,3.14,1.15c1.25,1.28,1.45,3.34,1.45,5.47S291.77,127,290.52,128.24Zm-3.83-9.77c-2.37,0-2.71,2-2.71,4.29s.34,4.31,2.71,4.31,2.68-2,2.68-4.31S289,118.47,286.69,118.47Z"/><path class="cls-1" d="M293.81,115.74a2.56,2.56,0,1,1,2.56-2.56A2.58,2.58,0,0,1,293.81,115.74Zm0-4.65a2.09,2.09,0,1,0,2,2.09A2.06,2.06,0,0,0,293.81,111.09Zm.54,3.47-.57-1.09h-.36v1.09h-.5v-2.77h1a.87.87,0,0,1,.9.85.77.77,0,0,1-.55.75l.62,1.17Zm-.45-2.34h-.48v.84h.48a.42.42,0,1,0,0-.84Z"/></g></svg>