<svg id="Logos" xmlns="http://www.w3.org/2000/svg" viewBox="0 0 320 240"><defs><style>.cls-1{fill:#d82f27;}</style></defs><title>logo-card-ladyfag-ladyland-festival</title><g id="logo-ladyland"><path class="cls-1" d="M125.93,116.28a14.74,14.74,0,0,0-1.1-4.46,12.08,12.08,0,0,0-1.63-3.46,7.31,7.31,0,0,0-3.59-2.42c-.48-.18-1.84-.79-1.85.13a4.12,4.12,0,0,0,.33.86c.1.3.18.62.27.93a9.87,9.87,0,0,1,0,4.77,14.38,14.38,0,0,1-2,4.13,12.78,12.78,0,0,1-6.26,5.38,23.13,23.13,0,0,1-10.1,1.6,19.33,19.33,0,0,1-5-1.26c-1.47-.54-3-.83-4.47-1.42a52.18,52.18,0,0,1-8.22-4.37c-2.66-1.69-5.4-3.16-8.08-4.8a25,25,0,0,0-2.19-1.37,10,10,0,0,1-1.87-1c-.52-.46,0-1.18.25-1.72.3-.74.51-1.51.86-2.23.71-1.49,1.2-3.09,1.86-4.61s1.2-3,1.76-4.58a42.3,42.3,0,0,0,1.55-4.74c.18-.77.25-1.55.5-2.31a5.85,5.85,0,0,0,.34-1.13,2.49,2.49,0,0,1,.14-.71c.26-.55.77-.69,1.3-.86.77-.24,1.48-.64,2.23-1a16.07,16.07,0,0,0,4.14-2.23,36.1,36.1,0,0,0,6.38-7,26.36,26.36,0,0,0,3.79-9.19c.33-1.59.83-3.37.47-5a7.54,7.54,0,0,0-1.66-4,11.75,11.75,0,0,0-1.5-.94,4.81,4.81,0,0,0-1.55-.86,8,8,0,0,0-4.63-.15,9.36,9.36,0,0,0-3.94,2.42,19,19,0,0,0-2.35,2.78,35.57,35.57,0,0,0-2.11,3.68c-.7,1.45-1.43,2.9-2.15,4.34a43,43,0,0,0-1.67,4.87c-.5,1.44-.92,2.86-1.46,4.3-.23.59-.4,1.82-1.08,2.06a3.81,3.81,0,0,1-2-.27A8.29,8.29,0,0,1,65.88,78a10.66,10.66,0,0,1-1.67-4.44,6.59,6.59,0,0,1-.13-2.34,4.08,4.08,0,0,1,.23-1.06c.12-.24.3-.36.39-.56a7.6,7.6,0,0,1,.35-1c.15-.26.31-.51.47-.75a5.28,5.28,0,0,1,1.23-1.39,7,7,0,0,1,3.7-1.65,14.82,14.82,0,0,1,2.4-.08c.87.07,1.25.33,1.41-.74a4.5,4.5,0,0,0-1.21-3.62,8.17,8.17,0,0,0-3.73-2.19,11.29,11.29,0,0,0-5-.45,8.36,8.36,0,0,0-4.1,1.72,13.54,13.54,0,0,0-1.79,1.68c-.36.41-.63,1-1.14,1.26A13.9,13.9,0,0,1,56,65.15a7.9,7.9,0,0,0-.8,2.92,26,26,0,0,0,.65,6.64c.84,3.73,3.53,6.85,6.46,9.18a15.12,15.12,0,0,0,4.91,2.62c.51.17,2.09.26,2.22.85.08.33-.3,1-.39,1.35-.15.47-.28,1-.45,1.42-.34.93-.73,1.85-1.09,2.77s-.5,1.59-.77,2.41c-.55,1.71-1.25,3.46-1.89,5.11-.35.91-.5,2-.84,2.92-.18.5-.53,1.81-1.12,1.88-.39.06-.89-.38-1.22-.51s-.84-.28-1.24-.47a10.58,10.58,0,0,1-1.58-.66,9.37,9.37,0,0,1-2.42-.74c-.85-.24-1.62-.7-2.48-.94a41.08,41.08,0,0,0-4.88-.82,13.82,13.82,0,0,0-5.47.33c-.84.22-1.67.37-2.51.55s-1.5.86-2.17.86c-.53.38-1.22.54-1.79.88s-1.19.88-1.78,1.31a10.13,10.13,0,0,0-1.62,1.37,10.53,10.53,0,0,0-1.21,2.05,19.13,19.13,0,0,0-1.7,4.56,16.88,16.88,0,0,0-.08,5,12.75,12.75,0,0,0,.4,2.46,4.29,4.29,0,0,0,.23.62c.12.21.35.41.47.64s.05.49.14.72.28.37.41.58.22.51.39.75.43.38.56.64a6.84,6.84,0,0,0,1.14,1.7,12.48,12.48,0,0,0,1.58,1.15c.54.43.82,1,1.52,1.31.25.11.43.09.65.26s.22.31.34.4a3.45,3.45,0,0,0,.41.25,12.69,12.69,0,0,0,2.1.83,9.28,9.28,0,0,0,1.67.69,24.88,24.88,0,0,0,4.65.61,41.61,41.61,0,0,0,4.73-.61,14.5,14.5,0,0,0,4.09-1.37,8,8,0,0,0,1-.67c.19-.12.54-.15.66-.24s.33-.46.53-.63.61-.48.91-.72a17,17,0,0,0,3.41-3.13c.24-.33.46-.67.7-1a6.24,6.24,0,0,1,.68-1c.42-.34.75.13,1.1.38A23.64,23.64,0,0,0,69.23,125c1.41.66,2.75,1.56,4.11,2.33s2.89,1.59,4.4,2.28c3.12,1.41,6.27,2.89,9.49,4a7.67,7.67,0,0,0,1.78.55,13.77,13.77,0,0,1,1.65.53c1.32.3,2.71.52,4,.86.39.1.79.07,1.14.14s.54.2.84.26c.62.15,1.22.2,1.83.37a18.56,18.56,0,0,0,5.16.37,30.15,30.15,0,0,0,4.95-.42c.74-.13,1.54-.22,2.29-.4a17.08,17.08,0,0,0,1.62-.64c.8-.27,1.68-.44,2.49-.75a13.07,13.07,0,0,0,1.83-.71,21,21,0,0,0,3.22-2,22.16,22.16,0,0,0,3-3,14.67,14.67,0,0,0,2.22-3.73C126.32,122.23,126.12,119.31,125.93,116.28ZM81,76.35c.19-.65.33-1.31.56-2a31.47,31.47,0,0,1,1.51-3.88c.68-1.35,2.81-5.3,4.76-3.88.94.68.76,2,.54,3a10.16,10.16,0,0,1-1.93,3.68c-1.59,2.17-3.29,4.06-5.93,4.84C80.44,77.39,80.83,77,81,76.35ZM57.44,118.21c-.18.43-1.24.87-1.63,1.1-.56.33-1.14.64-1.73.93a17.13,17.13,0,0,1-7.7,1.94c-2.76.31-5.37-2.94-4.35-5.57.9-2.32,4-3.2,6.22-3.32,2.54-.13,5.33,1.25,7.37,2.65C56.14,116.29,57.76,117.49,57.44,118.21Z"/><path class="cls-1" d="M222.66,161.91c-.07-.37-.32-.69-.37-1.09a2.67,2.67,0,0,0-.31-.9,17.36,17.36,0,0,1-.56-1.73,7.84,7.84,0,0,0-2.58-3.82,7.24,7.24,0,0,0-2.2-1.11c-.36-.12-1.49-.65-1.79-.21s.47,1.78.58,2.25a9.07,9.07,0,0,1,0,2.55,11,11,0,0,1-1.56,5.17c-1.69,3-4,5.47-7.32,6.5a32.63,32.63,0,0,1-5.32,1.34,15.36,15.36,0,0,1-5.41,0c-1.81-.46-3.59-1.07-5.36-1.68-.87-.29-1.76-.47-2.64-.72a16.28,16.28,0,0,1-2.18-1,45.23,45.23,0,0,1-4.8-2.59c-1.54-1-3-2-4.62-3s-3.31-1.81-4.92-2.79c-.8-.49-1.59-1-2.39-1.49-.49-.3-1.86-.73-2.07-1.27-.13-.34.31-1,.43-1.31s.32-.82.5-1.22c.37-.84.68-1.69,1-2.54.66-1.73,1.4-3.42,2.08-5.14a77.55,77.55,0,0,0,3.08-9.91,4.09,4.09,0,0,1,.81-2.06,5.55,5.55,0,0,1,1.83-.79,25.76,25.76,0,0,0,4.56-2.25,18.77,18.77,0,0,0,3.74-3.38,35.61,35.61,0,0,0,3.37-4.08,23.58,23.58,0,0,0,2.42-4.4c.29-.77.7-1.57.92-2.35s.41-1.71.63-2.56c.82-3.14,1-7.47-2.08-9.44a10,10,0,0,0-1.69-1.07,8.27,8.27,0,0,0-2.34-.41,8,8,0,0,0-5,1.17,13,13,0,0,0-3.72,3.84,30.16,30.16,0,0,0-2.81,4.82c-.4.87-.81,1.72-1.23,2.58s-.56,1.55-.87,2.33c-.72,1.83-1.24,3.74-1.9,5.6-.3.81-.62,1.62-.92,2.43-.16.43-.33,1.44-.67,1.74-.94.82-3.56-.63-4.39-1.15a6.54,6.54,0,0,1-1.87-1.55,11.2,11.2,0,0,1-1-1.93,12.12,12.12,0,0,1-.56-1.93,9,9,0,0,1-.26-2.34,8.1,8.1,0,0,1,5.55-7.58,5.25,5.25,0,0,1,2.72-.19c.46.11,1.26.67,1.75.46,1-.45-.13-3.13-.54-3.7-2-2.75-6.73-4-9.91-3a7.72,7.72,0,0,0-2.37,1c-.7.52-1.39,1.06-2,1.65a12.91,12.91,0,0,0-2.85,4.16,9.85,9.85,0,0,0-1.07,5.18,25.44,25.44,0,0,0,.86,5.57c1.07,3.43,3.46,6.08,6.13,8.37a14.07,14.07,0,0,0,4.72,2.63,13.55,13.55,0,0,0,1.51.42,2.75,2.75,0,0,1,.89.21c.43.33,0,1.08-.12,1.54-.54,1.82-1.36,3.54-2,5.34-.15.41-.19.85-.32,1.27-.06.18-.17.34-.22.51s0,.29,0,.41c-.17.3-.38.31-.48.74a4.74,4.74,0,0,1-.23.9,14.26,14.26,0,0,0-.7,2c-.19.65-.45,1.3-.61,2a14.38,14.38,0,0,1-.35,1.44,7.51,7.51,0,0,1-.54.87c-.06.12-.53,1.4-.57,1.39a14.82,14.82,0,0,1-2.26-.87c-.71-.26-1.43-.6-2.18-.86s-1.65-.6-2.5-.82a5.1,5.1,0,0,1-1-.42,7.07,7.07,0,0,0-1.06-.42,31.33,31.33,0,0,0-4.65-.81,17.1,17.1,0,0,0-5.66.2,19.37,19.37,0,0,0-3.06.67c-.79.31-1.49.82-2.27,1.11a8.25,8.25,0,0,0-2.49,1.35,11.41,11.41,0,0,0-1.45,1.12c-.28.32-.48.69-.77,1a5.3,5.3,0,0,0-.83.93,10.86,10.86,0,0,0-.45,1.06c-.13.27-.31.46-.43.72a11,11,0,0,0-1.32,4.83c0,.52,0,1,0,1.5s.09.63.11,1c0,.92,0,1.85.12,2.77a6.83,6.83,0,0,0,.82,2.49c.19.35.48.66.66,1s.15.65.37.87.34.56.52.77.47.3.65.57a9.15,9.15,0,0,0,.45.88,3.76,3.76,0,0,0,.87.71,8.44,8.44,0,0,1,1.39,1,4.15,4.15,0,0,0,.68.64c.28.18.61.21.86.39s.31.38.67.53a4,4,0,0,1,.71.3,4.86,4.86,0,0,0,1.27.63,3.46,3.46,0,0,1,.69.17c.31.22.3.32.71.44a16.24,16.24,0,0,0,2.07.43c.86.13,1.73.24,2.6.3a13.55,13.55,0,0,0,2.69-.26c.45-.05,1,0,1.41-.08s.68-.28,1.05-.35a18.32,18.32,0,0,0,2-.52,11.37,11.37,0,0,0,4.46-2.49c1.11-1,2.43-1.83,3.47-2.89a23.31,23.31,0,0,0,1.5-1.95c.21-.26.36-1,.74-1s1.39.93,1.76,1.15c.69.42,1.33.9,2,1.3.38.22.81.31,1.19.51s.57.42.85.59.74.44,1.11.64a3.81,3.81,0,0,0,.53.29,4.43,4.43,0,0,0,.51.11,5.51,5.51,0,0,0,.74.56c.34.16.57.39.88.57.51.3,1.13.54,1.67.8a17,17,0,0,0,2,1,8.6,8.6,0,0,1,1.58.78c.51.25,1.12.47,1.56.66a3.71,3.71,0,0,0,.49.24c.1.16.2.2.29.09l.08-.05c.06,0,.13.19.17.2a2.83,2.83,0,0,1,.56.09c.27.11.36.29.64.45,0,0,.2-.06.23-.05a2.37,2.37,0,0,0,.28.14c.21.1.5.34.69.42s.74.08,1.07.27a2.45,2.45,0,0,0,1,.39c.44.09.42.27.76.46s.67.09,1,.2a9.57,9.57,0,0,0,1,.38c.42.09.81.31,1.21.41s.86.08,1.28.19.84.12,1.08.2.42.27.71.33.84,0,1.22.11a11.15,11.15,0,0,0,1.07.33,19.11,19.11,0,0,1,2,.35,11.77,11.77,0,0,0,2.62.39,5.58,5.58,0,0,1,.85.14c.32,0,.75,0,1.06,0a15.84,15.84,0,0,0,2.39,0,24.29,24.29,0,0,0,2.83-.17c1.6-.26,3.34-.72,4.92-1.13.73-.18,1.39-.47,2.12-.65a6.83,6.83,0,0,0,1.14-.43c.16-.07.35-.13.51-.21l.37-.21a16.72,16.72,0,0,0,6.81-5.24c.48-.65.88-1.36,1.3-2a7.81,7.81,0,0,0,1-2.2,24.75,24.75,0,0,0,.69-4.86,26.05,26.05,0,0,0-.21-2.91A15.17,15.17,0,0,0,222.66,161.91Zm-44.74-38.4c.83-2.53,1.55-5.25,3.06-7.48.55-.82,1.66-2.39,2.74-2.55s1.82,1.09,1.82,2c.06,2.72-2.1,5.35-3.89,7.21a13.6,13.6,0,0,1-1.47,1.47,10.79,10.79,0,0,1-1.5.8c-.32.16-1.42,1-1.53.26C177.1,124.9,177.8,123.85,177.92,123.51Zm-23.54,41.91c-.16.45-1.08.78-1.46,1-.55.3-1.08.63-1.65.92a20.71,20.71,0,0,1-7.89,2.18,4.18,4.18,0,0,1-2.23-8,9.44,9.44,0,0,1,3.8-1c2.51-.27,5.22,1.07,7.29,2.4C152.84,163.32,154.68,164.54,154.38,165.42Z"/><path class="cls-1" d="M168.77,173.73h0Z"/><path class="cls-1" d="M142,141.12c1.65-.33,3.26-.77,4.93-1s3.41-.7,5.08-.46a6,6,0,0,1,3.39,1.91,5.32,5.32,0,0,1,1.88,3.18.3.3,0,0,1,.09.36l-.17.24c0,.49.12.22.13.44s-.27.7-.21,1c.16.66.6-.27.73-.47a9.92,9.92,0,0,0,1.7-7.93,11.44,11.44,0,0,0-5.52-7.06c-2.87-1.5-6.89-1.33-10-.66a28.57,28.57,0,0,0-4.36,1.62,4.66,4.66,0,0,1-4.52-.43,4.73,4.73,0,0,1-2-3.22,4.64,4.64,0,0,1,1.46-4,58.07,58.07,0,0,1,7.73-6.8,109.29,109.29,0,0,0,15.36-14.28,35.49,35.49,0,0,0,3.53-4c.52-.78,1.06-1.55,1.59-2.33.4-.58,1-1.21,1.29-1.81s.58-1.51.91-2.2a6.55,6.55,0,0,0,.72-2.31c.08-1.27-1.23-2.84-2.56-2.17a10,10,0,0,0-1.83,1.56c-.59.51-1.22,1-1.78,1.5s-1.16.94-1.7,1.45a18.84,18.84,0,0,1-1.6,1.36c-2.48,1.89-4.9,4-7.47,5.79-1.18.83-2.49,2-3.94,2.28a1.9,1.9,0,0,1-2-.66c-.31-.55,0-1.26.34-1.75.86-1.35,2.23-2.35,3.08-3.74.23-.37.29-.81.53-1.18a2.93,2.93,0,0,0,.52-.93,17.08,17.08,0,0,0,.71-2.54,4.69,4.69,0,0,0-1.68-4c-.69-.63-3.09-1.74-3.43-.08-.08.38.24.72.33,1.12a2.6,2.6,0,0,1,.05,1,12.19,12.19,0,0,1-.73,1.9,12.77,12.77,0,0,1-2.5,3.88c-1.2,1.34-2.44,2.68-3.73,3.92a12.53,12.53,0,0,1-3.14,2.65,8.31,8.31,0,0,1-2.4.66c-.42.06-1.46.41-1.83.09s0-1.18.17-1.54a6.5,6.5,0,0,1,.52-.71c.19-.34.27-.75.46-1.09a22.7,22.7,0,0,1,2.82-3.73c1.05-1.18,2-2.46,3.06-3.62.49-.54.87-1.23,1.36-1.81s1-1.18,1.52-1.79.91-1.2,1.39-1.72c.15-.17.25-.42.38-.56s.34-.44.44-.55c.25-.25.11-.27.57-.31a5.65,5.65,0,0,1,1.3,0,16.38,16.38,0,0,0,2.53.18,23.31,23.31,0,0,0,5.28-.27,15.85,15.85,0,0,0,2.52-.84,14.68,14.68,0,0,0,2-.81,8.26,8.26,0,0,0,3.13-2.88c.38-.65.6-1.37.93-2a5.42,5.42,0,0,0,.74-2.13,8.5,8.5,0,0,0-.22-2.61c-.09-.31-.17-.64-.27-1a4.64,4.64,0,0,0-.43-.91c-1.34-2.55-4.75-3.66-7.49-3.12-3.23.64-6.27,2.86-8.62,5.05a10.06,10.06,0,0,0-1.61,1.89c-.39.61-.94,1.07-1.37,1.67-.3.42-.66,1.3-1.26,1.35s-1.33-.67-1.75-1a44.7,44.7,0,0,0-3.73-2.84,11.47,11.47,0,0,0-4.27-1.79c-.83-.1-1.59-.37-2.43-.43a12.53,12.53,0,0,0-2.37.08,16.67,16.67,0,0,0-2.53.51c-.61.18-1.28.81-1.93.77-.47.48-1.13.66-1.57,1.15A8.08,8.08,0,0,0,117,77.3a7.12,7.12,0,0,0-.62,4.73c.14.46.4,1.64,1,1.65s.93-1,1.24-1.34a5.77,5.77,0,0,1,3.28-1.83,16.31,16.31,0,0,1,5-.38A18.75,18.75,0,0,1,132,81.28c.79.34,1.53.78,2.33,1.08.45.18,1.2.5,1.08,1.11-.06.36-.6.82-.82,1.09l-.88,1.09c-.51.64-1,1.33-1.55,1.95s-.92,1.11-1.39,1.69a3.14,3.14,0,0,0-.53.7,4.53,4.53,0,0,1-.53.86c-.28.35-.54.73-.82,1.08s-.25.42-.54.23-.37-.69-.5-.9a8.67,8.67,0,0,0-.75-1,6.39,6.39,0,0,0-4.57-1.89,13.74,13.74,0,0,0-5,1.09,18,18,0,0,0-2.3,1.1c-.65.36-1.35.58-2,.93-2.5,1.33-4.43,3.51-6.46,5.45-.62.6-1.16,1.25-1.77,1.85s-1.21,1-1.77,1.56a7.89,7.89,0,0,1-2,1.54,9.94,9.94,0,0,1-2,.89A1.44,1.44,0,0,1,98,102.4c-.18-.27,0-.4.08-.65a11.12,11.12,0,0,1,.93-2,32.68,32.68,0,0,1,3.31-4.29c1-1.1,2.57-2.63,2.12-4.26-.33-1.18-2.29-1.67-3.31-1.67a4.3,4.3,0,0,0-2,.62c-.6.32-.92,1-1.59,1.21s-.64-.44-1-.86a4.92,4.92,0,0,0-1.66-1.19c-3-1.29-6.46,0-9.24,1.25a13.64,13.64,0,0,0-3.94,2.69,33.17,33.17,0,0,0-3.32,3.49c-1.61,2.2-3.33,6.41-1.92,9a3.69,3.69,0,0,0,1.54,1.61,6,6,0,0,0,2,.23,12.15,12.15,0,0,0,5-1.07,23.39,23.39,0,0,0,4.24-2.28c.34-.24,1.15-1,1.53-.64.15.15.15.77.21,1a5.06,5.06,0,0,0,.41.92,4.13,4.13,0,0,0,1.41,1.77,5.72,5.72,0,0,0,2.47.24,11.91,11.91,0,0,0,5-1.26,16.17,16.17,0,0,0,4-2.76c.48-.45,1-1.24,1.1-.17a4.42,4.42,0,0,0,.72,2.2,5.1,5.1,0,0,0,1.56,1.36,4.23,4.23,0,0,0,2,.57,6.24,6.24,0,0,0,2.28-.26c.69-.2,1.43-.2,2.15-.4a20.4,20.4,0,0,0,4.4-1.75,12.72,12.72,0,0,0,1.93-1.2c.26-.2,1-.79,1.31-.71s.65,1.12.7,1.28a2.87,2.87,0,0,0,.94,1.35c1.14,1.09,2.39,1.16,3.9,1.18a10.29,10.29,0,0,0,1.22,0,6.43,6.43,0,0,0,.92-.29,10.64,10.64,0,0,0,2.31-.9c.53-.28,1.4-1,2-1s.29.4.43.85c.9,2.9,4.9,3.64,7.48,3.26a14,14,0,0,0,4.65-1.66c.28-.16,1.39-1.12,1.72-.88s-.24.69-.38.85c-.47.56-.88,1.12-1.39,1.63a14.93,14.93,0,0,1-1.22,1,38.3,38.3,0,0,1-3.82,2.47c-1.48.9-2.93,1.84-4.41,2.73-.63.37-1.32.85-2,1.32-.26.19-.44.43-.71.63s-.5.22-.71.39-.41.54-.72.75-.57.29-.84.45A12.44,12.44,0,0,0,130,120c-.64.59-1.21,1.23-1.79,1.88a5.63,5.63,0,0,0-1.25,1.63,7.53,7.53,0,0,1-.41.8c-.15.31-.17.7-.33,1a8.07,8.07,0,0,0-.46.87,7.24,7.24,0,0,0-.19,1.07,15.48,15.48,0,0,0-.3,2.2,5.7,5.7,0,0,1-.13.91,1.85,1.85,0,0,0-.06.57c0,.16.12.18.14.3.15.8.13,1.67.22,2.48a5.77,5.77,0,0,0,.48,1.59c.26.66.48,1.19.77,1.83,0,0,.14,0,.18.09s-.06.16,0,.33a3.19,3.19,0,0,0,.62.79c2.3,2.23,6.1,3.08,9.2,3.21A22.39,22.39,0,0,0,142,141.12Zm2.95-60.2A17.53,17.53,0,0,1,146,79.46c.82-.92,1.65-1.81,2.53-2.66,1.42-1.37,4.11-3.82,6.2-2.52,2.66,1.67.35,4.41-1.48,5.59A8.54,8.54,0,0,1,150,81.32a31.71,31.71,0,0,1-4,.21C145.37,81.53,144.33,81.76,144.92,80.92ZM93.34,96.21c0,.55-1,1.38-1.28,1.85s-.38.35-.71.58-.45.53-.74.76a2.9,2.9,0,0,0-.74.66,2.86,2.86,0,0,1-.65.65,2.1,2.1,0,0,1-.42.22c-.2,0-.29.06-.29.23a6.73,6.73,0,0,1-.75.44,37.07,37.07,0,0,1-3.83,1.76c-.58.2-1.24.53-1.75,0s-.2-1.13.17-1.7a11.46,11.46,0,0,1,3-3.26c.67-.48,1.26-1.06,1.94-1.53s1.28-.75,1.87-1.18a5.18,5.18,0,0,1,.84-.57,6.76,6.76,0,0,0,.84-.47,5.53,5.53,0,0,1,2.13-.6C94.38,94,94.05,95.45,93.34,96.21Zm29.31.84a9.26,9.26,0,0,1-2.05,2.57c-.42.4-.82.83-1.28,1.19a6.23,6.23,0,0,1-1.36,1c-.77.46-2.68,2-3.58,1.17s.42-2.6,1-3.4A16.63,16.63,0,0,1,118,96.33a21.81,21.81,0,0,1,3.26-2.74c.81-.49,2.38-1.1,2.67.33C124.16,95.06,123.11,96.14,122.65,97.05Z"/><path class="cls-1" d="M285.29,117.71a8.14,8.14,0,0,0-6.43-.18,9.8,9.8,0,0,1-1.72.74c-.05.42-1.42.88-1.77,1.09a11.16,11.16,0,0,0-1.86,1.42c-.56.54-1.21.93-1.74,1.52s-1.15,1.38-1.77,2c-.47.49-.79,1-1.21,1.53s-.84,1.1-1.55,1.06-1.56-.47-2.38-.54-1.57-.26-2.36-.39a18.16,18.16,0,0,1-2.74-.53,17.93,17.93,0,0,0-2.28-.64c-1.83-.34-3.59-1-5.4-1.39-1-.23-1.93-.42-2.89-.64-.79-.18-1.57-.49-2.36-.59-1.62-.21-3.23-.39-4.85-.59a28.45,28.45,0,0,0-5-.33c-.86,0-1.65.33-2.5.43a8.36,8.36,0,0,0-2.3.58,14.68,14.68,0,0,0-4.23,2.5,11.3,11.3,0,0,0-2.75,3.18,8.39,8.39,0,0,0-.68,4.6,6.17,6.17,0,0,0,1.8,4c.15.16.57.65.78.71s.26,0,.38-.28a9.9,9.9,0,0,0,.18-1.25,7.46,7.46,0,0,1,.31-1,7.3,7.3,0,0,1,2.81-3.66,14.51,14.51,0,0,1,4.56-2,16.89,16.89,0,0,1,5.23-.84,26.6,26.6,0,0,1,5.24.9c3.6.72,7.09,1.86,10.63,2.83a46,46,0,0,0,5.19,1.1c.22,0,.93,0,1,.26s-.21.46-.33.62A20.15,20.15,0,0,1,261,135.5c-1.07,1.21-1.88,2.54-2.84,3.83-.16.21-.48.85-.78.84s-.49-.52-.61-.71a7.9,7.9,0,0,0-1.41-1.79c-2.47-2-6.62-1.42-9.29-.16a18.91,18.91,0,0,0-2.15,1.1c-.61.4-1.32.6-2,.95a13.49,13.49,0,0,0-2.12,1.49,20.92,20.92,0,0,0-1.76,1.34,46.08,46.08,0,0,0-3.47,3.66c-.49.62-.88,1.38-1.4,2a15,15,0,0,1-1.78,1.5,16.83,16.83,0,0,1-2.29,1.65c-.65.38-1.32.52-.88-.47a15.16,15.16,0,0,1,1.41-1.91c.37-.58.66-1.19,1.05-1.76.51-.75,1-1.54,1.4-2.33a6.81,6.81,0,0,0,.87-1.9,3.08,3.08,0,0,0-2.27-3.25,9.78,9.78,0,0,0-5.09.19,19.41,19.41,0,0,0-4.37,2,44.07,44.07,0,0,0-4.32,3c-.3.22-1.55,1.37-1.53.57a4.14,4.14,0,0,1,.44-1,7.2,7.2,0,0,0,.36-1.2,3.11,3.11,0,0,0-1.23-3.43,7.39,7.39,0,0,0-4.27-.7c-4.75,1.12-8,5.33-11.21,8.68-.83.87-1.69,1.71-2.59,2.52a7.63,7.63,0,0,1-2.69,1.93c-2.59.72.06-3.52.51-4.22A41.41,41.41,0,0,1,198.7,143c.57-.65,1.39-1.28,1.18-2.24-.17-.81-.83-1.07-1.56-1.21a6.53,6.53,0,0,0-2.95.09,6.82,6.82,0,0,0-1.38.54c-.36.18-.8.63-1.16.72s-.45,0-.72-.39a4.51,4.51,0,0,0-.73-1,5.35,5.35,0,0,0-2.48-1c-4.13-.69-8.16,1.48-11.12,4.16a24,24,0,0,0-3.94,4.59c-.91,1.37-2,3.56-1.5,5.25a4.4,4.4,0,0,0,1.38,2.44,3.91,3.91,0,0,0,2.21.86c1.89.07,4-1,5.71-1.85a26.06,26.06,0,0,0,2.92-1.73c.39-.25,1.87-1.54,2.23-1,.16.25-.15.88-.06,1.23a3.38,3.38,0,0,0,.67,1.18,3.42,3.42,0,0,0,1.77,1.13c4.18,1.09,8.09-1.75,10.92-4.43,1.48-1.4,2.91-2.87,4.47-4.19.75-.62,1.42-1.47,2.19-2,.34-.24.72-.42,1.06-.68a1.48,1.48,0,0,1,1.18-.43,15.56,15.56,0,0,1-2.56,3.85,42.88,42.88,0,0,0-3,3.93c-.49.76-1.92,2.64-1,3.55a4.06,4.06,0,0,0,2.26.58,10.76,10.76,0,0,0,2-.13c1.47-.2,2.72-1.79,3.78-2.74a73.13,73.13,0,0,1,7.92-6.21,26.09,26.09,0,0,1,4.17-2.46c.48-.2,3.75-1.63,3.48-.22-.09.49-1.27,1.28-1.63,1.62-.59.57-1.17,1.14-1.72,1.75a11.87,11.87,0,0,0-2.48,3.86c-.51,1.39-.7,3,.65,4a3.71,3.71,0,0,0,1.8.77,9.29,9.29,0,0,0,1.18,0,3.08,3.08,0,0,0,.68,0c.12,0,.16-.15.3-.17.43,0,.6,0,1-.17a5.51,5.51,0,0,1,.76-.4c.7-.29,1.39-.56,2.06-.91a17.18,17.18,0,0,0,3.59-2.2c.33-.29,1.36-1.11,1.87-.85.23.13.15,1.06.2,1.42.07.57.23.49.46.9.11.18.11.37.21.54s.32.34.37.38c.26.23.43.4.69.64,1.14,1,3,.86,4.35.67a19.88,19.88,0,0,0,4.78-1.28,19.44,19.44,0,0,0,4.2-2.17c.44-.31,1-1,1.44-.46s.39,1.15.71,1.62a3.64,3.64,0,0,0,2.95,1.73,12.85,12.85,0,0,0,4.3-.13,7,7,0,0,0,2.24-1.09,4.75,4.75,0,0,0,.66-.69c.2-.19.38-.31.61-.5.69-.54,2.35-2.8,1.63-3.55-.53-.55-1-.2-1.44.21a16.26,16.26,0,0,1-1.68,1.29,5.62,5.62,0,0,1-2.09.92,1.32,1.32,0,0,1-.94,0c-.4-.25-.2-.19-.09-.55a5.45,5.45,0,0,1,.54-1.58c.33-.5.54-1.14.92-1.65s.66-1,1.05-1.62.84-.9,1.2-1.41a13.23,13.23,0,0,1,1.42-1.48c.56-.61,1-1.32,1.55-2,1-1.33,2.06-2.64,3.16-3.91.53-.63,1-1.29,1.51-2,.37-.5.79-1.28,1.43-1.45a8.58,8.58,0,0,1,2.3.16c.82.05,1.64.08,2.45.15a21.68,21.68,0,0,0,5-.32,10,10,0,0,0,4.22-1.49c2.62-1.68,4.64-3.83,5-7A7.31,7.31,0,0,0,285.29,117.71Zm-95.1,24.85c-.21,1.35-1.38,2.66-2.23,3.67a22.69,22.69,0,0,1-2.94,3,40.57,40.57,0,0,1-3.61,2.49c-.64.4-2.95,1.84-2.89.11,0-1.23,1.35-2.65,2.13-3.51,1-1.07,1.92-2.13,3-3.1a22.79,22.79,0,0,1,3.33-2.36,8.15,8.15,0,0,1,2-1.14C189.46,141.6,190.29,141.87,190.19,142.56Zm62.1.9a12.31,12.31,0,0,1-1.92,3.09,17.63,17.63,0,0,1-3,2.67,7.87,7.87,0,0,1-3.47,1.74c-2.71.08,1-4.54,1.59-5.24a26,26,0,0,1,2.87-2.78c.9-.81,1.86-1.88,3.15-2a1.11,1.11,0,0,1,1.17.71C252.93,142.22,252.52,142.91,252.29,143.46ZM284,126.05a11,11,0,0,1-5.89,2.26c-.5-.08-3.27-.27-3.26-.76s.78-1,1-1.28c.42-.45.84-.88,1.28-1.3,1.29-1.26,3.38-3.35,5.35-3.17S285.73,124.66,284,126.05Z"/></g></svg>