<svg id="Logos" xmlns="http://www.w3.org/2000/svg" viewBox="0 0 320 240"><defs><style>.cls-1{fill:#44c0bc;}.cls-1,.cls-2{fill-rule:evenodd;}.cls-2{fill:#89ba40;}.cls-3{fill:#636465;}.cls-4{fill:#636364;}.cls-4,.cls-5{stroke:#636465;stroke-miterlimit:10;stroke-width:0.16px;}.cls-5{fill:#49494a;}</style></defs><title>logo-card-growthfountain</title><g id="logo-growthfountain"><path class="cls-1" d="M149.94,98.09c0,.11.06.11.05.23.32,1,.62,2,.89,3.06a1.55,1.55,0,0,1,.1.36c0,.15.05.19.06.31s.06.31.1.45a1.85,1.85,0,0,1,.11.45,3.56,3.56,0,0,0,.11.6,1.76,1.76,0,0,1,.11.5c0,.21.08.28.06.48a.72.72,0,0,1,.05.32c.1.35.13.77.2,1.15a1.09,1.09,0,0,1,.08.4v.11a.58.58,0,0,1,.06.28v.14a.73.73,0,0,1,.06.28c0,.37.08.65.1,1a1.56,1.56,0,0,1,0,.4v.17a1.63,1.63,0,0,1,.06.42v.09c.06.06,0,.23,0,.34v.15l.09,0c0-.12,0-.24,0-.35v0c0-.35-.06-.75-.08-1.13v-.43a7.11,7.11,0,0,1-.07-.71v-.31a2.38,2.38,0,0,1-.07-.56v-.14c-.08-.57-.13-1.18-.19-1.78a6.47,6.47,0,0,0-.06-.66.66.66,0,0,1-.06-.31c0-.09,0-.23,0-.28a.73.73,0,0,1-.06-.28v-.22a.83.83,0,0,1-.06-.29c0-.16,0-.33-.08-.48a5.42,5.42,0,0,1-.14-.76v-.2a.67.67,0,0,1-.08-.31c-.07-.4-.17-.77-.25-1.15a1.46,1.46,0,0,1-.1-.4c-.08-.45-.2-.85-.3-1.26-.06-.06-.07-.19-.1-.28a4,4,0,0,0-.08-.4,1.15,1.15,0,0,1-.1-.33,11.08,11.08,0,0,0-1-2.78,1.31,1.31,0,0,1-.24-.28,7.9,7.9,0,0,0-.93-1,1.93,1.93,0,0,1-.31-.27,8.93,8.93,0,0,0-.8-.57c0,.14.16.18.18.34a1.16,1.16,0,0,1,.2.33c.2.32.36.7.55,1.06a1.24,1.24,0,0,1,.17.3v0a1.87,1.87,0,0,1,.2.4v0c.08.06.1.19.15.28s.2.41.28.64a.82.82,0,0,1,.15.31c0,.09,0,.11.05.17a1,1,0,0,1,.13.28c.21.61.44,1.19.66,1.79A2.68,2.68,0,0,1,149.94,98.09Z"/><path class="cls-1" d="M152,132.27c.14.56.26,1.14.36,1.72l.09,0v0c-.06,0,0-.16,0-.23v0a1.49,1.49,0,0,1-.06-.45c-.06-1-.19-1.85-.29-2.77a.73.73,0,0,1-.06-.28c-.17-1.64-.45-3.15-.73-4.66-.07-.07-.06-.23-.08-.34-.12-.77-.31-1.46-.47-2.19-.06,0-.05-.19-.07-.29-.36-1.51-.76-3-1.21-4.35a1.24,1.24,0,0,1-.13-.37c-.26-1-.6-1.81-.92-2.69-.09-.1-.11-.29-.18-.42-.12-.41-.29-.75-.43-1.12a1.06,1.06,0,0,1-.15-.34c-.28-.74-.63-1.38-.93-2.09a1.83,1.83,0,0,1-.18-.34,36.23,36.23,0,0,0-3.76-6.17,2.08,2.08,0,0,1-.29-.36c-.07-.17-.22-.24-.3-.39a1.55,1.55,0,0,1-.24-.27,1.6,1.6,0,0,0-.22-.28,1.35,1.35,0,0,1-.25-.28s0-.06,0,0-.27-.3-.42-.44a17.35,17.35,0,0,0-3.39-2.92,9.41,9.41,0,0,0-5.09-1.71c-.07,0-.2.05-.24,0a7.48,7.48,0,0,0-2.23.45,7.09,7.09,0,0,0-2.21,1.46c-.25.26-.52.49-.72.73a9.09,9.09,0,0,0-.68,1.11,4.13,4.13,0,0,0-.61,1.18c.1,0,.14-.12.19-.18a7.05,7.05,0,0,1,4.45-2.53,8.78,8.78,0,0,1,5.65,1.32,23.84,23.84,0,0,1,7.52,7.66,1.15,1.15,0,0,1,.19.28,45.68,45.68,0,0,1,3.44,6.44,1,1,0,0,1,.15.33,67.52,67.52,0,0,1,4.08,13.46C151.66,130.61,151.79,131.45,152,132.27Z"/><path class="cls-1" d="M151,96.29a1.41,1.41,0,0,0,.08.39,1.18,1.18,0,0,1,.08.4v0a1.82,1.82,0,0,1,.09.43c0,.1,0,.11,0,.19a1.78,1.78,0,0,1,.11.54,2.91,2.91,0,0,1,0,.31.86.86,0,0,1,.05.26,1,1,0,0,1,.08.42v.08a1,1,0,0,1,.05.29c0,.27.08.42.07.7a1.34,1.34,0,0,1,0,.31,1.3,1.3,0,0,1,.06.37v.17a1.14,1.14,0,0,1,.06.39c0,.18.05.26,0,.43a4.31,4.31,0,0,1,.1.85v.07l.05,0c0-.24,0-.47,0-.71V102c0-.32-.05-.68-.07-1v-.4a8.82,8.82,0,0,1-.1-1.08c0-.23,0-.38,0-.62-.06,0,0-.2,0-.28v0a.45.45,0,0,1-.06-.28,6.13,6.13,0,0,0-.16-.79,1,1,0,0,1-.1-.37V97c-.06-.06-.06-.19-.1-.28a8.94,8.94,0,0,0-.38-1c-.05-.1-.06-.26-.15-.28s0,.22.08.31A2,2,0,0,1,151,96.29Z"/><path class="cls-1" d="M150.21,104.78c.06.27.14.5.21.76a.88.88,0,0,1,.1.3c.06.31.15.57.22.88a.91.91,0,0,1,.07.25.71.71,0,0,1,.08.28c.1.57.23,1.1.35,1.64a1.07,1.07,0,0,1,.08.33c.05.42.16.79.22,1.19a.55.55,0,0,1,.06.31c0,.19.05.36.08.53a.57.57,0,0,1,.06.31v0a2.18,2.18,0,0,1,.08.48c.05.57.16,1.05.21,1.61a1.09,1.09,0,0,1,.06.34,2.39,2.39,0,0,0,0,.48,1.22,1.22,0,0,1,.05.4v.19a1.78,1.78,0,0,1,.06.43v.2a1.7,1.7,0,0,1,.06.48v.12l.07,0c0-.14,0-.29,0-.42v-.08c-.05-.44,0-1-.08-1.42V114a2.9,2.9,0,0,1-.06-.62v-.25c-.06,0,0-.2,0-.29,0-.53-.1-1-.14-1.52a1,1,0,0,1,0-.37,4.59,4.59,0,0,0-.07-.68c-.06-.22-.08-.51-.12-.76v-.14c-.09-.56-.15-1.16-.26-1.7a3.65,3.65,0,0,1-.11-.65c-.16-1-.37-1.89-.57-2.81a1.94,1.94,0,0,1-.11-.46c-.1-.51-.25-1-.37-1.46a1.05,1.05,0,0,1-.13-.39,2.12,2.12,0,0,0-.1-.4.8.8,0,0,1-.11-.33,26.16,26.16,0,0,0-.92-2.67,1.26,1.26,0,0,1-.13-.31c0-.13-.08-.21-.1-.33a1,1,0,0,1-.13-.28c-.45-1-.91-2-1.42-3a2.27,2.27,0,0,1-.28-.45,15.65,15.65,0,0,0-1.48-2.33,7,7,0,0,1-.46-.61c-.13-.23-.31-.39-.45-.61a9.19,9.19,0,0,0-3.44-.48,5.06,5.06,0,0,0,.84.62c.07.09.2.11.25.22s.21.24.36.3a1,1,0,0,1,.24.25c.17.16.33.33.49.5,0,0,0,0,.05,0,.17.18.33.36.49.55a1.12,1.12,0,0,1,.17.2,1.55,1.55,0,0,1,.24.27,2.45,2.45,0,0,1,.42.53s0,0,0,0a1.89,1.89,0,0,1,.25.3v0a1.84,1.84,0,0,1,.31.41s0,0,0,.06v0c.1.06.15.18.22.27.44.62.84,1.29,1.24,2a1,1,0,0,1,.22.36c.33.64.67,1.27,1,2,.08.07.11.23.17.34a41.35,41.35,0,0,1,1.89,5.07C150.18,104.52,150.18,104.67,150.21,104.78Z"/><path class="cls-1" d="M151.48,116.68a1.11,1.11,0,0,0,.05.34,1.74,1.74,0,0,1,.08.42v.09a1.65,1.65,0,0,1,.08.42v.2a.36.36,0,0,1,.06.19.87.87,0,0,1,.05.34c0,.14.05.22,0,.37a.54.54,0,0,1,.05.28v.09a.78.78,0,0,1,.06.36,2.79,2.79,0,0,1,.06.43c0,.11,0,.29.06.42a1,1,0,0,1,.06.34v.28a3.71,3.71,0,0,1,.09.71,1,1,0,0,1,.06.37c0,.24,0,.47.05.7l.11,0c0-.13,0-.25,0-.37l0-.56a10.79,10.79,0,0,1-.08-1.19v0c-.05-.06,0-.24,0-.34v-.26c-.06,0,0-.19,0-.28v0c0-.29-.06-.61-.09-.91v-.2a6.14,6.14,0,0,1-.09-.79v-.14a1.4,1.4,0,0,1-.06-.48c0-.28-.06-.52-.09-.76a3.24,3.24,0,0,1-.09-.57V116c-.17-1.06-.31-2.16-.53-3.16a1.85,1.85,0,0,1-.08-.37c-.12-.7-.28-1.36-.43-2a.88.88,0,0,1-.08-.31c-.22-1-.5-1.89-.76-2.81a1.37,1.37,0,0,1-.13-.39c-.31-1.06-.68-2-1-3a.8.8,0,0,1-.13-.28A33.65,33.65,0,0,0,146,98.17a.92.92,0,0,1-.19-.28,10.24,10.24,0,0,0-.67-1c-.09-.09-.13-.24-.24-.31v0c0-.09-.07-.1-.08-.17a3,3,0,0,1-.27-.33c-.1-.14-.22-.25-.32-.39s-.32-.36-.46-.58v0a3.8,3.8,0,0,1-.42-.47,1.93,1.93,0,0,0-.31-.33,1.78,1.78,0,0,1-.32-.35c-.07,0-.06-.12-.15-.11a1.08,1.08,0,0,1-.29-.31,12,12,0,0,0-4.33-2.69,14.93,14.93,0,0,0-3.15,1.64c-.14.09-.35.18-.33.29A9.32,9.32,0,0,1,140.84,95a1.43,1.43,0,0,1,.24.19v0c.1.06.16.17.27.21a2.65,2.65,0,0,1,.34.33,19.64,19.64,0,0,1,2.51,2.78,1.83,1.83,0,0,1,.24.31c.44.64.88,1.27,1.29,1.94.1,0,.12.2.19.28.15.33.35.6.5.92.09.06.12.19.17.28a3.78,3.78,0,0,0,.28.53,1.46,1.46,0,0,1,.17.3,1,1,0,0,0,.1.23,1.16,1.16,0,0,1,.18.33c.09.26.22.46.32.7a2,2,0,0,1,.18.36c.12.34.27.64.4,1a1,1,0,0,1,.16.33,4.7,4.7,0,0,0,.17.45.73.73,0,0,1,.13.28c0,.15.1.28.15.42a2.48,2.48,0,0,1,.2.5,59.19,59.19,0,0,1,2.37,8.63C151.46,116.39,151.45,116.55,151.48,116.68Z"/><path class="cls-1" d="M149.69,116.09c.32,1.14.64,2.28.94,3.46.06,0,.05.18.08.28.08.46.2.88.3,1.32.06.06,0,.22.07.31a1.49,1.49,0,0,0,.06.34.71.71,0,0,1,.08.31,78.51,78.51,0,0,1,1.27,9.13l.09,0,0-.93a8.85,8.85,0,0,1-.05-.93v-.54c-.06-.1,0-.31,0-.45v0c-.06-.08,0-.28,0-.4v-.31c-.06,0,0-.22,0-.31V127c-.06,0,0-.2,0-.29-.12-1.46-.28-2.85-.47-4.21a.59.59,0,0,1-.05-.28c0-.37-.1-.68-.15-1a.53.53,0,0,1-.06-.31c0-.09,0-.1,0-.19a2.5,2.5,0,0,1-.09-.43v-.08a1.49,1.49,0,0,1-.08-.4v0a.78.78,0,0,1-.06-.29c-.23-1.33-.52-2.6-.83-3.83a1.27,1.27,0,0,1-.11-.36c-.36-1.5-.8-2.91-1.27-4.27a1,1,0,0,1-.13-.34c-.07-.24-.15-.45-.23-.67a1.77,1.77,0,0,1-.18-.42,5.21,5.21,0,0,0-.25-.67.8.8,0,0,1-.13-.28c0-.18-.12-.32-.17-.48a1.65,1.65,0,0,1-.21-.42,34.83,34.83,0,0,0-4.46-7.77,2.35,2.35,0,0,1-.3-.33v0a3.12,3.12,0,0,1-.46-.55c-2.1-2.34-4.7-4.62-8.27-4.8-.07.07-.25,0-.36,0h-.3c0,.07-.2,0-.29,0a4.1,4.1,0,0,0-1.55.39A8.75,8.75,0,0,0,130.67,96a11.64,11.64,0,0,0-1.1,1.43c-.11.1-.31.22-.25.43a7,7,0,0,1,4-1.41.34.34,0,0,1,.31,0c3.74.3,6.06,2.4,8.24,4.69.11,0,.17.16.25.25s.12.13.17.22a29.09,29.09,0,0,1,1.89,2.46.82.82,0,0,1,.19.28,43,43,0,0,1,4,7.78,2,2,0,0,1,.16.36c0,.11.06.16.07.26.38.93.7,1.94,1,2.94A1.15,1.15,0,0,1,149.69,116.09Z"/><path class="cls-2" d="M159.16,92c-.09.11-.2.18-.29.28s-.21.2-.32.29a3.8,3.8,0,0,1-.43.47.79.79,0,0,0-.17.19,1.18,1.18,0,0,1-.22.27,19,19,0,0,0-.7,2,1.22,1.22,0,0,1-.14.42,1.38,1.38,0,0,1-.11.39,1.24,1.24,0,0,1-.11.37,2.44,2.44,0,0,0-.08.34,1.7,1.7,0,0,1-.11.36c0,.23-.13.43-.17.67a.76.76,0,0,1-.09.31c-.06.13,0,.37-.11.48a.69.69,0,0,1-.06.28.81.81,0,0,1-.08.34c-.06.16-.06.4-.12.56a2.09,2.09,0,0,1-.07.39,2.31,2.31,0,0,1-.11.57,1.67,1.67,0,0,0-.07.42.58.58,0,0,1-.06.28,3.31,3.31,0,0,1-.06.48.68.68,0,0,1-.07.31v.11a3.06,3.06,0,0,1-.1.65c0,.22-.08.29-.07.51,0,.48-.11.92-.15,1.41a2.83,2.83,0,0,1-.07.54v.28a4.18,4.18,0,0,1-.07.65v.26a8.39,8.39,0,0,1-.09.93l0,.51-.06,1.1.06,0v-.08a8.76,8.76,0,0,1,.11-1v-.2a1.89,1.89,0,0,1,.06-.39c0-.16.06-.23.05-.4s0-.26,0-.31a60.92,60.92,0,0,1,1.38-6.92,1.48,1.48,0,0,1,.13-.42c0-.14.08-.22.09-.36a.8.8,0,0,1,.11-.31c.35-1.2.76-2.31,1.18-3.41a.8.8,0,0,1,.13-.28c.23-.57.49-1.11.73-1.67a1.62,1.62,0,0,1,.21-.39.54.54,0,0,1,.05-.11,1,1,0,0,1,.13-.31c.33-.56.65-1.13,1-1.71A7.08,7.08,0,0,0,159.16,92Z"/><path class="cls-2" d="M155.13,102.48l.07,0v-.29c0-.08,0-.24,0-.28,0-.38.05-.8.12-1.16a2.1,2.1,0,0,1,0-.36,3.06,3.06,0,0,1,.07-.48v-.06a1.09,1.09,0,0,1,.06-.34c0-.23.08-.44.1-.68s.05-.47.1-.67a2.6,2.6,0,0,1,.12-.56c0-.1.05-.12,0-.23s.06-.19.06-.31c.09-.35.15-.74.24-1.1v-.08a1.69,1.69,0,0,1,.09-.34,3.64,3.64,0,0,0,.14-.61c0-.07.05-.07,0-.15s0,.11-.08.11c-.09.29-.24.5-.31.81a2.24,2.24,0,0,1-.11.31,6.07,6.07,0,0,0-.22.79,3.64,3.64,0,0,1-.11.39,1.15,1.15,0,0,0-.06.28c0,.18-.05.4-.1.56v.28c-.05.59-.08,1.22-.16,1.76,0,.33-.06.58-.07.9a7.52,7.52,0,0,1-.06,1C155.15,102.16,155.14,102.32,155.13,102.48Z"/><path class="cls-2" d="M163.53,89.89c-.58.12-1,.16-1.23.66-.14.17-.28.35-.43.52s-.14.12-.17.24-.32.48-.48.72h0c0,.06-.07.11-.1.16h0c0,.07-.09,0-.08.14s-.13.22-.2.33h0c0,.08-.05.06-.06.11l-.2.34h0A8.77,8.77,0,0,1,160,94a1.11,1.11,0,0,1-.2.39c0,.05-.06.06-.06.14s-.16.28-.23.44h0c-.4.84-.83,1.64-1.17,2.56a.85.85,0,0,1-.13.27c0,.06,0,.06,0,.12a1.18,1.18,0,0,1-.13.3c-.15.49-.37.89-.51,1.4a3,3,0,0,1-.16.45c-.1.39-.25.72-.35,1.11a1.62,1.62,0,0,1-.11.37c-.38,1.37-.76,2.74-1,4.24a1.34,1.34,0,0,1-.08.39c-.1.53-.2,1-.29,1.58a.73.73,0,0,1-.06.36,1.09,1.09,0,0,1-.06.43v.11a2.43,2.43,0,0,1-.09.57v.17a3.06,3.06,0,0,1-.06.45v0a1,1,0,0,1-.07.34c-.06.36-.07.78-.11,1.16a1.85,1.85,0,0,1-.07.45V112c0,.09,0,.25,0,.28v.23c0,.08,0,.24,0,.28v.06c0,.08,0,.24,0,.28s0,.3,0,.37v.39a1.85,1.85,0,0,1,0,.43l0,.51a5.45,5.45,0,0,1-.06.93v.09l.07,0v0c.09-.64.15-1.32.22-2,0-.18,0-.38.07-.53s0-.2,0-.34.05-.16,0-.28a.6.6,0,0,1,.06-.29,1.58,1.58,0,0,1,0-.39,1.9,1.9,0,0,1,.06-.31v-.11a1.76,1.76,0,0,0,0-.34h0a1.6,1.6,0,0,0,.06-.4.74.74,0,0,1,.07-.33c.31-1.74.66-3.25,1.07-4.87a1.82,1.82,0,0,1,.11-.39,47.66,47.66,0,0,1,2.69-7.12c.05-.08.07-.22.15-.27a4.34,4.34,0,0,0,.26-.53,1.84,1.84,0,0,1,.15-.28,1.43,1.43,0,0,0,.24-.44c.07-.12.14-.25.22-.36.39-.68.82-1.29,1.22-2a1.93,1.93,0,0,1,.28-.36l.95-1.23a2.28,2.28,0,0,1,.29-.33c0-.1.11-.1.15-.16a2.12,2.12,0,0,1,.3-.36s0,0,.08-.05.11-.14.19-.19a3.22,3.22,0,0,1,.35-.38,2.5,2.5,0,0,0,.24-.22c0-.08.14-.1.2-.16s.17-.16.25-.24.44-.34.66-.51.51-.31.63-.51A10.08,10.08,0,0,0,163.53,89.89Z"/><path class="cls-2" d="M169.41,90.36A12.35,12.35,0,0,0,165,93.08a2.5,2.5,0,0,0-.22.24h0a9.46,9.46,0,0,0-1,1.06,4.28,4.28,0,0,1-.4.44c0,.11-.1.14-.15.22s-.34.37-.48.6h0v0l-.25.33a.11.11,0,0,0-.08.11,1.21,1.21,0,0,1-.25.3s-.05.08-.07.14-.16.21-.23.33h0c-.48.75-1,1.5-1.4,2.32l-.21.39h0l-.39.77a1.56,1.56,0,0,1-.18.34c-.41.85-.82,1.73-1.17,2.67-.05.11-.08.23-.13.33h0c-.44,1.22-.89,2.44-1.27,3.75a.71.71,0,0,1-.1.31q-.22.78-.42,1.59a1.68,1.68,0,0,1-.12.43v0a1.27,1.27,0,0,1-.08.31c-.19.7-.33,1.47-.49,2.19,0,.17-.06.23-.07.37s-.1.53-.15.79-.05.17,0,.31h0v0c0,.11-.05.17,0,.31h0c0,.16-.07.2-.06.36a.65.65,0,0,1-.06.34V115a2.1,2.1,0,0,0,0,.37h0c0,.11,0,.14,0,.25a1,1,0,0,1-.06.28V116a.66.66,0,0,1-.06.31c-.12.93-.23,1.87-.33,2.83a4.6,4.6,0,0,1-.08.87l0,.32c0,.11,0,.3,0,.36l0,.46a1.88,1.88,0,0,1-.05.5V122c0,.19-.05.28,0,.46v.14l.12,0a68.85,68.85,0,0,1,1.28-8,1,1,0,0,1,.08-.36c.26-1.08.54-2.13.82-3.18a2,2,0,0,1,.13-.39c.38-1.3.83-2.52,1.27-3.74a1.11,1.11,0,0,1,.13-.31c.37-.87.72-1.77,1.13-2.59a.77.77,0,0,1,.18-.36c.36-.78.78-1.49,1.16-2.24.06-.09.09-.22.17-.28s.19-.23.23-.42.12-.22.2-.3,0,0,0-.06a1.57,1.57,0,0,1,.2-.3c.56-.83,1.14-1.64,1.74-2.42a2.28,2.28,0,0,1,.29-.33,7.43,7.43,0,0,1,.53-.59.81.81,0,0,1,.27-.31,3.51,3.51,0,0,1,.37-.4,1.6,1.6,0,0,0,.27-.25,1.94,1.94,0,0,1,.32-.32c1.87-1.57,3.81-3,6.83-3.1a1.54,1.54,0,0,1,.64,0c.06,0,.14.06.14,0A14.47,14.47,0,0,0,169.41,90.36Z"/><path class="cls-2" d="M177.8,97.16c-.53-.7-1.07-1.33-1.63-2a3.6,3.6,0,0,0-.71-.74A3.84,3.84,0,0,0,173.9,94a7.28,7.28,0,0,0-1.68,0,9.4,9.4,0,0,0-3.1.94,16,16,0,0,0-4.7,3.87,3.73,3.73,0,0,1-.32.36,11.45,11.45,0,0,0-.8,1,3.88,3.88,0,0,0-.23.33h0a33.33,33.33,0,0,0-2.61,4.22,2.23,2.23,0,0,1-.15.31h0a47.12,47.12,0,0,0-1.91,4.31,1.26,1.26,0,0,1-.13.31c-.16.42-.31.85-.46,1.28a1.28,1.28,0,0,1-.13.36,64.89,64.89,0,0,0-3.07,14.63c0,.08,0,.24,0,.28s0,.19,0,.28v.31c0,.1,0,.27,0,.31s0,.33,0,.4v.42c0,.17,0,.4,0,.51l0,.71a9.79,9.79,0,0,1-.07,1.13c0,.19,0,.38,0,.58h0a.19.19,0,0,1,0-.12,72.67,72.67,0,0,1,3.35-16.2,1.08,1.08,0,0,1,.13-.33c.37-1.07.77-2.08,1.17-3.1a1.26,1.26,0,0,1,.13-.31,52.2,52.2,0,0,1,2.5-5,1.87,1.87,0,0,1,.16-.28h0a31.84,31.84,0,0,1,3.17-4.4c.05,0,.08-.13.14-.16a1.63,1.63,0,0,1,.25-.27,22.24,22.24,0,0,1,1.8-1.71c.07-.12.21-.17.29-.27s.11-.08.18-.11a.75.75,0,0,1,.26-.21,9.91,9.91,0,0,1,6.42-2.26c.09,0,.24,0,.28,0a6.11,6.11,0,0,1,3.1,1.25c.11.07.24.2.35.15S177.88,97.27,177.8,97.16Z"/><path class="cls-2" d="M180.86,101.53a11.09,11.09,0,0,0-.65-1.06A8.12,8.12,0,0,0,178,98.59a6.24,6.24,0,0,0-3.16-.89s-.21,0-.23,0a11.54,11.54,0,0,0-7,3.2,4,4,0,0,1-.31.27,18.38,18.38,0,0,0-1.34,1.31c-.22.26-.45.51-.69.76a3.3,3.3,0,0,1-.28.35h0a29.88,29.88,0,0,0-1.81,2.42c-.05.1-.12.17-.17.27h0a41.8,41.8,0,0,0-3.77,7.13,1,1,0,0,1-.16.33c-.7,1.79-1.39,3.59-2,5.56a1.48,1.48,0,0,1-.14.42,72.86,72.86,0,0,0-2.55,13.62,1.85,1.85,0,0,1,0,.24h0c.16-1.1.48-2.15.68-3.22a75.7,75.7,0,0,1,2.75-10.21.93.93,0,0,1,.13-.34c.39-1.07.8-2.11,1.22-3.15.05-.1.07-.24.15-.3.39-1,.85-1.86,1.27-2.78.07-.13.11-.29.21-.36.28-.61.62-1.12.9-1.72a2.68,2.68,0,0,1,.18-.28,39,39,0,0,1,3.72-5.37c.1-.12.21-.24.32-.35a21.4,21.4,0,0,1,4.33-3.8,9.62,9.62,0,0,1,5.85-1.84,7.12,7.12,0,0,1,5,2.53c.07.08.18.29.32.21A6.09,6.09,0,0,0,180.86,101.53Z"/><path class="cls-3" d="M38.49,129.36a22,22,0,0,1-5.74,1c-6.15,0-9.39-3.11-9.39-8.66A7.86,7.86,0,0,1,28,114.23a11.83,11.83,0,0,1,5.13-1,41.46,41.46,0,0,1,5.21.58,27.79,27.79,0,0,0-.47,4.18,1.05,1.05,0,0,1-.87.08c-.21-2-.53-2.71-1.29-3.15a6.81,6.81,0,0,0-3.58-.74c-4.1,0-6.07,2.92-6.07,7.23,0,4.53,2.42,8,7.18,8a3.51,3.51,0,0,0,1.76-.35,1.33,1.33,0,0,0,.58-1.1,21.53,21.53,0,0,0,0-2.68c0-.87-.21-1.19-1-1.4-.48-.1-.95-.16-1.76-.26-.14-.08-.08-.69,0-.76.82,0,2.08.07,3.68.07s2.34,0,2.87-.07a1.11,1.11,0,0,1,0,.78,7,7,0,0,0-.86.19c-.5.16-.63.5-.66,1.26s0,2.42,0,2.92.08.53.66.76A1.55,1.55,0,0,1,38.49,129.36Z"/><path class="cls-3" d="M41.28,113.63c.63,0,2.2.08,3,.08,2,0,3.31-.06,4.37-.06,3.07,0,4.7,1.84,4.7,4a4.57,4.57,0,0,1-3,4.24.17.17,0,0,0-.06.18,42.54,42.54,0,0,0,4.29,5.68,3.85,3.85,0,0,0,3,1.45c0,.08,0,.68-.16.74a11.29,11.29,0,0,1-4.21-.5A3.57,3.57,0,0,1,52,128.44c-1-1.19-2.61-3.82-3.61-5.24a.84.84,0,0,0-.65-.39c-.37-.06-1.5,0-1.87,0-.05,0-.11.13-.11.16,0,1.45,0,3.89.06,4.76s.23,1.13.84,1.26c.39.08.87.16,1.47.24.13.1.08.66,0,.76-.5,0-1.76-.08-3.5-.08s-2.84.08-3.34.08a.79.79,0,0,1,0-.76c.58-.08,1-.13,1.34-.21.63-.13.84-.45.89-1.45,0-.6.06-4.18.06-5.63,0-2.68,0-5.31,0-6.13s-.21-1-.87-1.21c-.39-.07-.89-.15-1.42-.21C41.12,114.26,41.17,113.68,41.28,113.63ZM46,114.68a.6.6,0,0,0-.18.39c-.06.9-.06,4.48-.06,6.53a.15.15,0,0,0,.13.13,10.65,10.65,0,0,0,3.4-.21,3.16,3.16,0,0,0,1.71-3c0-2.48-1.27-3.92-4.08-3.92A2.83,2.83,0,0,0,46,114.68Z"/><path class="cls-3" d="M60,128a9.11,9.11,0,0,1-2.26-6.31,8.44,8.44,0,0,1,1.63-5.08,9,9,0,0,1,7-3.34c5.37,0,8.08,3.92,8.08,8.21a8.77,8.77,0,0,1-1.61,5.47A8.53,8.53,0,0,1,66,130.36,7.9,7.9,0,0,1,60,128Zm9.76.32c1.63-1.32,2.21-3.5,2.21-5.92,0-2.84-1-5.58-3-7a5.88,5.88,0,0,0-3.44-1.06,4.89,4.89,0,0,0-2.37.58c-1.92,1.13-2.82,3.5-2.82,6.18s1,5.76,3.34,7.26a5.92,5.92,0,0,0,3.29.9A4.42,4.42,0,0,0,69.79,128.28Z"/><path class="cls-3" d="M75.44,113.6c1,0,2.21.11,3.53.11,1.71,0,2.52-.06,3.15-.08.11.05.13.65,0,.73-.6.14-1,.21-1.31.32s-.5.47-.4,1c.53,2.26,2,7.41,2.87,10.52a.21.21,0,0,0,.1,0c1.14-3.1,3.29-9.21,4-11.76a5.46,5.46,0,0,0,1.4,0c.63,2.37,3.26,9.76,4.1,12,0,0,.1,0,.13,0,.71-2.18,2.45-7.86,2.92-10,.21-.89.24-1.5-.55-1.71-.42-.1-.82-.18-1.55-.29-.13-.1-.11-.68,0-.73.63,0,2,.08,3,.08,1.73,0,2.47-.08,3-.08a.85.85,0,0,1,0,.73,9.37,9.37,0,0,0-1.15.29c-.64.24-1,.58-1.37,1.63C96.25,119.36,93.91,126.83,93,130c-.24,0-1.11,0-1.34,0-.61-2.19-3.16-9.53-4.13-12.1a.18.18,0,0,0-.11,0c-1.18,3.29-3.34,9.34-4.18,12a6.7,6.7,0,0,0-1.34,0c-.79-3.24-2.92-11.13-3.76-13.71-.4-1.15-.66-1.52-1.34-1.71a10.85,10.85,0,0,0-1.4-.29C75.28,114.26,75.31,113.68,75.44,113.6Z"/><path class="cls-3" d="M112.4,130c-.77,0-2.32-.08-3.92-.08-2,0-3.29.08-4,.08a1.16,1.16,0,0,1,0-.76,14.63,14.63,0,0,0,1.87-.26c.84-.16,1-.69,1-1.9.08-2.05.11-7.68.11-12.05a.23.23,0,0,0-.19-.21c-.44,0-2.39,0-3.39,0a1.3,1.3,0,0,0-1.11.74,16.87,16.87,0,0,0-1,2.45,1.15,1.15,0,0,1-.82-.21,39.55,39.55,0,0,0,.53-4.34c0-.06.24-.13.29-.11a4.72,4.72,0,0,0,2.13.4h9.73a5.48,5.48,0,0,0,2.55-.4.46.46,0,0,1,.27.13,32.38,32.38,0,0,0-.61,4.45,1,1,0,0,1-.84,0,9.22,9.22,0,0,0-.42-2.34,1.07,1.07,0,0,0-1-.76c-1.23,0-3.07,0-3.68,0a.23.23,0,0,0-.13.21c0,3.87,0,11.15.08,12.5.08.92.29,1.23.89,1.39a10.56,10.56,0,0,0,1.79.29C112.58,129.33,112.53,129.91,112.4,130Z"/><path class="cls-3" d="M118,113.63c.63,0,1.94.08,3.36.08,1.77,0,2.56-.08,3.29-.08a1,1,0,0,1,0,.73c-.48.08-1,.16-1.27.24-.52.16-.71.37-.73,1.21s0,2.32,0,4.89c0,.11.05.24.13.27s.66,0,4.47,0c2.9,0,3.9,0,4.13,0,.08,0,.16-.11.16-.16,0-1.37,0-4.34-.05-5.29a.87.87,0,0,0-.53-.87,8,8,0,0,0-1.55-.29.77.77,0,0,1,0-.76c.6,0,1.89.11,3.28.11s2.84-.08,3.27-.08a1.08,1.08,0,0,1,0,.73,8.45,8.45,0,0,0-1.37.27c-.58.18-.69.47-.74,1.42s-.05,2.47-.05,5.6c0,2.29,0,5.18.05,6.08.08.73.24,1,.74,1.18a7.56,7.56,0,0,0,1.68.29c.08.1.05.68-.1.76-.79,0-2.19-.08-3.53-.08s-2.66.05-3.34.08a1,1,0,0,1,0-.76,8.14,8.14,0,0,0,1.5-.26c.47-.14.63-.4.68-1.21s0-3.63,0-5.29c0-.08-.08-.19-.16-.19-.5,0-2.73,0-4.18,0-2.05,0-4.21,0-4.47,0-.05,0-.08.14-.08.16,0,1.45,0,4.47,0,5,.05.89.15,1.26.81,1.44a10.85,10.85,0,0,0,1.58.32.9.9,0,0,1-.11.76c-.5,0-1.73-.08-3.41-.08s-3,.08-3.5.08a1.05,1.05,0,0,1,0-.76c.63-.08,1-.16,1.42-.24.76-.23.84-.71.92-1.92,0-.89,0-3.13,0-5.42,0-2.55,0-5.34,0-5.81-.06-.74-.22-1-.74-1.16a11.16,11.16,0,0,0-1.58-.29A.89.89,0,0,1,118,113.63Z"/><path class="cls-3" d="M167.76,113.63c.52,0,1.84.08,3.23.08h6.21a19.5,19.5,0,0,0,2.53-.14c.07,0,.1.11.13.16a20.86,20.86,0,0,0-.4,3.71.92.92,0,0,1-.84,0,11,11,0,0,0-.39-1.78,1.18,1.18,0,0,0-1.19-.9c-.92,0-3.81-.08-4.44,0-.19,0-.32.32-.32.47,0,1.53-.05,4.13-.05,6,0,.08.1.13.13.13,1.18,0,3.42,0,4.26,0a1.05,1.05,0,0,0,1-.84,5.22,5.22,0,0,0,.32-1.16,1.65,1.65,0,0,1,.89.08,26.06,26.06,0,0,0-.15,2.63c0,.92,0,1.79.05,2.52a1.2,1.2,0,0,1-.84.06,7.11,7.11,0,0,0-.32-1.16c-.16-.55-.45-.82-.92-.84-.95-.06-3.73-.08-4.34-.06-.08,0-.13.11-.13.14,0,1.6,0,3.78.05,4.89,0,.87.16,1.21.92,1.39.53.11,1.05.16,1.76.24a1,1,0,0,1,0,.76c-.84,0-2-.08-3.92-.08-1.6,0-2.47.08-3.39.08a.92.92,0,0,1,0-.76A9,9,0,0,0,169,129c.74-.19.87-.45.92-1.4s0-2.84,0-6c0-2.9,0-4.84-.06-5.66s-.1-1.1-.68-1.31a8.79,8.79,0,0,0-1.5-.27C167.63,114.28,167.68,113.71,167.76,113.63Z"/><path class="cls-3" d="M184.38,128a9.11,9.11,0,0,1-2.26-6.31,8.44,8.44,0,0,1,1.63-5.08,9,9,0,0,1,7-3.34c5.37,0,8.08,3.92,8.08,8.21a8.77,8.77,0,0,1-1.61,5.47,8.52,8.52,0,0,1-6.91,3.45A7.91,7.91,0,0,1,184.38,128Zm9.76.32c1.63-1.32,2.21-3.5,2.21-5.92,0-2.84-.95-5.58-3-7a5.83,5.83,0,0,0-3.44-1.06,4.89,4.89,0,0,0-2.37.58c-1.92,1.13-2.81,3.5-2.81,6.18s1,5.76,3.34,7.26a5.86,5.86,0,0,0,3.28.9A4.4,4.4,0,0,0,194.14,128.28Z"/><path class="cls-3" d="M201,113.63c.47,0,2.1.08,3.34.08s2.44-.08,3.1-.08a.85.85,0,0,1,0,.73c-.55.11-.92.14-1.24.24-.6.18-.76.47-.78,1.39-.06,2.58,0,6.13,0,7.53a7.42,7.42,0,0,0,.5,2.68c.53,1.47,2.05,2.66,4.55,2.66,2.19,0,4.32-.66,4.55-4.82.11-2,.16-4.94.06-7.62,0-1.32-.32-1.66-1.19-1.82-.37-.1-.76-.13-1.34-.24a.88.88,0,0,1,0-.73c.47,0,1.63.08,3.15.08,1.19,0,2.37-.08,2.82-.08.08.08.1.68,0,.73-.4.11-.82.16-1.11.27-.76.21-.92.68-.94,1.94-.16,5.4-.08,7.32-.53,9.16-.76,3.55-3.6,4.63-6.37,4.63-4.15,0-6-1.9-6.33-4.76-.21-1.66-.16-8.34-.21-9.68,0-.69-.19-1.11-.74-1.29a10,10,0,0,0-1.37-.27A.89.89,0,0,1,201,113.63Z"/><path class="cls-3" d="M219.28,113.63c.66,0,2,.08,3.29.08a11.69,11.69,0,0,0,1.18,0,6.32,6.32,0,0,0,.95,1.42c2.68,3.37,8.08,9.94,9.34,11.42a.07.07,0,0,0,.1,0c0-3.6,0-8.52-.1-10.42,0-.76-.21-1.18-1-1.39a11.49,11.49,0,0,0-1.76-.32,1,1,0,0,1,0-.73c.68,0,1.89.08,3.5.08.89,0,2.44-.08,2.78-.08a.85.85,0,0,1,0,.73,7.86,7.86,0,0,0-1.15.27c-.69.23-.85.71-.9,1.42-.16,2-.13,5.39-.21,10.36,0,1.21,0,2.74,0,3.6-.29,0-1.5,0-1.81,0-1.39-2-8.63-11-10.21-13,0,0-.1,0-.1,0,0,2.71,0,8.86,0,10.34.06,1,.4,1.42,1.08,1.58a9.23,9.23,0,0,0,1.58.26c.11.1,0,.66,0,.76-.63,0-1.82-.08-3.29-.08s-2.6.08-3.16.08a1.4,1.4,0,0,1,0-.76,7.47,7.47,0,0,0,1.4-.24c.6-.18.95-.52,1-1.55.1-1.37.18-5.66.23-11.18a1.42,1.42,0,0,0-.71-1.29,4.33,4.33,0,0,0-2.1-.58A1,1,0,0,1,219.28,113.63Z"/><path class="cls-3" d="M250.27,130c-.77,0-2.32-.08-3.92-.08-1.95,0-3.29.08-4,.08a1,1,0,0,1,0-.76,14.69,14.69,0,0,0,1.86-.26c.84-.16,1-.69,1-1.9.08-2.05.11-7.68.11-12.05a.23.23,0,0,0-.19-.21c-.44,0-2.39,0-3.39,0a1.27,1.27,0,0,0-1.1.74,15.68,15.68,0,0,0-1,2.45,1.16,1.16,0,0,1-.82-.21,37.26,37.26,0,0,0,.53-4.34c0-.06.24-.13.29-.11a4.72,4.72,0,0,0,2.13.4h9.73a5.48,5.48,0,0,0,2.55-.4.46.46,0,0,1,.27.13,32.38,32.38,0,0,0-.61,4.45,1,1,0,0,1-.84,0,9.22,9.22,0,0,0-.42-2.34,1.07,1.07,0,0,0-1-.76c-1.23,0-3.07,0-3.68,0a.23.23,0,0,0-.13.21c0,3.87,0,11.15.08,12.5.08.92.29,1.23.89,1.39a10.56,10.56,0,0,0,1.79.29C250.45,129.33,250.4,129.91,250.27,130Z"/><path class="cls-3" d="M255.45,126.75c1.34-3.18,3.81-9.89,4.39-11.57a8.81,8.81,0,0,0,.45-1.5c.1,0,.42,0,.87,0s.78,0,.86,0c.11.39.24.87.42,1.37.53,1.5,3.45,9.83,4.37,12,.76,1.76.95,1.89,2.84,2.13.11.08,0,.66,0,.76-.69,0-2-.08-3.21-.08s-2.89.05-3.45.08a1,1,0,0,1,0-.76,8.26,8.26,0,0,0,1.44-.29.48.48,0,0,0,.29-.66c-.31-1.13-1.1-3.34-1.57-4.52a.43.43,0,0,0-.24-.19c-.37,0-1.29,0-2.47,0-1.69,0-1.87,0-2.19,0-.1,0-.23.16-.26.24A32,32,0,0,0,256.5,128c0,.45,0,.74.84,1a9.11,9.11,0,0,0,1.26.21,1.24,1.24,0,0,1-.05.76c-.55,0-1.89-.08-3.37-.08s-2.31.08-2.81.08a1,1,0,0,1,0-.76C254.26,129,254.58,128.78,255.45,126.75Zm5-10.31c-.45,1.32-1.52,4.29-2,5.68,0,.11,0,.16.1.19.27,0,1.11,0,2.11,0,.63,0,1.5,0,1.76,0a.15.15,0,0,0,.08-.21c-.53-1.63-1.53-4.55-1.95-5.68C260.58,116.42,260.5,116.39,260.47,116.44Z"/><path class="cls-3" d="M270,113.63c.56,0,2.06.08,3.42.08s2.61-.08,3.27-.08a1.21,1.21,0,0,1,0,.73c-.58.08-1,.14-1.34.21-.6.16-.71.5-.76,1.32-.08,1.1,0,3.31,0,5.6,0,2.61,0,5.13,0,6.05,0,.76.13,1.21.92,1.4a12.94,12.94,0,0,0,1.55.26,1,1,0,0,1-.05.76c-.63,0-2.11-.08-3.4-.08-1.49,0-2.81.08-3.65.08-.13-.08-.13-.68,0-.76a7.27,7.27,0,0,0,1.34-.21c.77-.16.87-.53.92-1.13s.11-3.45.11-6.89c0-2.16,0-3.87-.08-5.11,0-.65-.1-1-.66-1.21a11.26,11.26,0,0,0-1.6-.29C269.91,114.26,270,113.71,270,113.63Z"/><path class="cls-3" d="M278.28,113.63c.65,0,2,.08,3.28.08.53,0,1,0,1.19,0a5.61,5.61,0,0,0,.95,1.42c2.68,3.37,8.07,9.94,9.33,11.42a.09.09,0,0,0,.11,0c0-3.6,0-8.52-.11-10.42,0-.76-.21-1.18-1-1.39a11.49,11.49,0,0,0-1.76-.32,1,1,0,0,1,0-.73c.68,0,1.89.08,3.5.08.89,0,2.45-.08,2.79-.08a.93.93,0,0,1,0,.73,7.72,7.72,0,0,0-1.16.27c-.68.23-.84.71-.89,1.42-.16,2-.14,5.39-.21,10.36,0,1.21,0,2.74.05,3.6-.29,0-1.5,0-1.82,0-1.39-2-8.62-11-10.2-13,0,0-.11,0-.11,0-.05,2.71-.05,8.86,0,10.34.05,1,.39,1.42,1.08,1.58a9.06,9.06,0,0,0,1.58.26c.1.1,0,.66-.06.76-.63,0-1.81-.08-3.29-.08s-2.6.08-3.15.08a1.23,1.23,0,0,1,0-.76,7.21,7.21,0,0,0,1.39-.24c.61-.18.95-.52,1-1.55.11-1.37.19-5.66.24-11.18a1.42,1.42,0,0,0-.71-1.29,4.37,4.37,0,0,0-2.11-.58A1,1,0,0,1,278.28,113.63Z"/><path class="cls-3" d="M73.41,141.19c.52,0,1.21.06,1.93.06.93,0,1.38,0,1.72-.05a.45.45,0,0,1,0,.41c-.33.07-.53.11-.72.17s-.27.26-.21.56c.28,1.24,1.08,4.06,1.56,5.75h.06c.62-1.7,1.8-5,2.19-6.43a3.22,3.22,0,0,0,.76,0c.34,1.3,1.78,5.34,2.24,6.54,0,0,.06,0,.07,0,.39-1.19,1.34-4.3,1.6-5.48.12-.49.13-.82-.3-.93a7.77,7.77,0,0,0-.85-.16.45.45,0,0,1,0-.41c.35,0,1.08.05,1.67.05,1,0,1.35-.05,1.65-.05a.49.49,0,0,1,0,.41,4.31,4.31,0,0,0-.63.16c-.35.13-.53.31-.75.89-.62,1.68-1.9,5.76-2.41,7.52h-.74c-.33-1.19-1.72-5.2-2.25-6.61a.07.07,0,0,0-.06,0c-.65,1.79-1.83,5.1-2.29,6.57a3.57,3.57,0,0,0-.73,0c-.43-1.77-1.6-6.08-2.06-7.49-.21-.63-.36-.83-.73-.93a4.72,4.72,0,0,0-.76-.16C73.32,141.55,73.34,141.23,73.41,141.19Z"/><path class="cls-3" d="M88.92,142.8c.28,0,.87,0,1.51,0s1.14,0,1.48,0a.46.46,0,0,1,0,.33l-.56.1c-.24.07-.32.17-.33.55s0,1,0,2.19a.14.14,0,0,0,.06.12c.09,0,.3,0,2,0l1.85,0S95,146,95,146c0-.61,0-2,0-2.37a.39.39,0,0,0-.23-.39,3.13,3.13,0,0,0-.7-.13.36.36,0,0,1,0-.35c.27,0,.85.05,1.48.05s1.27,0,1.46,0a.42.42,0,0,1,0,.33,3.11,3.11,0,0,0-.61.12c-.26.08-.31.21-.33.63s0,1.11,0,2.52c0,1,0,2.32,0,2.72s.1.46.33.54a4.23,4.23,0,0,0,.75.13s0,.3,0,.34c-.35,0-1,0-1.58,0s-1.19,0-1.5,0a.5.5,0,0,1,0-.34,3.87,3.87,0,0,0,.68-.12c.21-.06.28-.18.3-.55s0-1.62,0-2.37c0,0,0-.08-.07-.08H91s0,.06,0,.07c0,.65,0,2,0,2.25,0,.41.07.57.36.65a4.85,4.85,0,0,0,.71.15c.05.05,0,.31,0,.34-.22,0-.78,0-1.53,0s-1.34,0-1.57,0a.45.45,0,0,1,0-.34l.63-.11c.35-.11.38-.32.42-.86s0-1.41,0-2.43,0-2.4,0-2.61-.1-.46-.33-.52a3.8,3.8,0,0,0-.71-.13A.38.38,0,0,1,88.92,142.8Z"/><path class="cls-3" d="M100.09,142.78c.29,0,.9.05,1.57.05H104a11.89,11.89,0,0,0,1.31-.05l0,.06a10.64,10.64,0,0,0-.21,1.62.48.48,0,0,1-.37,0,4.55,4.55,0,0,0-.13-.72c-.09-.28-.2-.41-.59-.44-.22,0-1.65,0-1.81,0s-.14.16-.14.22c0,.66,0,2,0,2.5,0,0,0,.09.06.09.47,0,1.38,0,1.81,0a.41.41,0,0,0,.4-.35c0-.13.09-.3.13-.47a.52.52,0,0,1,.39,0,7.63,7.63,0,0,0-.09,1.11c0,.44,0,.78,0,1.08a.51.51,0,0,1-.4,0,2.56,2.56,0,0,0-.1-.49.41.41,0,0,0-.4-.34c-.35,0-1.33,0-1.77,0,0,0-.06.06-.06.09,0,.54,0,1.8,0,2.36a.45.45,0,0,0,.28.45,14.29,14.29,0,0,0,1.74.07.92.92,0,0,0,.88-.39,4.75,4.75,0,0,0,.59-1,.65.65,0,0,1,.34.13,8,8,0,0,1-.5,1.62c-.07.13-.14.19-.73.19-1,0-1.84,0-3.07,0-.79,0-1.38,0-1.86,0a.44.44,0,0,1,0-.34,6.6,6.6,0,0,0,.9-.12c.29-.07.37-.23.4-.64,0-.22,0-1.52,0-2.86,0-1.07,0-2.12,0-2.33,0-.43-.07-.54-.35-.61a4.15,4.15,0,0,0-.63-.11C100,143.07,100,142.84,100.09,142.78Z"/><path class="cls-3" d="M108.84,142.8l1.36,0,2,0a1.86,1.86,0,0,1,2.11,1.82,2,2,0,0,1-1.34,1.9s0,.06,0,.08a19.12,19.12,0,0,0,1.92,2.55,1.73,1.73,0,0,0,1.36.65s0,.31-.07.33a5.12,5.12,0,0,1-1.89-.22,1.69,1.69,0,0,1-.57-.48c-.45-.53-1.17-1.71-1.62-2.35a.39.39,0,0,0-.29-.17,7.85,7.85,0,0,0-.84,0s0,.06,0,.08c0,.64,0,1.74,0,2.13s.1.51.37.57l.67.11a.38.38,0,0,1,0,.34c-.22,0-.79,0-1.57,0s-1.27,0-1.5,0a.34.34,0,0,1,0-.34c.26,0,.45-.06.6-.1s.38-.2.41-.65c0-.27,0-1.88,0-2.52,0-1.21,0-2.39,0-2.76s-.1-.47-.39-.54-.4-.07-.64-.09A.41.41,0,0,1,108.84,142.8Zm2.13.47a.25.25,0,0,0-.08.18c0,.4,0,2,0,2.92a.06.06,0,0,0,.06.06,4.68,4.68,0,0,0,1.52-.09,1.42,1.42,0,0,0,.77-1.37,1.59,1.59,0,0,0-1.83-1.76A1.27,1.27,0,0,0,111,143.27Z"/><path class="cls-3" d="M118.38,142.78c.3,0,.91.05,1.57.05h2.33a11.89,11.89,0,0,0,1.31-.05l0,.06a12,12,0,0,0-.22,1.62c0,.06-.33.06-.36,0a6.12,6.12,0,0,0-.13-.72.55.55,0,0,0-.59-.44c-.23,0-1.66,0-1.81,0s-.14.16-.14.22c0,.66,0,2,0,2.5,0,0,0,.09.06.09.47,0,1.38,0,1.8,0a.41.41,0,0,0,.4-.35,2.65,2.65,0,0,0,.13-.47c.07,0,.35,0,.39,0a9.68,9.68,0,0,0-.08,1.11c0,.44,0,.78,0,1.08a.5.5,0,0,1-.4,0,2,2,0,0,0-.09-.49.41.41,0,0,0-.4-.34c-.36,0-1.34,0-1.77,0,0,0-.06.06-.06.09,0,.54,0,1.8,0,2.36a.46.46,0,0,0,.27.45,14.56,14.56,0,0,0,1.75.07.9.9,0,0,0,.87-.39,4.38,4.38,0,0,0,.59-1,.68.68,0,0,1,.35.13,8,8,0,0,1-.5,1.62c-.07.13-.14.19-.73.19-1,0-1.84,0-3.07,0-.79,0-1.38,0-1.87,0a.44.44,0,0,1,0-.34,6.6,6.6,0,0,0,.9-.12c.28-.07.36-.23.4-.64,0-.22,0-1.52,0-2.86,0-1.07,0-2.12,0-2.33,0-.43-.07-.54-.35-.61a4.67,4.67,0,0,0-.63-.11C118.31,143.07,118.33,142.84,118.38,142.78Z"/><path class="cls-3" d="M136.3,141.82a4.22,4.22,0,0,0-1.79-.31c-2.08,0-3.28,1.54-3.28,4s1.28,4.24,3.84,4.24a2.42,2.42,0,0,0,1.59-.49,5.25,5.25,0,0,0,1.07-1.41.55.55,0,0,1,.35.23A4.48,4.48,0,0,1,137,150a7.4,7.4,0,0,1-2.2.36c-3.21,0-5-1.75-5-4.74a4.36,4.36,0,0,1,2.28-4A5.92,5.92,0,0,1,135,141a24.71,24.71,0,0,1,2.84.29,17.28,17.28,0,0,0-.23,2.21c-.06.06-.44.1-.45,0C137,142.37,136.83,142.08,136.3,141.82Z"/><path class="cls-3" d="M142.05,148.69c.6-1.43,1.71-4.44,2-5.2a3.44,3.44,0,0,0,.2-.67H145c.05.18.11.39.19.61.23.68,1.54,4.42,2,5.4.34.79.42.85,1.27,1,.05,0,0,.29,0,.34-.31,0-.91,0-1.44,0s-1.3,0-1.55,0c0,0-.06-.3,0-.34a5.71,5.71,0,0,0,.65-.13.23.23,0,0,0,.13-.3c-.14-.51-.5-1.5-.71-2a.15.15,0,0,0-.11-.08h-2.08c-.05,0-.11.07-.12.1a13.64,13.64,0,0,0-.64,1.92c0,.2,0,.33.38.42a4.47,4.47,0,0,0,.56.1.5.5,0,0,1,0,.34c-.25,0-.85,0-1.51,0s-1,0-1.26,0a.4.4,0,0,1,0-.34C141.52,149.68,141.66,149.6,142.05,148.69Zm2.25-4.63c-.2.59-.68,1.92-.88,2.55,0,0,0,.07,0,.08h1.74a.06.06,0,0,0,0-.09c-.23-.73-.68-2-.87-2.55C144.35,144.05,144.31,144,144.3,144.06Z"/><path class="cls-3" d="M153.26,146.86a.14.14,0,0,1,.05-.11,2.71,2.71,0,0,0,.46,0,1.73,1.73,0,0,0,.83-.18,1.59,1.59,0,0,0,.72-1.52,1.7,1.7,0,0,0-1.89-1.88,1.56,1.56,0,0,0-.5.06.24.24,0,0,0-.09.16c0,.28,0,.89,0,2.8,0,1.35,0,2.24,0,2.85,0,.42.11.52.44.6a6.76,6.76,0,0,0,.71.11c.05,0,0,.3,0,.34-.34,0-1.17,0-1.63,0s-1.28,0-1.55,0a.54.54,0,0,1,0-.33c.25,0,.48-.06.63-.1s.34-.21.36-.68,0-1.37,0-2.65,0-2.16,0-2.52-.1-.56-.43-.63a4.79,4.79,0,0,0-.58-.09.46.46,0,0,1,0-.33c.19,0,.83,0,1.39,0l1.91,0a2.67,2.67,0,0,1,1.57.45,1.92,1.92,0,0,1,.73,1.59,2.19,2.19,0,0,1-1.25,2.05,2.6,2.6,0,0,1-1.24.3,1.49,1.49,0,0,1-.5-.06A.54.54,0,0,1,153.26,146.86Z"/><path class="cls-3" d="M159.46,142.8c.25,0,.92,0,1.53,0s1.17,0,1.47,0a.61.61,0,0,1,0,.33l-.6.09c-.27.07-.32.23-.35.59s0,1.49,0,2.52,0,2.3,0,2.71.06.54.42.63c.16,0,.41.08.69.12a.41.41,0,0,1,0,.34c-.28,0-.94,0-1.52,0s-1.27,0-1.64,0a.37.37,0,0,1,0-.34,3.72,3.72,0,0,0,.6-.1c.34-.07.39-.24.41-.51s.05-1.54.05-3.09c0-1,0-1.74,0-2.29,0-.29-.05-.47-.29-.54a3.94,3.94,0,0,0-.72-.13A.42.42,0,0,1,159.46,142.8Z"/><path class="cls-3" d="M170.54,150.13c-.34,0-1,0-1.76,0-.87,0-1.47,0-1.78,0a.5.5,0,0,1,0-.34c.37,0,.66-.08.84-.12.38-.07.44-.31.45-.85,0-.92.05-3.45.05-5.41a.1.1,0,0,0-.09-.09c-.2,0-1.07,0-1.52,0a.58.58,0,0,0-.5.33,7.92,7.92,0,0,0-.46,1.09.47.47,0,0,1-.36-.09,18.19,18.19,0,0,0,.23-2s.11-.06.13,0a2.12,2.12,0,0,0,1,.18h4.37a2.35,2.35,0,0,0,1.14-.18.2.2,0,0,1,.12.06,15.2,15.2,0,0,0-.27,2,.46.46,0,0,1-.38,0,3.66,3.66,0,0,0-.19-1.05.46.46,0,0,0-.46-.34c-.55,0-1.38,0-1.65,0a.1.1,0,0,0-.06.09c0,1.74,0,5,0,5.61,0,.41.13.55.4.63a6,6,0,0,0,.8.13C170.63,149.84,170.6,150.1,170.54,150.13Z"/><path class="cls-3" d="M176.07,148.69c.6-1.43,1.71-4.44,2-5.2a3.44,3.44,0,0,0,.2-.67H179a5.16,5.16,0,0,0,.19.61c.23.68,1.54,4.42,2,5.4.34.79.42.85,1.27,1,.05,0,0,.29,0,.34-.31,0-.91,0-1.44,0s-1.3,0-1.55,0c0,0-.06-.3,0-.34a5.71,5.71,0,0,0,.65-.13.23.23,0,0,0,.13-.3c-.14-.51-.5-1.5-.71-2a.15.15,0,0,0-.11-.08h-2.09s-.1.07-.11.1a13.64,13.64,0,0,0-.64,1.92c0,.2,0,.33.38.42a4.47,4.47,0,0,0,.56.1.5.5,0,0,1,0,.34c-.25,0-.85,0-1.51,0s-1,0-1.26,0a.4.4,0,0,1,0-.34C175.54,149.68,175.68,149.6,176.07,148.69Zm2.25-4.63c-.2.59-.68,1.92-.88,2.55,0,0,0,.07,0,.08h1.74a.06.06,0,0,0,0-.09c-.23-.73-.68-2-.87-2.55C178.37,144.05,178.33,144,178.32,144.06Z"/><path class="cls-3" d="M184.81,142.8c.35,0,.74,0,1.51,0s1.23,0,1.47,0a.32.32,0,0,1,0,.33,4.84,4.84,0,0,0-.6.1c-.29.07-.31.23-.32.48,0,.42,0,1.44,0,2.55,0,1.46,0,2.44,0,3a.39.39,0,0,0,.22.33,10.81,10.81,0,0,0,2,.09.82.82,0,0,0,.7-.44,6.56,6.56,0,0,0,.7-1.29.45.45,0,0,1,.35.13,9.85,9.85,0,0,1-.61,2c0,.09-.17.15-.49.15-.75,0-2.78-.06-3.39-.06s-1.45,0-1.68,0c0,0-.06-.31,0-.34a7.67,7.67,0,0,0,.78-.11c.26-.07.34-.2.36-.49s.05-1.47.05-3c0-1.25,0-2,0-2.26,0-.49-.06-.62-.38-.69-.16,0-.44-.08-.65-.1A.38.38,0,0,1,184.81,142.8Z"/><path class="cls-3" d="M195.89,141.2c.29,0,1,.05,1.77.05h3.39a11.5,11.5,0,0,0,1.38-.07s.06,0,.08.08a11.61,11.61,0,0,0-.22,2,.53.53,0,0,1-.46,0,5.22,5.22,0,0,0-.22-1,.63.63,0,0,0-.64-.49c-.51,0-2.09,0-2.43,0a.3.3,0,0,0-.18.26c0,.84,0,2.26,0,3.25,0,0,0,.07.07.07.64,0,1.87,0,2.33,0a.56.56,0,0,0,.57-.46,3.46,3.46,0,0,0,.18-.63,1,1,0,0,1,.48,0,14.12,14.12,0,0,0-.08,1.44c0,.51,0,1,0,1.38a.66.66,0,0,1-.46,0,3.93,3.93,0,0,0-.18-.63c-.08-.3-.24-.45-.5-.46-.52,0-2,0-2.37,0,0,0-.07.06-.07.07,0,.88,0,2.07,0,2.68s.09.66.51.76a9.37,9.37,0,0,0,1,.13.56.56,0,0,1,0,.42c-.46,0-1.1,0-2.15,0-.87,0-1.35,0-1.85,0a.51.51,0,0,1,0-.42,4.32,4.32,0,0,0,.76-.12c.4-.1.48-.24.5-.76s0-1.55,0-3.28,0-2.64,0-3.09-.06-.6-.37-.72a4.68,4.68,0,0,0-.82-.14C195.82,141.56,195.85,141.25,195.89,141.2Z"/><path class="cls-3" d="M205.68,142.8c.35,0,.74,0,1.52,0s1.22,0,1.46,0a.32.32,0,0,1,0,.33,4.84,4.84,0,0,0-.6.1c-.29.07-.31.23-.32.48,0,.42,0,1.44,0,2.55,0,1.46,0,2.44,0,3a.39.39,0,0,0,.22.33,10.86,10.86,0,0,0,2,.09.82.82,0,0,0,.7-.44,6.56,6.56,0,0,0,.7-1.29.45.45,0,0,1,.35.13,9.85,9.85,0,0,1-.61,2c0,.09-.17.15-.49.15-.75,0-2.78-.06-3.38-.06s-1.46,0-1.69,0c0,0-.06-.31,0-.34a7.67,7.67,0,0,0,.78-.11c.26-.07.34-.2.36-.49s0-1.47,0-3c0-1.25,0-2,0-2.26,0-.49-.06-.62-.38-.69-.16,0-.44-.08-.65-.1A.38.38,0,0,1,205.68,142.8Z"/><path class="cls-3" d="M215.69,149.23a4.14,4.14,0,0,1-1-2.83,3.78,3.78,0,0,1,.73-2.28,4,4,0,0,1,3.15-1.5,3.48,3.48,0,0,1,3.63,3.68,4,4,0,0,1-.72,2.46,3.84,3.84,0,0,1-3.11,1.54A3.58,3.58,0,0,1,215.69,149.23Zm4.38.14a3.24,3.24,0,0,0,1-2.65,3.78,3.78,0,0,0-1.36-3.16,2.69,2.69,0,0,0-1.55-.47,2.19,2.19,0,0,0-1.06.26,3.08,3.08,0,0,0-1.26,2.78,3.83,3.83,0,0,0,1.5,3.25,2.62,2.62,0,0,0,1.47.41A2,2,0,0,0,220.07,149.37Z"/><path class="cls-3" d="M224.82,142.78c.42,0,1,.05,1.58.05l1.42,0s.06.29,0,.33c-.27.06-.44.09-.59.14s-.23.21-.18.46c.24,1,.89,3.33,1.29,4.72h0c.51-1.39,1.48-4.13,1.8-5.28a2.15,2.15,0,0,0,.62,0c.29,1.07,1.47,4.38,1.85,5.37,0,0,0,0,0,0,.32-1,1.1-3.53,1.32-4.5.09-.4.1-.67-.25-.76a4.68,4.68,0,0,0-.7-.13c-.06,0,0-.31,0-.33.28,0,.89,0,1.37,0,.78,0,1.11,0,1.36,0a.47.47,0,0,1,0,.33,2.58,2.58,0,0,0-.52.13c-.29.1-.44.26-.62.73-.5,1.38-1.55,4.73-2,6.17h-.6c-.27-1-1.42-4.27-1.85-5.43a.09.09,0,0,0,0,0c-.53,1.47-1.5,4.19-1.88,5.39a4,4,0,0,0-.6,0c-.35-1.45-1.31-5-1.69-6.15-.18-.51-.29-.68-.6-.76a3.43,3.43,0,0,0-.63-.13S224.76,142.82,224.82,142.78Z"/><path class="cls-3" d="M239.37,149.55a2,2,0,0,0,1.16.32,1.19,1.19,0,0,0,1.26-1.24c0-.78-.48-1.15-1.54-1.77s-1.76-1.18-1.76-2.25a2.07,2.07,0,0,1,2.32-2,12.66,12.66,0,0,1,1.8.2,14.22,14.22,0,0,0-.2,1.63c0,.07-.31.07-.34,0-.08-.7-.18-1-.46-1.21a1.63,1.63,0,0,0-1-.25,1.19,1.19,0,0,0-1.24,1.2,1.52,1.52,0,0,0,.8,1.35c.47.3,1.06.59,1.47.82a2,2,0,0,1,1.13,1.75,2.33,2.33,0,0,1-2.62,2.18,4.37,4.37,0,0,1-1.7-.36,8.63,8.63,0,0,1-.33-1.77c0-.07.3-.14.36-.11A2.61,2.61,0,0,0,239.37,149.55Z"/><line class="cls-4" x1="23.48" y1="146.17" x2="62.12" y2="146.17"/><polygon class="cls-5" points="23.48 146.25 23.48 146.09 62.12 146.09 62.12 146.25 23.48 146.25 23.48 146.25"/><line class="cls-4" x1="256.36" y1="146.49" x2="295" y2="146.49"/><polygon class="cls-5" points="256.36 146.57 256.36 146.41 295 146.41 295 146.57 256.36 146.57 256.36 146.57"/></g></svg>