<svg id="Logos" xmlns="http://www.w3.org/2000/svg" viewBox="0 0 320 240"><defs><style>.cls-1{fill:#010101;}.cls-2{fill:#00b1b2;}</style></defs><title>logo-card-august-jackson</title><g id="logo-august-jackson"><path class="cls-1" d="M170.22,164.62c5.66-1.18,6.51-5.23,6.49-10.06-.07-18.17,0-36.35-.07-54.53,0-2.1.33-3.06,2.73-2.86a83.3,83.3,0,0,0,8.8,0c1.32,0,2,.12,2,1.78-.07,17.33,0,34.65-.1,52,0,4.74-3,8-6.76,10.51A20.73,20.73,0,0,1,170.22,164.62Z"/><path class="cls-1" d="M147.72,96.1c5.28.61,9.58,1.45,13.13,4.44a12.61,12.61,0,0,1,4.81,10.1c0,7.47-.06,14.94,0,22.42,0,2.58.1,5.39,3.79,5.9-7.68,4-17.2-1.5-17.32-9.94-.11-8.13-.07-16.27,0-24.4C152.2,101.25,151.79,98.19,147.72,96.1Z"/><path class="cls-1" d="M146.7,116.71c-4.75,5.75-5.52,18.88-1.44,23a16.8,16.8,0,0,1-6.7.4c-4.84-.94-8.08-3.6-9-8.5s1-8.66,4.84-11.56C138,117.37,142.27,117.17,146.7,116.71Z"/><path class="cls-1" d="M159.41,154.83a7.15,7.15,0,0,1,7.1-7,7.28,7.28,0,0,1,7.11,7.3,7.12,7.12,0,0,1-7.31,7A7,7,0,0,1,159.41,154.83Z"/><path class="cls-1" d="M145.76,107.73a7.12,7.12,0,1,1-7.21-7.1A7,7,0,0,1,145.76,107.73Z"/><path class="cls-2" d="M183.41,89.43a6.77,6.77,0,0,1-6.95-7,7,7,0,0,1,6.85-7.15,7.24,7.24,0,0,1,7.34,7.06A7,7,0,0,1,183.41,89.43Z"/></g></svg>