<svg id="Logos" xmlns="http://www.w3.org/2000/svg" viewBox="0 0 320 240"><defs><style>.cls-1{fill:#f47a20;}.cls-2{fill:#493291;}</style></defs><title>logo-card-fed-ex-express</title><g id="logo-fed-ex-express"><path class="cls-1" d="M280.44,140.57a5.9,5.9,0,1,0-5.89,6,5.79,5.79,0,0,0,5.89-6m-7.44.3v4h-1.28v-8.72h3.18c1.85,0,2.71.81,2.71,2.4a1.82,1.82,0,0,1-1.51,1.86v0c.73.12,1,.78,1.16,2a8,8,0,0,0,.55,2.44h-1.52a27.83,27.83,0,0,1-.58-2.94,1.29,1.29,0,0,0-1.47-1Zm1.58-1.12c1.24,0,1.59-.66,1.59-1.24s-.35-1.24-1.59-1.24H273v2.48Zm-7.33.82a7.29,7.29,0,1,1,7.3,7.21,7.15,7.15,0,0,1-7.3-7.21"/><polygon class="cls-1" points="241.99 146.52 233.59 137.1 225.26 146.52 207.74 146.52 224.87 127.28 207.74 108.03 225.81 108.03 234.29 117.38 242.46 108.03 259.91 108.03 242.86 127.2 260.14 146.52 241.99 146.52"/><polygon class="cls-1" points="174.08 146.52 174.08 85.88 207.74 85.88 207.74 99.4 188.34 99.4 188.34 108.03 207.74 108.03 207.74 121.03 188.34 121.03 188.34 132.97 207.74 132.97 207.74 146.52 174.08 146.52"/><path class="cls-2" d="M159.88,85.88V110.7h-.15c-3.15-3.61-7.08-4.87-11.63-4.87-9.34,0-16.37,6.34-18.84,14.74-2.82-9.25-10.08-14.91-20.84-14.91-8.74,0-15.64,3.92-19.25,10.31V108H71.1V99.4H90.82V85.88H55v60.64H71.1V121H87.16a24.11,24.11,0,0,0-.74,6c0,12.65,9.67,21.52,22,21.52,10.37,0,17.21-4.87,20.82-13.74h-13.8c-1.87,2.66-3.29,3.46-7,3.46a8.3,8.3,0,0,1-8.06-8.26h28.11c1.22,10.05,9.05,18.72,19.78,18.72a13.77,13.77,0,0,0,11.48-6.13h.15v3.92h14.2V85.88Zm-59.07,35.33a7.77,7.77,0,0,1,7.61-6.37,7.41,7.41,0,0,1,7.69,6.37Zm50.45,16.08c-5.23,0-8.49-4.88-8.49-10,0-5.44,2.84-10.67,8.49-10.67,5.87,0,8.2,5.23,8.2,10.67,0,5.17-2.47,10-8.2,10"/><polygon class="cls-2" points="174.08 176.84 174.08 155.11 186.09 155.11 186.09 156.74 176.06 156.74 176.06 164.75 185.66 164.75 185.66 166.37 176.06 166.37 176.06 175.22 186.53 175.22 186.53 176.84 174.08 176.84"/><polygon class="cls-2" points="187.97 176.84 193.83 169.04 188.27 161.66 190.52 161.66 195.05 167.69 199.49 161.66 201.74 161.66 196.1 169.04 201.98 176.84 199.7 176.84 194.84 170.39 190.22 176.84 187.97 176.84"/><path class="cls-2" d="M205.8,182.54H204V166.19c0-1.5,0-3-.1-4.53h1.81l.06,2.28a5.27,5.27,0,0,1,4.89-2.64c4.68,0,6.69,3.87,6.69,7.95s-2,7.95-6.69,7.95a5.31,5.31,0,0,1-4.83-2.55Zm9.57-13.29c0-3.24-1.35-6.42-5-6.42-3.39,0-4.62,2.79-4.62,6.42s1.23,6.42,4.62,6.42c3.6,0,5-3.18,5-6.42"/><path class="cls-2" d="M226.73,163.06c-3,0-4.08,2.56-4.08,5.2v8.59h-1.83V166.13c0-1.47,0-3-.09-4.47h1.8l.12,2.19a4.58,4.58,0,0,1,4.41-2.55,7.91,7.91,0,0,1,.84.06v1.83a7.62,7.62,0,0,0-1.17-.13"/><path class="cls-2" d="M230.15,169.58c0,3.42,1.62,6.24,4.95,6.24a4.18,4.18,0,0,0,4.23-3.42h1.74c-.81,3.18-2.76,4.8-6.21,4.8-4.62,0-6.67-3.42-6.67-7.68s2.13-8.22,6.91-8.22,6.12,4.23,6.12,8.28Zm0-1.38h9.07c0-3-1.41-5.52-4.29-5.52-2.61,0-4.42,2-4.78,5.52"/><path class="cls-2" d="M248.37,177.2c-3.12,0-5.46-1.47-5.46-4.8h1.83c0,2.28,1.5,3.42,3.72,3.42,2.07,0,3.69-1,3.69-3,0-1.83-1.89-2.31-3.87-2.88-2.4-.69-5-1.44-5-4.38,0-3.27,2.73-4.23,5.28-4.23,2.94,0,5.13,1.14,5.22,4.29h-1.83c-.09-1.8-1.38-2.82-3.33-2.82-1.53,0-3.39.6-3.39,2.58,0,1.8,1.86,2.31,3.84,2.85,2.4.66,5,1.38,5,4.32,0,3.42-2.64,4.68-5.73,4.68"/><path class="cls-2" d="M261.06,177.2c-3.12,0-5.46-1.47-5.46-4.8h1.83c0,2.28,1.5,3.42,3.72,3.42s3.69-1,3.69-3c0-1.83-1.89-2.31-3.87-2.88-2.4-.69-5-1.44-5-4.38,0-3.27,2.73-4.23,5.28-4.23,2.94,0,5.13,1.14,5.23,4.29h-1.84c-.08-1.8-1.38-2.82-3.33-2.82-1.53,0-3.39.6-3.39,2.58,0,1.8,1.86,2.31,3.84,2.85,2.4.66,5.05,1.38,5.05,4.32,0,3.42-2.65,4.68-5.74,4.68"/></g></svg>