<svg id="Logos" xmlns="http://www.w3.org/2000/svg" viewBox="0 0 320 240"><defs><style>.cls-1{fill:#3f3a36;}.cls-2{fill:#d9282e;}</style></defs><title>logo-card-barker-nyc</title><g id="logo-barkernyc"><path class="cls-1" d="M79.22,106.33a10.44,10.44,0,0,0-9.63,5.46V94.08L55.08,95.54v5.1l4.74,2V143h9.05l.43-4.3h.29a10.6,10.6,0,0,0,9.63,5.4c6,0,12.11-5.1,12.11-18.88s-6.06-18.9-12.11-18.9M75.28,134.7c-3.79,0-5.84-3.21-5.84-9.47s2-9.48,5.84-9.48,5.84,3.21,5.84,9.48-2.05,9.47-5.84,9.47"/><path class="cls-1" d="M121.46,136.31V119.53c0-10.58-5.26-13.2-13.13-13.2a31.75,31.75,0,0,0-12.47,2.77l1.89,7.29a19.55,19.55,0,0,1,7.15-1.53c4.09,0,6.78,1.32,6.78,6.27v2c-1.31-1.53-3.94-2.56-7.22-2.56-5.54,0-11.09,3.5-11.09,11.89,0,7.44,5,11.67,10.43,11.67a8.49,8.49,0,0,0,7.87-4.82H112l.8,3.73h12.55V137.9Zm-13.79,0c-2.33,0-4.09-1.82-4.09-4.67s1.76-4.66,4.09-4.66,4.16,1.83,4.16,4.66-1.83,4.67-4.16,4.67"/><path class="cls-1" d="M219.26,125.37c0-12.33-5.54-19-14.51-19-9.7,0-15,6.56-15,18.89s6.27,18.89,15.68,18.89A16.08,16.08,0,0,0,218.6,137l-5.25-4.6c-1.9,2.62-5,4.37-7.3,4.37-3.72,0-5.54-2.4-6-8.53h19.18v-2.91Zm-19.18-3.58c.29-7.07,1.68-8.53,4.6-8.53s4.66,1.89,4.66,8.53Z"/><polygon class="cls-1" points="167.48 94.08 152.97 95.53 152.97 100.64 157.71 102.61 157.71 136.31 152.97 137.91 152.97 143.01 171.49 143.01 171.49 137.91 167.48 136.31 167.48 94.08"/><polygon class="cls-1" points="186.08 136.52 178.35 121.93 184.33 114.14 188.63 112.53 188.63 107.49 171.19 107.49 171.19 112.53 175.21 113.77 168.28 122.81 178.2 143.01 188.99 143.01 188.99 137.91 186.08 136.52"/><path class="cls-1" d="M142.24,136.31V118.07a7.66,7.66,0,0,1,5.47-2.4,11.38,11.38,0,0,1,2.63.36l1.82.51,2-9.19a14,14,0,0,0-4.81-1c-3.8,0-5.26,2.25-7.15,5.46H142l-.8-5-13.42,1.39v5.11l4.73,2v21.08l-4.73,1.6V143h20.71v-5.1Z"/><path class="cls-1" d="M235.67,136.31V118.07a7.66,7.66,0,0,1,5.47-2.4,11.44,11.44,0,0,1,2.63.36l1.81.51,2-9.19a14,14,0,0,0-4.82-1c-3.79,0-5.25,2.25-7.14,5.46h-.29l-.8-5-13.43,1.39v5.11l4.74,2v21.08l-4.74,1.6V143h20.72v-5.1Z"/><polygon class="cls-2" points="248.36 130.98 256.6 130.98 264.92 143.6 256.6 156.14 248.36 156.14 252.52 143.6 248.36 130.98"/></g></svg>