<svg id="Logos" xmlns="http://www.w3.org/2000/svg" viewBox="0 0 320 240"><defs><style>.cls-1{fill:#231f20;}</style></defs><title>logo-card-marissa-webb</title><g id="logo-marissa-webb"><path class="cls-1" d="M85.66,110.11H75v19.78h2.55v-8.23H86l4.94,8.23h2.91l-5-8.23.28,0a6.42,6.42,0,0,0,3.4-1.4,5.6,5.6,0,0,0,1.8-4.45C94.33,112,91.41,110.11,85.66,110.11Zm4.65,8.68a8.57,8.57,0,0,1-3.62.55H77.52v-6.91h9.63a6.11,6.11,0,0,1,3.18.76,2.88,2.88,0,0,1,1.46,2.62A3.09,3.09,0,0,1,90.31,118.79Z"/><rect class="cls-1" x="101.8" y="110.11" width="2.54" height="19.77"/><path class="cls-1" d="M129.6,119.5a11.08,11.08,0,0,0-5.55-1.21h-2.59a16.57,16.57,0,0,1-4-.35c-1.44-.37-2.13-1.12-2.13-2.29a3,3,0,0,1,1.54-2.41,9.18,9.18,0,0,1,5.12-1.23,12.17,12.17,0,0,1,4.59.84,22.07,22.07,0,0,1,2.85,1.56h0l1.57-1.83a15.76,15.76,0,0,0-9-2.9,11.43,11.43,0,0,0-7.09,2,4.92,4.92,0,0,0-2.17,4c0,3.29,2.52,5,7.49,5h4.51a6.38,6.38,0,0,1,3.21.76,2.86,2.86,0,0,1,1.63,2.64,3.21,3.21,0,0,1-2,2.85A11.83,11.83,0,0,1,122,128a12.61,12.61,0,0,1-6.06-1.37,28.64,28.64,0,0,1-2.92-2.19h0l-1.81,1.64a14.51,14.51,0,0,0,3.39,2.58,15.37,15.37,0,0,0,7.33,1.67,14.94,14.94,0,0,0,7.09-1.53,5.33,5.33,0,0,0,3.14-4.77A4.91,4.91,0,0,0,129.6,119.5Z"/><path class="cls-1" d="M155,119.5a11.14,11.14,0,0,0-5.55-1.21h-2.6a16.57,16.57,0,0,1-4.05-.35c-1.43-.37-2.13-1.12-2.13-2.29a2.92,2.92,0,0,1,1.54-2.41,9.18,9.18,0,0,1,5.12-1.23,12.14,12.14,0,0,1,4.59.84,22.07,22.07,0,0,1,2.85,1.56h0l1.57-1.83a15.76,15.76,0,0,0-9-2.9,11.43,11.43,0,0,0-7.09,2,4.93,4.93,0,0,0-2.17,4c0,3.29,2.52,5,7.49,5h4.51a6.38,6.38,0,0,1,3.21.76,2.86,2.86,0,0,1,1.63,2.64,3.19,3.19,0,0,1-2,2.85,11.8,11.8,0,0,1-5.61,1.13,12.61,12.61,0,0,1-6.06-1.37,26.35,26.35,0,0,1-2.91-2.19h0l-1.81,1.64a14.51,14.51,0,0,0,3.39,2.58,15.37,15.37,0,0,0,7.33,1.67,14.94,14.94,0,0,0,7.09-1.53,5.33,5.33,0,0,0,3.14-4.77A4.92,4.92,0,0,0,155,119.5Z"/><polygon class="cls-1" points="232.27 120.79 241.82 120.79 241.82 118.47 232.27 118.47 232.27 112.43 247.34 112.43 247.34 110.11 229.73 110.11 229.73 129.89 247.97 129.89 247.97 127.57 232.27 127.57 232.27 120.79"/><path class="cls-1" d="M270.57,119.71l-.25-.15.25-.16a3.52,3.52,0,0,0,1.07-1.2,5.11,5.11,0,0,0,.71-2.68,4.78,4.78,0,0,0-2.08-4.14,8,8,0,0,0-4.64-1.26H253.69v19.77h11.94c5.12,0,7.72-1.87,7.72-5.56a5,5,0,0,0-1-3A6.11,6.11,0,0,0,270.57,119.71Zm-14.34-7.28h9.4a5,5,0,0,1,3.15.87,2.53,2.53,0,0,1,1,2.11,2.76,2.76,0,0,1-1.05,2.3,5,5,0,0,1-3.13.9h-9.4Zm9.4,15.14h-9.4v-6.65h9.4a6.9,6.9,0,0,1,3.81.9,2.9,2.9,0,0,1,1.37,2.61C270.81,126.54,269.12,127.57,265.63,127.57Z"/><path class="cls-1" d="M298,121.33a6.11,6.11,0,0,0-1.76-1.62l-.25-.15.24-.16a3.59,3.59,0,0,0,1.08-1.19,5.2,5.2,0,0,0,.71-2.69,4.78,4.78,0,0,0-2.08-4.14,8,8,0,0,0-4.64-1.26H279.33v19.77h11.95c5.12,0,7.72-1.87,7.72-5.56A5,5,0,0,0,298,121.33Zm-16.11-8.9h9.41a5,5,0,0,1,3.15.87,2.56,2.56,0,0,1,1,2.11,2.79,2.79,0,0,1-1,2.3,5,5,0,0,1-3.13.9h-9.41Zm9.41,15.14h-9.41v-6.65h9.41a6.9,6.9,0,0,1,3.81.9,2.9,2.9,0,0,1,1.37,2.61C296.46,126.54,294.76,127.57,291.28,127.57Z"/><path class="cls-1" d="M171.59,110.11l-10.18,19.78h2.82l2.75-5.4h11.65l2.7,5.4h2.82l-10-19.78Zm-3.41,12,4.68-9.19,4.6,9.19Z"/><path class="cls-1" d="M57.24,110.11,47.05,129.89h2.82l2.75-5.4H64.27l0,.1,2.65,5.3h2.82l-10-19.78Zm-3.42,12L58.5,113l4.6,9.19Z"/><polygon class="cls-1" points="23.57 110.12 21 110.12 21 129.89 23.58 129.89 23.58 114.87 31.5 128.28 39.41 114.87 39.41 129.89 41.99 129.89 41.99 110.12 39.41 110.12 31.5 123.41 23.57 110.12"/><polygon class="cls-1" points="211.02 112.14 205.58 125.59 200.35 110.12 197.74 110.12 204.16 129.89 206.64 129.89 211.02 118.31 215.41 129.89 217.89 129.89 224.31 110.12 221.7 110.12 216.47 125.59 211.02 112.14"/></g></svg>