<svg id="Logos" xmlns="http://www.w3.org/2000/svg" viewBox="0 0 320 240"><defs><style>.cls-1{fill:#f1c066;}.cls-2{fill:#e43d30;}</style></defs><title>logo-card-united-palace</title><g id="logo-united-palace"><path class="cls-1" d="M53.47,132a7.32,7.32,0,1,1-14.63,0V115.4l-6.11,0V132h0a13.43,13.43,0,0,0,26.86,0h0V121.46h10.5a13.43,13.43,0,1,0,0-26.86H53.48v6.11H70.08a7.32,7.32,0,1,1,0,14.64l-16.61,0Z"/><path class="cls-2" d="M92.36,137v-9.9a18.71,18.71,0,0,0-.24-3.53c-.17-.67-.4-.84-1.61-1l-1.11-.14v-.3h11.85v.3l-1.54.14c-1.28.13-1.61.33-1.78,1a18.71,18.71,0,0,0-.24,3.53v10.14c0,4.33,2.45,6,5.54,6,3.59,0,5.88-2.15,5.88-6,0-2.79,0-2.86,0-4.77l-.13-5.94c-.07-2.65-.67-3.23-2.35-3.73l-1.31-.47v-.2h8.56v.2l-1,.44c-1.64.64-2.25,1.14-2.35,3.76L110,137.39c-.2,5.27-3.79,7.65-8.36,7.65C96.38,145,92.36,142.76,92.36,137Z"/><path class="cls-2" d="M127.84,129.5c.63.67,1,1.38,1,3.39V143.4c0,.53.11.6.94.74l.51.1v.26H122.8v-.26l.51-.1c.7-.11.8-.24.8-.74v-8.5c0-1.41-.13-2.41-.6-2.92a2.27,2.27,0,0,0-1.68-.53,4.81,4.81,0,0,0-2.18.6V143.4c0,.5.1.63.77.74l.54.1v.26h-7.52v-.26l.53-.1c.81-.14.91-.24.91-.78v-10.5a1.75,1.75,0,0,0-.37-1.25l-1-1.1v-.1l6.24-2.12.07.1c-.07.91-.14,1.78-.14,2.15l0,1,.13.07c2.09-2.11,3.76-3,5.54-3A3.68,3.68,0,0,1,127.84,129.5Z"/><path class="cls-2" d="M138.41,143.36c0,.54.1.64.94.78l.5.1v.26H132.2v-.26l.54-.1c.8-.14.9-.24.9-.78V132.82a1.77,1.77,0,0,0-.37-1.24l-1-1.07v-.1l6.14-2.09.07.1c-.07.91-.1,2.05-.1,2.49ZM136.06,122a2.48,2.48,0,0,1,2.55,2.55,2.6,2.6,0,0,1-.73,1.88,2.48,2.48,0,0,1-1.88.76,2.38,2.38,0,0,1-1.81-.8,2.7,2.7,0,0,1-.75-1.9,2.35,2.35,0,0,1,.79-1.77A2.65,2.65,0,0,1,136.06,122Z"/><path class="cls-2" d="M144.45,143.9a4.6,4.6,0,0,1-1.14-3.49v-9h-1.85v-.5a81.24,81.24,0,0,0,6.65-5.78l.14.07-.14,3.93h5l-.41,2.31-4.7,0v8.09a2.78,2.78,0,0,0,.67,2.08,2.63,2.63,0,0,0,2,.6,4.64,4.64,0,0,0,2.68-.9l.1.1a6.18,6.18,0,0,1-5.64,3.66A4.75,4.75,0,0,1,144.45,143.9Z"/><path class="cls-2" d="M161.81,145c-4.57,0-7.29-3.59-7.29-7.82,0-4.9,3.39-8.66,7.89-8.66,3.93,0,6.24,2.28,6.24,5a2.94,2.94,0,0,1-.13,1l-9.53,0v.6c0,4.5,2.18,6.72,5.37,6.72a5.82,5.82,0,0,0,4.36-1.85l.14.1A7.57,7.57,0,0,1,161.81,145ZM159,134c3.59-.07,5.07-.2,5.47-.37.07-2.25-.77-4.5-2.35-4.5a2.24,2.24,0,0,0-1.58.71A6.86,6.86,0,0,0,159,134Z"/><path class="cls-2" d="M181.21,129.1v-3.76a1.67,1.67,0,0,0-.4-1.25l-1-1.1v-.1L186,120.8l.1.07c-.07.91-.1,2.12-.1,2.52v19.34c0,.8.13.94,1,.94l.77,0,0,.3L181,145.18l-.07-.11c.07-.4.1-.83.14-1.3l.06-.91-.13-.07a6.58,6.58,0,0,1-4.57,2.25c-3.49,0-5.94-3-5.94-7.62,0-4.73,3.19-8.79,8-8.79A7.23,7.23,0,0,1,181.21,129.1Zm-5.74,7.15c0,4.19,1.95,6.48,4.09,6.48a3.49,3.49,0,0,0,1.65-.41l.07-9.33c0-2.82-1.15-3.66-2.39-3.66C177.11,129.33,175.47,131.88,175.47,136.25Z"/><path class="cls-2" d="M194.23,122.28c2.82-.23,5.61-.33,8.43-.33,8.19,0,11.38,2.58,11.38,6.54s-4.3,6.68-10.28,6.65v-.24c3.46-.63,4.84-3.25,4.84-6.51s-2-5.91-6-5.94c-.06.84-.1,2.45-.1,3.76v13.33a20.06,20.06,0,0,0,.2,3.59c.17.67.44.84,1.72,1l1.31.1v.3H194.23v-.3l1.08-.13c1.24-.17,1.47-.34,1.64-1a20.68,20.68,0,0,0,.2-3.52V127.18a21.18,21.18,0,0,0-.2-3.52c-.17-.67-.57-.94-1.91-1l-.81,0Z"/><path class="cls-2" d="M218.6,131.11l.91,2.85a7,7,0,0,1-3,.84c-1,0-1.51-.37-1.51-1a3.38,3.38,0,0,1,1.2-1.91c1.51-1.51,4.47-3.46,6.75-3.46a4.72,4.72,0,0,1,3.33,1c.8.84,1,2,1,3.73v7.65a2.23,2.23,0,0,0,.53,1.75,1.35,1.35,0,0,0,.94.37,1.93,1.93,0,0,0,1.11-.41l.1.14a5.27,5.27,0,0,1-4,2.35,3.21,3.21,0,0,1-3.22-2.35l-.1,0-.54.44c-1.37,1.18-2.38,1.81-3.93,1.81a3.31,3.31,0,0,1-3.32-3.32,2.71,2.71,0,0,1,.74-1.91c.67-.67,1.78-1.21,4.5-2.15l2.58-.87V134.3c0-1.65-.23-2.52-.7-3a2.33,2.33,0,0,0-1.81-.6A3.09,3.09,0,0,0,218.6,131.11Zm4.06,5.91a8.44,8.44,0,0,0-2.51,1.41,2.36,2.36,0,0,0-.68,1.78c0,1.54.88,2.41,1.88,2.41a2.35,2.35,0,0,0,1.31-.36Z"/><path class="cls-2" d="M237.47,143.4c0,.5.1.6.94.74l.5.1v.26h-7.66v-.26l.54-.1c.81-.14.91-.24.91-.78v-18a1.8,1.8,0,0,0-.37-1.25l-1-1.1v-.1l6.14-2.09.07.07c-.07.94-.1,2.08-.1,2.52Z"/><path class="cls-2" d="M245.15,131.11l.91,2.85a7,7,0,0,1-3,.84c-1,0-1.51-.37-1.51-1a3.38,3.38,0,0,1,1.2-1.91c1.52-1.51,4.47-3.46,6.75-3.46a4.72,4.72,0,0,1,3.33,1c.8.84,1,2,1,3.73v7.65a2.23,2.23,0,0,0,.53,1.75,1.35,1.35,0,0,0,.94.37,1.91,1.91,0,0,0,1.11-.41l.1.14a5.27,5.27,0,0,1-4,2.35,3.21,3.21,0,0,1-3.22-2.35l-.1,0-.54.44c-1.37,1.18-2.38,1.81-3.92,1.81a3.31,3.31,0,0,1-3.33-3.32,2.71,2.71,0,0,1,.74-1.91c.67-.67,1.78-1.21,4.5-2.15l2.58-.87V134.3c0-1.65-.23-2.52-.7-3a2.33,2.33,0,0,0-1.81-.6A3.09,3.09,0,0,0,245.15,131.11Zm4.06,5.91a8.44,8.44,0,0,0-2.51,1.41,2.36,2.36,0,0,0-.68,1.78c0,1.54.88,2.41,1.88,2.41a2.33,2.33,0,0,0,1.31-.36Z"/><path class="cls-2" d="M271,140.81l.1.17a7.11,7.11,0,0,1-6.41,4.06c-4.57,0-7.29-3.69-7.29-7.89a8.4,8.4,0,0,1,8.6-8.59c3.15,0,5.2,1.24,5.2,3.05a2.27,2.27,0,0,1-2.18,2.22c-.44,0-.71-.13-1.24-.94l-1.88-3.09c-.37-.5-.51-.6-.84-.6-1.28,0-3.23,2-3.23,6.11,0,4.39,2.52,6.95,5.58,6.95A5.08,5.08,0,0,0,271,140.81Z"/><path class="cls-2" d="M280.23,145c-4.57,0-7.29-3.59-7.29-7.82,0-4.9,3.39-8.66,7.89-8.66,3.93,0,6.25,2.28,6.25,5a2.88,2.88,0,0,1-.14,1l-9.53,0v.6c0,4.5,2.18,6.72,5.37,6.72a5.81,5.81,0,0,0,4.36-1.85l.14.1C286,143.09,283.49,145,280.23,145Zm-2.79-11c3.59-.07,5.07-.2,5.47-.37.07-2.25-.77-4.5-2.35-4.5a2.2,2.2,0,0,0-1.57.71A6.8,6.8,0,0,0,277.44,134Z"/></g></svg>