<svg id="Logos" xmlns="http://www.w3.org/2000/svg" viewBox="0 0 320 240"><defs><style>.cls-1{fill:#2a357a;}</style></defs><title>logo-card-ebb-and-flow-music</title><g id="logo-ebb-and-flow-music"><path class="cls-1" d="M66,135.51a4.11,4.11,0,0,0,.47,2A4.75,4.75,0,0,0,67.66,139a5.58,5.58,0,0,0,1.78,1,6.35,6.35,0,0,0,2.08.35,4.7,4.7,0,0,0,2.54-.68,8.08,8.08,0,0,0,2-1.79l2.36,1.81A8.7,8.7,0,0,1,71.11,143a9,9,0,0,1-3.53-.66,7.6,7.6,0,0,1-2.68-1.83,8.25,8.25,0,0,1-1.69-2.74,9.8,9.8,0,0,1-.59-3.43,9,9,0,0,1,.65-3.42A8.51,8.51,0,0,1,65,128.2a8,8,0,0,1,2.69-1.83,8.67,8.67,0,0,1,3.41-.66,8.27,8.27,0,0,1,3.7.76,7.48,7.48,0,0,1,2.49,2,7.84,7.84,0,0,1,1.4,2.78,11.63,11.63,0,0,1,.44,3.15v1.11Zm9.87-2.5a6.42,6.42,0,0,0-.33-1.91,4.29,4.29,0,0,0-.88-1.51,4.1,4.1,0,0,0-1.48-1,5.46,5.46,0,0,0-2.07-.37,5.19,5.19,0,0,0-2.1.43,5.36,5.36,0,0,0-1.62,1.14,5.29,5.29,0,0,0-1,1.54A4.16,4.16,0,0,0,66,133Z"/><path class="cls-1" d="M82.92,116.33H86v12.16h.08a5.68,5.68,0,0,1,2.4-2,7.59,7.59,0,0,1,3.33-.75,8.71,8.71,0,0,1,3.46.66A7.72,7.72,0,0,1,98,128.2a8.15,8.15,0,0,1,1.69,2.74,9.79,9.79,0,0,1,.59,3.42,9.65,9.65,0,0,1-.59,3.41A8.5,8.5,0,0,1,98,140.52a7.75,7.75,0,0,1-2.64,1.84,8.71,8.71,0,0,1-3.46.66,7.81,7.81,0,0,1-3.25-.73,6,6,0,0,1-2.48-2H86v2.36H82.92Zm8.55,23.77a5.84,5.84,0,0,0,2.26-.43,5.1,5.1,0,0,0,1.7-1.19,5.25,5.25,0,0,0,1.08-1.81,6.82,6.82,0,0,0,.38-2.31,6.91,6.91,0,0,0-.38-2.31,5.3,5.3,0,0,0-1.08-1.8,5.1,5.1,0,0,0-1.7-1.19,6.15,6.15,0,0,0-4.52,0,5,5,0,0,0-2.78,3,6.91,6.91,0,0,0-.39,2.31,6.82,6.82,0,0,0,.39,2.31,5,5,0,0,0,2.78,3A5.84,5.84,0,0,0,91.47,140.1Z"/><path class="cls-1" d="M104.15,116.33h3.13v12.16h.07a5.75,5.75,0,0,1,2.4-2,7.6,7.6,0,0,1,3.34-.75,8.7,8.7,0,0,1,3.45.66,7.76,7.76,0,0,1,2.65,1.83,8.29,8.29,0,0,1,1.68,2.74,9.56,9.56,0,0,1,.59,3.42,9.43,9.43,0,0,1-.59,3.41,8.66,8.66,0,0,1-1.68,2.75,7.79,7.79,0,0,1-2.65,1.84,8.7,8.7,0,0,1-3.45.66,7.82,7.82,0,0,1-3.26-.73,6,6,0,0,1-2.48-2h-.07v2.36h-3.13Zm8.55,23.77a5.8,5.8,0,0,0,2.26-.43,5.25,5.25,0,0,0,1.71-1.19,5.08,5.08,0,0,0,1.07-1.81,6.59,6.59,0,0,0,.38-2.31,6.67,6.67,0,0,0-.38-2.31,5.13,5.13,0,0,0-1.07-1.8,5.25,5.25,0,0,0-1.71-1.19,5.62,5.62,0,0,0-2.26-.43,5.69,5.69,0,0,0-2.26.43,5.1,5.1,0,0,0-1.7,1.19,5.3,5.3,0,0,0-1.08,1.8,6.91,6.91,0,0,0-.38,2.31,6.82,6.82,0,0,0,.38,2.31,5.25,5.25,0,0,0,1.08,1.81,5.1,5.1,0,0,0,1.7,1.19A5.87,5.87,0,0,0,112.7,140.1Z"/><path class="cls-1" d="M129.88,133.92h5.79v-5.79h2v5.79h5.79v2h-5.79v5.8h-2v-5.8h-5.79Z"/><path class="cls-1" d="M153.88,128.84h-3.55v-2.71h3.55v-3.69a7.92,7.92,0,0,1,1.26-4.91c.85-1.08,2.3-1.62,4.36-1.62.35,0,.72,0,1.1,0a6.41,6.41,0,0,1,1.23.2l-.35,2.78a5.08,5.08,0,0,0-.86-.24,6.32,6.32,0,0,0-.9-.07,3.24,3.24,0,0,0-1.4.26,2,2,0,0,0-.81.75,2.89,2.89,0,0,0-.39,1.16,12.12,12.12,0,0,0-.08,1.55v3.79h3.71v2.71H157V142.6h-3.12Z"/><path class="cls-1" d="M164.48,116.33h3.12V142.6h-3.12Z"/><path class="cls-1" d="M171.77,134.36a8.46,8.46,0,0,1,.68-3.37,8.75,8.75,0,0,1,1.86-2.74,8.59,8.59,0,0,1,2.78-1.86,8.78,8.78,0,0,1,11.52,4.6,8.46,8.46,0,0,1,.68,3.37,8.6,8.6,0,0,1-.68,3.4,8.37,8.37,0,0,1-1.86,2.73,8.67,8.67,0,0,1-2.78,1.85,9,9,0,0,1-6.88,0,8.56,8.56,0,0,1-2.78-1.85,8.37,8.37,0,0,1-1.86-2.73A8.6,8.6,0,0,1,171.77,134.36Zm3.34,0a6.59,6.59,0,0,0,.38,2.31,4.92,4.92,0,0,0,2.78,3,6.15,6.15,0,0,0,4.52,0,5,5,0,0,0,2.78-3,6.82,6.82,0,0,0,.38-2.31,6.91,6.91,0,0,0-.38-2.31,5,5,0,0,0-2.78-3,6.15,6.15,0,0,0-4.52,0,4.93,4.93,0,0,0-2.78,3A6.67,6.67,0,0,0,175.11,134.36Z"/><path class="cls-1" d="M191.23,126.13h3.51l3.7,12.3h.07l4-12.3h3.33l4.18,12.3H210l3.51-12.3h3.34l-5.32,16.47H208.4L204,130.3H204l-4,12.3h-3.34Z"/><path class="cls-1" d="M89.2,93.25c-10,3.12-18.78,11.33-18.19,11.54.57,0,10.71-7.49,20.41-10.41a62.14,62.14,0,0,1,16.36-3.1c7.88-.49,17.46.62,27.17,2.51,5,1,20.15,5.38,20.15,5.39s-14.12-4.58-20.66-6c-6.79-1.48-20-3.43-28.24-3A62.1,62.1,0,0,0,89.2,93.25Z"/><path class="cls-1" d="M99.25,98.56c-8.34,2.06-15.77,7.79-15.23,8s9.29-4.89,17.31-6.81a60.17,60.17,0,0,1,13.43-1.94,88.83,88.83,0,0,1,21.93,2.57c15.29,3.75,29.81,9.4,29.8,9.1,0,.2-14.63-5.69-30.46-9.82a91.13,91.13,0,0,0-22.78-3A58.38,58.38,0,0,0,99.25,98.56Z"/><path class="cls-1" d="M105.19,104.51c-3.86.69-7,3.34-6.6,3.51s4.9-1.39,8.47-2.43a50.82,50.82,0,0,1,16-1.28c6.86.3,13.35,2.35,13.3,2.12a74.27,74.27,0,0,0-14.08-2.86C115,102.82,107.87,103.31,105.19,104.51Z"/><path class="cls-1" d="M64.83,99.29c-5.92,4.67-10.23,11.5-9.61,11.54s6.57-6.56,12.33-11c2.66-3,14.57-10.26,27.21-13,12.41-3.36,32.61.84,32.33.29-.08,0-20.48-3.73-33.65-.89a72.19,72.19,0,0,0-18.27,6.33A66.35,66.35,0,0,0,64.83,99.29Z"/><path class="cls-1" d="M224.39,117.69c-13.7-2.17-27.7-8-41.2-14s-26.55-12.3-38.33-16.85S122.55,79.2,114,77.94a75.69,75.69,0,0,0-18.7-.66c-14.8.83-29.25,8.62-39.69,18-10.47,9-16.93,19.66-16.3,19.3C40,115,48,104.73,59.24,96.4,70.5,87.71,85,80.91,99.13,80.09a75.89,75.89,0,0,1,17.82.55c8.1,1.14,18.14,3.86,29.42,8.18s23.79,10.08,36.84,15.84,26.64,11.28,40.06,13.43c11.1,1.87,21.94,2.24,32.46-.52C245.69,119.81,235.13,119.59,224.39,117.69Z"/><path class="cls-1" d="M306,80A151.61,151.61,0,0,1,295.82,91.8c-9.79,10.52-21.39,18.79-33.56,23.64a55.83,55.83,0,0,1-6.53,2.13,60.49,60.49,0,0,0,8.23-2.43c12.41-4.5,23.81-13.37,33.46-24,3.31-3.63,6.4-7.45,9.27-11.29Z"/></g></svg>