<svg id="Logos" xmlns="http://www.w3.org/2000/svg" viewBox="0 0 320 240"><title>logo-card-thelabnyc</title><g id="logo-thelabnyc"><path d="M266.19,125.34c-.1.48-.21,1-.32,1.45a9.65,9.65,0,0,1-3.76,5.88,8.54,8.54,0,0,1-6.05,1.5,9,9,0,0,1-3.82-1.12,19.55,19.55,0,0,1-1.66-1.28v1.69H244.7V99.38h5.87v16.29a6.66,6.66,0,0,1,2.73-1.89c3.23-1.07,6.35-1,9.16,1.16a9.87,9.87,0,0,1,3.51,6c.07.36.15.71.22,1.07Zm-15.66-1.74c.05.43.09.87.16,1.31a4.69,4.69,0,0,0,7.18,3.12,5.29,5.29,0,0,0,2.07-5.6,4.69,4.69,0,0,0-6.12-3.63A4.76,4.76,0,0,0,250.53,123.6Z"/><path d="M87.24,158.11a18.41,18.41,0,0,1-2.07-.65,8.26,8.26,0,0,1-5.24-7.15,8.53,8.53,0,0,1,17-1.67,8.57,8.57,0,0,1-6.71,9.3c-.21,0-.41.12-.62.17Z"/><path d="M163,115.56a8,8,0,0,1,4.36-2.25,10,10,0,0,1,4.71.18,6,6,0,0,1,4.29,5.14,15.11,15.11,0,0,1,.19,2.52c0,3.89,0,7.78,0,11.67v.65h-5.91v-.58c0-3.47,0-6.93,0-10.4a6.69,6.69,0,0,0-.25-1.77,2.76,2.76,0,0,0-2.41-2.07,4.08,4.08,0,0,0-5,4.31c.05,3.31,0,6.61,0,9.92v.59h-5.91v-.59q0-16.42,0-32.83c0-.52.1-.7.66-.69,1.56,0,3.11,0,4.67,0H163Z"/><path d="M239.09,133.48h-5.86v-1.79c-.5.43-.91.83-1.37,1.15a7.66,7.66,0,0,1-3.39,1.25,9.52,9.52,0,0,1-5-.43,8.93,8.93,0,0,1-5.24-5.74,12.72,12.72,0,0,1,.45-9.62,8.55,8.55,0,0,1,8.85-5.15A8.45,8.45,0,0,1,232,114.6c.39.29.74.65,1.17,1v-1.76a3,3,0,0,1,.46,0h5c.34,0,.51,0,.51.45q0,9.47,0,18.93C239.11,133.27,239.1,133.35,239.09,133.48Zm-15.38-9.63a11,11,0,0,0,.16,1.21,4.73,4.73,0,0,0,8.31,1.94,5.62,5.62,0,0,0,.92-4.52,4.69,4.69,0,0,0-6.84-3.39C224.47,120.06,223.74,121.67,223.71,123.85Z"/><path d="M201.91,125.54H186.83a5.05,5.05,0,0,0,1.19,2.52,4.89,4.89,0,0,0,4.73,1.58,6.19,6.19,0,0,0,3.85-2l.3-.27,4.44,2.31a9.28,9.28,0,0,1-4.55,3.7A13.81,13.81,0,0,1,186,133a9.3,9.3,0,0,1-5.12-7.2,11.34,11.34,0,0,1,.89-7,9.6,9.6,0,0,1,7.16-5.37,11.09,11.09,0,0,1,7.88,1.11,9.61,9.61,0,0,1,5.13,7.9C202,123.42,201.91,124.46,201.91,125.54Zm-15-3.81H196a4.47,4.47,0,0,0-4.08-3.61A4.54,4.54,0,0,0,186.87,121.73Z"/><path d="M88.31,111.34a8.54,8.54,0,1,1-8.56,8.45A8.46,8.46,0,0,1,88.31,111.34Z"/><path d="M67.42,132.34a8.54,8.54,0,1,1-8.55,8.52A8.47,8.47,0,0,1,67.42,132.34Z"/><path d="M76,99.08a8.53,8.53,0,1,1-17-.23,8.53,8.53,0,0,1,17,.23Z"/><path d="M118,111.44a8.53,8.53,0,1,1-8.57,8.15A8.51,8.51,0,0,1,118,111.44Z"/><path d="M58.81,111.55a8.54,8.54,0,0,1,8.52,8.9,8.55,8.55,0,0,1-17.08-.64A8.48,8.48,0,0,1,58.81,111.55Z"/><path d="M79.74,90.45a8.56,8.56,0,1,1,17.11,0,8.56,8.56,0,0,1-17.11,0Z"/><path d="M100.72,141a8.51,8.51,0,0,1,8.86-8.54A8.55,8.55,0,0,1,109,149.5,8.47,8.47,0,0,1,100.72,141Z"/><path d="M109.3,107.7a8.5,8.5,0,0,1-8.53-8.55,8.54,8.54,0,1,1,17.08,0A8.5,8.5,0,0,1,109.3,107.7Z"/><path d="M148,106.36v7.45h2.72c1.29,0,1.29,0,1.29,1.3,0,1.13,0,2.26,0,3.39,0,.46-.15.57-.58.56-1.12,0-2.25,0-3.41,0,0,.2,0,.36,0,.51q0,3.42,0,6.84a3.22,3.22,0,0,0,.13.93,1.63,1.63,0,0,0,2.41,1,13.58,13.58,0,0,0,1.41-.88,2.85,2.85,0,0,1,0,.41c0,1.45,0,2.9,0,4.34a.91.91,0,0,1-.23.55,6.52,6.52,0,0,1-8,.19,4.69,4.69,0,0,1-1.6-3.51c-.08-3.1-.07-6.21-.09-9.32,0-.33,0-.66,0-1.05h-3.26l.71-5.24h2.51v-6.51Z"/><path d="M207.29,99.37h5.84v34.09h-5.84Z"/></g></svg>