<svg id="Logos" xmlns="http://www.w3.org/2000/svg" viewBox="0 0 320 240"><defs><style>.cls-1{fill:none;}.cls-2{fill:#e11f70;}.cls-3{fill:#558744;}.cls-4{fill:#e12c23;}.cls-5{fill:#0073ad;}.cls-6{fill:#c9164b;}.cls-7{fill:#214983;}.cls-8{fill:#2d226f;}.cls-9{fill:#c5181f;}.cls-10{fill:#681a67;}.cls-11{fill:#eb7723;}.cls-12{fill:#15674c;}.cls-13{fill:#e64a23;}.cls-14{fill:#f8a41d;}.cls-15{fill:#a6321a;}.cls-16{fill:#d04422;}.cls-17{fill:#fec810;}.cls-18{fill:#fff;}.cls-19{fill:#808285;}</style></defs><title>logo-card-fcb</title><g id="logo-fcb"><path class="cls-1" d="M165.09,124.9c0,.41,0,.81,0,1.22h0C165.1,125.71,165.09,125.31,165.09,124.9Z"/><path class="cls-1" d="M208.17,126.31c0-1.25,0-2.5,0-3.74h0c0,1.24,0,2.49,0,3.74Z"/><path class="cls-1" d="M149.52,121.63a2.21,2.21,0,0,1,.37.08h0A2.21,2.21,0,0,0,149.52,121.63Z"/><path class="cls-1" d="M169.07,117.15a3.48,3.48,0,0,0,1.1-.15v0A3.48,3.48,0,0,1,169.07,117.15Z"/><path class="cls-1" d="M169.06,117.15h0Z"/><path class="cls-1" d="M157.53,126.16v5.66h0v-5.66Z"/><path class="cls-1" d="M144.83,127.69h0v0Z"/><path class="cls-1" d="M144.61,127.62l.09,0Z"/><path class="cls-1" d="M139.84,122.74a.5.5,0,0,0,0-.19A.5.5,0,0,1,139.84,122.74Z"/><path class="cls-1" d="M200.6,123.08c0-.11,0-.23,0-.34,0,.11,0,.23,0,.34l.55,0Z"/><path class="cls-1" d="M139.82,122.77a.1.1,0,0,1-.06,0h0A.1.1,0,0,0,139.82,122.77Z"/><path class="cls-1" d="M134.71,119.57h0v0Z"/><path class="cls-1" d="M137.27,90.37v.35l.08,0-.08,0Z"/><path class="cls-1" d="M139.75,92.15c0-.46,0-.92,0-1.39h0C139.75,91.23,139.75,91.69,139.75,92.15Z"/><path class="cls-1" d="M127.14,89.48h0l.29,0Z"/><path class="cls-1" d="M149.9,87.26a2.44,2.44,0,0,1,0,.27c0,1.07,0,2.13,0,3.2h0c0-1.07,0-2.13,0-3.2A2.44,2.44,0,0,0,149.9,87.26Z"/><path class="cls-1" d="M165.1,82.09h0v0Z"/><path class="cls-1" d="M157,80.41c-.35,0-.7,0-1.05,0l-.79,0Z"/><path class="cls-2" d="M194.53,100.05V89.49h1V80.67h-5.09l0,5.21c0,.32,0,.32-.26.33h-1.89c-.09,0-.22.07-.26,0s0-.27,0-.4c0-1.37,0-2.73,0-4.09,0-.36,0-.72,0-1.07h-2.52v50.86H188c0-1.72,0-3.43,0-5.14,0-.2,0-.25.21-.24.65,0,1.31,0,2,0,.27,0,.27,0,.27.33,0,.84,0,1.68,0,2.52s0,1.68,0,2.52h5.08v-9h-1V109.14h1v-9.09Z"/><path class="cls-3" d="M124.64,110.68V102H117v8.68Z"/><path class="cls-3" d="M117,89.55h7.63c0-3,0-5.91,0-8.87V80.6H117v9Z"/><path class="cls-4" d="M205.58,89.49h1.2a5,5,0,0,1,1.39.19c0-.14,0-.29,0-.43,0-2.84,0-5.68,0-8.52-.45,0-.89-.06-1.35-.06H205.6c0,2.29,0,4.58,0,6.87C205.6,88.19,205.59,88.84,205.58,89.49Z"/><path class="cls-4" d="M210.18,98.43a4.39,4.39,0,0,1-3.54,1.62h-6.06v9.09h7.94a6.75,6.75,0,0,1,2.13.34V97.72A5.82,5.82,0,0,1,210.18,98.43Z"/><path class="cls-4" d="M200.6,123.08l.55,0h.18a2.3,2.3,0,0,0,.74,0c.31-.07.62.07.92,0,.07,0,.1.06.09.13,0,.3.06.58,0,.89s.06.48.38.49.68,0,1,0h.81c.22,0,.26.06.27.34,0,1.52,0,3,0,4.56l2.56-3.06v-.1c0-1.25,0-2.5,0-3.74h-7.58v.17C200.58,122.85,200.59,123,200.6,123.08Z"/><path class="cls-5" d="M106.88,110.68h7.62V102h-7.62Z"/><path class="cls-5" d="M109.36,84.35c0,1.73,0,3.47,0,5.2h5.17V80.68s0-.06,0-.08h-5.12C109.37,81.85,109.39,83.1,109.36,84.35Z"/><path class="cls-4" d="M149.89,121.71h0c0,.56,0,1.12,0,1.69v7.73a24.47,24.47,0,0,0,6,.74c.55,0,1.08,0,1.61-.05V122.7c-.53,0-1.07.08-1.62.08a15,15,0,0,1-6-1.25,1.09,1.09,0,0,1,0,.18Z"/><path class="cls-4" d="M155,80.41c0,1.27-.05,2.54,0,3.8,0,.31,0,.36-.29.36-.65,0-1.3,0-1.94,0-.19,0-.25-.07-.25-.31V80.64a24.88,24.88,0,0,0-2.57.52q0,3.06,0,6.1a2.44,2.44,0,0,1,0,.27c0,1.07,0,2.13,0,3.2a15,15,0,0,1,6-1.24c.55,0,1.09,0,1.61.07V80.44l-.56,0h-2Z"/><path class="cls-6" d="M195.55,100.05v9.09h5v-9.09Z"/><path class="cls-6" d="M195.55,89.49h5V80.67h-5v8.82Z"/><path class="cls-6" d="M195.55,131.53h5v-8.11a1,1,0,0,1,0-.34c0-.11,0-.23,0-.34v-.17h-5v9Z"/><path class="cls-7" d="M104.36,84.25c-.07,3.11,0,6.22,0,9.34,0,.31,0,.3-.25.3-.64,0-1.29,0-1.93,0-.18,0-.27.08-.26.32s0,.56,0,.84-.06.4-.06.61v23.88a2,2,0,0,0,0,.25c0,.22.16.32.32.31.67-.08,1.34,0,2,0,.09,0,.14.06.14.18v.23q0,4.91,0,9.81c0,.41,0,.83,0,1.25h2.13V110.68h.4V102h-.4V89.55h2.85c0-1.73,0-3.47,0-5.2,0-1.25,0-2.5,0-3.75h-5C104.36,81.81,104.38,83,104.36,84.25Z"/><path class="cls-4" d="M170.17,117v10.39a24.11,24.11,0,0,0,5.05-4.89V111.13h-3.89l-.25.73a18.28,18.28,0,0,1-.9,2.17v2.65C170.18,116.78,170.17,116.89,170.17,117Z"/><path class="cls-4" d="M170.17,94.13c0,1.47,0,2.94,0,4.42.18.4.35.81.5,1.24l.25.71h4.3c0-3.57,0-7.14,0-10.71a23.68,23.68,0,0,0-5.06-4.94v9.28Z"/><path class="cls-8" d="M104.33,130.28q0-4.91,0-9.81v-.23c0-.12,0-.18-.14-.18-.67,0-1.34,0-2,0-.16,0-.29-.09-.32-.31a2,2,0,0,1,0-.25V95.66c0-.21.08-.41.06-.61s0-.56,0-.84.08-.32.26-.32c.64,0,1.29,0,1.93,0,.25,0,.25,0,.25-.3,0-3.12,0-6.23,0-9.34,0-1.22,0-2.44,0-3.65h-7c0,1.44,0,2.88,0,4.32h1.51c.07,0,.15,0,.21,0s.21,0,.21.16q0,.57,0,1.14c.08,11.61,0,23.21,0,34.81,0,.61,0,1.22,0,1.83,0,.1,0,.2-.12.19-.61-.05-1.21,0-1.81,0q0,4.26,0,8.54h7C104.35,131.11,104.33,130.69,104.33,130.28Z"/><path class="cls-4" d="M127.11,89.06a1.48,1.48,0,0,0,0,.21c0,.07,0,.14,0,.21l.29,0a.07.07,0,0,1,.07.07.05.05,0,0,1,0,0h.58s0,0,0,0,.06-.08.1-.08h.36V80.6h-1.4v8.46Z"/><path class="cls-4" d="M134.71,104.61q0-6,0-11.91a26.89,26.89,0,0,0-2.54,5.7v15.51a27.52,27.52,0,0,0,2.53,5.66v-15Z"/><path class="cls-9" d="M215.68,116.43V92.77c0-.14,0-.28,0-.42a7.65,7.65,0,0,1-1.17.06c-.39,0-.78,0-1.17,0-.11,0-.15-.06-.15-.2V92c0-.83-.06-1.65,0-2.47,0-.19,0-.22-.2-.22-.68,0-1.36,0-2,0-.16,0-.24-.1-.24-.31V81.16a14.74,14.74,0,0,0-2.52-.43c0,2.84,0,5.68,0,8.52,0,.14,0,.29,0,.43,2.21.64,3.23,2.83,3.23,5a6.39,6.39,0,0,1-.75,3v11.76c2.61.9,3.91,3.49,3.91,6.35v1a8.27,8.27,0,0,1,1.11.07C215.67,116.74,215.68,116.58,215.68,116.43Z"/><path class="cls-9" d="M208.24,126.32l2.42-2.88c0-.29,0-.58,0-.87h-2.52c0,1.24,0,2.49,0,3.74Z"/><path class="cls-8" d="M220.72,95.43c0-.15,0-.3,0-.45,0-.31,0-.62,0-.93a15.62,15.62,0,0,0-2.42-7.28q0,7.62,0,15.24A11.46,11.46,0,0,0,220.72,95.43Z"/><path class="cls-8" d="M218.3,104.25V108c0,2.12,0,4.25,0,6.37l2.4-2.85c0-1.68,0-3.37,0-5A17.12,17.12,0,0,0,218.3,104.25Z"/><path class="cls-10" d="M218.3,104.25a12.88,12.88,0,0,0-1.28-.85A12.85,12.85,0,0,0,218.3,102q0-7.62,0-15.24a13,13,0,0,0-2.61-3V92a1,1,0,0,1,0,.35c0,.14,0,.28,0,.42v23.66c0,.15,0,.31,0,.47s0,.23,0,.34v.23l2.61-3.12c0-2.12,0-4.25,0-6.37Z"/><path class="cls-11" d="M175.22,122.5a25.62,25.62,0,0,0,2.56-4v-7.33h-2.56V122.5Z"/><path class="cls-11" d="M177.78,100.5V94a25.07,25.07,0,0,0-2.55-4.18c0,3.57,0,7.14,0,10.71Z"/><path class="cls-12" d="M117,110.68V102H114.5v8.68Z"/><path class="cls-12" d="M114.5,89.55H117v-9h-2.52s0,.05,0,.08Z"/><path class="cls-4" d="M180.35,111.13h0v.2Z"/><path class="cls-13" d="M180,112.46l.28-1.13v-.2h-2.52v7.33A28.8,28.8,0,0,0,180,112.46Z"/><path class="cls-13" d="M180,100.5l-.34-1.32A27.75,27.75,0,0,0,177.78,94v6.53Z"/><path class="cls-14" d="M162.58,123.08h0c0,2.22,0,4.44,0,6.66V131a22.5,22.5,0,0,0,2.48-.82v-4c0-.41,0-.81,0-1.22V120a14.81,14.81,0,0,1-2.48,1.41v1.29A1.33,1.33,0,0,1,162.58,123.08Z"/><path class="cls-14" d="M162.6,89.22c0,.12,0,.23,0,.35v1.25a14.24,14.24,0,0,1,2.48,1.37V85.11c0-.12,0-.25,0-.37V82.09a23.4,23.4,0,0,0-2.49-.82c0,2.52,0,5,0,7.55Z"/><path class="cls-15" d="M124.64,89.55h2.5v-.07h0c0-.07,0-.14,0-.21a1.48,1.48,0,0,1,0-.21V80.6h-2.46v.08C124.65,83.64,124.65,86.59,124.64,89.55Z"/><path class="cls-15" d="M126,110.68V102h-1.36v8.68Z"/><path class="cls-15" d="M215.67,116.9a8.27,8.27,0,0,0-1.11-.07v2l1.12-1.33v-.23C215.68,117.13,215.67,117,215.67,116.9Z"/><path class="cls-15" d="M211.4,122.57h-.72c0,.29,0,.58,0,.87Z"/><path class="cls-15" d="M208.17,126.31v.1l.07-.09Z"/><path class="cls-7" d="M99.16,123c.13,0,.12-.09.12-.19,0-.61,0-1.22,0-1.83,0-11.6,0-23.2,0-34.81q0-.57,0-1.14c0-.21,0-.31-.21-.16s-.14,0-.21,0H97.35V123C98,123,98.55,123,99.16,123Z"/><path class="cls-7" d="M220.71,106.45c0,1.68,0,3.37,0,5l1.76-2.11.1-.12V109A13.81,13.81,0,0,0,220.71,106.45Z"/><path class="cls-7" d="M220.72,95.43a12.71,12.71,0,0,0,0-1.38c0,.31,0,.62,0,.93C220.7,95.13,220.71,95.28,220.72,95.43Z"/><path class="cls-15" d="M210.89,89.33c.68,0,1.36,0,2,0,.15,0,.21,0,.2.22,0,.82.07,1.64,0,2.47v.19c0,.14,0,.21.15.2.39,0,.78,0,1.17,0a7.65,7.65,0,0,0,1.17-.06,1,1,0,0,0,0-.35V83.77a12.68,12.68,0,0,0-5-2.61V89C210.65,89.23,210.73,89.33,210.89,89.33Z"/><path class="cls-9" d="M200.57,89.49h5c0-.65,0-1.3,0-1.95,0-2.29,0-4.58,0-6.87h-5v8.82Z"/><path class="cls-15" d="M167.64,122.83c0,1,0,2,0,3,0,.18-.06.25-.2.24s-.38,0-.57,0H165.1v4a23.13,23.13,0,0,0,5.08-2.77v-10.1c-.07,0-.07-.07,0-.11V117a3.48,3.48,0,0,1-1.1.15h-.9c-.16.21-.34.41-.51.6C167.66,119.43,167.67,121.13,167.64,122.83Z"/><path class="cls-14" d="M144.83,124.62a18.78,18.78,0,0,0,2.25,0c.17,0,.26.06.25.28s0,.17,0,.25c0,1.71,0,3.42,0,5.13a22.19,22.19,0,0,0,2.55.8V123.4c0-.57,0-1.13,0-1.69h0a2.21,2.21,0,0,0-.37-.08l-.21,0h-.19c-.51,0-1,0-1.52,0-.19,0-.25-.08-.25-.32v-1.16a17.19,17.19,0,0,1-2.52-2.11v6.6Z"/><path class="cls-15" d="M165.79,84.67c.53,0,1.06,0,1.59,0,.18,0,.23.07.24.29,0,2.84,0,5.68,0,8.52,0,.36,0,.37.3.36.66,0,1.31,0,2,0a1.06,1.06,0,0,1,.25,0v-9a23.25,23.25,0,0,0-5.07-2.76v2.65A1.81,1.81,0,0,1,165.79,84.67Z"/><path class="cls-14" d="M147.68,87.65c.59,0,1.18,0,1.78,0a.62.62,0,0,0,.43-.12,2.44,2.44,0,0,0,0-.27q0-3,0-6.1a24.44,24.44,0,0,0-2.55.82c0,1.76,0,3.53,0,5.29,0,.4,0,.42-.35.42h-2.17q0,3.28,0,6.55a16.21,16.21,0,0,1,2.52-2.11V88.05C147.36,87.66,147.37,87.65,147.68,87.65Z"/><path class="cls-9" d="M205.3,124.57h-.81c-.34,0-.68,0-1,0s-.43-.15-.38-.49,0-.59,0-.89c0-.07,0-.14-.09-.13-.3.06-.61-.08-.92,0a2.3,2.3,0,0,1-.74,0h-.18l-.55,0a1,1,0,0,0,0,.34v8.11h3.31l1.73-2.06c0-1.52,0-3,0-4.56C205.56,124.63,205.52,124.58,205.3,124.57Z"/><path class="cls-13" d="M162.58,123.08h0c-.33,0-.67,0-1,0s-.93,0-1.39,0c-.09,0-.14.07-.14.17v.15c0,.83-.06,1.65,0,2.47,0,.23-.08.28-.24.28h-2.24v5.66a24.94,24.94,0,0,0,5.09-.84v-1.24C162.61,127.52,162.62,125.3,162.58,123.08Z"/><path class="cls-14" d="M144.83,127.69l-.13,0-.09,0a1.46,1.46,0,0,0-.36,0h-1.56c-.25,0-.26,0-.26-.34v-.33a1.56,1.56,0,0,0-.09-.74.67.67,0,0,1,0-.29V122c0-.33,0-.36-.29-.36-.64,0-1.28,0-1.91,0-.2,0-.26.09-.24.32s0,.4,0,.59a.5.5,0,0,1,0,.19l0,0a.1.1,0,0,1-.06,0c0,1,0,1.93,0,2.89a24.08,24.08,0,0,0,5.08,3.5v-1.52Z"/><path class="cls-13" d="M159.83,86.19c.15,0,.18.12.18.28,0,.79,0,1.58,0,2.37,0,.3,0,.34.27.34h1.61l.67,0v-.4c0-2.51,0-5,0-7.55a25.64,25.64,0,0,0-5.09-.83v5.77C158.29,86.19,159.06,86.24,159.83,86.19Z"/><path class="cls-16" d="M137.27,90.72l.08,0a.19.19,0,0,0,.07-.12v-.1c0-.22,0-.44,0-.66s.06-.4.31-.43a1,1,0,0,1,.3,0,.72.72,0,0,0,.41,0c.32-.1.63,0,1,0,.15,0,.2.06.2.24s0,.55,0,.82,0,.29.14.32h0c0-.89,0-1.79,0-2.69,0-.12,0-.25,0-.37,0-.38,0-.75,0-1.13-.51.45-1,.91-1.49,1.4s-.67.75-1,1.14c0,.42,0,.84,0,1.26Z"/><path class="cls-14" d="M139.76,87.7H142c.27,0,.29,0,.29-.37,0-.91,0-1.82,0-2.73a23.9,23.9,0,0,0-2.56,2c0,.38,0,.75,0,1.13Z"/><path class="cls-11" d="M147,87.69c.33,0,.35,0,.35-.42,0-1.76,0-3.53,0-5.29a25,25,0,0,0-2.53,1.13v4.58Z"/><path class="cls-11" d="M147.33,125c0-.22-.08-.28-.25-.28a18.78,18.78,0,0,1-2.25,0v4.59a22.87,22.87,0,0,0,2.53,1.12c0-1.71,0-3.42,0-5.13C147.35,125.12,147.33,125,147.33,125Z"/><path class="cls-6" d="M190.43,126.49c0-.33,0-.33-.27-.33-.65,0-1.31,0-2,0-.19,0-.21,0-.21.24,0,1.71,0,3.42,0,5.14h2.52c0-.84,0-1.68,0-2.52S190.43,127.33,190.43,126.49Z"/><path class="cls-6" d="M188,85.83c0,.13,0,.3,0,.4s.17,0,.26,0h1.89c.26,0,.26,0,.26-.33l0-5.21H188c0,.35,0,.71,0,1.07C188,83.1,188,84.46,188,85.83Z"/><path class="cls-9" d="M152.73,84.58c.64,0,1.29,0,1.94,0,.25,0,.29,0,.29-.36,0-1.26,0-2.53,0-3.8a23.59,23.59,0,0,0-2.52.23v3.63C152.48,84.51,152.54,84.58,152.73,84.58Z"/><path class="cls-17" d="M147.6,121.61c.5,0,1,0,1.52,0h.19l.21,0a2.21,2.21,0,0,1,.37.08,1.09,1.09,0,0,0,0-.18,15.47,15.47,0,0,1-2.55-1.4v1.16C147.35,121.53,147.41,121.61,147.6,121.61Z"/><path class="cls-17" d="M149.46,87.65c-.6,0-1.19,0-1.78,0-.31,0-.32,0-.32.4v4.08a15.08,15.08,0,0,1,2.55-1.4c0-1.07,0-2.13,0-3.2A.62.62,0,0,1,149.46,87.65Z"/><path class="cls-17" d="M144.83,83.11a24.52,24.52,0,0,0-2.52,1.49c0,.91,0,1.82,0,2.73,0,.34,0,.37-.29.37h-2.26c0,.12,0,.25,0,.37,0,.9,0,1.8,0,2.69h0c0,.47,0,.93,0,1.39q0,15.09,0,30.17v.5a.1.1,0,0,0,.06,0l0,0a.5.5,0,0,0,0-.19c0-.19,0-.39,0-.59s0-.32.24-.32c.63,0,1.27,0,1.91,0,.27,0,.29,0,.29.36v3.89a.67.67,0,0,0,0,.29,1.56,1.56,0,0,1,.09.74v.33c0,.32,0,.34.26.34h1.56a1.46,1.46,0,0,1,.36,0l.09,0,.13,0h0V118l-.14-.14a16.95,16.95,0,0,1,0-23.49l.15-.15q0-3.27,0-6.55Z"/><path class="cls-11" d="M157.53,126.16h2.24c.16,0,.24,0,.24-.28,0-.82.07-1.64,0-2.47v-.15c0-.1,0-.17.14-.17.46,0,.93,0,1.39,0s.67,0,1,0h0a1.33,1.33,0,0,0,0-.4v-1.29a16.18,16.18,0,0,1-5.08,1.31v3.46Z"/><path class="cls-11" d="M162.6,89.22l-.67,0h-1.61c-.24,0-.27,0-.27-.34,0-.79,0-1.58,0-2.37,0-.16,0-.29-.18-.28-.77,0-1.54,0-2.31,0v3.35a16.05,16.05,0,0,1,5.09,1.26V89.57C162.61,89.45,162.6,89.34,162.6,89.22Z"/><path class="cls-16" d="M165.1,126.12h1.75c.19,0,.38,0,.57,0s.2-.06.2-.24c0-1,0-2,0-3,0-1.7,0-3.4,0-5.1a15.19,15.19,0,0,1-2.57,2.25v4.92C165.09,125.31,165.1,125.71,165.1,126.12Z"/><path class="cls-16" d="M168.78,117.14h.29a3.48,3.48,0,0,0,1.1-.15c0-.11,0-.22,0-.32V114a16.5,16.5,0,0,1-2,3.1Z"/><path class="cls-16" d="M170.17,93.83a1.06,1.06,0,0,0-.25,0c-.66.07-1.31,0-2,0-.29,0-.29,0-.3-.36,0-2.84,0-5.68,0-8.52,0-.22-.06-.3-.24-.29-.53,0-1.06,0-1.59,0a1.81,1.81,0,0,0-.69.07c0,.12,0,.25,0,.37v7.08a14.87,14.87,0,0,1,5.08,6.36c0-1.48,0-3,0-4.42Z"/><path class="cls-16" d="M170.17,117.29v-.11C170.1,117.22,170.1,117.26,170.17,117.29Z"/><path class="cls-13" d="M131,106.2a26.07,26.07,0,0,0,1.18,7.71V98.4A26.56,26.56,0,0,0,131,106.2Z"/><path class="cls-14" d="M137.27,91v-.62c0-.42,0-.84,0-1.26a26.2,26.2,0,0,0-2.54,3.59q0,6,0,11.91v15a27.74,27.74,0,0,0,2.55,3.58q0-10.8,0-21.61Z"/><path class="cls-13" d="M128.05,89.51s0,0,0,0h.45v-.12h-.36S128.05,89.44,128.05,89.51Z"/><path class="cls-13" d="M127.43,89.44l-.29,0v.07h.34a.05.05,0,0,0,0,0A.07.07,0,0,0,127.43,89.44Z"/><path class="cls-13" d="M139.76,122.82v-.5q0-15.07,0-30.17c0-.46,0-.92,0-1.39-.15,0-.14-.19-.14-.32s0-.54,0-.82,0-.27-.2-.24c-.32.08-.63-.06-1,0a.72.72,0,0,1-.41,0,1,1,0,0,0-.3,0c-.25,0-.31.1-.31.43s0,.44,0,.66v.1a.19.19,0,0,1-.07.12l-.08,0v10.82q0,10.81,0,21.61c.33.39.66.77,1,1.15s1,1,1.48,1.41c0-1,0-1.93,0-2.89Z"/><path class="cls-18" d="M222.55,109v.32l.11-.13Z"/><path class="cls-19" d="M211.4,155.87h-3.34v1.07h2.06a1.8,1.8,0,0,1-1.62.92,2,2,0,0,1,0-3.94,1.66,1.66,0,0,1,1.73,1.16l0,.09h1.13l0-.14a2.77,2.77,0,0,0-2.85-2.18,3,3,0,0,0,0,6,2.88,2.88,0,0,0,2.9-3"/><polygon class="cls-19" points="106.48 158.81 107.54 158.81 107.54 156.4 109.79 156.4 109.79 155.4 107.54 155.4 107.54 153.96 110.08 153.96 110.08 152.93 106.48 152.93 106.48 158.81"/><path class="cls-19" d="M115.85,153.72a3,3,0,0,0-4.29,0,3.08,3.08,0,0,0-.88,2.15,3,3,0,0,0,.88,2.14,3,3,0,0,0,2.14.9,3,3,0,0,0,2.15-.9,3,3,0,0,0,.88-2.14,3.08,3.08,0,0,0-.88-2.15Zm-2.15,4.12a1.94,1.94,0,0,1-1.37-.58h0a2,2,0,0,1-.58-1.39,1.92,1.92,0,0,1,.58-1.39h0a2,2,0,0,1,2.76,2.79,2,2,0,0,1-1.39.58"/><path class="cls-19" d="M122.68,153.72a3,3,0,0,0-4.28,0,3.08,3.08,0,0,0-.88,2.15,3,3,0,0,0,.88,2.14,3,3,0,0,0,2.14.9,3,3,0,0,0,2.14-.9,3.05,3.05,0,0,0,0-4.29Zm-2.14,4.12a2,2,0,0,1-1.38-.58h0a2,2,0,0,1-.58-1.39,1.92,1.92,0,0,1,.58-1.39h0a1.93,1.93,0,0,1,2.77,0,2,2,0,0,1,0,2.78,2,2,0,0,1-1.39.58"/><polygon class="cls-19" points="124.04 153.94 125.75 153.94 125.75 158.81 126.8 158.81 126.8 153.94 128.5 153.94 128.5 152.93 124.04 152.93 124.04 153.94"/><polygon class="cls-19" points="130.54 156.4 133.1 156.4 133.1 155.34 130.54 155.34 130.54 153.99 133.16 153.99 133.16 152.94 129.48 152.94 129.48 158.81 133.16 158.81 133.16 157.75 130.54 157.75 130.54 156.4"/><polygon class="cls-19" points="133.75 159.61 134.74 159.61 135.61 157.89 134.44 157.89 133.75 159.61"/><path class="cls-19" d="M142.72,156.54a1.82,1.82,0,0,1-3.05.7,1.93,1.93,0,0,1-.55-1.36,2,2,0,0,1,.55-1.37A1.8,1.8,0,0,1,141,154a1.7,1.7,0,0,1,1.7,1.19l0,.08h1.05l0-.15a2.93,2.93,0,0,0-1-1.58,2.8,2.8,0,0,0-1.75-.59,2.85,2.85,0,0,0-2,.88h0a3,3,0,0,0,0,4.19,2.78,2.78,0,0,0,2,.88,2.83,2.83,0,0,0,2.78-2.25l0-.14h-1Z"/><path class="cls-19" d="M149.68,153.72a3,3,0,0,0-4.29,0,3.05,3.05,0,0,0,0,4.29,3,3,0,0,0,2.14.9,3,3,0,0,0,2.15-.9,3.08,3.08,0,0,0,.88-2.14,3.12,3.12,0,0,0-.88-2.15Zm-2.15,4.12a2,2,0,0,1-1.38-.58h0a1.94,1.94,0,0,1-.57-1.39,1.91,1.91,0,0,1,.57-1.39h0a1.93,1.93,0,0,1,2.77,0,2,2,0,0,1,0,2.78,2,2,0,0,1-1.39.58"/><polygon class="cls-19" points="155.15 156.64 152.62 152.98 152.58 152.93 151.77 152.93 151.77 158.81 152.82 158.81 152.82 155.13 155.33 158.76 155.37 158.81 156.19 158.81 156.19 152.93 155.15 152.93 155.15 156.64"/><polygon class="cls-19" points="158.9 156.4 161.46 156.4 161.46 155.34 158.9 155.34 158.9 153.99 161.51 153.99 161.51 152.94 157.84 152.94 157.84 158.81 161.52 158.81 161.52 157.75 158.9 157.75 158.9 156.4"/><path class="cls-19" d="M170,156.32l-.91-.47-.35.6-.7-.74a2.48,2.48,0,0,0,.62-.5,1.41,1.41,0,0,0,.33-.93,1.44,1.44,0,0,0-1.49-1.41,1.92,1.92,0,0,0-.59.09,1.73,1.73,0,0,0-.52.28,1.38,1.38,0,0,0-.51,1.11,1.8,1.8,0,0,0,.46,1.14,1.8,1.8,0,0,0-.86,2.31,1.7,1.7,0,0,0,.39.57,1.79,1.79,0,0,0,.59.37,2.13,2.13,0,0,0,.76.13,2,2,0,0,0,.89-.19,2.32,2.32,0,0,0,.7-.54l.59.66h1v-.48l-1-1.07Zm-2.53-2.45a.44.44,0,0,1,.47.42.63.63,0,0,1-.2.43,2.52,2.52,0,0,1-.44.31,1.27,1.27,0,0,1-.35-.7.5.5,0,0,1,.52-.46m-.44,2.35,1.11,1.16a1.13,1.13,0,0,1-.85.46.83.83,0,0,1-.9-.79c0-.28.21-.55.64-.83"/><path class="cls-19" d="M177.61,155.56a1.42,1.42,0,0,0,.3-1.62,1.53,1.53,0,0,0-.57-.74,1.57,1.57,0,0,0-.91-.26H174v5.87h2.66a1.68,1.68,0,0,0,1.32-.58,1.83,1.83,0,0,0,.33-.58,2.08,2.08,0,0,0,.11-.66,1.76,1.76,0,0,0-.23-.89,1.5,1.5,0,0,0-.55-.54m-.78-.57a.51.51,0,0,1-.41.18H175V154h1.42a.55.55,0,0,1,.54.6.74.74,0,0,1-.14.44m-.2,2.79H175v-1.56h1.62a.71.71,0,0,1,.71.77.73.73,0,0,1-.71.79"/><polygon class="cls-19" points="180.66 156.4 183.22 156.4 183.22 155.34 180.66 155.34 180.66 153.99 183.28 153.99 183.28 152.94 179.6 152.94 179.6 158.81 183.28 158.81 183.28 157.75 180.66 157.75 180.66 156.4"/><polygon class="cls-19" points="185.83 152.93 184.78 152.93 184.78 158.81 188.48 158.81 188.48 157.78 185.83 157.78 185.83 152.93"/><path class="cls-19" d="M193.86,153.88a2.76,2.76,0,0,0-2.19-.94h-2.14v5.87h2.14a2.8,2.8,0,0,0,2.19-.94,2.9,2.9,0,0,0,.53-.94,3.36,3.36,0,0,0,0-2.11,2.8,2.8,0,0,0-.53-.94m-2.19,3.87h-1.09V154h1.09a1.88,1.88,0,0,1,0,3.76"/><polygon class="cls-19" points="195.48 153.9 196.53 153.9 196.53 157.83 195.48 157.83 195.48 158.81 198.63 158.81 198.63 157.83 197.58 157.83 197.58 153.9 198.63 153.9 198.63 152.93 195.48 152.93 195.48 153.9"/><polygon class="cls-19" points="203.37 156.64 200.84 152.98 200.8 152.93 199.99 152.93 199.99 158.81 201.04 158.81 201.04 155.13 203.55 158.76 203.58 158.81 204.41 158.81 204.41 152.93 203.37 152.93 203.37 156.64"/></g></svg>