<svg id="Logos" xmlns="http://www.w3.org/2000/svg" viewBox="0 0 320 240"><defs><style>.cls-1{fill:#ef4823;}</style></defs><title>logo-card-deutsch-inc</title><g id="logo-deutsch"><path class="cls-1" d="M32.65,137.78c.89-5,1.76-9.87,2.62-14.74,1.2-6.77,2.43-13.53,3.56-20.31.24-1.47.83-2,2.3-2,4.29.07,8.58,0,12.87.06,8,.2,11.6,4.52,10.31,12.38Q63,121,61.59,128.72c-1,5.57-3.55,8.49-9.18,8.94C46,138.18,39.47,137.78,32.65,137.78Zm9.92-7.37c2.51,0,4.72.08,6.93,0,1.66-.07,3.15-.8,3.48-2.55,1-5.44,2-10.89,2.85-16.35a2.26,2.26,0,0,0-2.18-2.79,53.12,53.12,0,0,0-6.18-.23c-.42,0-1.1.74-1.19,1.22C45,116.5,43.82,123.34,42.57,130.41Z"/><path class="cls-1" d="M264.79,115.61c3.68,0,6.93.06,10.18-.07.5,0,1.28-.89,1.4-1.47.77-3.77,1.47-7.55,2-11.35.22-1.49.84-2,2.31-2,2.11.09,4.23,0,6.63,0-.89,5.18-1.69,10-2.53,14.77-1.19,6.77-2.45,13.53-3.56,20.32-.28,1.74-.95,2.41-2.72,2.28-2-.15-4,0-6.28,0,.84-5.08,1.64-9.84,2.5-15-3.74,0-7.18,0-10.62.08-.36,0-.88,1-1,1.66-.72,3.78-1.39,7.57-2,11.37-.22,1.43-.83,2-2.32,1.91-2.12-.12-4.25,0-6.62,0,.93-5.3,1.79-10.25,2.66-15.19,1.19-6.77,2.43-13.54,3.54-20.33.24-1.43.85-1.86,2.18-1.82,2.12.06,4.24,0,6.72,0Z"/><path class="cls-1" d="M121.41,100.85c-.91,5.23-1.74,10.09-2.59,15-.61,3.5-1.26,7-1.85,10.49-.54,3.25.37,4.42,3.59,4.69,5,.42,6.82-1,7.71-6,1.31-7.44,2.67-14.86,3.94-22.3.23-1.3.67-2,2.11-1.93,2.13.09,4.27,0,6.83,0-.57,3.32-1.09,6.34-1.62,9.35-1,5.83-2,11.67-3.09,17.49-1.27,6.74-5.27,10.45-12.14,10.82a31.64,31.64,0,0,1-9.62-.79c-4.9-1.29-7.25-5.22-6.46-10.19,1.34-8.41,2.9-16.77,4.41-25.14.1-.54.65-1.39,1-1.41C116.14,100.79,118.62,100.85,121.41,100.85Z"/><path class="cls-1" d="M101.32,100.9c.17.42.23.49.22.55-.77,7-.77,7-7.77,7H85.34c-.39,2.2-.76,4.27-1.19,6.67H98c-.43,2.41-.71,4.51-1.26,6.54-.12.46-1.21.92-1.86.94a95.06,95.06,0,0,1-9.55,0c-2.14-.15-2.89.67-3.08,2.62-.15,1.69-.51,3.35-.83,5.31h15c-.43,2.53-.78,4.74-1.22,6.94a1.29,1.29,0,0,1-1,.66c-7.46,0-14.92,0-22.69,0,.74-4.37,1.43-8.44,2.14-12.5,1.3-7.44,2.67-14.87,3.9-22.32.31-1.84,1-2.58,3-2.54,6.22.14,12.45.05,18.67.06C99.9,100.8,100.63,100.87,101.32,100.9Z"/><path class="cls-1" d="M183.11,130c3.9.47,7.47,1.07,11.06,1.28,3.91.22,4.75-1,5.06-5.3.05-.78-1.11-2-2-2.41-1.88-.83-4-1.15-5.92-1.84-5-1.77-6.47-4.2-5.87-9.47,1.06-9.42,3.85-12.07,13.24-12a97.18,97.18,0,0,1,10.15,1c1.43.15,2,.73,1.64,2.35-1.11,5.18-1,5.12-6.29,4.47a45.37,45.37,0,0,0-7.09-.28c-2.22.08-2.87,1.25-3.2,4.5-.2,1.92,1,2.4,2.45,2.83,2.4.74,4.87,1.31,7.2,2.23,3.47,1.38,4.61,3.37,4.49,7.08,0,.37,0,.74-.07,1.11-1,9.67-4.39,13-14.09,13-3.63,0-7.26-1.11-10.88-1.76-1.25-.23-1.71-1-1.24-2.26C182.3,133.05,182.69,131.48,183.11,130Z"/><path class="cls-1" d="M241.45,130.14c0,2.1.07,4.08-.06,6.06a1.85,1.85,0,0,1-1.12,1.31c-4.94,1.08-9.93,1.86-14.94.6-5.34-1.35-7.82-5.19-6.93-10.65s1.82-10.81,2.84-16.19c1.37-7.3,5.41-10.71,13.65-11,3.58-.11,7.19.74,10.78,1.17,1.21.15,1.54.76,1.27,2-1.24,5.57-1.2,5.54-6.73,4.93a47.78,47.78,0,0,0-6-.26,4.23,4.23,0,0,0-4.38,3.68c-1,4.94-1.9,9.89-2.65,14.87-.44,2.91.75,4.18,3.74,4.11C234.25,130.75,237.56,130.4,241.45,130.14Z"/><path class="cls-1" d="M153.68,138.12c1.76-10,3.44-19.68,5.19-29.69h-10c.45-2.52.78-4.68,1.27-6.8.09-.36.89-.79,1.36-.79,8.8,0,17.61,0,26.41,0,.19,0,.39.16.84.36-.36,2.05-.65,4.16-1.14,6.22-.1.4-.94.86-1.47.89a30.16,30.16,0,0,1-5.54,0c-2.42-.29-3.27.6-3.65,3-1.29,8.25-2.91,16.45-4.25,24.7-.29,1.76-1,2.17-2.61,2.09C158.14,138,156.15,138.12,153.68,138.12Z"/></g></svg>