<svg id="Logos" xmlns="http://www.w3.org/2000/svg" viewBox="0 0 320 240"><defs><style>.cls-1{fill:#1f1f1f;}</style></defs><title>logo-card-avant-gardner-brooklyn</title><g id="logo-avant-gardner-brooklyn"><path class="cls-1" d="M176.54,98.57a9.42,9.42,0,0,0-.21,1.48c0,4.42.07,8.84.12,13.26v2h-5l0-28.8h4.46L185,103.37V86.85l5.06-.16v28.7H185.6s-.71-1.21-1.06-1.85c-2.35-4.27-4.71-8.55-7-12.83-.38-.7-.67-1.46-1-2.19l-.11.13Z"/><path class="cls-1" d="M173.7,122.48h4.81l9.18,16.88V122.5h5.1v28.76h-4.62c-3-5.51-6.08-11.08-9.33-17,.23,5.88.35,11.42.16,17.06h-5.3C173.69,141.67,173.7,132.13,173.7,122.48Z"/><path class="cls-1" d="M98.48,127.48,94,129.76c-.3-.18-.44-.22-.49-.3a6,6,0,0,0-7.4-2.51,3.29,3.29,0,0,0-2.21,3.35c0,2.82,0,5.63,0,8.44,0,1.55,0,3.1,0,4.65A3.29,3.29,0,0,0,87.4,147h.52c4,0,5.21-1.4,4.52-5.71-.76-.05-1.58-.11-2.4-.15s-1.57-.08-2.49-.12v-4.62H97.86c0,.61.13,1.16.13,1.72,0,1.78,0,3.56,0,5.34,0,4.93-2.8,8-7.67,8.42a24,24,0,0,1-5.15-.14,7.47,7.47,0,0,1-6.64-7.57q-.08-7.23,0-14.46A7.29,7.29,0,0,1,85,122.12a31.61,31.61,0,0,1,7.53,0C95.51,122.47,97.22,124.62,98.48,127.48Z"/><path class="cls-1" d="M216.41,122.47v4.71H204.77a49.45,49.45,0,0,0-.16,6.78c3.27.58,6.48-.06,9.79.41v4.73h-9.68v7.34c3.9.28,7.72,0,11.68.18v4.64H199.57l0-28.79Z"/><path class="cls-1" d="M137.27,105.35l5.15-18.79h5.76l-8.78,28.82h-4.22c-2.89-9.44-8.76-28.65-8.76-28.65l5.67-.21S135.49,98.89,137.27,105.35Z"/><path class="cls-1" d="M205.53,115.38h-5.3V91.43l-5.93-.18V86.76l17-.09v4.56h-5.56s-.16,5.5-.2,8.1,0,5.28,0,7.92Z"/><path class="cls-1" d="M190.85,163v7.42h-1.43V160.12h1.66l5.69,7.88v-7.84h1.51v10.2h-1.69l-5.37-7.5-.37-.46Z"/><path class="cls-1" d="M172.15,170.48h-2.67l-4.54-4.15v4.15h-1.48V160.2h1.48s-.08,2.45,0,4c1.38-1.48,3.73-4,3.73-4h1.8c-1.53,1.75-4.21,4.87-4.21,4.87Z"/><polygon class="cls-1" points="173.2 170.38 173.2 160.17 174.55 160.17 174.55 168.92 179.46 168.92 179.46 170.38 173.2 170.38"/><path class="cls-1" d="M183.63,164.63l2.39-4.37h1.59c-1,2.16-3.21,6.19-3.21,6.19l0,3.86H182.8l0-3.86-3.25-6.28,1.56-.07S182.67,162.94,183.63,164.63Z"/><path class="cls-1" d="M176.54,98.57l-.09,0h.05Z"/><path class="cls-1" d="M237.06,138.2c.59-.69,1-1.2,1.41-1.65,2.72-2.8,3.11-6.06,1.67-9.53-1.37-3.31-4.1-4.63-7.55-4.65-3,0-6.09,0-9.13,0-.61,0-1.77.11-1.77.11l.05,28.76h5c0-2.13,0-4.07,0-6a44.74,44.74,0,0,1,.15-6h4.64c1.42,4.06,2.84,8.09,4.23,12h5.71Q239.16,144.36,237.06,138.2Zm-4.2-4.11c-1.91.17-3.85,0-5.94,0a28.2,28.2,0,0,1,.06-6.87c2,0,3.9-.11,5.76,0a3.31,3.31,0,0,1,2.87,3.35A3.35,3.35,0,0,1,232.86,134.09Z"/><path class="cls-1" d="M140.09,137.94l1-.88a8.43,8.43,0,0,0,2.91-7.22c-.32-3.86-3-7.09-6.74-7.34-4.11-.26-12.46-.06-12.46-.06l.14,28.83h5v-12h4.78c1.43,4.09,2.85,8.11,4.22,12h5.7C143,146.68,141.57,142.31,140.09,137.94ZM136.25,134a58.85,58.85,0,0,1-6.25,0v-6.73a60.57,60.57,0,0,1,6.19,0,3.08,3.08,0,0,1,2.44,3.28C138.64,132.3,137.73,133.86,136.25,134Z"/><path class="cls-1" d="M168.42,130.17a7.69,7.69,0,0,0-7.93-7.79c-3.38-.07-6.76,0-10.15,0-.33,0-1.09.1-1.09.1l.16,28.91s7.6.12,11.43,0a7.6,7.6,0,0,0,7.58-7.77Q168.57,136.88,168.42,130.17Zm-5.35,13.29a2.9,2.9,0,0,1-2.64,2.95c-1.92.18-3.86.05-6,.05V127.34c2.16,0,4.21-.15,6.22,0a2.92,2.92,0,0,1,2.41,3Q163.17,136.92,163.07,143.46Z"/><path class="cls-1" d="M113.05,122.47h-4.23l-8.77,28.8h5.65c.53-1.7,1-3.38,1.58-5.11h7.27c.55,1.78,1.06,3.46,1.58,5.15h5.71Zm-4.33,18.43c.74-2.88,1.43-5.53,2.11-8.17l.27.05c.64,2.63,1.27,5.27,2,8.12Z"/><path class="cls-1" d="M119.17,86.52H115c-1.48,4.85-3,9.59-4.38,14.35s-3.06,9.51-4.32,14.54h5.54c.53-1.73,1-3.41,1.61-5.19h7.22c.56,1.79,1.08,3.47,1.6,5.16H128C125,105.63,122.08,96.09,119.17,86.52ZM114.89,105c.7-2.84,1.35-5.43,2-8l.33-.07c.65,2.58,1.29,5.15,2,7.9C117.83,105.44,116.53,105.2,114.89,105Z"/><path class="cls-1" d="M159.59,86.52H155.4l-8.78,28.82h5.67l1.56-5.11h7.26c.56,1.83,1.55,5.11,1.55,5.11h6ZM155.29,105c.75-2.93,1.4-5.51,2.06-8.09l.3,0c.64,2.63,1.28,5.26,2,8.11Z"/><path class="cls-1" d="M127.16,165.55c-.22-.32-.51-.61-.78-.93.09-.24.19-.45.25-.66.58-2.12-.33-3.55-2.49-3.75-1.12-.11-2.26,0-3.44,0v10.17a31.05,31.05,0,0,0,4.54,0A3,3,0,0,0,127.16,165.55Zm-5.1-3.77h2.45c1.18,0,1.39,2,.1,2.36h-2.55Zm2.65,7.19c-.84.05-1.68,0-2.62,0v-3.25c1,0,1.85-.07,2.73,0a1.47,1.47,0,0,1,1.38,1.67A1.45,1.45,0,0,1,124.71,169Z"/><path class="cls-1" d="M156,160.05a5.27,5.27,0,1,0,.07,10.54,5.27,5.27,0,0,0-.07-10.54Zm0,8.95a3.64,3.64,0,0,1-3.77-3.78,3.71,3.71,0,0,1,3.78-3.63,3.82,3.82,0,0,1,3.81,3.82A3.74,3.74,0,0,1,156,169Z"/><path class="cls-1" d="M144,160.05a5.26,5.26,0,1,0,5.23,5.27A5.36,5.36,0,0,0,144,160.05Zm0,9a3.64,3.64,0,0,1-3.86-3.7,3.76,3.76,0,0,1,3.69-3.74,3.83,3.83,0,0,1,3.88,3.57A3.7,3.7,0,0,1,144,169Z"/><path class="cls-1" d="M135,166.23l.79-.6a3,3,0,0,0,.93-3.44,2.76,2.76,0,0,0-2.73-2c-1.3-.06-2.61,0-4,0v10.19h1.43v-4l1.62-.09,2.93,4.28h1.75Zm-1.53-1.4c-.62,0-1.25,0-2,0v-3.06h3.09a1.58,1.58,0,0,1,.75,2.07A1.67,1.67,0,0,1,133.42,164.83Z"/></g></svg>