<svg id="Logos" xmlns="http://www.w3.org/2000/svg" viewBox="0 0 320 240"><defs><style>.cls-1{fill:#231f20;}.cls-2{fill:#010101;}</style></defs><title>logo-card-heather-huey</title><polygon class="cls-1" points="191.26 59.6 191.26 75.1 160.27 75.1 160.27 59.6 159.73 59.6 159.73 75.1 128.74 75.1 128.74 59.6 128.19 59.6 128.19 91.14 128.74 91.14 128.74 75.64 159.73 75.64 159.73 91.14 160.27 91.14 160.27 75.64 191.26 75.64 191.26 91.14 191.81 91.14 191.81 59.6 191.26 59.6"/><g id="logo-heather-heuey"><path class="cls-2" d="M28.87,117.39h3.54v10.69H41.5V117.39h3.55v25.48H41.5V131.13H32.41v11.74H28.87Z"/><path class="cls-2" d="M53.65,117.39H69.48v3.12H57.3v7.4h9v3.22H57.37v8.51H70.14v3.23H53.65Z"/><path class="cls-2" d="M89.2,137.56H79.13l-1.59,5.31H73.82l8.23-25.48h4l8.61,25.48H90.94Zm-1-2.95-4-13c0-.07-.07-.14-.18-.14s-.14.11-.17.18l-3.78,13Z"/><path class="cls-2" d="M113.57,117.39v3.23h-7.39v22.25h-3.65V120.62H95.1v-3.23Z"/><path class="cls-2" d="M119.37,117.39h3.54v10.69H132V117.39h3.54v25.48H132V131.13h-9.09v11.74h-3.54Z"/><path class="cls-2" d="M144.15,117.39H160v3.12H147.8v7.4h9v3.22h-8.92v8.51h12.77v3.23H144.15Z"/><path class="cls-2" d="M167.31,117.39h7.84c7.12,0,8.65,4.3,8.65,6.9,0,4.8-3.16,6.08-5.45,6.81L185,142.87h-4.16l-6-11.32h-3.93v11.32h-3.57Zm3.54,3v8.44a33.88,33.88,0,0,0,5.76-.24c1.39-.32,3.58-1,3.58-3.89,0-3-2-4.31-5.84-4.31Z"/><path class="cls-2" d="M200.29,117.39h3.54v10.69h9.09V117.39h3.54v25.48h-3.54V131.13h-9.09v11.74h-3.54Z"/><path class="cls-2" d="M228.89,117.39v17c0,2.75.62,6,4.79,6a4.45,4.45,0,0,0,3.89-2.18,11.35,11.35,0,0,0,.76-4.73v-16.1h3.2V134.5c0,2.5-.52,5.07-2.26,6.84a8.22,8.22,0,0,1-6.39,2.29,7.27,7.27,0,0,1-5.9-3,10.64,10.64,0,0,1-1.63-6.46v-16.8Z"/><path class="cls-2" d="M250.13,117.39H266v3.12H253.78v7.4h9v3.22h-8.92v8.51h12.77v3.23H250.13Z"/><path class="cls-2" d="M282.73,132.83v10H279V133l-8.68-15.59h4.17l5.38,10.42c.07.13.76,1.63.8,1.66l.24.31h.24c.21-.34.91-1.9,1.08-2.22l5.28-10.2h3.64Z"/></g></svg>