<svg id="Logos" xmlns="http://www.w3.org/2000/svg" viewBox="0 0 320 240"><defs><style>.cls-1{fill:#f05323;}</style></defs><title>logo-card-jack-morton</title><g id="logo-jack-morton-worldwide"><path class="cls-1" d="M124.83,111.15V125c0,1.61-.11,3.23-1.51,3.23a2.54,2.54,0,0,1-1.78-.89l-.27-.28-1.45,2.06.22.16a5.11,5.11,0,0,0,3.28,1.34,4,4,0,0,0,3.23-1.56,6.43,6.43,0,0,0,1-4.12V111.1h-2.67Z"/><path class="cls-1" d="M153.54,110.82a9.18,9.18,0,1,0,0,18.36,9.1,9.1,0,0,0,5.29-1.72l.17-.11V124l-.61.61a7.09,7.09,0,0,1-4.9,2.17,6.74,6.74,0,0,1,0-13.47,6.87,6.87,0,0,1,4.95,2.17l.61.61v-3.33l-.16-.12A8.56,8.56,0,0,0,153.54,110.82Z"/><path class="cls-1" d="M133.34,125.06h6.85c.11.28,1,2.45,1.56,3.79h2.83l-7.73-18-8,18.08h2.84C132.28,127.57,133.23,125.34,133.34,125.06Zm3.45-8.07c.45,1.12,2.06,4.9,2.34,5.63H134.4C134.73,121.89,136.35,118.11,136.79,117Z"/><path class="cls-1" d="M172.69,128.9s-6.29-7.06-8.46-9.46c2.39-2.39,8.24-8.29,8.24-8.29H176l-8.41,8.29c.39.45,8.58,9.46,8.58,9.46Zm-8.4-17.75h-2.56V128.9h2.56Z"/><path class="cls-1" d="M222.16,120a9.24,9.24,0,1,1-9.23-9.18A9.24,9.24,0,0,1,222.16,120Zm-2.56,0a6.68,6.68,0,1,0-6.67,6.73A6.7,6.7,0,0,0,219.6,120Z"/><path class="cls-1" d="M267.24,120a9.24,9.24,0,1,1-9.23-9.18A9.2,9.2,0,0,1,267.24,120Zm-2.56,0a6.65,6.65,0,1,0-6.67,6.73A6.7,6.7,0,0,0,264.68,120Z"/><path class="cls-1" d="M237.58,111.15v2.45h4.12v15.3h2.56V113.6h4.17v-2.45Z"/><path class="cls-1" d="M281.21,111.15v11.74c-2.5-2.67-9.07-9.51-11.46-12v18h2.56V117.22l11.52,12v-18l-2.62-.06Z"/><path class="cls-1" d="M198.9,110.82s-4.78,9.46-6.4,12.69c-1.61-3.18-6.4-12.69-6.4-12.69l-3.73,18H185l2.06-10c1.67,3.17,4.84,9.18,5.45,10.3.61-1.12,3.79-7.13,5.46-10.3l2,10h2.62Z"/><path class="cls-1" d="M232.29,121.22a5.1,5.1,0,0,0,3.51-4.89,5.21,5.21,0,0,0-5.18-5.18h-5.45V128.9h2.56V113.6h2.73a2.73,2.73,0,0,1,0,5.45h-2.73c.33.5,6.79,9.85,6.79,9.85h3.17C237.75,128.9,234.07,123.73,232.29,121.22Z"/><path class="cls-1" d="M74.35,123.73a2.79,2.79,0,0,1-2.78,2.78,2.76,2.76,0,0,1-2.79-2.78,2.79,2.79,0,0,1,5.57,0Zm-2.73-12.58a8.88,8.88,0,1,0,8.85,8.91A8.85,8.85,0,0,0,71.62,111.15ZM82.25,120a10.63,10.63,0,1,1-10.63-10.63A10.66,10.66,0,0,1,82.25,120Zm23,0a8.85,8.85,0,1,1-8.85-8.9A8.83,8.83,0,0,1,105.24,120Zm-8.85-10.63A10.63,10.63,0,1,0,107,120,10.62,10.62,0,0,0,96.39,109.37Zm0,15.36a3.93,3.93,0,0,1-3.62-2.34H90.88a5.74,5.74,0,0,0,11,0H100A4,4,0,0,1,96.39,124.73ZM55.71,120a8.85,8.85,0,1,1-8.85-8.9A9,9,0,0,1,55.71,120ZM46.8,109.37A10.63,10.63,0,1,0,57.43,120,10.63,10.63,0,0,0,46.8,109.37Zm4.12,13.47H42.68v1.78h8.24Z"/></g></svg>