<svg id="Logos" xmlns="http://www.w3.org/2000/svg" viewBox="0 0 320 240"><defs><style>.cls-1{fill:#ed2224;}.cls-2{fill:#fff;}</style></defs><title>logo-card-uniqlo</title><g id="logo-uniqlo"><path class="cls-1" d="M170.53,77.87v84.26H254.8V77.87Z"/><rect class="cls-2" x="232.63" y="89.4" width="5.32" height="26.62"/><path class="cls-2" d="M198.92,107.15a8.87,8.87,0,0,1-17.74,0h0V89.4h5.33v17.75h0a3.54,3.54,0,1,0,7.07,0V89.4h5.34Z"/><polygon class="cls-2" points="223.75 150.61 206.02 150.61 206.02 150.61 206.02 123.99 211.33 123.99 211.33 145.28 223.75 145.28 223.75 150.61"/><polygon class="cls-2" points="223.75 116.01 218.43 116.01 211.33 100.8 211.33 116.01 206.02 116.01 206.02 89.4 211.33 89.4 218.43 104.6 218.43 89.4 223.75 89.4 223.75 116.01"/><path class="cls-2" d="M190.05,124a8.87,8.87,0,0,0-8.87,8.88v8.87a8.91,8.91,0,0,0,10.59,8.71l1.81,5.49h5.34l-2.64-7.9a8.81,8.81,0,0,0,2.64-6.3v-8.87A8.88,8.88,0,0,0,190.05,124Zm3.53,17.75a3.54,3.54,0,1,1-7.07,0v-8.87a3.54,3.54,0,1,1,7.07,0Z"/><path class="cls-2" d="M235.29,124a8.89,8.89,0,0,0-8.88,8.88v8.87a8.87,8.87,0,1,0,17.74,0v-8.87A8.87,8.87,0,0,0,235.29,124Zm3.55,17.75a3.55,3.55,0,0,1-7.1,0v-8.87a3.55,3.55,0,0,1,7.1,0Z"/><path class="cls-1" d="M65.2,77.87v84.26h84.27V77.87Z"/><rect class="cls-2" x="113.1" y="109.8" width="23.93" height="5.31"/><rect class="cls-2" x="115.75" y="89.4" width="18.63" height="5.32"/><polygon class="cls-2" points="96.25 89.4 80.27 89.4 80.27 94.72 90.92 94.72 90.92 109.8 77.63 109.8 77.63 115.11 101.57 115.11 101.57 109.8 96.25 109.8 96.25 89.4"/><path class="cls-2" d="M113.1,124.87h0v25.74H137V124.87H113.1Zm18.61,20.41h-13.3V130.2h13.3Z"/><polygon class="cls-2" points="80.27 124.87 77.56 137.75 82.87 137.75 84.48 130.2 95.15 130.2 92.02 145.28 76.02 145.28 74.95 150.61 96.25 150.61 101.57 124.87 80.27 124.87"/></g></svg>