<?xml version="1.0" encoding="utf-8"?>
<!-- Generator: Adobe Illustrator 23.0.1, SVG Export Plug-In . SVG Version: 6.00 Build 0)  -->
<svg version="1.1" id="Logos" xmlns="http://www.w3.org/2000/svg" xmlns:xlink="http://www.w3.org/1999/xlink" x="0px" y="0px"
	 viewBox="0 0 320 240" style="enable-background:new 0 0 320 240;" xml:space="preserve">
<g>
	<path d="M98.2,112.6c-3.4,5.2-6.8,10.4-10.4,15.8c-3.5-5.3-6.9-10.5-10.3-15.7c-0.1,0-0.1,0-0.2,0.1c0,7.9,0,15.8,0,23.8
		c-2,0-3.8,0-5.7,0c0-11.3,0-22.5,0-33.9c2,0,4,0,6.2,0c3.3,5.2,6.7,10.6,10.1,16c3.4-5.4,6.8-10.7,10.1-16c2.1,0,4.1,0,6.2,0
		c0,11.3,0,22.5,0,33.9c-1.8,0-3.6,0-5.6,0c0-7.9,0-15.9,0-23.9C98.4,112.6,98.3,112.6,98.2,112.6z"/>
	<path d="M153.4,102.6c1.8,0,3.5,0,5.3,0c5.8,7.7,11.6,15.4,17.5,23.1c0.1,0,0.2,0,0.2-0.1c0-7.7,0-15.3,0-23c2,0,3.8,0,5.8,0
		c0,11.3,0,22.5,0,33.9c-1.6,0-3.1,0-4.9,0c-6-7.9-12-15.8-18-23.8c-0.1,0-0.1,0-0.2,0.1c0,7.9,0,15.8,0,23.7c-2,0-3.8,0-5.7,0
		C153.4,125.2,153.4,114,153.4,102.6z"/>
	<path d="M128.6,137.2c-9.9-0.1-17.4-7.7-17.3-17.7c0.1-9.9,7.7-17.4,17.5-17.5c9.9-0.1,17.3,7.8,17.3,17.6
		C146.1,129.6,138.4,137.2,128.6,137.2z M128.8,131.7c3.3-0.1,5.9-1.2,8-3.5c4-4.5,4.3-11.8,0.5-16.5c-4.4-5.6-13.5-5.7-17.6,0.6
		c-3,4.6-3,9.4-0.3,14.1C121.5,129.9,124.8,131.6,128.8,131.7z"/>
	<path d="M246.5,116.7c0,1.9,0,3.6,0,5.4c-5.5,0-11,0-16.5,0c0,3.1,0,6,0,9.1c6.3,0,12.6,0,18.9,0c0,1.8,0,3.6,0,5.3
		c-8.2,0-16.4,0-24.7,0c0-11.3,0-22.5,0-33.9c8.1,0,16.3,0,24.5,0c0,1.7,0,3.4,0,5.3c-6.2,0-12.4,0-18.7,0c0,2.9,0,5.8,0,8.8
		C235.5,116.7,241,116.7,246.5,116.7z"/>
	<path d="M214.8,106.4c-1.1,1.5-2.1,3-3.1,4.4c-0.5,0-0.8-0.4-1.1-0.6c-2.1-1.4-4.3-2.5-6.8-2.7c-1.3-0.1-2.7-0.1-3.9,0.4
		c-2.1,0.8-3.1,2.8-2.5,4.9c0.2,0.7,0.6,1.3,1.2,1.7c1.1,0.8,2.3,1.2,3.5,1.6c2.5,0.8,5,1.2,7.4,2.2c0.5,0.2,1,0.4,1.5,0.6
		c3.6,1.9,5.4,5.2,4.8,9.2c-0.6,4.3-3,7.2-7.1,8.2c-7,1.8-13-0.1-18.5-4.7c1.2-1.4,2.3-2.8,3.4-4.2c0.5,0.1,0.8,0.4,1.1,0.7
		c2.9,2.3,6.2,3.8,10,3.6c1.2,0,2.4-0.3,3.5-0.9c2.5-1.5,2.7-4.9,0.3-6.6c-1.5-1.1-3.3-1.5-5-1.9c-2.3-0.6-4.5-1.1-6.6-2.1
		c-2.6-1.2-4.5-2.9-5.1-5.8c-1.2-5.6,1.7-10.6,7.4-11.9C204.8,101.2,210.1,102.6,214.8,106.4z"/>
</g>
</svg>
