<svg id="Logos" xmlns="http://www.w3.org/2000/svg" viewBox="0 0 320 240"><title>logo-card-marie-forleo</title><g id="logo-marie-forleo"><path d="M21.7,121.18V109.89c0-.67,0-.67.69-.67s1.65,0,2.47,0c.42,0,.45,0,.45.47v3.13a1.18,1.18,0,0,0,0,.2,1,1,0,0,0,.15-.14A11.08,11.08,0,0,1,28,110.25a7.69,7.69,0,0,1,4.29-1.49,9.24,9.24,0,0,1,3.62.42A8,8,0,0,1,40.37,113a.65.65,0,0,0,.13.23.19.19,0,0,0,.19,0,1.19,1.19,0,0,0,.21-.29,9.2,9.2,0,0,1,6.88-4.18,9.84,9.84,0,0,1,5.57.93,7.48,7.48,0,0,1,3.2,3.15,9.82,9.82,0,0,1,1.18,4c0,.52.08,1,.08,1.56,0,4.67,0,9.34,0,14,0,.64,0,.64-.64.64H54.75c-.54,0-.55,0-.55-.55V119.15a10.2,10.2,0,0,0-.6-3.46,5.37,5.37,0,0,0-4.87-3.61,7.06,7.06,0,0,0-2.82.32,6.16,6.16,0,0,0-3.79,3.74,7.32,7.32,0,0,0-.53,2.61c0,.85-.06,1.7-.07,2.55v11.19c0,.64,0,.64-.65.64H38.59c-.6,0-.6,0-.6-.59,0-4.34,0-8.69,0-13a16.61,16.61,0,0,0-.26-2.62,6.16,6.16,0,0,0-1.55-3.17A5.2,5.2,0,0,0,33,112.13a6.47,6.47,0,0,0-3.26.29,6.28,6.28,0,0,0-3.33,2.84,8.37,8.37,0,0,0-1.09,4.28v12.85c0,.12,0,.24,0,.36s-.09.38-.36.38H22c-.25,0-.35-.12-.34-.36V121.18Z"/><path d="M84.48,125.24v7.48a.35.35,0,0,1-.37.4h-2.6c-.48,0-.6-.12-.61-.58,0-.83,0-1.66,0-2.5a2,2,0,0,0,0-.24.67.67,0,0,0-.22.13,8.93,8.93,0,0,1-2,1.79,9.74,9.74,0,0,1-3.27,1.5,11.44,11.44,0,0,1-4,.33,9.53,9.53,0,0,1-3.81-1.05,8.32,8.32,0,0,1-2.33-1.7,6.12,6.12,0,0,1-1.47-2.58,8.5,8.5,0,0,1-.34-1.93A7.27,7.27,0,0,1,64.71,122a7.92,7.92,0,0,1,4.1-2.88,16.48,16.48,0,0,1,2.52-.59,9.1,9.1,0,0,1,1.73-.12c1.15,0,2.3,0,3.44.09a22.79,22.79,0,0,1,2.34.37c.57.11,1.13.25,1.7.38.32.07.37,0,.37-.29a8.69,8.69,0,0,0-.33-2.82,5.12,5.12,0,0,0-2.94-3.24,6.45,6.45,0,0,0-2.24-.58c-.69,0-1.37-.09-2.06-.09A14,14,0,0,0,69,113c-.67.22-1.34.49-2,.77-.23.1-.37,0-.45-.18s-.22-.55-.32-.83c-.17-.47-.34-.93-.5-1.39s-.16-.47.26-.65c.65-.27,1.3-.53,2-.76a15.66,15.66,0,0,1,3.51-.86,17.12,17.12,0,0,1,4.58-.1,14.65,14.65,0,0,1,3,.68,7.88,7.88,0,0,1,5.15,6.2,14.65,14.65,0,0,1,.29,2.88C84.47,120.92,84.48,123.08,84.48,125.24Zm-10.12-4.11h-1a8.08,8.08,0,0,0-3.11.56A4.57,4.57,0,0,0,67.58,124a4.89,4.89,0,0,0-.39,2,4.17,4.17,0,0,0,2.37,3.81,7.09,7.09,0,0,0,3.57.84,12,12,0,0,0,2.07-.23A7.27,7.27,0,0,0,79.61,128a4.79,4.79,0,0,0,1.25-2.57c.11-1,.08-2,.12-3a.34.34,0,0,0-.31-.4,2.63,2.63,0,0,1-.3-.09A21,21,0,0,0,74.36,121.13Z"/><path d="M134.1,122.56h-8.86c-.37,0-.41,0-.35.39a8.52,8.52,0,0,0,3.81,6.29,8,8,0,0,0,3.94,1.2,10.18,10.18,0,0,0,4.2-.66,9,9,0,0,0,2.38-1.4,13.84,13.84,0,0,0,1.07-1c.31-.29.39-.3.71,0l1.61,1.49c.26.25.26.32,0,.59a12.63,12.63,0,0,1-5.94,3.74,12.86,12.86,0,0,1-3.49.45,12,12,0,0,1-5.61-1.28,10.24,10.24,0,0,1-2.45-1.7,11.76,11.76,0,0,1-2.41-3,15.16,15.16,0,0,1-1.14-2.91,13.51,13.51,0,0,1-.46-3.57,13,13,0,0,1,.6-4,12,12,0,0,1,2.51-4.6,11.21,11.21,0,0,1,4-3,11,11,0,0,1,3.87-.82,11.49,11.49,0,0,1,2.93.22,10,10,0,0,1,5.17,2.84,12,12,0,0,1,2.84,5,14.87,14.87,0,0,1,.58,3.25c0,.59.07,1.19.08,1.78s-.1.72-.74.72Zm-1.69-2.7h7.07c.5,0,.53,0,.49-.54a.55.55,0,0,0,0-.18,13.41,13.41,0,0,0-.9-3.08,7.08,7.08,0,0,0-2.73-3.22,6.79,6.79,0,0,0-2.8-1,7.12,7.12,0,0,0-4,.59,7.76,7.76,0,0,0-3.55,3.41,10.57,10.57,0,0,0-1.11,3.29c-.11.63,0,.7.59.7Z"/><path d="M252,122.55h-9c-.21,0-.27.07-.24.26a8.41,8.41,0,0,0,4.41,6.76,8,8,0,0,0,3.39.87,10.91,10.91,0,0,0,3.41-.39,8.65,8.65,0,0,0,3.06-1.61c.41-.33.8-.68,1.19-1s.38-.27.68,0l1.6,1.43c.26.24.26.33,0,.59A12.36,12.36,0,0,1,256,132.7a11.82,11.82,0,0,1-3.77.9,13.12,13.12,0,0,1-3.86-.21,15.35,15.35,0,0,1-2.7-.92,10.59,10.59,0,0,1-3.7-2.81,11.64,11.64,0,0,1-2.48-4.66,14.61,14.61,0,0,1-.48-2.86,13.31,13.31,0,0,1,.85-5.89,11.85,11.85,0,0,1,2.08-3.57,10.94,10.94,0,0,1,5.08-3.43,11.37,11.37,0,0,1,2.9-.5A11.06,11.06,0,0,1,255.8,110a9.82,9.82,0,0,1,3.33,3,12,12,0,0,1,1.86,4,17,17,0,0,1,.6,4.82c0,.65-.08.73-.76.73H252Zm-1.67-2.69h7.11c.43,0,.44,0,.41-.41a10.45,10.45,0,0,0-.81-3.15,6.93,6.93,0,0,0-6.95-4.47,6.92,6.92,0,0,0-4,1.46,8.14,8.14,0,0,0-2.65,3.58,9.79,9.79,0,0,0-.67,2.59c0,.33,0,.39.36.4h7.21Z"/><path d="M291.13,121.34a12.47,12.47,0,0,1-12.81,12.32,12.48,12.48,0,0,1,.6-25C285.84,108.83,291,114.09,291.13,121.34ZM270,121.08a8.68,8.68,0,0,0,.56,3.46,8.62,8.62,0,0,0,8.79,5.81,8.17,8.17,0,0,0,4.68-1.8,9,9,0,0,0,3.31-6.46,10,10,0,0,0-.43-3.84,8.69,8.69,0,0,0-2.18-3.7,8.27,8.27,0,0,0-3.36-2.14,8.47,8.47,0,0,0-2.77-.46,9.19,9.19,0,0,0-3,.54,8,8,0,0,0-3.95,3.07A9,9,0,0,0,270,121.08Z"/><path d="M178.56,121.05a12.32,12.32,0,0,1,1.75-6.29,12.22,12.22,0,0,1,7.87-5.74,12.49,12.49,0,0,1,3.28-.34,12.66,12.66,0,0,1,7.8,3.07,12.06,12.06,0,0,1,3.88,6.68,11.86,11.86,0,0,1,.33,3.19,12.76,12.76,0,0,1-1.58,5.63,13.13,13.13,0,0,1-1.93,2.62,11.36,11.36,0,0,1-2.22,1.8,11.55,11.55,0,0,1-3.2,1.45,23.39,23.39,0,0,1-2.5.46,7.43,7.43,0,0,1-1.25.08,12.19,12.19,0,0,1-11.62-8.52A12.88,12.88,0,0,1,178.56,121.05Zm21.12.26a7.61,7.61,0,0,0,0-1.07,15.76,15.76,0,0,0-.41-1.93,8.6,8.6,0,0,0-4.42-5.42,8.29,8.29,0,0,0-4.36-.91,9,9,0,0,0-2.91.65,8.1,8.1,0,0,0-3.83,3.3,9,9,0,0,0-1.32,3.72,11,11,0,0,0,.06,3.39,9.27,9.27,0,0,0,1.09,3,8.52,8.52,0,0,0,3.45,3.36,8.65,8.65,0,0,0,5.37.91,8.18,8.18,0,0,0,5.92-3.9A8.76,8.76,0,0,0,199.68,121.31Z"/><path d="M168.57,122.77v9.62c0,.12,0,.24,0,.36s-.1.38-.36.38h-2.87c-.34,0-.36,0-.38-.41V113.26c0-.91.09-.8-.82-.81h-2c-.4,0-.44,0-.44-.44v-2.28c0-.4,0-.43.44-.43h2.23c.56,0,.55,0,.56-.57,0-1,0-2,.11-3a7.11,7.11,0,0,1,2.48-5A5.76,5.76,0,0,1,170,99.51a11.13,11.13,0,0,1,5.7.23c.42.13.43.16.43.6,0,.78,0,1.55,0,2.33,0,.34,0,.36-.37.27a11.36,11.36,0,0,0-3.43-.51,4.06,4.06,0,0,0-2.26.74,3.41,3.41,0,0,0-1.18,1.75,8.18,8.18,0,0,0-.36,2.78c0,.39,0,.78,0,1.16s0,.44.43.45h6.53c.57,0,.57,0,.57.58V112c0,.48,0,.5-.51.5h-6.35c-.71,0-.66,0-.66.66Z"/><path d="M209.73,121.17v-11.5c0-.34.09-.44.43-.44q1.41,0,2.82,0c.36,0,.43.1.44.51v4.79a3.75,3.75,0,0,0,.05.47c.08-.13.16-.24.23-.37a11.27,11.27,0,0,1,4.67-4.8,9.1,9.1,0,0,1,3.47-1c.25,0,.5-.06.75-.07s.5.09.5.46v3.09c0,.34,0,.36-.4.39-.59.06-1.19.09-1.77.19a8.28,8.28,0,0,0-5.14,3,10.75,10.75,0,0,0-2.26,5.65,12.94,12.94,0,0,0-.1,1.65c0,3,0,6.09,0,9.13v.36c0,.32-.09.42-.4.43h-2.9a.35.35,0,0,1-.39-.4c0-.13,0-.27,0-.4Z"/><path d="M91.9,121.16v-11.1c0-.12,0-.24,0-.36,0-.41.06-.48.46-.48.89,0,1.79,0,2.68,0,.42,0,.52.11.53.54,0,.67,0,1.34,0,2,0,1,0,2,0,3.08a.49.49,0,0,0,0,.16.93.93,0,0,0,.13-.15,12.21,12.21,0,0,1,1.76-2.63,9.36,9.36,0,0,1,5-3.12,21.06,21.06,0,0,1,2.11-.33c.49-.07.62.06.62.55,0,1,0,1.91,0,2.86,0,.45,0,.47-.46.53-.8.11-1.6.2-2.39.32a6.55,6.55,0,0,0-2.14.86,8.59,8.59,0,0,0-3.73,4.31,12.12,12.12,0,0,0-1,4.79c0,3.08,0,6.17,0,9.26,0,.8,0,.86-.86.86H92.48c-.53,0-.58-.07-.58-.61C91.89,128.74,91.9,125,91.9,121.16Z"/><path d="M232.32,116.29v16.16c0,.68,0,.68-.69.68h-2.47c-.42,0-.44,0-.45-.47V100.21c0-.83-.06-.76.78-.76s1.52,0,2.28,0c.54,0,.55,0,.55.55v16.29Z"/><path d="M110.87,121.12V109.89c0-.67,0-.67.7-.67H114c.48,0,.5,0,.5.51v22.72c0,.68,0,.68-.69.68h-2.42c-.48,0-.5,0-.5-.51Z"/><path d="M39.8,140.75H20.34c-.7,0-.7,0-.7-.67v-.94c0-.34.05-.37.4-.38H59.25c.71,0,.71,0,.71.69,0,.3,0,.6,0,.9s0,.39-.42.4H39.8Z"/><path d="M300.36,130.66v2c0,.41,0,.44-.43.45h-3.48c-.37,0-.41,0-.41-.42,0-1.37,0-2.75,0-4.12,0-.37,0-.4.42-.4H300c.37,0,.4,0,.41.42Z"/><path d="M112.67,104.13c-.55,0-1.1,0-1.65,0-.36,0-.4,0-.4-.38,0-1.07,0-2.15,0-3.22,0-.26.1-.37.37-.37h3.4c.34,0,.37,0,.37.41,0,1.05,0,2.11,0,3.17,0,.35,0,.38-.38.39C113.8,104.14,113.24,104.13,112.67,104.13Z"/></g></svg>