<svg id="Logos" xmlns="http://www.w3.org/2000/svg" viewBox="0 0 320 240"><defs><style>.cls-1{fill:#010101;}</style></defs><title>logo-card-food-and-wine</title><g id="logo-food-and-wine"><path class="cls-1" d="M60.09,117.45v5.72H49.41v11.62H42.64V105.21H61.93v5.71H49.28v6.53Z"/><path class="cls-1" d="M216.19,134.79V105.21h6.64v29.58Z"/><path class="cls-1" d="M235.12,105.21l11.32,18.69V105.21h6.34v29.58h-6.2L234.87,116.1v18.69h-6.34V105.21Z"/><path class="cls-1" d="M275.06,117.13v5.29H264.21v6.65h13.15v5.72h-19.8V105.21H276.9v5.71H264.21v6.21Z"/><path class="cls-1" d="M63.68,120c0,8.39,3.92,15.37,13.28,15.37s13.29-7,13.29-15.37S86.32,104.63,77,104.63,63.68,111.61,63.68,120ZM77,110.34c4.31,0,6.44,3.78,6.44,9.66s-2.13,9.66-6.44,9.66-6.43-3.78-6.43-9.66S72.66,110.34,77,110.34Z"/><path class="cls-1" d="M122.48,134.79h7.34c10.06,0,16.24-4.28,16.24-14.79s-6.18-14.79-16.24-14.79h-7.34Zm6.64-23.87h1.44c6.1,0,8.78,2.31,8.78,9.08s-2.68,9.07-8.78,9.07h-1.44Z"/><path class="cls-1" d="M181,105.21l4.87,19.88,5.71-19.88h5.14l5.5,19.88,4.7-19.88h6.34l-7.94,29.58h-5.68l-5.79-18.53-5.71,18.53h-5.89l-7.73-29.58Z"/><path class="cls-1" d="M93,120c0,8.39,3.93,15.37,13.29,15.37s13.29-7,13.29-15.37-3.93-15.37-13.29-15.37S93,111.61,93,120Zm13.29-9.66c4.3,0,6.43,3.78,6.43,9.66s-2.13,9.66-6.43,9.66-6.43-3.78-6.43-9.66S102,110.34,106.32,110.34Z"/><path class="cls-1" d="M158.65,135.37c-5.92,0-7.93-4.07-7.93-6.72,0-3.56,2.71-6.13,4.81-7.27a6.84,6.84,0,0,1-1.52-4.27c0-2.4,2.28-5.6,7-5.6a9.06,9.06,0,0,1,3.68.7c.44.2.46.41.46.78a36,36,0,0,1-.27,3.7c-.08.45-.19.51-.34.51s-.2-.12-.2-.57a3.8,3.8,0,0,0-.91-2.58,4.2,4.2,0,0,0-3.21-1.35,3.48,3.48,0,0,0-3.56,3.73c0,2.62,2.13,4.82,4.93,7.9,1,1.15,4.78,4.59,5.55,5.26a9.21,9.21,0,0,0,1.51-4.87,1.89,1.89,0,0,0-.58-1.44,2.2,2.2,0,0,0-1.49-.48c-.18,0-.37-.06-.37-.22s.25-.26.49-.26a34.51,34.51,0,0,1,3.65.21c.52.06.79.27.79.61a12.75,12.75,0,0,1-3,7.2,27.66,27.66,0,0,0,4.21,3,8.62,8.62,0,0,0,3.44,1.13c.28,0,.43,0,.43.24s-.25.25-.72.25h-2.66c-2.86,0-3.78-.28-6.76-2.6A10,10,0,0,1,158.65,135.37Zm1-1.76a7.84,7.84,0,0,0,5.37-2c-1.73-1.46-4.7-4.34-5.49-5.19a51.5,51.5,0,0,1-3.42-4,5.6,5.6,0,0,0-2.42,4.87C153.74,131,156.42,133.61,159.7,133.61Z"/></g></svg>