<svg id="Logos" xmlns="http://www.w3.org/2000/svg" viewBox="0 0 320 240"><defs><style>.cls-1{fill:#929291;}.cls-2{fill:#fff;}.cls-3{fill:#fcb773;}.cls-4{fill:#adabaa;}.cls-5{fill:#bfbdbd;}.cls-6{fill:#e6e5e4;}.cls-7{fill:#dcdad9;}.cls-8{fill:#ffe6cd;}.cls-9{fill:#e7e5e5;}.cls-10{fill:#f7911f;}.cls-11{fill:#bebbbb;}.cls-12{fill:#bdbbba;}.cls-13{fill:#a6a5a4;}.cls-14{fill:#e5e3e3;}.cls-15{fill:#e3e2e1;}</style></defs><title>logo-card-kraftworks</title><g id="logo-kraftworks"><path class="cls-1" d="M259.82,137.68a12.4,12.4,0,0,1-3.34-.89,8.1,8.1,0,0,1-4.94-6.57c0-.34-.06-.68-.1-1s.09-.34.33-.33a8.22,8.22,0,0,0,1.11,0c.34,0,.42.12.45.43a7.16,7.16,0,0,0,2.58,5,7.66,7.66,0,0,0,4.3,1.76,12.1,12.1,0,0,0,6.1-.79,4.43,4.43,0,0,0,2.91-3.24c.48-2.61-.3-4.06-2.45-5.18a16.68,16.68,0,0,0-4.56-1.43,41.66,41.66,0,0,1-4.68-1.06,8.84,8.84,0,0,1-4.17-2.58,4.4,4.4,0,0,1-1-2.31,5.94,5.94,0,0,1,1.36-5.26,7,7,0,0,1,3.23-1.89,13.88,13.88,0,0,1,9.28.31,6.57,6.57,0,0,1,4.13,5.66c.06.44.29,1,0,1.28s-.83,0-1.25.08-.53-.06-.54-.5a5.4,5.4,0,0,0-3.92-5.29,11,11,0,0,0-7.65.26,4.3,4.3,0,0,0-2.73,2.85,4.06,4.06,0,0,0,2.3,4.94,17.47,17.47,0,0,0,4.11,1.27c1.7.4,3.42.69,5.1,1.17a7.59,7.59,0,0,1,4.35,2.74,5.81,5.81,0,0,1,.95,2.33c.11.16,0,.37.08.53v2.23a5.09,5.09,0,0,1-.92,2.26,8,8,0,0,1-4.23,2.83,10.52,10.52,0,0,1-2.79.47,2,2,0,0,0-.69,0h-.26a5.63,5.63,0,0,0-1.16,0h-.79C260.18,137.71,260,137.77,259.82,137.68Z"/><path class="cls-2" d="M263.28,137.68a22.44,22.44,0,0,0,2.45-.44,8,8,0,0,0,4.36-2.75,5,5,0,0,0,.94-1.94c0-.14,0-.3.17-.38,0,1.78,0,3.56,0,5.33,0,.23,0,.28-.27.28h-7.65s0,0,0-.06Z"/><path class="cls-3" d="M48.79,102.63h.09a1.1,1.1,0,0,1,.14.77c0,2.81,0,5.63,0,8.44v24.45a1.23,1.23,0,0,1-.14.86h-.09Z"/><path class="cls-4" d="M261.15,137.69c.38,0,.78-.12,1.16.08h-1.16s0,0,0-.05S261.14,137.69,261.15,137.69Z"/><path class="cls-5" d="M261.15,137.69v.08h-.8s0,0,0-.05l0,0Z"/><path class="cls-6" d="M263.28,137.68v.09h-.72C262.79,137.6,263.05,137.7,263.28,137.68Z"/><path class="cls-7" d="M271.2,129.94c-.14-.16-.07-.35-.08-.53h.08Z"/><path class="cls-8" d="M99.15,137.68c.18,0,.37-.07.53.09h-.54Z"/><path class="cls-9" d="M260.34,137.69a.22.22,0,0,1,0,.08h-.53v-.09Z"/><path class="cls-1" d="M165.11,104.54c-.48,1.69-1,3.38-1.45,5.07q-2.58,9-5.15,18.07c-.85,3-1.7,5.95-2.53,8.93-.11.4-.26.61-.72.56a10.87,10.87,0,0,0-1.51,0,.39.39,0,0,1-.44-.32q-2-7.07-4.06-14.13-2-6.82-3.94-13.66c-.58-2-1.15-4-1.74-6-.11-.36,0-.46.34-.43a10,10,0,0,0,1.34,0c.31,0,.43.1.52.39.68,2.5,1.38,5,2.07,7.49q2.67,9.57,5.33,19.12l1.38,4.92c0,.1,0,.22.19.28.21-.77.43-1.53.64-2.29q2.91-10.26,5.81-20.52,1.27-4.48,2.54-9c.08-.3.2-.44.54-.42.64,0,1.28,0,1.91,0a.39.39,0,0,1,.46.35q1.49,5.16,3,10.33,2.29,8,4.6,16c.51,1.79,1,3.58,1.54,5.37a.29.29,0,0,0,.15.18c.14-.5.29-1,.43-1.49q3.54-13,7.1-25.91c.4-1.49.82-3,1.21-4.46a.4.4,0,0,1,.47-.34c.51,0,1,0,1.52,0,.32,0,.4,0,.3.39-.46,1.56-.9,3.13-1.35,4.69q-3.45,12.07-6.91,24.13c-.48,1.65-1,3.3-1.42,5a.47.47,0,0,1-.56.4c-.52,0-1,0-1.56,0-.35,0-.48-.12-.57-.44-.66-2.32-1.34-4.64-2-7q-2.43-8.4-4.87-16.81-1.14-3.9-2.26-7.81c-.06-.21-.13-.41-.2-.62Z"/><path class="cls-10" d="M48.88,137.15V102.63c.61,0,1.21,0,1.82,0,.22,0,.29.08.28.29s0,.23,0,.35v19.1c.23,0,.32-.18.44-.29l15.67-14.35,5.31-4.87a.64.64,0,0,1,.46-.23c.81,0,1.63,0,2.45,0,0,.19-.13.24-.21.31Q67.57,109.81,60,116.67c-.3.28-.26.41,0,.69Q68,127,76.05,136.73l.34.44c-.66,0-1.24,0-1.82,0a1.5,1.5,0,0,1-1.41-.66q-7.35-8.86-14.73-17.71c-.25-.29-.37-.32-.67,0q-3.21,3-6.47,5.91a.87.87,0,0,0-.32.72c0,3.75,0,7.5,0,11.25,0,.39-.08.56-.51.53S49.41,137.15,48.88,137.15Z"/><path class="cls-1" d="M249.46,112.31l-5.62,4.79q-2.49,2.15-5,4.27c-.22.19-.16.32,0,.51l7.17,9.57,4,5.34a4.09,4.09,0,0,1,.24.37h-2.39c-.21,0-.28-.21-.38-.35q-3.72-5-7.45-10l-2.62-3.53c-.18-.25-.29-.28-.54-.06-1.66,1.43-3.34,2.84-5,4.25a.79.79,0,0,0-.31.68c0,2.83,0,5.67,0,8.5,0,.39-.11.53-.5.49a7.64,7.64,0,0,0-1.07,0c-.23,0-.33-.08-.31-.32s0-.2,0-.31V103.23c0-.69-.07-.61.63-.61.31,0,.62,0,.93,0s.33.09.31.32,0,.23,0,.35v22.17c.66-.57,1.26-1.07,1.84-1.58l13.16-11.36c.12-.09.22-.2.38-.2Z"/><path class="cls-10" d="M122.64,125.54v11.07c0,.56,0,.56-.58.56h-1c-.23,0-.32-.08-.3-.31s0-.21,0-.31q0-11.07,0-22.15c0-.41-.12-.51-.51-.5-1.19,0-2.38,0-3.56,0-.29,0-.38-.09-.38-.38,0-1.25,0-1.25,1.23-1.25.92,0,1.84,0,2.76,0,.38,0,.46-.12.46-.48,0-1.54,0-3.08,0-4.62a5.57,5.57,0,0,1,.4-2.17,4.56,4.56,0,0,1,3.58-2.67,9.25,9.25,0,0,1,3.36,0c.23,0,.34.13.32.37,0,.41.17,1-.08,1.2s-.74,0-1.14-.07a7.08,7.08,0,0,0-2,0c-1.71.32-2.48,1-2.58,2.77s0,3.56,0,5.34c0,.31.21.26.39.26,1.41,0,2.82,0,4.23,0,.42,0,.59.07.57.55,0,1.08,0,1.08-1.09,1.08s-2.46,0-3.69,0c-.35,0-.42.11-.42.43Q122.65,119.93,122.64,125.54Z"/><path class="cls-10" d="M134.52,123.51c0-3.06,0-6.11,0-9.16,0-.35-.09-.45-.45-.45-1.26,0-2.52,0-3.78,0-.28,0-.4-.07-.37-.37s-.16-.9.07-1.17.75-.08,1.14-.08q1.47,0,2.94,0c.35,0,.45-.09.45-.45,0-2.24,0-4.47,0-6.71,0-.67-.08-.58.6-.58.28,0,.57,0,.85,0s.42.09.4.4,0,.65,0,1c0,1.95,0,3.91,0,5.87,0,.38.08.51.49.5,1.49,0,3,0,4.49,0,.33,0,.5,0,.45.42s.16.88-.08,1.12-.73.07-1.11.08c-1.28,0-2.55,0-3.83,0-.29,0-.41.06-.41.39q0,8.47,0,17a9.09,9.09,0,0,0,.15,1.72,3,3,0,0,0,2.64,2.51,12.69,12.69,0,0,0,2.22.08c.27,0,.37.07.36.35s0,.65,0,1-.06.3-.27.31a12.42,12.42,0,0,1-3.28-.16,4.45,4.45,0,0,1-3.63-4.13c0-.31,0-.62,0-.93Z"/><path class="cls-10" d="M81.67,117.82a7,7,0,0,1,2.51-3.5,10.84,10.84,0,0,1,6.72-2.18c.25,0,.35.06.34.32,0,.46.15,1,0,1.36s-.83.1-1.25.12a8.9,8.9,0,0,0-8.23,7.8,23.11,23.11,0,0,0-.15,2.49c0,4.15,0,8.3,0,12.45,0,.38-.08.54-.49.5a7.5,7.5,0,0,0-1.06,0c-.23,0-.34-.06-.32-.3a2.43,2.43,0,0,0,0-.27q0-11.9,0-23.79c0-.44.12-.57.54-.53a4.92,4.92,0,0,0,.94,0c.31,0,.4.09.4.4,0,1.52,0,3,0,4.58A.75.75,0,0,0,81.67,117.82Z"/><path class="cls-1" d="M216,117.82a7.06,7.06,0,0,1,1.22-2.23,9.81,9.81,0,0,1,5.86-3.26,10.49,10.49,0,0,1,2.17-.19c.27,0,.36.08.35.35a11.22,11.22,0,0,0,0,1.16c0,.28-.09.32-.37.31a8.47,8.47,0,0,0-6.95,2.92,9.67,9.67,0,0,0-2.36,6.84c0,4.31,0,8.62,0,12.93,0,.41-.1.57-.51.52s-1,.18-1.28-.11-.08-.82-.08-1.25V112.87c0-.57,0-.57.58-.57.3,0,.6,0,.89,0s.4.1.4.4c0,1.52,0,3,0,4.54A1,1,0,0,0,216,117.82Z"/><path class="cls-10" d="M114.66,135.45a5.88,5.88,0,0,1-.93.1,1.41,1.41,0,0,1-1.6-1.27,7.66,7.66,0,0,1-.11-1.72c0-4.78,0-9.55,0-14.32a5.83,5.83,0,0,0-4.49-6,15,15,0,0,0-7.52-.15A7.39,7.39,0,0,0,93.9,119c-.1,1-.1,1,.88,1s.87,0,1-.85a5.85,5.85,0,0,1,3.5-4.95,10.13,10.13,0,0,1,8.53.1,4,4,0,0,1,2.35,3.15,10.71,10.71,0,0,1,0,2.53,2.81,2.81,0,0,1-2.2,2.64,14.59,14.59,0,0,1-3,.52c-1.92.17-3.85.27-5.74.62a10.58,10.58,0,0,0-3.43,1.18c-2.51,1.47-3.39,3.73-3.21,6.54a6,6,0,0,0,4.61,5.84,19.15,19.15,0,0,0,2,.41c.16.12.37,0,.53.09h.18c.18-.18.41-.05.61-.08h.64c.18,0,.37-.08.53.08h.17c.19-.16.41-.08.62-.1h0l.44-.08a9.11,9.11,0,0,0,7.14-5.18s0-.11.14-.08a21.92,21.92,0,0,0,.11,2.56,2.49,2.49,0,0,0,2.1,2.18,6.28,6.28,0,0,0,1.68.07c1-.06,1-.07,1-1a2,2,0,0,1,0-.35C115,135.5,114.94,135.4,114.66,135.45Zm-4.73-6.07a8.47,8.47,0,0,1-7,6.61,12.09,12.09,0,0,1-4.68-.17c-2.91-.77-4-2.72-3.9-5.55a5,5,0,0,1,4-4.76,23.68,23.68,0,0,1,4.51-.72c1.41-.13,2.81-.23,4.2-.45a5.34,5.34,0,0,0,3-1.15A38.67,38.67,0,0,1,109.93,129.38Z"/><path class="cls-11" d="M197.71,137.69H197s0,.06,0,.08h.71a.22.22,0,0,0,0-.08Z"/><path class="cls-12" d="M199.06,137.69h-.71a.22.22,0,0,0,0,.08h.71s0-.05,0-.08Z"/><path class="cls-13" d="M198.33,137.69h-.6a.08.08,0,0,1,0,.08h.62A.08.08,0,0,1,198.33,137.69Z"/><path class="cls-13" d="M197.73,137.69h0a.22.22,0,0,1,0,.08A.08.08,0,0,0,197.73,137.69Z"/><path class="cls-13" d="M198.35,137.69h0a.08.08,0,0,0,0,.08.22.22,0,0,1,0-.08Z"/><path class="cls-14" d="M197,137.69h-.53v.09H197A.08.08,0,0,1,197,137.69Z"/><path class="cls-14" d="M197,137.69h0a.08.08,0,0,0,0,.08s0-.05,0-.08Z"/><path class="cls-15" d="M199.05,137.77h.54v-.09h-.53A.08.08,0,0,1,199.05,137.77Z"/><path class="cls-15" d="M199.06,137.69h0s0,.06,0,.08A.08.08,0,0,0,199.06,137.69Z"/><path class="cls-1" d="M208.66,119.65a10.84,10.84,0,0,0-5.94-7,11.52,11.52,0,0,0-6.08-.87,10.12,10.12,0,0,0-7.11,3.85,14,14,0,0,0-2.91,8.69,16.16,16.16,0,0,0,.79,5.6,11.32,11.32,0,0,0,4.66,6.19,10.73,10.73,0,0,0,4.4,1.57h0a.37.37,0,0,1,.53,0s0,0,0-.05a.76.76,0,0,1,.66,0,.05.05,0,0,1,0,0,.46.46,0,0,1,.62,0,.05.05,0,0,1,0,0,.76.76,0,0,1,.66,0s0,0,0,.05a.38.38,0,0,1,.53,0l.3-.07a10.21,10.21,0,0,0,7.94-5.77A15.84,15.84,0,0,0,208.66,119.65Zm-1.07,5.13a12.88,12.88,0,0,1-2.58,8,8.47,8.47,0,0,1-6.15,3.31,8.92,8.92,0,0,1-9.33-5.95,14,14,0,0,1,.44-11.79,8.44,8.44,0,0,1,5.6-4.72,8.68,8.68,0,0,1,9,2.49,11.63,11.63,0,0,1,2.86,6.34A12.77,12.77,0,0,1,207.59,124.78Z"/><path class="cls-1" d="M197,137.69h.72a.05.05,0,0,0,0,0,.76.76,0,0,0-.66,0s0,0,0,.05Z"/><path class="cls-1" d="M198.35,137.69h.71s0,0,0-.05a.76.76,0,0,0-.66,0,.05.05,0,0,0,0,0Z"/><path class="cls-1" d="M198.33,137.69h0a.46.46,0,0,0-.62,0h.61Z"/><path class="cls-1" d="M197.73,137.69h0Z"/><path class="cls-1" d="M198.35,137.69h0Z"/><path class="cls-1" d="M197,137.69h0a.37.37,0,0,0-.53,0H197Z"/><polygon class="cls-1" points="197 137.69 197 137.69 197 137.69 197 137.69"/><path class="cls-1" d="M199.06,137.69h.53A.38.38,0,0,0,199.06,137.69Z"/><polygon class="cls-1" points="199.06 137.69 199.06 137.69 199.06 137.69 199.06 137.69"/></g></svg>