<svg id="Logos" xmlns="http://www.w3.org/2000/svg" viewBox="0 0 320 240"><defs><style>.cls-1{fill:#fff;}</style></defs><title>logo-card-fnv-fruits-and-vegetables-rave</title><g id="logo-fnv-fruits-and-vegetables"><path d="M234.19,87.62c-.48.34-.52.94-.66,1.39-.59,1.77-1.39,3.46-2.1,5.17s-1.51,3.76-2.33,5.61c-.68,1.55-1.25,3.14-1.89,4.71-.32.76-.71,1.5-1,2.26-.4,1-.72,1.94-1.13,2.89s-.7,1.87-1.11,2.75c-.58,1.24-1.06,2.52-1.58,3.78-.37.87-.67,1.78-1.07,2.64a27.57,27.57,0,0,0-1.08,2.64c-.26.74-.67,1.42-.95,2.15-.49,1.27-.93,2.58-1.51,3.8s-1.07,2.77-1.78,4.09a31.68,31.68,0,0,0-1.38,3.59c-.31.76-.74,1.48-1,2.26-1,2.79-2.39,5.45-3.27,8.3-.86,1.24-1.11,2.75-1.83,4.07a24.92,24.92,0,0,0-1.18,3H82.14a2.3,2.3,0,0,1,.15-1.15c.46-1.24.95-2.48,1.46-3.69s1-2.35,1.49-3.54c1-2.49,2.24-4.88,3-7.47a39.1,39.1,0,0,0,1.82-4.07,28.29,28.29,0,0,0,1.35-3.33c.32-.85.78-1.64,1.06-2.51.55-1.73,1.31-3.39,2-5.08.45-1.15,1-2.28,1.42-3.43.59-1.51,1.19-3,1.85-4.47.85-1.88,1.52-3.84,2.39-5.71a19.26,19.26,0,0,0,1.29-3.36c.13-.51.68-.93.75-1.42.11-.79.66-1.34.86-2.07a19.48,19.48,0,0,1,.75-2c.86-2.28,2-4.46,2.73-6.78.26-.78.75-1.48,1-2.26.56-1.6,1.3-3.13,1.91-4.71a.75.75,0,0,0,0-.26H234.19ZM231,87.56l1.34-.31v-.11H193.75l-.15.44h-.66l-.15-.45h-83c.42.67.17,1.36.26,2l-.74.43L108.94,91c.51.36.17.92.22,1.51H107.9c0,.17-.07.29-.11.41l-.49.19c0,.71,0,1.42,0,2.13,0,.06-.11.12-.13.15l-.43.13v1.74l-1.09.1v2l-.82.51v1.71h-1c-.08,1,0,2-.06,2.87l-.51.12v1.58l-1.32.34.36.48-.91.68c-.26.65.94.9.45,1.63l-1,.1V112l-1.32.38v2.19l-.55.21c0,.76,0,1.54,0,2.36H97.14v.6l.85.56-.94.63v1.69H96v1.79l-.5.12v2.36H94.13v2.8l-1,.83v3.2l-.44.43H92l-.8.74v2.74H89.83v2.23l-.5.43a3.2,3.2,0,0,1-.52.52,1.66,1.66,0,0,1-.57.09l.06.77.48-.36c.48.26.7.56.47,1.08l-1,.11v1l-.55.16v2.28c-.47.08-1-.14-1.29.51v1.29l-.61.25.58.2v1.49l-1.34.09c.52.67.2,1.35.35,2.1l-1.63.48h1.82l.1-.49.7,0,.09.43H88l.11-.48,1.21.07.14.44h3.87l.16-.45h.66l.15.44H96.8l.11-.49.69,0,.1.48h.92l.18-.48h.64l.17.46h1.45l.16-.45h.66l.15.44h1.48l.09-.42h1.28c0,.51.2.58.51.38l.1-.41h1.19l.2.55.25-.54h.66l.11.44h1l.11-.49.7,0,.1.51,1.07-.06-.37-.43h1l.15.43h.67l.13-.43h1l-.3.46h1.53l.17-.48h.65l.16.46h.93l.15-.44h.67l.12.43h1.5l.09-.45h1.19l.31.71.45-.71h1.14l.16.46h3.91l-.21-.44h1l.11.49.7-.05.1-.49c.29,0,.56,0,.82,0,.07,0,.13.1.16.13l.1.37h1.2l.16-.46h.65l.15.44h1.48l.11-.42h1.48l.19.55.22-.54h1.54l-.29.42h2.1l.15-.44h.67l.13.47h1.44l.16-.46h1.47l.21.55.21-.58h1.18l.18.52.37-.07.15-.43h.66l.14.42h1.58l-.38-.41H148l.19.52.25-.54h1.45l.19.54.28-.57h.58l.18.5H152l.19-.48h.63l.17.47h.65l.15-.46h.67l.15.44h1.48l.09-.42h1.52l.12.61.28-.64h.62l.17.47h.92l.15-.46h.67l.16.49h.58l.23-.47h1l-.37.41h1.06l.15-.43h.66l.11.45h1l-.14-.24a1.07,1.07,0,0,1-.07-.19H166l.21.55.21-.58h1.45l.19.55.25-.54h1.07l.58.61.21-.59h1.2l.2.55.22-.58h.91l.16.46h.65l.17-.49h.61l.16.48h1l.1-.49.7,0,.11.51,1.06-.07-.41-.47,1.2,0-.32.43h1.58l.1-.45h.92l.21.51.64-.06.13-.5,1,.09-.33.41h1.06l.12-.45h.65l.18.51,1-.05-.37-.41h1.12l-.32.4h3.47l.12-.42h1l-.32.45h1l.17-.48h.65l.16.46h1l-.22-.43h1.08l-.32.44h1.54l.17-.47H196l.16.46h.66l.15-.44h1l-.18.24s-.08.06-.09.1,0,.06.08.12h.88l.21-.53.64.08.13.44h.92l.16-.46h.66l.2.58.2-.56H203l.1.49.52-.1-.36-.4h1.59l.2.58.22-.65h1.33l-.33-.38.8-.51v-1.38l.39-.4c.27,0,.54,0,.81,0,0,0,.06-.06.14-.14v-3.36h1V143l-.46-.16v-.66l.55-.18v-1.74l1-.05v-2.28l.55-.2v-.85c.17-.16.28-.32.44-.38a2.29,2.29,0,0,1,.53,0,2.3,2.3,0,0,0,.35-.1l0-.14-1.41-.06.47-.75,1,0v-1l.56-.11v-1.81c.31,0,.54,0,.76,0s.34-.06.63-.12l-1.39-.4v-1.41h1.88v-2.86l.47-.11.05-1h1.28V126h-1.28v-1.36h1.28l.06-.71.55-.19v-2.84h1v-1l.67-.07a9.84,9.84,0,0,1-.1-3h1.31v-1.73l.57-.21-.54-.25v-1h1.78c-.4-.87-.12-1.71-.23-2.55l.83-.51v-1.86l.57-.57v-1.27c.32-.64.86-.31,1.28-.51v-2l.52-.19.09-1.3h1V99.64L227,99c0-.65-.58-1.12-.19-1.69l.33-.34H228c.05-.16.08-.29.11-.41l.51-.19V94.58H230a1.08,1.08,0,0,1-.25-1.28c.07-.24.23-.6.14-.71-.41-.44-.16-.92-.23-1.35L231,90.12Z"/><path class="cls-1" d="M231,87.56v2.56l-1.33,1.12c.07.43-.18.91.23,1.35.09.11-.07.47-.14.71a1.08,1.08,0,0,0,.25,1.28h-1.4v1.79l-.51.19L228,97h-.84l-.33.34c-.39.57.2,1,.19,1.69l-.82.64v3.22h-1l-.09,1.3-.52.19v2c-.42.2-1-.13-1.28.51v1.27l-.57.57v1.86l-.83.51c.11.84-.17,1.68.23,2.55h-1.78v1l.54.25-.57.21v1.73h-1.31a9.84,9.84,0,0,0,.1,3l-.67.07v1h-1v2.84l-.55.19-.06.71h-1.28V126h1.28v.51h-1.28l-.05,1-.47.11v2.86H213v1.41l1.39.4c-.29.06-.46.1-.63.12s-.45,0-.76,0v1.81l-.56.11v1l-1,0-.47.75,1.41.06,0,.14a2.3,2.3,0,0,1-.35.1,2.29,2.29,0,0,0-.53,0c-.16.06-.27.22-.44.38v.85l-.55.2v2.28l-1,.05V142l-.55.18v.66l.46.16v.71h-1V147c-.08.08-.11.14-.14.14-.27,0-.54,0-.81,0l-.39.4V149l-.8.51.33.38H205.3l-.22.65-.2-.58h-1.59l.36.4-.52.1-.1-.49H201.8l-.2.56-.2-.58h-.66l-.16.46h-.92l-.13-.44-.64-.08-.21.53h-.88c0-.06-.08-.1-.08-.12s.06-.06.09-.1l.18-.24h-1l-.15.44h-.66l-.16-.46h-.92l-.17.47h-1.54l.32-.44h-1.08l.22.43h-1l-.16-.46h-.65l-.17.48h-1l.32-.45h-1l-.12.42H185.6l.32-.4H184.8l.37.41-1,.05-.18-.51h-.65l-.12.45h-1.06l.33-.41-1-.09-.13.5-.64.06-.21-.51h-.92l-.1.45h-1.58l.32-.43-1.2,0,.41.47-1.06.07-.11-.51-.7,0-.1.49h-1l-.16-.48h-.61l-.17.49h-.65l-.16-.46h-.91l-.22.58-.2-.55h-1.2l-.21.59-.58-.61h-1.07l-.25.54-.19-.55H166.4l-.21.58-.21-.55H165a1.07,1.07,0,0,0,.07.19l.14.24h-1l-.11-.45h-.66l-.15.43h-1.06l.37-.41h-1l-.23.47h-.58l-.16-.49H160l-.15.46h-.92l-.17-.47h-.62l-.28.64-.12-.61h-1.52l-.09.42h-1.48l-.15-.44h-.67l-.15.46H153l-.17-.47h-.63l-.19.48h-.88l-.18-.5h-.58l-.28.57-.19-.54h-1.45l-.25.54-.19-.52h-1.59l.38.41h-1.58l-.14-.42h-.66l-.15.43-.37.07-.18-.52h-1.18l-.21.58-.21-.55h-1.47l-.16.46H139l-.13-.47h-.67l-.15.44H136l.29-.42h-1.54l-.22.54-.19-.55h-1.48l-.11.42h-1.48l-.15-.44h-.65l-.16.46h-1.2L129,150s-.09-.12-.16-.13c-.26,0-.53,0-.82,0l-.1.49-.7.05-.11-.49h-1l.21.44h-3.91l-.16-.46h-1.14l-.45.71-.31-.71h-1.19l-.09.45h-1.5l-.12-.43h-.67l-.15.44h-.93l-.16-.46h-.65l-.17.48h-1.53l.3-.46h-1l-.13.43h-.67l-.15-.43h-1l.37.43-1.07.06-.1-.51-.7,0-.11.49h-1l-.11-.44h-.66l-.25.54-.2-.55h-1.19l-.1.41c-.31.2-.5.13-.51-.38H103.6l-.09.42H102l-.15-.44h-.66l-.16.45H99.61l-.17-.46H98.8l-.18.48H97.7l-.1-.48-.69,0-.11.49H94.25l-.15-.44h-.66l-.16.45H89.41l-.14-.44-1.21-.07-.11.48H86.43l-.09-.43-.7,0-.1.49H83.72l1.63-.48c-.15-.75.17-1.43-.35-2.1l1.34-.09v-1.49l-.58-.2.61-.25v-1.29c.32-.65.82-.43,1.29-.51v-2.28l.55-.16v-1l1-.11c.23-.52,0-.82-.47-1.08l-.48.36-.06-.77a1.66,1.66,0,0,0,.57-.09,3.2,3.2,0,0,0,.52-.52l.5-.43v-2.23h1.36v-2.74l.8-.74h.65l.44-.43v-3.2l1-.83v-2.8h1.35v-2.36l.5-.12v-1.79h1.07V119l.94-.63-.85-.56v-.6H99c0-.82,0-1.6,0-2.36l.55-.21v-2.19l1.32-.38v-2.63l1-.1c.49-.73-.71-1-.45-1.63l.91-.68-.36-.48,1.32-.34V104.6l.51-.12c.1-.9,0-1.87.06-2.87h1V99.9l.82-.51v-2l1.09-.1V95.5l.43-.13s.12-.09.13-.15c0-.71,0-1.42,0-2.13l.49-.19.11-.41h1.26c0-.59.29-1.15-.22-1.51l.32-1.39.74-.43c-.09-.67.16-1.36-.26-2h83.05l.15.45h.66l.15-.44h38.54v.11Zm-88.8,4.79-.12.23.65.25-.14.08h1.66l-.56-.79a9.89,9.89,0,0,0-1.52.33V91.17c-.55-.47-1-.51-1.5,0v1.28A7.47,7.47,0,0,0,142.16,92.35Zm30,.32-1.09.12v.71l-1.05.06v3h-.82v2.11h-.87l-.64,1v1.23l.56.37-.57.21-.11,1h-1.23c-.13.81.08,1.61-.11,2.31l-.5.15v1.35l-.83.56v2.26l-1,0v1.48l-.53.2c-.08.94.05,1.91-.08,2.9h-1l0,1-.83.48v1.72h-1v2.89l-.49.11-.08,1.06h-1.27c-.08,1,.05,2-.06,2.86h-.73v-.68l.41-.14c.34-.63-.21-.83-.39-1.09v-1.22l.49-.11,0-.7-.5-.1c0-1.78,0-3.55-.05-5.35h-1.15l1.15-.5v-1.29l-1.36-.11c.14-.14.26-.21.26-.27,0-1.55,0-3.1,0-4.71l-.65-.43.89-.7-1-.7v-.46l.85-.61-.91-.53v-6l-1.24-.1v-.78h1.3l-.06-.82H154.6c.39-1.32.07-2.62.2-3.83l-.35-.35h-1.74l-.21.55-.21-.58h-2l-.19.55-.26-.54h-1.46l-.17.63-.23-.65h-1.48l-.17.66-.22-.64h-1.05l-1.6,1.63v2.59l-1,0v2l-.83.49v1.42l-1.11.42v1.52l-.55.19v2.28c-.46.06-1-.16-1.28.47v1.3l-.58.23v1.46l-1.08.08v2.31l-.5.17v2.72l-1.41.77.1,0-.67.69c.16.42.62.16,1,.23.07,0,.13.1.19.16l0,.63h-.57l-1.32,1.07v2.64l-1.08.13v1l-.55.15v2.83a1.66,1.66,0,0,0-1.29.41v1.36l-.57.57v1.92l-1.08.12V130l-.46.12v1.38L128,132v2.36h-1.37c.14.73-.18,1.41.27,2l-.83.53v.93l-.33,0-.48-1.29h-.7v1.25a4.65,4.65,0,0,0,.69.87,6.43,6.43,0,0,0,1.15.53,5,5,0,0,0-1.1.43,6.21,6.21,0,0,0-.8.95v2.06l-1.32.06v1.43l-.48.5v1.21h.7l.11-1h3.41l-.3.55.45.48,1.26-.06v-1l.46,0,0,1h.73l.11-1h1.17l.35,1H133c.1-.1.27-.18.28-.29a4.28,4.28,0,0,0-.1-2.43s0-.12.06-.23h1l.75-1V140c.47-.14,1.07.17,1.37-.73v-1.16l.46-.1v-2.25l.6-.22v-1.81h1V131l.84-.65c-.18-.43-.52-.73-.21-1.14a1.79,1.79,0,0,0,1.28-.44v-2.32h.81l-.18-1.54,1.25-.06v-1.78l.5-.13v-2.29c.5-.13,1,.13,1.31-.49l.07-1.4.5-.11v-2l.57-.57v-2h.67l.17.49.71.07c-.49.79-.19,1.63-.24,2.43s0,1.61,0,2.42v2.53c.27.69,1,.14,1.37.5v6.22l.46.16v1.47l-.44.11v1.51l.46.11v4.49l1.07.39v1.24h-1v1.57l1.38.06c-.14.15-.25.22-.25.28,0,1.37,0,2.74,0,4.19l.35.35h2.74l.1,1H154l0-1h2.1l.05,1h1.62v-1h2l1-1.18v-2.09h1v-1.4l.81-.51a9.13,9.13,0,0,0-.19-2.57c.41-.11.93.16,1.24-.51v-.7l.78-.48a2.51,2.51,0,0,0-.17-1.52l1.33-.1v-2.85l.46-.11v-1.38l.57-.57v-1.93c.28-.67,1-.12,1.37-.51V125l.5-.14v-2.31l1.05-.06v-1.64a5,5,0,0,1,.89-.65,4.57,4.57,0,0,1,1-.16v-1.34l-1.31-.31v-.13h1.31v-1.47l.86-.52c-.12-.68.13-1.36-.19-1.95l.75-.51v-1.45l1-.06v-1.68l.86-.52c-.16-.85.18-1.72-.24-2.57l1.32-.07v-1l.55-.19v-3.06l.72,0,1.07-.89v-.92l-.82-.13.9-.58-.23-1h1.25V97.44L180,97a2.42,2.42,0,0,0-.2-1.51l.77-.09V93l1.07-.07,0-.72h-1.32l-.41.55-.21-.57H178l-.31.73-.45-.72h-1.14l-.19.55-.25-.54h-1.47l-.16.63-.24-.65h-1.46ZM179,140.23v1.24l.72.29-.74.42v2.22l.38.38h2v1c.59.11.94,0,1-.58l-.27-.4h3l-.45.59.62.59a2.84,2.84,0,0,0,.46-.44,2.43,2.43,0,0,0,.14-.48l.14-.38H187L187,144l1.35-.06v-1.45l1.09-.46v-1.58h1.81v-1.52L192,138h.88v-1.68l1.38-.89v-1.17h1.32l-.17-1.53.63-.1.09-.44,1-.09v-.88l1-1H199l.08-1.77.52-.15v-1.82h1.89v-1.33l.73-.78c.28-.07.79.18,1.12-.52l-.13-1.28.7-.45v-.66l.81-.09,1.2-1.27.94-.06v-1.78l.51-.14v-1l1.08-.06v-1.84h.62l.87-1.09h.79l-.14-.15.67-.25-.43-.58.86-.55V111h.91l.25-.53.7,0v-1.45l1.1-.45v-.78l1.25-1.31h.71l.43-.44v-1.37l.51-.13V103.2l1,0v-1.34c.68-.72,1.74-.7,2.23-1.59l-.34-.47.75-.12.19-.53h1V97.47l1.1-1V95.44l1.36-.09V93.84l.43-.11V92.22h-.68l-.16.45H223l-.22-.63-1.24.68c-.58-.47-.58-.47-1.22-.46l-.15.41h-.66l-.15-.43h-.94l-.11.49-.69,0-.1-.48h-2l-.19.49-.83,0-.53.83H213l-.09,1.52-.5.13v1.24h-1l-.9.77V98.6l-1,.05-.12.74-.47.09v1.71l-.55.23v1h-1.1c-.29.27-.41.41-.55.52s-.34.26-.55.43l.21,1.48h-1.18l-.1,1-.49.1v1.29h-1l-.92,1.81v1.16H201.2v1.68l-.86.53.23,1.24h-1l-1.18,1.4h-1v1.74l-.55.2v1h-.7l-1.17,1v1.44h-.74l-.88.73v1.44l-.82.71.34.58c-.49,0-1-.15-1.38.53v1.29h-1.24l-.31-.76h1.29v-7.66l.56-.2-.05-.67-.51-.1.07-1,.51-.14v-7.65l1.09-.09V99.73l.71-.07V98.44a2,2,0,0,0-.34-.33,1.88,1.88,0,0,0-.39-.12v-.56l.78-.49c0-1.33,0-2.63,0-3.92a4,4,0,0,0-.24-.86,14.83,14.83,0,0,0-1.85.08l-.14.55-.27-.57h-1.45l-.2.6-.2-.58h-2l-.19.58-.23-.61h-1.67l-.48.47h-.64l-.15-.45h-.67l-.16.5h-.84l-.43.43v6.21l-.46.11v1.32l.57.36-.58.24v3l.55.2-.62.3V112l-1.25.09v.77h1.3l0,.77c-.5.07-1-.13-1.28.44v1.21h1.28V116l-.94,0,.15.16-.55.18c.2.93.87.62,1.34.75v.7c-.41.19-1-.17-1.34.68V124l-.46.16v.66l.49.16v.58l-.55.27,0,.61.52.11,0,1-.47.1v1.18l.47.46v.65l-.55.19v7.61l-.49.13,0,.67.49.11v1.49Zm-56.08-26.59-.11-1h-.72l-.06,1-.81-.05v-1l-1.08.06v1h-1.32v-1.07h-1.28a2.39,2.39,0,0,0,0-2.15h1.36v-1.55l.55-.45v-2h1v-1.68l.79-.49,0-1H135.9l.19-.5.72-.14V101l.6-.39v-2h1.06V96.79l.5-.12V94.84h1.29V92.73h-1.19l-.21-.52h-.62l-.17.47h-.65l-.16-.46h-.65l-.21.62-.45-.59h-1.22l-.2.55-.22-.58h-1.45l-.19.55-.27-.58h-1.22l-.4.6-.24-.58h-1.15l-.18.5h-.58l-.54-.52H126.5l-.63.56-.53-.53H123.5l-.57.55-.15-.59-.64,0-.2.52a1.38,1.38,0,0,1-1-.51h-1.71l-.19.55-.25-.54h-1.47l-.16.63-.24-.65h-1.35l-.72,1v1.29l-.48.18c-.13.76.06,1.56-.12,2.37h-1v1.4l-.84.54v1.46c-.47.12-1.07-.17-1.3.56.12.55-.21,1.22.21,1.77l-.77.48v2.55l-1.09.1v1.23l-.54.18v1.77h-1.27v2.84l-.53.18L107,113.6l-.45.1c-.12.89.06,1.77-.11,2.6a2.18,2.18,0,0,0-.52-.23,1.72,1.72,0,0,0-.53.05v1.65l-.82.58v1.45a1.66,1.66,0,0,0-1.29.41,3.72,3.72,0,0,0,.22,1.72l-.8.48v1.31l-1.06.39v2.37l-.51.11V128l-.83.53v2l-1.09.13v1.76l-.51.13v2.89h-1v.88l-.83.52v1.39l-1.32.41v2.54l-.5.5-.1,1h-1v1.72l.4.41h2.56v1c.54.15.9,0,1-.48l-.25-.48h1.54l.1,1h1.53l0-1h1.89v1l1.08-.06V144l1,0V142.5l.87-.51-.17-1.55h1.24v-2.32l.55-.19v-2.24l.51-.13v-.88l.42-.42h.9V132.5l.83-1.06c-.12-.69.16-1.47-.23-2.23.44-.06.94.16,1.25-.44l.08-.87.46-.1c.08-1,0-2,.08-2.94h1l.14-.5h13.11c1.07-.23.57-.9.82-1.28l.52-.18v-2.27h.66L129,119.5v-.72l-.82-.5.83-.14.07-1,.54-.11v-2.39h1v-2h-1.27l-.12,1H129v-1l-1.13.07v1h-1.32v-1h-1.54l-.1,1Zm50.9,30.63h-1.23l-.37.37.06,1.15h1.54Zm-53.4,1.54v-1.56h-1.2c-.52.7-.52.84,0,1.56Zm75.15-42.48c-.53-.65-1.08-.37-1.57-.37v1.53h1.19l.38-.37Zm11.22-2.64v-1.2h-1.53v1.18A1,1,0,0,0,206.78,100.69ZM134.35,90.5V89.29h-1.53v1.19A1,1,0,0,0,134.35,90.5Zm5.92,46h-1.35c-.26.53-.47,1,.12,1.51h1.23ZM217,120.06v-1.25c-.82-.49-1.17-.46-1.51,0v1.23ZM111.43,136.47c-.52.7-.52.84,0,1.59l1.17-.05v-1.54Zm13.29-25.4c-.73-.52-.87-.52-1.56,0-.06.48-.13,1,.33,1.19h1.23Zm82.08,31.59h-1.6l.06,1.25h1.54Zm-45.06-35.41h-1.25v1.52h1.25Zm6.14-12.41V93.59h-1.52v1.25ZM176,124.33h1.25v-1.52H176Zm-6.49,21.82h-1.25v1.52h1.25Zm28-4.65H199v-1.26h-1.52Zm-84.23-7.78h1.33l-.06-1.25h-1.27Zm16.07-23.37h1.29v-1.28l-1.29.06Zm-8.27,24v1.25h1.25v-1.25Zm78.36,0v1.29h1.28l-.07-1.29Zm-51-44v1h1.52v-1Zm26.22,38.72a.71.71,0,0,0-1-.31v1.65l1-.37Zm-16.14-13.84h1.79l-.39-1h-1.13Zm31.68,32.3v-1.2l-1-.28v1.75ZM197,146v1.86l1-.38v-1.09Zm17.22-16.77c.42-.36.58-.67.32-1h-1.44c-.25.49,0,.77.33,1Zm-96.45,1.73a.71.71,0,0,0-1-.31v1.65l1-.37Zm-7.18-41.68v1.26l.59.45.4-.55V89.25Zm85.34,20.06h1.2v-1h-1.2l-.42.52Zm-21.27,12c-.26-.31-.54-.57-1-.33v1.65l1-.41Zm-58,25.32c.36-.27.52-.58.3-1h-1.65l.37,1Zm17.3-38.13.6.39.46-.48-.05-1.14h-1Zm63-10.19.6.39.46-.48,0-1.15h-1Zm-25.17,39.9v1.86l1-.38v-1.08Zm33.31-.38.42,1h1c.35-.3.55-.6.28-1ZM165.52,99.67c-.13-1-.13-1-1.25-1a.71.71,0,0,0-.26,1Zm44-5.92h1.27l.41-.58-.42-.4h-1.26Zm-13.44-1.33a5.06,5.06,0,0,0,0-1.17c0-.19-.35-.32-.59-.52l-.41.46v1.23Zm6.91,9.13.39-.6-.48-.46-1.14.06v1Zm-45.78,2.58c.28.37.59.54,1,.31v-1.65l-1,.38Zm15.52-14.86h-1v1.2l.19-.19.27,1,.4-.9.17.15Zm-29,43.38.45-.59-.55-.4h-1l-.26,1Zm53.58,7.82-.43-1.08h-.93l-.47.59.54.49ZM213,118.23l-.49.72v1.24l1-.4V119Zm-100.35,27.3c-.55.14-1.15-.22-1.57.44l.61.61h1Zm16.68-54.2h1.33l-.05-1h-1.28Zm31.14,1.41V93.8l1.25,0v-1Zm42.34,41.58a8.89,8.89,0,0,0,0,.92c0,.14.12.37.2.38a4.33,4.33,0,0,0,.82,0v-1.27Zm0-40.77a8.74,8.74,0,0,0,0,.91c0,.14.12.38.2.39a5.37,5.37,0,0,0,.82,0V93.55ZM176.22,114.8l-1.09.54.42,1.21h.67Zm24.68,32.94c.69-.26.56-.78.42-1.13l-.27-.63-.26,0-.23.66A.71.71,0,0,0,200.9,147.74ZM103.77,110.4v-1.33l-1,.05v1.28ZM223.13,90.76l.39.59c.57.05,1.12.16,1.29-.55-.26-.63-.77-.51-1.24-.47ZM177.6,136.42c-.68.26-.56.77-.41,1.12l.26.63.27,0,.22-.66A.71.71,0,0,0,177.6,136.42Zm-34.91,6.24h-1.06l.06,1.25h1Zm23.3-.91.85.43c.36.13.95.34,1.09-.44-.25-.6-.75-.48-1.1-.31ZM171.17,128l1.07-.43-.07-1h-1Zm-6.77,13.51V140.4l-1-.26v1.38Zm-70.8,6.31-1.07.43.07,1h1ZM209,130.57v1.56h.71v-1.56ZM160.15,92.24a4.55,4.55,0,0,0-1.56,0v.69h1.56Zm-58.23,28.69h-.72v1.52h.72Zm95.56-8.87v.71H199v-.71ZM165.83,99.48v1.25l.2-.16.14.63.72-1.26A.81.81,0,0,0,165.83,99.48ZM199,103.16v-.72h-1.52v.72Zm-19.85,45c0-.8-.18-1-.63-1s-.58.23-.62,1Zm29.35-25.44v1.74l.75-.48-.06-1.26ZM130.39,120h.72v-1.69l-.72.45ZM107.06,141.5h.71v-1.25h-.71Zm-15.39,0v-1.29h-.74l.06,1.29Zm46.53,1.1v1.29h.71v-1.29ZM136.54,148a6.94,6.94,0,0,1,0,.79c-.08.65.31.57.76.47V148Zm70.58-17.24h1.29v-.71h-1.29ZM123.4,149.3a6.93,6.93,0,0,1,0-.79c.08-.66-.31-.57-.76-.48v1.27ZM89.85,148h-.72v1.25h.72ZM207.12,95.36h1.29v-.72h-1.29Zm-7.58-5c-.53-.14-.88,0-1,.49a.73.73,0,0,0,1,.46Zm-35.08,2.89a.75.75,0,0,0-1.05-.47v1C163.94,93.88,164.28,93.75,164.46,93.25Zm40.26-.48v1a.73.73,0,0,0,1.05-.46C205.6,92.76,205.25,92.63,204.72,92.77Zm-1.15,46.58c-.69.13-.86.48-.72,1.07H204Zm-82.34,1.09c.09-.61-.07-.94-.57-1.05-.43.25-.65.56-.38,1.05Zm100.25-33.91c-.41-.59-.71-.83-1.18-.59v1.15ZM87.85,147c-.59.41-.83.71-.59,1.19H88.4Zm21.1-3.25v.94a.75.75,0,0,0,1.08-.53C109.77,143.84,109.52,143.53,109,143.75Zm78.65,2.94h.34c.12-.24.27-.48.37-.73a.91.91,0,0,0,0-.33h-1.19Zm-26-47.06c.54.2.85,0,1.06-.56l-.52-.49C161.53,98.8,161.38,99.13,161.55,99.63Zm-52.6-1c0,.37-.27.83.18,1,.22.09.59-.16.86-.25l-.38-.76Zm49.31,10.63c.08-.56-.08-.89-.56-1l-.59.37C157.37,109.3,157.71,109.45,158.26,109.28Zm-57,8c.2-.78,0-1.13-.56-1.25l-.57.69Zm109.34,7.59a.74.74,0,0,0,1-.57l-.38-.54C210.63,124,210.49,124.34,210.64,124.87Zm-38.3,11.72c-.34-.63-.66-.87-1.17-.58a.73.73,0,0,0,.62,1ZM144.73,136c-.71-.17-1.06-.05-1.26.54l.72.59Zm61.05-7.34c-.26-.49-.58-.67-1.05-.45-.15.48,0,.82.66,1.07ZM144,143.57l-.57.76.7.51.58-.69Zm-7.41-53.24v1h.71v-1Zm90.07,1.25.65-.79-.62-.55.12.25-1,.28Zm-113.78,1-.57.75.7.52.58-.7Zm86.68,15c-.07-1-.21-1.21-.66-1.21l-.39.81Zm16.07,7.08v-1h-.71v1Zm-88.52,13.69v-.8l-1,0v.75Zm-2.34.84.85-.48c-.26-.5-.55-.78-1.23-.48Zm-17.46-21.77-.09-1.19c-.61.33-.91.61-.63,1.19Zm86.13,38.14c0,.38-.15.74.12,1.08a.75.75,0,0,0,.6-1.08Zm-75.18-11.36h1.07v-.68C118.74,133.4,118.39,133.57,118.26,134.23Zm-24.68,1.88v-.69c-.59-.14-1,0-1.07.69Zm80.29,2.65.62-.72a.59.59,0,0,0-.93-.12v.54ZM165,142.14a.73.73,0,0,0,.9.74c.07,0,.13-.09.16-.11v-.63Zm-24.89-11.41c.66,0,1.05-.13,1-.38-.27-.31-.57-.51-1-.24Zm28.12.81c-.5.36-.64.68-.41,1.15l.81,0Zm7.13,1.08h1.09l-.6-1.24Zm-78.75-6.07,1.57-.12-.77-.87Zm74,7.68-.8-.87-.64.87Zm4.55-21.89c.35.45.66.7,1.09.4v-.81Zm-61,25.45.47,1.14.48-.48-.07-.66Zm62.6-49,1,.91.51-.91ZM202,93v-.79l-.72.06V93ZM115.6,142.12h-.8l.06.72h.74Z"/><path d="M172.18,92.67l.1-.46h1.46l.24.65.16-.63h1.47l.25.54.19-.55h1.14l.45.72.31-.73h1.69l.21.57.41-.55h1.32l0,.72-1.07.07v2.33l-.77.09A2.42,2.42,0,0,1,180,97l-.79.49v2.22h-1.25l.23,1-.9.58.82.13v.92l-1.07.89-.72,0v3.06l-.55.19v1l-1.32.07c.42.85.08,1.72.24,2.57l-.86.52v1.68l-1,.06v1.45l-.75.51c.32.59.07,1.27.19,1.95l-.86.52v1.47h-1.31v.13l1.31.31V120a4.57,4.57,0,0,0-1,.16,5,5,0,0,0-.89.65v1.64l-1.05.06v2.31l-.5.14v1.38c-.4.39-1.09-.16-1.37.51v1.93l-.57.57v1.38l-.46.11v2.85l-1.33.1a2.51,2.51,0,0,1,.17,1.52l-.78.48v.7c-.31.67-.83.4-1.24.51a9.13,9.13,0,0,1,.19,2.57l-.81.51v1.4h-1v2.09l-1,1.18h-2v1h-1.62l-.05-1H154l0,1h-1.27l-.1-1h-2.74l-.35-.35c0-1.45,0-2.82,0-4.19,0-.06.11-.13.25-.28l-1.38-.06v-1.57h1V137.1l-1.07-.39v-4.49l-.46-.11V130.6l.44-.11V129l-.46-.16v-6.22c-.41-.36-1.1.19-1.37-.5v-2.53c0-.81,0-1.62,0-2.42s-.25-1.64.24-2.43l-.71-.07-.17-.49h-.67v2l-.57.57v2l-.5.11-.07,1.4c-.29.62-.81.36-1.31.49V123l-.5.13v1.78l-1.25.06.18,1.54h-.81v2.32a1.79,1.79,0,0,1-1.28.44c-.31.41,0,.71.21,1.14l-.84.65v2.69h-1v1.81l-.6.22V138l-.46.1v1.16c-.3.9-.9.59-1.37.73v1.86l-.75,1h-1c0,.11-.08.19-.06.23a4.28,4.28,0,0,1,.1,2.43c0,.11-.18.19-.28.29h-1.8l-.35-1h-1.17l-.11,1h-.73l0-1-.46,0v1l-1.26.06-.45-.48.3-.55h-3.41l-.11,1h-.7v-1.21l.48-.5v-1.43l1.32-.06v-2.06a6.21,6.21,0,0,1,.8-.95,5,5,0,0,1,1.1-.43,6.43,6.43,0,0,1-1.15-.53,4.65,4.65,0,0,1-.69-.87V136.5h.7l.48,1.29.33,0v-.93l.83-.53c-.45-.59-.13-1.27-.27-2H128V132l.84-.49v-1.38l.46-.12V128.2l1.08-.12v-1.92l.57-.57v-1.36a1.66,1.66,0,0,1,1.29-.41V121l.55-.15v-1l1.08-.13v-2.64l1.32-1.07h.57l0-.63c-.06-.06-.12-.15-.19-.16-.37-.07-.83.19-1-.23l.67-.69-.1,0,1.41-.77V110.8l.5-.17v-2.31l1.08-.08v-1.46l.58-.23v-1.3c.32-.63.82-.41,1.28-.47V102.5l.55-.19v-1.52l1.11-.42V99l.83-.49v-2l1,0V93.86l1.6-1.63h1.05l.22.64.17-.66H148l.23.65.17-.63h1.46l.26.54.19-.55h2l.21.58.21-.55h1.74l.35.35c-.13,1.21.19,2.51-.2,3.83h1.21l.06.82h-1.3V98l1.24.1v6l.91.53-.85.61v.46l1,.7-.89.7.65.43c0,1.61,0,3.16,0,4.71,0,.06-.12.13-.26.27l1.36.11v1.29l-1.15.5h1.15c.1,1.8,0,3.57.05,5.35l.5.1,0,.7-.49.11v1.22c.18.26.73.46.39,1.09l-.41.14v.68h.73c.11-.9,0-1.87.06-2.86h1.27l.08-1.06.49-.11v-2.89h1v-1.72l.83-.48,0-1h1c.13-1,0-2,.08-2.9l.53-.2v-1.48l1,0V106.8l.83-.56v-1.35l.5-.15c.19-.7,0-1.5.11-2.31h1.23l.11-1,.57-.21-.56-.37V99.58l.64-1h.87V96.51H170v-3l1.05-.06v-.71Z"/><path d="M179,140.23l.45-.09v-1.49l-.49-.11,0-.67.49-.13v-7.61l.55-.19v-.65l-.47-.46v-1.18l.47-.1,0-1-.52-.11,0-.61.55-.27V125l-.49-.16v-.66L180,124v-5.48c.31-.85.93-.49,1.34-.68v-.7c-.47-.13-1.14.18-1.34-.75l.55-.18-.15-.16.94,0v-.76H180v-1.21c.28-.57.78-.37,1.28-.44l0-.77h-1.3v-.77l1.25-.09v-7.06l.62-.3-.55-.2v-3l.58-.24-.57-.36V99.48l.46-.11V93.16l.43-.43h.84l.16-.5h.67l.15.45h.64l.48-.47h1.67l.23.61.19-.58h2l.2.58.2-.6h1.45l.27.57.14-.55a14.83,14.83,0,0,1,1.85-.08,4,4,0,0,1,.24.86c0,1.29,0,2.59,0,3.92l-.78.49V98a1.88,1.88,0,0,1,.39.12,2,2,0,0,1,.34.33v1.22l-.71.07v7.69l-1.09.09v7.65l-.51.14-.07,1,.51.1.05.67-.56.2v7.66H190l.31.76h1.24v-1.29c.33-.68.89-.48,1.38-.53l-.34-.58.82-.71V121.1l.88-.73H195v-1.44l1.17-1h.7v-1l.55-.2V115h1l1.18-1.4h1l-.23-1.24.86-.53v-1.68h1.54V109l.92-1.81h1v-1.29l.49-.1.1-1h1.18l-.21-1.48c.21-.17.39-.29.55-.43s.26-.25.55-.52h1.1v-1l.55-.23V99.48l.47-.09.12-.74,1-.05V97.23l.9-.77h1V95.22l.5-.13.09-1.52H214l.53-.83.83,0,.19-.49h2l.1.48.69,0,.11-.49h.94l.15.43h.66l.15-.41c.64,0,.64,0,1.22.46l1.24-.68.22.63h1.46l.16-.45h.68v1.51l-.43.11v1.51l-1.36.09v1.08l-1.1,1v1.64h-1l-.19.53-.75.12.34.47c-.49.89-1.55.87-2.23,1.59v1.34l-1,0v1.26l-.51.13V106l-.43.44h-.71l-1.25,1.31v.78l-1.1.45v1.45l-.7,0-.25.53h-.91v1.68l-.86.55.43.58-.67.25.14.15H210l-.87,1.09h-.62v1.84l-1.08.06v1l-.51.14V120l-.94.06-1.2,1.27-.81.09v.66l-.7.45.13,1.28c-.33.7-.84.45-1.12.52l-.73.78v1.33h-1.89v1.82l-.52.15-.08,1.77h-.85l-1,1v.88l-1,.09-.09.44-.63.1.17,1.53h-1.32v1.17l-1.38.89V138H192l-.76.91v1.52h-1.81V142l-1.09.46v1.45L187,144l-.06.72H186l-.14.38a2.43,2.43,0,0,1-.14.48,2.84,2.84,0,0,1-.46.44l-.62-.59.45-.59h-3l.27.4c-.11.54-.46.69-1,.58v-1h-2l-.38-.38v-2.22l.74-.42-.72-.29Z"/><path d="M122.91,113.64h2l.1-1h1.54v1h1.32v-1l1.13-.07v1h.18l.12-1h1.27v2h-1v2.39l-.54.11-.07,1-.83.14.82.5v.72l-1.12,1.13h-.66v2.27l-.52.18c-.25.38.25,1-.82,1.28H112.76l-.14.5h-1c-.13,1,0,2-.08,2.94l-.46.1-.08.87c-.31.6-.81.38-1.25.44.39.76.11,1.54.23,2.23l-.83,1.06v1.76h-.9l-.42.42v.88l-.51.13v2.24l-.55.19v2.32h-1.24l.17,1.55-.87.51v1.43l-1,0v1.8l-1.08.06v-1h-1.89l0,1H99.31l-.1-1H97.67l.25.48c-.14.51-.5.63-1,.48v-1H94.32l-.4-.41v-1.72h1l.1-1,.5-.5V138.6l1.32-.41V136.8l.83-.52v-.88h1v-2.89l.51-.13v-1.76l1.09-.13v-2l.83-.53v-1.38l.51-.11v-2.37l1.06-.39v-1.31l.8-.48a3.72,3.72,0,0,1-.22-1.72,1.66,1.66,0,0,1,1.29-.41v-1.45l.82-.58v-1.65a1.72,1.72,0,0,1,.53-.05,2.18,2.18,0,0,1,.52.23c.17-.83,0-1.71.11-2.6l.45-.1.07-1.48.53-.18V109.1h1.27v-1.77l.54-.18v-1.23l1.09-.1v-2.55l.77-.48c-.42-.55-.09-1.22-.21-1.77.23-.73.83-.44,1.3-.56V99l.84-.54v-1.4h1c.18-.81,0-1.61.12-2.37l.48-.18V93.22l.72-1h1.35l.24.65.16-.63h1.47l.25.54.19-.55h1.71a1.38,1.38,0,0,0,1,.51l.2-.52.64,0,.15.59.57-.55h1.84l.53.53.63-.56h1.59l.54.52h.58l.18-.5h1.15l.24.58.4-.6h1.22l.27.58.19-.55h1.45l.22.58.2-.55H136l.45.59.21-.62h.65l.16.46h.65l.17-.47h.62l.21.52h1.19v2.11H139v1.83l-.5.12v1.79h-1.06v2l-.6.39v1.55l-.72.14-.19.5H121.28l0,1-.79.49v1.68h-1v2l-.55.45v1.55h-1.36a2.39,2.39,0,0,1,0,2.15h1.28v1.07h1.32v-1l1.08-.06v1l.81.05.06-1h.72Zm-5.75-.8H117v.8h.13Z"/><path d="M173.81,144.27v1.52h-1.54l-.06-1.15.37-.37Z"/><path d="M120.41,145.81h-1.2c-.52-.72-.52-.86,0-1.56h1.2Z"/><path d="M195.56,103.33v.79l-.38.37H194V103C194.48,103,195,102.68,195.56,103.33Z"/><path d="M142.13,92.45h-1.5V91.17c.46-.51,1-.47,1.5,0Z"/><path d="M206.78,100.69a1,1,0,0,1-1.53,0V99.49h1.53Z"/><path d="M134.35,90.5a1,1,0,0,1-1.53,0V89.29h1.53Z"/><path d="M140.27,136.49V138H139c-.59-.49-.38-1-.12-1.51Z"/><path d="M217,120.06h-1.51v-1.23c.34-.48.69-.51,1.51,0Z"/><path d="M111.43,136.47h1.2V138l-1.17.05C110.91,137.31,110.91,137.17,111.43,136.47Z"/><path d="M124.72,111.07v1.18h-1.23c-.46-.23-.39-.71-.33-1.19C123.85,110.55,124,110.55,124.72,111.07Z"/><path d="M206.8,142.66v1.25h-1.54l-.06-1.25Z"/><path d="M161.74,107.25v1.52h-1.25v-1.52Z"/><path d="M167.88,94.84h-1.52V93.59h1.52Z"/><path d="M176,124.33v-1.52h1.25v1.52Z"/><path d="M169.51,146.15v1.52h-1.25v-1.52Z"/><path d="M197.46,141.5v-1.26H199v1.26Z"/><path d="M113.23,133.72v-1.25h1.27l.06,1.25Z"/><path d="M129.3,110.35v-1.22l1.29-.06v1.28Z"/><path d="M121,134.32h1.25v1.25H121Z"/><path d="M199.39,134.3h1.21l.07,1.29h-1.28Z"/><path d="M148.39,90.33h1.52v1h-1.52Z"/><path d="M174.61,129.05v1l-1,.37v-1.65A.71.71,0,0,1,174.61,129.05Z"/><path d="M158.47,115.21l.27-1h1.13l.39,1Z"/><path d="M190.15,147.51l-1,.27V146l1,.28Z"/><path d="M197,146l1,.39v1.09l-1,.38Z"/><path d="M214.19,129.2h-.79c-.31-.26-.58-.54-.33-1h1.44C214.77,128.53,214.61,128.84,214.19,129.2Z"/><path d="M117.74,130.93v1l-1,.37v-1.65A.71.71,0,0,1,117.74,130.93Z"/><path d="M110.56,89.25h1v1.16l-.4.55-.59-.45Z"/><path d="M195.9,109.31l-.42-.48.42-.52h1.2v1Z"/><path d="M174.63,121.29v.91l-1,.41V121C174.09,120.72,174.37,121,174.63,121.29Z"/><path d="M116.58,146.61h-1l-.37-1h1.65C117.1,146,116.94,146.34,116.58,146.61Z"/><path d="M133.88,108.48v-1.23h1l.05,1.14-.46.48Z"/><path d="M196.92,98.29V97.05h1l0,1.15-.46.48Z"/><path d="M171.75,138.19l1,.4v1.08l-1,.38Z"/><path d="M205.06,137.81h1.66c.27.42.07.72-.28,1h-1Z"/><path d="M165.52,99.67H164a.71.71,0,0,1,.26-1C165.39,98.64,165.39,98.64,165.52,99.67Z"/><path d="M209.53,93.75v-1h1.26l.42.4-.41.58Z"/><path d="M196.09,92.42h-1V91.19l.41-.46c.24.2.54.33.59.52A5.06,5.06,0,0,1,196.09,92.42Z"/><path d="M203,101.55h-1.23v-1l1.14-.06.48.46Z"/><path d="M157.22,104.13v-1l1-.38v1.65C157.81,104.67,157.5,104.5,157.22,104.13Z"/><path d="M172.74,89.27v1.21l-.17-.15-.4.9-.27-1-.19.19v-1.2Z"/><path d="M143.72,132.65h-1.34l.26-1h1l.55.4Z"/><path d="M197.3,140.47H196l-.54-.49.47-.59h.93Z"/><path d="M213,118.23l.54.74v.82l-1,.4V119Z"/><path d="M112.64,145.53v1.05h-1l-.61-.61C111.49,145.31,112.09,145.67,112.64,145.53Z"/><path d="M129.32,91.33v-1h1.28l.05,1Z"/><path d="M160.46,92.74h1.25v1l-1.25,0Z"/><path d="M202.8,134.32h1v1.27a4.33,4.33,0,0,1-.82,0c-.08,0-.18-.24-.2-.38A8.89,8.89,0,0,1,202.8,134.32Z"/><path d="M202.8,93.55h1v1.27a5.37,5.37,0,0,1-.82,0c-.08,0-.18-.25-.2-.39A8.74,8.74,0,0,1,202.8,93.55Z"/><path d="M176.22,114.8v1.75h-.67l-.42-1.21Z"/><path d="M200.9,147.74a.71.71,0,0,1-.34-1.12l.23-.66.26,0,.27.63C201.46,147,201.59,147.48,200.9,147.74Z"/><path d="M103.77,110.4h-1v-1.28l1-.05Z"/><path d="M223.13,90.76l.44-.43c.47,0,1-.16,1.24.47-.17.71-.72.6-1.29.55Z"/><path d="M177.6,136.42a.71.71,0,0,1,.34,1.12l-.22.66-.27,0-.26-.63C177,137.19,176.92,136.68,177.6,136.42Z"/><path d="M142.69,142.66v1.25h-1l-.06-1.25Z"/><path d="M166,141.75l.84-.32c.35-.17.85-.29,1.1.31-.14.78-.73.57-1.09.44Z"/><path d="M171.17,128v-1.44h1l.07,1Z"/><path d="M164.4,141.52h-1v-1.38l1,.26Z"/><path d="M93.6,147.83v1.44h-1l-.07-1Z"/><path d="M209,130.57h.71v1.56H209Z"/><path d="M142.16,92.35l1.49-.23.56.79h-1.66l.14-.08-.65-.25Z"/><path d="M160.15,92.24v.68h-1.56v-.69A4.55,4.55,0,0,1,160.15,92.24Z"/><path d="M101.92,120.93v1.52h-.72v-1.52Z"/><path d="M197.48,112.06H199v.71h-1.52Z"/><path d="M165.83,99.48a.81.81,0,0,1,1.06.46l-.72,1.26-.14-.63-.2.16Z"/><path d="M199,103.16h-1.52v-.72H199Z"/><path d="M179.15,148.2H177.9c0-.8.17-1,.62-1S179.11,147.4,179.15,148.2Z"/><path d="M208.5,122.76h.69l.06,1.26-.75.48Z"/><path d="M130.39,120V118.8l.72-.45V120Z"/><path d="M107.06,141.5v-1.25h.71v1.25Z"/><path d="M91.67,141.54H91l-.06-1.29h.74Z"/><path d="M138.2,142.64h.71v1.29h-.71Z"/><path d="M136.54,148h.76v1.26c-.45.1-.84.18-.76-.47A6.94,6.94,0,0,0,136.54,148Z"/><path d="M207.12,130.76v-.71h1.29v.71Z"/><path d="M123.4,149.3h-.76V148c.45-.09.84-.18.76.48A6.93,6.93,0,0,0,123.4,149.3Z"/><path d="M89.85,148v1.25h-.72V148Z"/><path d="M207.12,95.36v-.72h1.29v.72Z"/><path d="M199.54,90.36v1a.73.73,0,0,1-1-.46C198.66,90.34,199,90.22,199.54,90.36Z"/><path d="M164.46,93.25c-.18.5-.52.63-1.05.48v-1A.75.75,0,0,1,164.46,93.25Z"/><path d="M204.72,92.77c.53-.14.88,0,1.05.49a.73.73,0,0,1-1.05.46Z"/><path d="M203.57,139.35l.41,1.07h-1.13C202.71,139.83,202.88,139.48,203.57,139.35Z"/><path d="M121.23,140.44h-1c-.27-.49,0-.8.38-1.05C121.16,139.5,121.32,139.83,121.23,140.44Z"/><path d="M221.48,106.53l-1.18.56v-1.15C220.77,105.7,221.07,105.94,221.48,106.53Z"/><path d="M87.85,147l.55,1.19H87.26C87,147.71,87.26,147.41,87.85,147Z"/><path d="M109,143.75c.57-.22.82.09,1.08.41a.75.75,0,0,1-1.08.53Z"/><path d="M187.6,146.69l-.52-1.06h1.19a.91.91,0,0,1,0,.33c-.1.25-.25.49-.37.73Z"/><path d="M161.55,99.63c-.17-.5,0-.83.54-1l.52.49C162.4,99.6,162.09,99.83,161.55,99.63Z"/><path d="M109,98.65h.66l.38.76c-.27.09-.64.34-.86.25C108.68,99.48,109,99,109,98.65Z"/><path d="M158.26,109.28c-.55.17-.89,0-1.15-.64l.59-.37C158.18,108.39,158.34,108.72,158.26,109.28Z"/><path d="M101.3,117.28l-1.13-.56.57-.69C101.32,116.15,101.5,116.5,101.3,117.28Z"/><path d="M210.64,124.87c-.15-.53,0-.87.65-1.11l.38.54A.74.74,0,0,1,210.64,124.87Z"/><path d="M172.34,136.59l-.55.41a.73.73,0,0,1-.62-1C171.68,135.72,172,136,172.34,136.59Z"/><path d="M144.73,136l-.54,1.13-.72-.59C143.67,136,144,135.83,144.73,136Z"/><path d="M205.78,128.66l-.39.62c-.66-.25-.81-.59-.66-1.07C205.2,128,205.52,128.17,205.78,128.66Z"/><path d="M144,143.57l.71.58-.58.69-.7-.51Z"/><path d="M136.59,90.33h.71v1h-.71Z"/><path d="M226.66,91.58l-.87-.81,1-.28-.12-.25.62.55Z"/><path d="M112.88,92.61l.71.57-.58.7-.7-.52Z"/><path d="M199.56,107.61l-1.05-.4.39-.81C199.35,106.4,199.49,106.61,199.56,107.61Z"/><path d="M215.63,114.69h-.71v-1h.71Z"/><path d="M127.11,128.38h-1v-.75l1,0Z"/><path d="M124.77,129.22l-.38-1c.68-.3,1,0,1.23.48Z"/><path d="M107.31,107.45h-.72c-.28-.58,0-.86.63-1.19Z"/><path d="M193.44,145.59h.72a.75.75,0,0,1-.6,1.08C193.29,146.33,193.44,146,193.44,145.59Z"/><path d="M118.26,134.23c.13-.66.48-.83,1.07-.68v.68Z"/><path d="M93.58,136.11H92.51c.12-.67.48-.83,1.07-.69Z"/><path d="M173.87,138.76l-.31-.3v-.54a.59.59,0,0,1,.93.12Z"/><path d="M165,142.14H166v.63s-.09.1-.16.11A.73.73,0,0,1,165,142.14Z"/><path d="M140.06,130.73v-.62c.41-.27.71-.07,1,.24C141.11,130.6,140.72,130.75,140.06,130.73Z"/><path d="M168.18,131.54l.4,1.11-.81,0C167.54,132.22,167.68,131.9,168.18,131.54Z"/><path d="M175.31,132.62l.49-1.24.6,1.24Z"/><path d="M96.56,126.55l.8-1,.77.87Z"/><path d="M170.56,134.23h-1.44l.64-.87Z"/><path d="M175.11,112.34l1.09-.41v.81C175.77,113,175.46,112.79,175.11,112.34Z"/><path d="M114.14,137.79H115l.07.66-.48.48Z"/><path d="M176.74,88.74h1.47l-.51.91Z"/><path d="M202,93h-.72v-.73l.72-.06Z"/><path d="M115.6,142.12v.72h-.74l-.06-.72Z"/><ellipse class="cls-1" cx="117.09" cy="113.24" rx="0.09" ry="0.57"/></g></svg>