<?xml version="1.0" encoding="utf-8"?>
<!-- Generator: Adobe Illustrator 21.1.0, SVG Export Plug-In . SVG Version: 6.00 Build 0)  -->
<svg version="1.1" id="Layer_1" xmlns="http://www.w3.org/2000/svg" xmlns:xlink="http://www.w3.org/1999/xlink" x="0px" y="0px"
	 viewBox="0 0 2537.3 767.9" style="enable-background:new 0 0 2537.3 767.9;" xml:space="preserve">
<style type="text/css">
	.st0{fill:#D9272E;}
	.st1{fill:#3E3935;}
</style>
<polygon class="st0" points="2337.1,463.7 2436.7,463.7 2537.3,616.3 2436.7,767.9 2337.1,767.9 2387.4,616.3 "/>
<g>
	<path class="st1" d="M291.9,165.6c-58.2,0-93.5,27.3-116.4,66.1V17.5L0,35.1v61.7l57.3,23.8v488.6h109.4l5.3-52h3.5
		c21.2,36.2,58.2,65.3,116.4,65.3c73.2,0,146.4-61.7,146.4-228.4C438.3,227.3,365.1,165.6,291.9,165.6 M244.3,508.7
		c-45.9,0-70.6-38.8-70.6-114.6c0-75.8,24.7-114.6,70.6-114.6c45.9,0,70.6,38.8,70.6,114.6C314.8,469.9,290.1,508.7,244.3,508.7"/>
	<path class="st1" d="M802.6,528.1V325.2c0-127.9-63.5-159.6-158.7-159.6c-53.8,0-105.8,14.1-150.8,33.5l22.9,88.2
		c30-13.2,65.3-18.5,86.4-18.5c49.4,0,82,15.9,82,75.8v23.8c-15.9-18.5-47.6-30.9-87.3-30.9c-67,0-134.1,42.3-134.1,143.7
		c0,90,60,141.1,126.1,141.1c39.7,0,77.6-20.3,95.2-58.2h3.5l9.7,45h151.7v-61.7L802.6,528.1z M635.9,528.1
		c-28.2,0-49.4-22-49.4-56.4c0-34.4,21.2-56.4,49.4-56.4s50.3,22.1,50.3,56.4C686.2,506,664.1,528.1,635.9,528.1"/>
	<path class="st1" d="M1985.2,395.8c0-149-67-230.2-175.5-230.2c-117.3,0-180.8,79.4-180.8,228.4c0,149,75.8,228.4,189.6,228.4
		c69.7,0,125.2-37.9,158.7-85.5l-63.5-55.6c-22.9,31.7-60.8,52.9-88.2,52.9c-45,0-67-29.1-72.3-103.2h231.9V395.8z M1753.3,352.6
		c3.5-85.5,20.3-103.2,55.6-103.2c36.2,0,56.4,22.9,56.4,103.2H1753.3z"/>
	<polygon class="st1" points="1359.1,17.5 1183.6,35.1 1183.6,96.8 1240.9,120.6 1240.9,528.1 1183.6,547.5 1183.6,609.2 
		1407.6,609.2 1407.6,547.5 1359.1,528.1 	"/>
	<polygon class="st1" points="1584,530.7 1490.5,354.3 1562.8,260 1614.8,240.6 1614.8,179.7 1404,179.7 1404,240.6 1452.6,255.6 
		1368.8,364.9 1488.7,609.2 1619.2,609.2 1619.2,547.5 	"/>
	<path class="st1" d="M1053.9,528.1V307.6c18.5-19.4,43.2-29.1,66.1-29.1c3.5,0,12.3,0,31.8,4.4l22,6.2l24.7-111.1
		c-16.8-7.1-40.6-12.3-58.2-12.3c-45.9,0-63.5,27.3-86.4,66.1h-3.5l-9.7-60.8l-162.3,16.8v61.7l57.3,23.8v254.9l-57.3,19.4v61.7
		h250.5v-61.7L1053.9,528.1z"/>
	<path class="st1" d="M2183.6,528.1V307.6c18.5-19.4,43.2-29.1,66.1-29.1c3.5,0,12.3,0,31.8,4.4l22,6.2l24.7-111.1
		c-16.8-7.1-40.6-12.3-58.2-12.3c-45.9,0-63.5,27.3-86.4,66.1h-3.5l-9.7-60.8l-162.3,16.8v61.7l57.3,23.8v254.9l-57.3,19.4v61.7
		h250.5v-61.7L2183.6,528.1z"/>
</g>
</svg>
