<?xml version="1.0" encoding="utf-8"?>
<!-- Generator: Adobe Illustrator 22.0.1, SVG Export Plug-In . SVG Version: 6.00 Build 0)  -->
<svg version="1.1" id="Layer_1" xmlns="http://www.w3.org/2000/svg" xmlns:xlink="http://www.w3.org/1999/xlink" x="0px" y="0px"
	 viewBox="0 0 1600 1600" style="enable-background:new 0 0 1600 1600;" xml:space="preserve">
<style type="text/css">
	.st0{fill:#010101;}
	.st1{fill:#00B1B2;}
</style>
<g>
	<path class="st0" d="M936.9,1397.2c75.8-15.9,87.2-70,86.9-134.5c-1-243,0-486.1-1-729.1c-0.1-28.1,4.4-40.9,36.5-38.3
		c39,3.2,78.4,1.4,117.7,0.5c17.7-0.4,26.6,1.6,26.6,23.8c-1,231.6,0.4,463.3-1.3,694.9c-0.5,63.4-39.6,107.5-90.4,140.5
		C1059.4,1389,1001,1401.4,936.9,1397.2z"/>
	<path class="st0" d="M636.1,481.1c70.6,8.1,128,19.4,175.5,59.2c42,35.2,64.3,79.8,64.3,135.1c0,99.9-0.8,199.8,0.5,299.8
		c0.5,34.6,1.4,72.1,50.6,78.9c-102.7,53.7-230-20-231.5-132.9c-1.5-108.8-1-217.5,0-326.3C696,549.8,690.5,508.9,636.1,481.1z"/>
	<path class="st0" d="M622.4,756.6c-63.5,76.8-73.8,252.5-19.2,307.4c-29.6,6-58.9,11.4-89.6,5.4c-64.6-12.6-107.9-48.1-120.2-113.6
		c-12-64.3,12.9-115.9,64.8-154.5C506,765.5,563.2,762.8,622.4,756.6z"/>
	<path class="st0" d="M792.3,1266.3c1.1-51.2,44.1-93.3,95-93.1c52,0.2,95.6,45,95,97.6c-0.7,53.3-44.5,95.6-97.7,94.1
		C830.8,1363.5,791.1,1321.2,792.3,1266.3z"/>
	<path class="st0" d="M609.9,636.5c0,53.6-42.2,95.3-96.1,95c-53.8-0.3-94.8-42.4-94.1-96.5c0.6-51.8,41.9-92.9,93.9-93.4
		C567,541,609.9,583.3,609.9,636.5z"/>
	<path class="st1" d="M1113.3,391.8c-53.9-0.4-93.2-39.8-93-93c0.2-53.5,40-95,91.6-95.7c53.1-0.7,97.7,42.2,98.2,94.4
		C1210.6,351.2,1168.4,392.3,1113.3,391.8z"/>
</g>
</svg>
