<svg id="Logos" xmlns="http://www.w3.org/2000/svg" xmlns:xlink="http://www.w3.org/1999/xlink" viewBox="0 0 320 240"><defs><style>.cls-1{fill:none;}.cls-2{clip-path:url(#clip-path);}.cls-3{fill:#94bf46;}.cls-4{fill:#5f8e3e;}.cls-5{fill:#fff;}.cls-6{fill:#707071;}</style><clipPath id="clip-path"><rect class="cls-1" x="22.74" y="96.69" width="274.55" height="46.62"/></clipPath></defs><title>certification-logos</title><g id="shopify_black" data-name="shopify black"><g class="cls-2"><path class="cls-3" d="M41.15,98.26a1.31,1.31,0,0,1,.75.26c-1.88.88-3.89,3.11-4.75,7.57l-3.58,1.11c1-3.4,3.36-8.94,7.58-8.94Zm1.74,1.65a10.74,10.74,0,0,1,.6,4v.25L39,105.53c.88-3.37,2.51-5,3.94-5.62ZM47.23,103l-2.2.68v-.48a10.81,10.81,0,0,0-.52-3.54c1.29.16,2.16,1.64,2.72,3.34Zm10.54,2.58a.44.44,0,0,0-.4-.37l-3.66-.27L51,102.23a1.1,1.1,0,0,0-1-.13l-1.36.42C47.85,100.19,46.42,98,43.9,98h-.22a3,3,0,0,0-2.37-1.36c-5.87,0-8.67,7.34-9.55,11.07L27.65,109c-1.28.4-1.32.44-1.48,1.64-.13.91-3.46,26.68-3.46,26.68l26,4.86,14.07-3s-4.94-33.39-5-33.62Z"/></g><path class="cls-4" d="M57.37,105.18l-3.66-.27L51,102.23a.63.63,0,0,0-.37-.17l-2,40.15,14.07-3s-4.94-33.39-5-33.62a.44.44,0,0,0-.4-.37Z"/><path class="cls-5" d="M43.9,113l-1.74,5.16a7.91,7.91,0,0,0-3.38-.82c-2.73,0-2.87,1.72-2.87,2.15,0,2.36,6.14,3.26,6.14,8.78,0,4.34-2.75,7.14-6.47,7.14a9,9,0,0,1-6.73-2.78L30,128.65s2.35,2,4.32,2a1.74,1.74,0,0,0,1.82-1.76c0-3.07-5-3.21-5-8.26,0-4.25,3-8.36,9.21-8.36a7.62,7.62,0,0,1,3.55.68Z"/><path d="M79.14,122.63c-1.41-.76-2.13-1.4-2.13-2.29,0-1.12,1-1.84,2.57-1.84a9.13,9.13,0,0,1,3.44.76l1.29-3.93s-1.18-.92-4.65-.92c-4.83,0-8.18,2.77-8.18,6.65,0,2.21,1.56,3.89,3.65,5.1,1.68,1,2.28,1.64,2.28,2.64s-.84,1.88-2.4,1.88a10.82,10.82,0,0,1-4.53-1.2l-1.36,3.93a10.44,10.44,0,0,0,5.45,1.36c5,0,8.54-2.44,8.54-6.85,0-2.37-1.81-4-4-5.29Z"/><path d="M98.94,114.37a7.45,7.45,0,0,0-5.85,2.93l-.08,0,2.12-11.11H89.6l-5.37,28.26h5.53l1.84-9.66c.72-3.65,2.61-5.89,4.37-5.89,1.24,0,1.73.84,1.73,2a12.64,12.64,0,0,1-.24,2.45l-2.09,11.06h5.53L103.07,123a20.71,20.71,0,0,0,.4-3.61c0-3.13-1.65-5-4.53-5Z"/><path d="M113.25,130.56c-1.89,0-2.69-1.6-2.69-3.6,0-3.17,1.65-8.34,4.65-8.34,2,0,2.61,1.68,2.61,3.33,0,3.4-1.65,8.61-4.57,8.61ZM116,114.37c-6.65,0-11.06,6-11.06,12.71,0,4.29,2.65,7.73,7.62,7.73,6.53,0,10.94-5.85,10.94-12.7,0-4-2.33-7.74-7.5-7.74Z"/><path d="M132.33,130.64a3.53,3.53,0,0,1-2.29-.8l.93-5.17c.64-3.44,2.44-5.73,4.37-5.73,1.68,0,2.2,1.56,2.2,3,0,3.56-2.13,8.65-5.21,8.65Zm5.29-16.27a7.57,7.57,0,0,0-5.85,3.29h-.08l.32-3h-4.89c-.24,2-.68,5-1.12,7.34l-3.85,20.24h5.53l1.52-8.18h.12a6.48,6.48,0,0,0,3.25.72c6.49,0,10.74-6.65,10.74-13.38,0-3.73-1.64-7.06-5.69-7.06Z"/><path d="M151.21,106.43a3.16,3.16,0,0,0-3.17,3.21,2.55,2.55,0,0,0,2.61,2.77h.08A3.13,3.13,0,0,0,154,109.2a2.63,2.63,0,0,0-2.76-2.77Z"/><polygon points="143.47 134.41 149 134.41 152.77 114.81 147.2 114.81 143.47 134.41 143.47 134.41"/><path d="M166.84,114.77H163l.2-.92c.32-1.88,1.45-3.57,3.29-3.57a5.78,5.78,0,0,1,1.76.28l1.09-4.33a7.37,7.37,0,0,0-3-.48,8.18,8.18,0,0,0-5.41,1.85,10.44,10.44,0,0,0-3.21,6.25l-.16.92H155l-.81,4.17h2.57l-2.93,15.47h5.54l2.92-15.47h3.81l.76-4.17Z"/><path d="M180.15,114.81s-3.46,8.71-5,13.47h-.08c-.11-1.53-1.36-13.47-1.36-13.47h-5.82l3.33,18a1.17,1.17,0,0,1-.12.92,9.41,9.41,0,0,1-3,3.33,12,12,0,0,1-3.12,1.56l1.52,4.69a12.63,12.63,0,0,0,5.41-3c2.53-2.37,4.85-6,7.26-11l6.77-14.51Z"/><path class="cls-6" d="M205.43,119.38a2.3,2.3,0,0,0-2.58-2.34c-2.79,0-5,2.83-5.9,6.22,4.6,0,8.48-.77,8.48-3.84v0Zm.57,13.94a12.45,12.45,0,0,1-5.9,1.46c-4.85,0-6.83-3.44-6.83-7.6,0-5.7,4-12.73,10-12.73,3.48,0,5.21,2.22,5.21,4.85,0,5-5.29,6.55-12,6.47a9.77,9.77,0,0,0,.33,3.8,3.92,3.92,0,0,0,4,2.58,9.74,9.74,0,0,0,4.72-1.25l.45,2.42Z"/><path class="cls-6" d="M214.4,114.86l1.66,4.24c.45,1.29.77,2.3,1.13,3.23h.08c.73-1.13,1.22-1.9,2.06-3.07l3.32-4.4h3.64l-7.72,9.61,4,9.94h-3.48l-1.65-4.4c-.53-1.33-.81-2.14-1.22-3.48h-.12c-.56,1-1.17,1.94-2,3.12l-3.51,4.76H207l8-10-4-9.53Z"/><path class="cls-6" d="M229,131.3a4.88,4.88,0,0,0,3.16,1c4.36,0,7.39-6.46,7.39-10.91,0-2-.73-4.2-3.19-4.2s-5.34,3.07-6.26,8L229,131.3Zm-5.33,11,3.92-20.52c.44-2.47.81-5.1,1.09-7h2.91l-.52,3.51h.08a8.09,8.09,0,0,1,6.46-3.92c3.8,0,5.3,3.23,5.3,6.63,0,6.63-4.41,13.74-10.71,13.74a7.53,7.53,0,0,1-3.68-.81h-.08l-1.58,8.32Z"/><path class="cls-6" d="M257,119.38a2.3,2.3,0,0,0-2.59-2.34c-2.79,0-5,2.83-5.9,6.22,4.61,0,8.49-.77,8.49-3.84v0Zm.56,13.94a12.38,12.38,0,0,1-5.89,1.46c-4.85,0-6.83-3.44-6.83-7.6,0-5.7,4-12.73,10-12.73,3.47,0,5.21,2.22,5.21,4.85,0,5-5.29,6.55-12,6.47a9.94,9.94,0,0,0,.32,3.8,3.92,3.92,0,0,0,4,2.58,9.79,9.79,0,0,0,4.73-1.25l.44,2.42Z"/><path class="cls-6" d="M260.92,134.41l2.43-12.77c.48-2.54.76-5.09.92-6.78h2.83c-.12,1.25-.24,2.54-.44,4.08h.08c1.29-2.59,3.23-4.49,5.66-4.49.28,0,.6,0,.85,0l-.65,3.24a3,3,0,0,0-.73,0c-2.83,0-5.25,3.56-6,7.6l-1.74,9.13Z"/><path class="cls-6" d="M282,110.21l-.88,4.65h4.36l-.48,2.5H280.6l-1.86,10a16.46,16.46,0,0,0-.36,2.91c0,1.13.48,1.78,1.7,1.78a7.56,7.56,0,0,0,1.45-.12l-.16,2.51a9,9,0,0,1-2.47.32c-2.66,0-3.83-1.62-3.83-3.6a18.08,18.08,0,0,1,.4-3.51l2-10.31h-2.67l.49-2.5h2.66l.69-3.52,3.39-1.13Z"/><path class="cls-6" d="M285.09,131.14a7.53,7.53,0,0,0,3.84,1.13,3.27,3.27,0,0,0,3.55-3.23c0-1.58-.73-2.59-2.5-3.68-2-1.21-3.24-3-3.24-4.93,0-3.35,2.79-6,6.79-6a7.81,7.81,0,0,1,3.76.89l-.93,2.47a6.24,6.24,0,0,0-3-.81c-2.06,0-3.39,1.29-3.39,3,0,1.49.93,2.34,2.42,3.31,2,1.25,3.35,3,3.35,5.13,0,4.17-3.15,6.39-7.11,6.39a8.06,8.06,0,0,1-4.48-1.25l.93-2.39Z"/></g></svg>