<svg id="Logos" xmlns="http://www.w3.org/2000/svg" xmlns:xlink="http://www.w3.org/1999/xlink" viewBox="0 0 320 240"><defs><style>.cls-1,.cls-2,.cls-4{fill:none;}.cls-2{stroke:#5e3a8d;stroke-width:2.69px;}.cls-2,.cls-4{stroke-miterlimit:10;}.cls-3{clip-path:url(#clip-path);}.cls-4{stroke:#2a7fb7;stroke-width:3.2px;}.cls-5{clip-path:url(#clip-path-2);}.cls-6{font-size:13.67px;fill:#5e3a8d;font-family:Roboto-Black, Roboto;font-weight:800;}.cls-7{fill:#2a306d;}.cls-8{fill:#2b306d;}.cls-9{fill:#2a7fb7;}.cls-10{fill:#6c2f8e;}.cls-11{fill:#2a2f6d;}.cls-12{fill:#f3f7fa;}.cls-13{fill:#f1f6f9;}.cls-14{fill:#eff4f8;}.cls-15{fill:#f5f9fb;}.cls-16{fill:#f5f8fb;}.cls-17{fill:#ecf2f7;}.cls-18{fill:#f0f5f9;}.cls-19{fill:#e0eaf2;}.cls-20{fill:#2f82b9;}.cls-21{fill:#3082b9;}</style><clipPath id="clip-path"><rect class="cls-1" x="86.95" y="38.26" width="147.74" height="56.64"/></clipPath><clipPath id="clip-path-2"><rect class="cls-1" x="86.95" y="148.22" width="147.74" height="53.52"/></clipPath></defs><title>certification-logos</title><g id="MWBE"><g id="bg_ring" data-name="bg ring"><circle class="cls-2" cx="160" cy="120" r="99.44"/><g class="cls-3"><circle class="cls-4" cx="160" cy="120" r="69.66"/></g><g class="cls-5"><circle class="cls-4" cx="160" cy="120" r="69.66"/></g></g><g id="TEXT"><text class="cls-6" transform="translate(85.2 170.64) rotate(54.78)"> </text><text class="cls-6" transform="matrix(0.64, 0.77, -0.77, 0.64, 87.63, 174.21)">B</text><text class="cls-6" transform="matrix(0.72, 0.69, -0.69, 0.72, 94.15, 181.96)">U</text><text class="cls-6" transform="matrix(0.79, 0.61, -0.61, 0.79, 101.71, 189.1)">S</text><text class="cls-6" transform="translate(109.3 194.77) rotate(32.88)">I</text><text class="cls-6" transform="translate(113.58 197.63) rotate(27.88)">N</text><text class="cls-6" transform="translate(123.25 202.6) rotate(21.58)">E</text><text class="cls-6" transform="translate(131.5 205.82) rotate(15.63)">S</text><text class="cls-6" transform="matrix(0.99, 0.16, -0.16, 0.99, 140.98, 208.4)">S</text><text class="cls-6" transform="matrix(1, 0.09, -0.09, 1, 150.29, 209.81)"> </text><text class="cls-6" transform="matrix(1, 0.02, -0.02, 1, 154.5, 210.22)">E</text><text class="cls-6" transform="translate(163.41 210.37) rotate(-5.14)">N</text><text class="cls-6" transform="translate(174.08 209.32) rotate(-11.63)">T</text><text class="cls-6" transform="translate(183.67 207.26) rotate(-17.59)">E</text><text class="cls-6" transform="translate(192.14 204.53) rotate(-23.67)">R</text><text class="cls-6" transform="translate(201.49 200.35) rotate(-30.18)">P</text><text class="cls-6" transform="translate(210.27 195.17) rotate(-36.64)">R</text><text class="cls-6" transform="translate(218.11 189.16) rotate(-41.37)">I</text><text class="cls-6" transform="matrix(0.7, -0.72, 0.72, 0.7, 221.95, 185.85)">S</text><text class="cls-6" transform="translate(228.66 178.79) rotate(-51.82)">E</text><text class="cls-6" transform="translate(84.21 93.12) rotate(-67.25)">C</text><text class="cls-6" transform="matrix(0.48, -0.87, 0.87, 0.48, 87.9, 84.48)">E</text><text class="cls-6" transform="translate(91.91 77.25) rotate(-54.65)">R</text><text class="cls-6" transform="matrix(0.67, -0.75, 0.75, 0.67, 97.25, 69.76)">T</text><text class="cls-6" transform="translate(103.34 63.11) rotate(-43.42)">I</text><text class="cls-6" transform="translate(106.76 59.82) rotate(-38.87)">F</text><text class="cls-6" transform="translate(113.05 54.86) rotate(-34.37)">I</text><text class="cls-6" transform="translate(116.92 52.16) rotate(-29.75)">E</text><text class="cls-6" transform="translate(124.11 48.05) rotate(-23.39)">D</text><text class="cls-6" transform="matrix(0.95, -0.32, 0.32, 0.95, 132.73, 44.47)"> </text><text class="cls-6" transform="translate(136.3 43.06) rotate(-12.8)">M</text><text class="cls-6" transform="translate(148.42 40.54) rotate(-6.75)">I</text><text class="cls-6" transform="matrix(1, -0.03, 0.03, 1, 153.05, 39.89)">N</text><text class="cls-6" transform="translate(162.99 39.65) rotate(5.43)">O</text><text class="cls-6" transform="matrix(0.98, 0.21, -0.21, 0.98, 172.74, 40.62)">R</text><text class="cls-6" transform="translate(181.84 42.72) rotate(17.23)">I</text><text class="cls-6" transform="translate(186.18 43.98) rotate(22.09)">T</text><text class="cls-6" transform="translate(194.76 47.5) rotate(28.73)">Y</text><text class="cls-6" transform="matrix(0.83, 0.55, -0.55, 0.83, 201.79, 51.39)">-</text><text class="cls-6" transform="matrix(0.77, 0.64, -0.64, 0.77, 207.29, 54.97)">O</text><text class="cls-6" transform="translate(214.65 60.91) rotate(46.98)">W</text><text class="cls-6" transform="matrix(0.58, 0.82, -0.82, 0.58, 222.81, 69.79)">N</text><text class="cls-6" transform="matrix(0.48, 0.88, -0.88, 0.48, 228.55, 78.05)">E</text><text class="cls-6" transform="translate(232.53 85.3) rotate(67.56)">D</text></g><path class="cls-7" d="M115.38,143.84a2.26,2.26,0,0,1-1,0c-.19-.22-.13-.48-.13-.72,0-5.15,0-10.3,0-15.44a8,8,0,0,0-.52-3,3.71,3.71,0,0,0-3.87-2.39,4.11,4.11,0,0,0-4.12,3.59,9.64,9.64,0,0,0-.18,2q0,7.4,0,14.8a2.11,2.11,0,0,1-.12,1.18H95.07c-.35-.34-.21-.75-.21-1.12,0-5,0-9.94,0-14.91a9.3,9.3,0,0,0-.35-2.73,3.72,3.72,0,0,0-3.89-2.83,4,4,0,0,0-4,2.88,8,8,0,0,0-.28,2.53q0,7.45,0,14.91a2.07,2.07,0,0,1-.17,1.22H75.56v-30.6H86.28v4l.18.12a11.62,11.62,0,0,1,9-4.53c3.9-.2,6.6,1.68,8.75,4.7.38,0,.51-.31.72-.52,3.86-3.84,8.42-5.1,13.64-3.52a8.48,8.48,0,0,1,5.58,5.36Z"/><path class="cls-8" d="M165.7,143.9h-9.29l-4.89-15.44c-2,5.08-3.51,10.29-5.26,15.43h-9.12a18.62,18.62,0,0,1-1-3.11c-1.26-4.09-2.49-8.19-3.75-12.28a1.89,1.89,0,0,1-.07-1.24l4.88-13.92a.83.83,0,0,1,.13-.2,1,1,0,0,1,1,.07c1.27,4.89,2.56,9.84,3.85,14.79l.21,0a44.34,44.34,0,0,0,1.58-4.81c.53-1.68,1-3.39,1.55-5.07s.93-3.33,1.59-5h8.84l4.62,14.94h.29c1.34-5,2.69-9.92,4-14.92h10.34C172,123.49,168.85,133.67,165.7,143.9Z"/><path class="cls-9" d="M75.55,109.78v-9H175v9Z"/><path class="cls-10" d="M127.56,113.14h8.24L125,143.84h-8.18Z"/><path class="cls-8" d="M211.48,124.36a14.31,14.31,0,0,0-6.2-9.53c-4.17-2.78-11.19-3.18-15.58,1.88-.17.2-.27.51-.68.47V109c0-1.39,0-2.77,0-4.16s.07-2.74,0-4.12H178.34c-.25,2-.14,42.43.11,43.18h10.21a1.57,1.57,0,0,0,.4-.14v-3.42a4.48,4.48,0,0,1,.37.3,11.63,11.63,0,0,0,11.41,3.65c4.59-.86,7.72-3.7,9.57-7.94A19.53,19.53,0,0,0,211.48,124.36Zm-10.7,7.38a6.13,6.13,0,0,1-6.2,3.93,6.31,6.31,0,0,1-5.49-4.77,9.68,9.68,0,0,1-.3-2.51,7.5,7.5,0,0,1,1.08-3.74,6.14,6.14,0,0,1,10.91,1A7.76,7.76,0,0,1,200.78,131.74Z"/><path class="cls-11" d="M245.11,123.31c-1.42-4.65-4.26-8-8.94-9.65a17,17,0,0,0-8.08-.67,14.58,14.58,0,0,0-11.53,8.52,16.88,16.88,0,0,0-1.28,10.27,14.28,14.28,0,0,0,7.22,10.6,19,19,0,0,0,9.72,2.22,15.81,15.81,0,0,0,9.74-3.39,10.85,10.85,0,0,0,2.78-2.87l-5.92-4.86a9.39,9.39,0,0,1-6.89,3.15,6.23,6.23,0,0,1-6.46-5.07h20.41A22.09,22.09,0,0,0,245.11,123.31Zm-19.75,2.78a5.45,5.45,0,0,1,4.93-5.52c3.1-.16,5.31,2.17,5.51,5.52Z"/><path class="cls-12" d="M94.41,102.23a6.5,6.5,0,0,1,1.77,0l1,3.06h.18l1.05-3a2.68,2.68,0,0,1,1.43-.13c.53,1,.67,2.12,1.26,3.3l1-3.23a5.61,5.61,0,0,1,1.76-.06l-2.05,6.05a3.67,3.67,0,0,1-1.44,0c-.51-1-.73-2-1.22-3.19-.63,1-.79,2.18-1.29,3.17a5.56,5.56,0,0,1-1.44.1Z"/><path class="cls-13" d="M84.55,108.15a2.94,2.94,0,0,1-1.33.12c-1-.91-1.58-2.1-2.65-3.12v2.92a2.64,2.64,0,0,1-1.61.19v-6c.39-.22.85-.07,1.34-.11.93.86,1.54,2,2.54,3,.22-1,0-2,.15-2.9a4.24,4.24,0,0,1,1.56-.08Z"/><path class="cls-12" d="M126.67,102.22a18.47,18.47,0,0,1,3.33,0,2,2,0,0,1,1.92,1.42,2,2,0,0,1-1,2.44c.21.8.92,1.28,1.2,2.1h-1.77c-.72-.43-.74-1.68-1.84-1.78-.27.61,0,1.17-.23,1.7a2.67,2.67,0,0,1-1.57.1Z"/><path class="cls-14" d="M87.31,102.22h4.86a2.56,2.56,0,0,1,.1,1.32,22.83,22.83,0,0,1-2.89.14c-.27.08-.29.2-.29.3a2.39,2.39,0,0,0,0,.44c.88.23,1.77,0,2.68.16.23.38.07.8.13,1.23a20.77,20.77,0,0,1-2.67.18c-.25.24-.23.49,0,.86h3v1.38H87.36C87.22,106.24,87.3,104.28,87.31,102.22Z"/><path class="cls-12" d="M138,104.81l2.35,3.42h-2l-1.5-2.12c-.52.51-.52.51-.73,2.1a3.77,3.77,0,0,1-1.57,0v-5.9c.48-.3,1,0,1.55-.16.23.78,0,1.52.19,2.35l2-2.29h1.88A26.8,26.8,0,0,1,138,104.81Z"/><path class="cls-15" d="M120.79,108.32a3.3,3.3,0,0,1-3.28-3.11,3.37,3.37,0,0,1,3.35-3.06,3.42,3.42,0,0,1,3.23,3.07A3.33,3.33,0,0,1,120.79,108.32Z"/><path class="cls-16" d="M151.07,106.15l1.12.81a3.1,3.1,0,0,1-4.75.49,3.06,3.06,0,0,1-.09-4.43,3.21,3.21,0,0,1,4.8.3c-.26.42-.75.59-1.07.92-.44,0-.55-.46-1-.54-1-.1-1.46.08-1.77.78a1.64,1.64,0,0,0,.46,2C149.44,107,149.9,107,151.07,106.15Z"/><path class="cls-17" d="M109.75,102.25a8.14,8.14,0,0,1,1.9,0l1.26,2.11,1.25-2.07a5.67,5.67,0,0,1,1.89,0c-.54.89-1,1.72-1.53,2.49a3.37,3.37,0,0,0-.72,2.46,1.43,1.43,0,0,1-.14,1c-.46.23-1,0-1.4.09a1,1,0,0,1-.25-1,3.62,3.62,0,0,0-.75-2.57C110.74,104,110.3,103.16,109.75,102.25Z"/><path class="cls-14" d="M168,102.25l1.2,2c.59-.62.81-1.42,1.36-2.06a9,9,0,0,1,1.72,0,8.76,8.76,0,0,1-1.33,2.31,4,4,0,0,0-.84,2.86,1,1,0,0,1-.14.79,2.58,2.58,0,0,1-1.43,0,.76.76,0,0,1-.21-.74,4,4,0,0,0-.87-3c-.5-.67-.88-1.44-1.38-2.26Z"/><path class="cls-18" d="M164.11,103.62l-1.73.08v4.39a2.83,2.83,0,0,1-1.73.13v-4.38c-.62-.33-1.17-.08-1.73-.25-.2-.41-.06-.85-.1-1.35h5.26A3.53,3.53,0,0,1,164.11,103.62Z"/><path class="cls-19" d="M156.36,108.26h-1.7v-6a4.35,4.35,0,0,1,1.7-.07Z"/><path class="cls-20" d="M128.39,105.08a3.7,3.7,0,0,1,0-1.28c1.35-.32,1.69-.18,1.88.82C129.77,105.24,129.11,105.12,128.39,105.08Z"/><path class="cls-21" d="M122.35,105.28c-.37,1.2-1,1.69-1.82,1.54a1.67,1.67,0,0,1-1.31-1.58,1.62,1.62,0,0,1,1.28-1.59C121.49,103.51,122,103.92,122.35,105.28Z"/></g></svg>