<svg xmlns="http://www.w3.org/2000/svg" viewBox="0 0 262.26 84.03"><defs><style>.cls-1{fill:#231f20;}.cls-2{fill:#010101;}</style></defs><title>logo-heather-huey</title><g id="Layer_2" data-name="Layer 2"><g id="Logos"><g id="logo-heather-huey"><polygon id="heather-huey-brandmark" class="cls-1" points="162.4 0 162.4 15.5 131.41 15.5 131.41 0 130.86 0 130.86 15.5 99.87 15.5 99.87 0 99.32 0 99.32 31.54 99.87 31.54 99.87 16.04 130.86 16.04 130.86 31.54 131.41 31.54 131.41 16.04 162.4 16.04 162.4 31.54 162.94 31.54 162.94 0 162.4 0"/><g id="logo-heather-huey-2" data-name="logo-heather-huey"><path class="cls-2" d="M0,57.79H3.54V68.48h9.1V57.79h3.54V83.27H12.64V71.53H3.54V83.27H0Z"/><path class="cls-2" d="M24.79,57.79H40.62v3.12H28.43V68.3h9v3.23H28.5V80H41.28v3.23H24.79Z"/><path class="cls-2" d="M60.33,78H50.27l-1.6,5.31H45l8.23-25.48h4l8.61,25.48H62.07Zm-1-3-4-13c0-.07-.07-.14-.17-.14S55,62,55,62.06L51.17,75Z"/><path class="cls-2" d="M84.7,57.79V61H77.31V83.27H73.66V61H66.23V57.79Z"/><path class="cls-2" d="M90.5,57.79H94V68.48h9.1V57.79h3.54V83.27h-3.54V71.53H94V83.27H90.5Z"/><path class="cls-2" d="M115.28,57.79h15.84v3.12H118.93V68.3h9v3.23H119V80h12.77v3.23H115.28Z"/><path class="cls-2" d="M138.44,57.79h7.84c7.12,0,8.65,4.3,8.65,6.9,0,4.8-3.16,6.08-5.45,6.81l6.66,11.77H152l-6-11.32H142V83.27h-3.57Zm3.54,3v8.44a32.78,32.78,0,0,0,5.76-.25c1.39-.31,3.58-1,3.58-3.88s-2-4.31-5.83-4.31Z"/><path class="cls-2" d="M171.42,57.79H175V68.48h9.09V57.79h3.54V83.27h-3.54V71.53H175V83.27h-3.54Z"/><path class="cls-2" d="M200,57.79v17c0,2.74.63,6,4.79,6a4.45,4.45,0,0,0,3.89-2.18,11.35,11.35,0,0,0,.76-4.73V57.79h3.2V74.9c0,2.5-.52,5.07-2.26,6.84A8.22,8.22,0,0,1,204,84a7.27,7.27,0,0,1-5.9-3,10.64,10.64,0,0,1-1.63-6.46V57.79Z"/><path class="cls-2" d="M221.27,57.79H237.1v3.12H224.91V68.3h9v3.23H225V80h12.78v3.23H221.27Z"/><path class="cls-2" d="M253.86,73.23v10h-3.75V73.41l-8.67-15.59h4.16L251,68.24c.07.13.77,1.63.8,1.66l.24.31h.25c.2-.34.9-1.91,1.07-2.22l5.28-10.2h3.64Z"/></g></g></g></g></svg>