<svg xmlns="http://www.w3.org/2000/svg" viewBox="0 0 222.42 35.55"><defs><style>.cls-1{fill:#929291;}.cls-2{fill:#fff;}.cls-3{fill:#fcb773;}.cls-4{fill:#adabaa;}.cls-5{fill:#bfbdbd;}.cls-6{fill:#e6e5e4;}.cls-7{fill:#dcdad9;}.cls-8{fill:#ffe6cd;}.cls-9{fill:#e7e5e5;}.cls-10{fill:#f7911f;}.cls-11{fill:#bebbbb;}.cls-12{fill:#bdbbba;}.cls-13{fill:#a6a5a4;}.cls-14{fill:#e5e3e3;}.cls-15{fill:#e3e2e1;}</style></defs><title>logo-kraftworks</title><g id="Layer_2" data-name="Layer 2"><g id="Logos"><g id="logo-kraftworks"><path class="cls-1" d="M211,35.46a12.4,12.4,0,0,1-3.34-.89A8.1,8.1,0,0,1,202.75,28c-.05-.33-.06-.68-.1-1s.09-.34.33-.33.74,0,1.11,0,.42.12.45.43a7.16,7.16,0,0,0,2.58,5,7.73,7.73,0,0,0,4.3,1.76,12.21,12.21,0,0,0,6.1-.79,4.43,4.43,0,0,0,2.91-3.24c.48-2.62-.3-4.06-2.45-5.19a17.4,17.4,0,0,0-4.56-1.43,38.93,38.93,0,0,1-4.67-1.05,8.83,8.83,0,0,1-4.18-2.58,4.43,4.43,0,0,1-1-2.31c-.25-1.94-.09-3.77,1.36-5.27a7,7,0,0,1,3.23-1.88,13.94,13.94,0,0,1,9.28.3,6.6,6.6,0,0,1,4.13,5.67c.06.43.29,1,0,1.28s-.82,0-1.25.08-.53-.06-.54-.5a5.39,5.39,0,0,0-3.92-5.29,11,11,0,0,0-7.65.26,4.3,4.3,0,0,0-2.73,2.85,4.06,4.06,0,0,0,2.3,4.94A18.46,18.46,0,0,0,211.93,21c1.7.4,3.42.68,5.1,1.17a7.65,7.65,0,0,1,4.36,2.74,5.94,5.94,0,0,1,.94,2.33c.11.16,0,.37.08.53v2.22a5.13,5.13,0,0,1-.92,2.27A8,8,0,0,1,217.26,35a10.51,10.51,0,0,1-2.79.46,2.32,2.32,0,0,0-.69,0h-.26a6.44,6.44,0,0,0-1.16,0h-.79C211.39,35.48,211.2,35.55,211,35.46Z"/><path class="cls-2" d="M214.49,35.45a20.28,20.28,0,0,0,2.45-.44,8,8,0,0,0,4.36-2.74,5,5,0,0,0,.94-1.94c0-.14,0-.3.17-.39,0,1.78,0,3.56,0,5.34,0,.22,0,.28-.27.27H214.5s0,0,0-.06Z"/><path class="cls-3" d="M0,.41H.09a1.1,1.1,0,0,1,.14.77c0,2.81,0,5.63,0,8.44V34.07c0,.29.07.59-.14.85H0Z"/><path class="cls-4" d="M212.36,35.47c.38,0,.78-.12,1.16.08h-1.16s0,0,0,0S212.35,35.47,212.36,35.47Z"/><path class="cls-5" d="M212.36,35.47v.08h-.8s0,0,0,0,0,0,0,0Z"/><path class="cls-6" d="M214.49,35.45v.1h-.72C214,35.38,214.26,35.48,214.49,35.45Z"/><path class="cls-7" d="M222.41,27.72c-.14-.16-.07-.35-.08-.53h.08Z"/><path class="cls-8" d="M50.36,35.46c.18,0,.37-.07.53.09h-.54Z"/><path class="cls-9" d="M211.56,35.47v.08H211v-.09Z"/><path class="cls-1" d="M116.32,2.32c-.48,1.69-1,3.38-1.45,5.07q-2.58,9-5.15,18.07c-.85,3-1.7,5.95-2.53,8.93-.11.39-.26.61-.72.56a12.67,12.67,0,0,0-1.51,0,.37.37,0,0,1-.44-.32q-2-7.06-4.06-14.12-2-6.84-3.94-13.66c-.58-2-1.15-4-1.74-6-.11-.36,0-.46.34-.43a10,10,0,0,0,1.34,0c.31,0,.44.1.52.39.68,2.5,1.38,5,2.07,7.49q2.67,9.56,5.33,19.12l1.38,4.92c0,.1,0,.22.19.28.21-.77.43-1.53.64-2.3Q109.5,20,112.4,9.78q1.27-4.48,2.54-9c.08-.3.2-.43.54-.42.64,0,1.28,0,1.91,0a.39.39,0,0,1,.46.34l3,10.34q2.3,8,4.6,16c.51,1.8,1,3.59,1.54,5.38a.29.29,0,0,0,.15.18c.14-.5.29-1,.43-1.49q3.54-13,7.1-25.92c.4-1.48.82-3,1.22-4.45a.39.39,0,0,1,.46-.34c.51,0,1,0,1.52,0,.32,0,.4,0,.3.39-.46,1.56-.9,3.13-1.35,4.69L129.87,29.6c-.48,1.65-1,3.29-1.42,4.95a.47.47,0,0,1-.56.4,13.53,13.53,0,0,0-1.56,0c-.35,0-.48-.12-.57-.44-.66-2.33-1.34-4.64-2-7l-4.87-16.81c-.76-2.6-1.51-5.21-2.26-7.81-.06-.21-.13-.41-.2-.62Z"/><path class="cls-10" d="M.09,34.92V.41l1.82,0c.22,0,.29.08.28.28s0,.24,0,.36v19.1c.23,0,.32-.18.44-.29Q10.48,12.67,18.3,5.48L23.61.62a.61.61,0,0,1,.46-.23h2.45c0,.19-.13.23-.21.31Q18.78,7.59,11.22,14.45c-.3.27-.26.41,0,.69q8.05,9.67,16.07,19.37c.1.11.18.23.34.43a18.13,18.13,0,0,0-1.82,0,1.5,1.5,0,0,1-1.41-.66Q17,25.44,9.64,16.59c-.25-.3-.37-.32-.67,0q-3.21,3-6.47,5.9a.89.89,0,0,0-.32.73c0,3.75,0,7.5,0,11.25,0,.39-.08.56-.51.52S.62,34.93.09,34.92Z"/><path class="cls-1" d="M200.67,10.08l-5.62,4.8q-2.49,2.14-5,4.26c-.22.19-.16.33,0,.52l7.17,9.57,4,5.34a4.09,4.09,0,0,1,.24.37H199c-.21,0-.28-.2-.38-.34q-3.72-5-7.45-10l-2.62-3.53c-.18-.25-.29-.28-.54-.07-1.66,1.43-3.34,2.85-5,4.25a.81.81,0,0,0-.31.69c0,2.83,0,5.66,0,8.49,0,.4-.11.53-.5.5a7.63,7.63,0,0,0-1.07,0c-.23,0-.33-.08-.31-.31s0-.21,0-.31V1c0-.69-.07-.61.63-.62.31,0,.62,0,.93,0s.33.09.31.32,0,.23,0,.35V23.22l1.84-1.57,13.16-11.36c.12-.1.22-.21.38-.21Z"/><path class="cls-10" d="M73.85,23.31V34.39c0,.55,0,.55-.58.55-.33,0-.65,0-1,0s-.32-.08-.3-.31,0-.21,0-.31q0-11.07,0-22.15c0-.42-.12-.51-.51-.5-1.19,0-2.38,0-3.56,0-.29,0-.38-.08-.38-.37,0-1.25,0-1.25,1.23-1.25.92,0,1.84,0,2.76,0,.38,0,.46-.12.46-.48C72,8.06,72,6.52,72,5a5.62,5.62,0,0,1,.4-2.18A4.57,4.57,0,0,1,76,.14a9,9,0,0,1,3.36,0c.23,0,.34.12.32.37,0,.41.17,1-.08,1.2s-.74-.05-1.14-.08a7.49,7.49,0,0,0-2,0C74.77,2,74,2.75,73.9,4.47s0,3.56-.05,5.34c0,.31.21.26.39.26,1.41,0,2.82,0,4.23,0,.42,0,.59.07.57.54,0,1.09,0,1.09-1.09,1.09-1.23,0-2.46,0-3.69,0-.35,0-.42.1-.42.43C73.85,15.84,73.85,19.58,73.85,23.31Z"/><path class="cls-10" d="M85.73,21.29c0-3.06,0-6.11,0-9.17,0-.35-.09-.45-.45-.44-1.26,0-2.52,0-3.78,0-.28,0-.4-.06-.37-.36s-.16-.91.07-1.17.75-.08,1.14-.09c1,0,2,0,2.94,0,.35,0,.45-.1.45-.45,0-2.24,0-4.48,0-6.72,0-.66-.08-.57.6-.58.28,0,.57,0,.85,0s.42.08.4.4,0,.65,0,1c0,2,0,3.92,0,5.88,0,.38.08.51.49.5,1.49,0,3,0,4.49,0,.33,0,.5.06.45.43s.16.88-.08,1.12-.73.07-1.11.07c-1.28,0-2.55,0-3.83,0-.29,0-.41.06-.41.39q0,8.47,0,16.94a9.12,9.12,0,0,0,.15,1.73,2.93,2.93,0,0,0,2.64,2.5,11.79,11.79,0,0,0,2.22.09c.27,0,.37.07.36.34s0,.66,0,1-.06.3-.27.31a12.42,12.42,0,0,1-3.28-.16,4.45,4.45,0,0,1-3.63-4.13c0-.31,0-.62,0-.93Z"/><path class="cls-10" d="M32.88,15.59a7,7,0,0,1,2.51-3.49,10.85,10.85,0,0,1,6.72-2.19c.25,0,.35.07.34.33,0,.46.15,1-.05,1.35s-.83.11-1.25.12a8.92,8.92,0,0,0-8.23,7.81A22.92,22.92,0,0,0,32.77,22c0,4.15,0,8.31,0,12.46,0,.38-.08.54-.49.49a9.37,9.37,0,0,0-1.06,0c-.23,0-.34-.06-.32-.3a2.43,2.43,0,0,0,0-.27q0-11.9,0-23.79c0-.44.12-.58.54-.53a4.22,4.22,0,0,0,.94,0c.31,0,.4.09.4.4,0,1.53,0,3.06,0,4.58A.74.74,0,0,0,32.88,15.59Z"/><path class="cls-1" d="M167.17,15.6a7,7,0,0,1,1.22-2.24,9.85,9.85,0,0,1,5.86-3.25,11.23,11.23,0,0,1,2.17-.2c.27,0,.36.09.35.36a11.22,11.22,0,0,0,0,1.16c0,.28-.09.32-.37.31a8.46,8.46,0,0,0-7,2.91,9.71,9.71,0,0,0-2.36,6.84c0,4.32,0,8.63,0,12.94,0,.41-.1.57-.51.51s-1,.19-1.28-.1-.08-.82-.08-1.25V10.65c0-.57,0-.57.58-.57.3,0,.6,0,.89,0s.4.1.4.4c0,1.51,0,3,0,4.54A1,1,0,0,0,167.17,15.6Z"/><path class="cls-10" d="M65.87,33.23a5.86,5.86,0,0,1-.93.09,1.39,1.39,0,0,1-1.6-1.26,7.66,7.66,0,0,1-.11-1.72c0-4.78,0-9.55,0-14.32a5.83,5.83,0,0,0-4.49-6,15,15,0,0,0-7.52-.15,7.39,7.39,0,0,0-6.11,6.89c-.1,1-.1,1,.88,1s.87,0,1-.85a5.83,5.83,0,0,1,3.5-4.95A10.1,10.1,0,0,1,59,12a4,4,0,0,1,2.35,3.15,10.62,10.62,0,0,1,0,2.52,2.8,2.8,0,0,1-2.2,2.64,14,14,0,0,1-3,.52c-1.92.18-3.85.27-5.74.63A10.35,10.35,0,0,0,47,22.67c-2.51,1.47-3.39,3.73-3.21,6.54A6,6,0,0,0,48.36,35a16.91,16.91,0,0,0,2,.42c.16.12.37,0,.53.09h.18c.18-.18.41,0,.62-.09h.63c.18,0,.37-.09.53.08H53c.19-.17.41-.08.62-.1h0l.44-.08a9.11,9.11,0,0,0,7.14-5.18c0-.05,0-.12.14-.08a21.75,21.75,0,0,0,.11,2.55,2.48,2.48,0,0,0,2.1,2.18,5.9,5.9,0,0,0,1.68.08c1-.07,1-.07,1-1a2.16,2.16,0,0,1,0-.36C66.25,33.28,66.15,33.18,65.87,33.23Zm-4.73-6.07a8.45,8.45,0,0,1-7,6.6,11.9,11.9,0,0,1-4.68-.16c-2.91-.77-4-2.72-3.9-5.55a5.07,5.07,0,0,1,4-4.77,24.5,24.5,0,0,1,4.51-.72c1.41-.13,2.81-.22,4.2-.45a5.33,5.33,0,0,0,3-1.14A38.71,38.71,0,0,1,61.14,27.16Z"/><path class="cls-11" d="M148.92,35.47h-.71s0,.05,0,.08h.71a.19.19,0,0,0,0-.08Z"/><path class="cls-12" d="M150.27,35.47h-.71a.19.19,0,0,0,0,.08h.71s0,0,0-.08Z"/><path class="cls-13" d="M149.54,35.47h-.6a.08.08,0,0,1,0,.08h.62A.08.08,0,0,1,149.54,35.47Z"/><path class="cls-13" d="M148.94,35.47h0a.19.19,0,0,1,0,.08A.08.08,0,0,0,148.94,35.47Z"/><path class="cls-13" d="M149.56,35.47h0a.08.08,0,0,0,0,.08.19.19,0,0,1,0-.08Z"/><path class="cls-14" d="M148.21,35.47h-.53v.09h.54A.08.08,0,0,1,148.21,35.47Z"/><path class="cls-14" d="M148.21,35.47h0a.08.08,0,0,0,0,.08s0,0,0-.08Z"/><path class="cls-15" d="M150.26,35.55h.54v-.09h-.53A.08.08,0,0,1,150.26,35.55Z"/><path class="cls-15" d="M150.27,35.47h0s0,.05,0,.08A.08.08,0,0,0,150.27,35.47Z"/><path class="cls-1" d="M159.87,17.43a10.82,10.82,0,0,0-5.94-7,11.52,11.52,0,0,0-6.08-.87,10.12,10.12,0,0,0-7.11,3.85,14,14,0,0,0-2.91,8.68,16.1,16.1,0,0,0,.79,5.6,11.31,11.31,0,0,0,4.66,6.2,11,11,0,0,0,4.4,1.57h0a.37.37,0,0,1,.53,0,.05.05,0,0,1,0,0,.76.76,0,0,1,.66,0s0,0,0,0a.46.46,0,0,1,.62,0s0,0,0,0a.76.76,0,0,1,.66,0,.05.05,0,0,1,0,0,.37.37,0,0,1,.53,0,1.63,1.63,0,0,1,.3-.07A10.22,10.22,0,0,0,159,29.61,15.81,15.81,0,0,0,159.87,17.43Zm-1.07,5.13a12.87,12.87,0,0,1-2.58,8,8.4,8.4,0,0,1-6.15,3.31,8.9,8.9,0,0,1-9.33-5.94,14,14,0,0,1,.44-11.79,8.41,8.41,0,0,1,5.6-4.72,8.68,8.68,0,0,1,9,2.49,11.57,11.57,0,0,1,2.86,6.34A12.7,12.7,0,0,1,158.8,22.56Z"/><path class="cls-1" d="M148.21,35.47h.72s0,0,0,0a.76.76,0,0,0-.66,0,.05.05,0,0,0,0,0Z"/><path class="cls-1" d="M149.56,35.47h.71a.05.05,0,0,0,0,0,.76.76,0,0,0-.66,0s0,0,0,0Z"/><path class="cls-1" d="M149.54,35.47h0a.46.46,0,0,0-.62,0h.61Z"/><path class="cls-1" d="M148.94,35.47h0Z"/><path class="cls-1" d="M149.56,35.47h0Z"/><path class="cls-1" d="M148.21,35.47h0a.37.37,0,0,0-.53,0h.53Z"/><polygon class="cls-1" points="148.21 35.47 148.21 35.47 148.21 35.47 148.21 35.47"/><path class="cls-1" d="M150.27,35.47h.53A.37.37,0,0,0,150.27,35.47Z"/><polygon class="cls-1" points="150.28 35.47 150.27 35.47 150.27 35.47 150.28 35.47"/></g></g></g></svg>