<svg xmlns="http://www.w3.org/2000/svg" viewBox="0 0 226.84 96.66"><defs><style>.cls-1{fill:#f47a20;}.cls-2{fill:#493291;}</style></defs><title>logo-fed-ex-express</title><g id="Layer_2" data-name="Layer 2"><g id="Logos"><g id="logo-fed-ex-express"><path class="cls-1" d="M225.44,54.68a5.89,5.89,0,1,0-5.89,6,5.78,5.78,0,0,0,5.89-6M218,55v4h-1.28V50.23h3.18c1.86,0,2.72.81,2.72,2.4a1.82,1.82,0,0,1-1.51,1.86v0c.73.12,1,.78,1.16,2a8.07,8.07,0,0,0,.54,2.44H221.3c-.35-.81-.31-2-.59-2.94a1.28,1.28,0,0,0-1.47-1Zm1.59-1.12c1.24,0,1.59-.66,1.59-1.24s-.35-1.24-1.59-1.24H218v2.48Zm-7.33.81a7.29,7.29,0,1,1,7.29,7.22,7.15,7.15,0,0,1-7.29-7.22"/><polygon class="cls-1" points="187 60.64 178.6 51.22 170.26 60.64 152.75 60.64 169.87 41.4 152.75 22.15 170.82 22.15 179.3 31.5 187.47 22.15 204.91 22.15 187.87 41.32 205.15 60.64 187 60.64"/><polygon class="cls-1" points="119.08 60.64 119.08 0 152.75 0 152.75 13.52 133.34 13.52 133.34 22.15 152.75 22.15 152.75 35.15 133.34 35.15 133.34 47.09 152.75 47.09 152.75 60.64 119.08 60.64"/><path class="cls-2" d="M104.88,0V24.82h-.15C101.58,21.21,97.66,20,93.1,20c-9.34,0-16.37,6.34-18.84,14.74-2.81-9.25-10.07-14.91-20.83-14.91-8.75,0-15.65,3.92-19.25,10.31V22.15H16.11V13.52H35.83V0H0V60.64H16.11V35.15h16a24.59,24.59,0,0,0-.73,6c0,12.65,9.66,21.52,22,21.52,10.37,0,17.2-4.87,20.82-13.74H60.44c-1.87,2.66-3.28,3.46-7,3.46a8.3,8.3,0,0,1-8.06-8.26h28.1c1.22,10,9,18.71,19.79,18.71a13.76,13.76,0,0,0,11.47-6.12h.15v3.92h14.21V0ZM45.81,35.33A7.78,7.78,0,0,1,53.43,29a7.4,7.4,0,0,1,7.68,6.37ZM96.27,51.41c-5.24,0-8.49-4.88-8.49-10,0-5.44,2.83-10.68,8.49-10.68,5.86,0,8.2,5.24,8.2,10.68,0,5.16-2.47,10-8.2,10"/><polygon class="cls-2" points="119.09 90.96 119.09 69.23 131.09 69.23 131.09 70.85 121.07 70.85 121.07 78.87 130.67 78.87 130.67 80.49 121.07 80.49 121.07 89.34 131.54 89.34 131.54 90.96 119.09 90.96"/><polygon class="cls-2" points="132.97 90.96 138.83 83.16 133.27 75.78 135.53 75.78 140.06 81.81 144.5 75.78 146.75 75.78 141.11 83.16 146.99 90.96 144.71 90.96 139.85 84.51 135.22 90.96 132.97 90.96"/><path class="cls-2" d="M150.8,96.66H149V80.31c0-1.5,0-3-.09-4.53h1.8l.06,2.28a5.27,5.27,0,0,1,4.89-2.64c4.69,0,6.7,3.87,6.7,8s-2,7.95-6.7,7.95a5.31,5.31,0,0,1-4.83-2.55Zm9.58-13.29c0-3.24-1.36-6.42-4.95-6.42-3.4,0-4.63,2.79-4.63,6.42s1.23,6.42,4.63,6.42c3.59,0,4.95-3.18,4.95-6.42"/><path class="cls-2" d="M171.74,77.18c-3,0-4.08,2.56-4.08,5.2V91h-1.84V80.25c0-1.47,0-3-.08-4.47h1.8l.12,2.19a4.58,4.58,0,0,1,4.41-2.55,7.91,7.91,0,0,1,.84.06v1.83a7.76,7.76,0,0,0-1.17-.13"/><path class="cls-2" d="M175.15,83.7c0,3.42,1.62,6.24,4.95,6.24a4.18,4.18,0,0,0,4.23-3.42h1.75c-.82,3.18-2.76,4.8-6.22,4.8-4.62,0-6.66-3.42-6.66-7.68s2.13-8.22,6.9-8.22,6.13,4.23,6.13,8.28Zm.06-1.38h9.07c0-3-1.42-5.52-4.3-5.52-2.61,0-4.41,2-4.77,5.52"/><path class="cls-2" d="M193.37,91.32c-3.12,0-5.46-1.47-5.46-4.8h1.84c0,2.28,1.49,3.42,3.71,3.42,2.07,0,3.69-1,3.69-3,0-1.83-1.89-2.31-3.86-2.88-2.41-.69-5-1.44-5-4.38,0-3.27,2.73-4.23,5.29-4.23,2.94,0,5.13,1.14,5.22,4.29h-1.84c-.08-1.8-1.37-2.82-3.33-2.82-1.53,0-3.39.6-3.39,2.58,0,1.8,1.86,2.31,3.84,2.85,2.41.66,5.05,1.38,5.05,4.32,0,3.42-2.64,4.68-5.74,4.68"/><path class="cls-2" d="M206.07,91.32c-3.12,0-5.46-1.47-5.46-4.8h1.83c0,2.28,1.5,3.42,3.72,3.42,2.07,0,3.69-1,3.69-3,0-1.83-1.89-2.31-3.87-2.88-2.4-.69-5-1.44-5-4.38,0-3.27,2.73-4.23,5.28-4.23,2.94,0,5.13,1.14,5.22,4.29h-1.83c-.09-1.8-1.38-2.82-3.33-2.82-1.53,0-3.39.6-3.39,2.58,0,1.8,1.86,2.31,3.84,2.85,2.4.66,5,1.38,5,4.32,0,3.42-2.64,4.68-5.73,4.68"/></g></g></g></svg>