<svg xmlns="http://www.w3.org/2000/svg" viewBox="0 0 273.27 60.7"><defs><style>.cls-1{fill:#44c0bc;}.cls-1,.cls-2{fill-rule:evenodd;}.cls-2{fill:#89ba40;}.cls-3{fill:#636465;}.cls-4{fill:#636364;}.cls-4,.cls-5{stroke:#636465;stroke-miterlimit:10;stroke-width:0.16px;}.cls-5{fill:#49494a;}</style></defs><title>logo-growthfountain</title><g id="Layer_2" data-name="Layer 2"><g id="Logos"><g id="logo-growthfountain"><path class="cls-1" d="M126.57,8.44c0,.11.07.11.06.23.31,1,.61,2,.88,3.06a1.24,1.24,0,0,1,.11.37c0,.14,0,.18,0,.31s.07.3.11.45a1.42,1.42,0,0,1,.1.45,5.13,5.13,0,0,0,.12.59,1.77,1.77,0,0,1,.1.5c0,.22.08.28.06.49a.53.53,0,0,1,.06.31c.09.35.12.78.2,1.15a1.49,1.49,0,0,1,.08.4v.11a.73.73,0,0,1,.06.28v.14a.6.6,0,0,1,.05.29c0,.36.08.64.1,1a1.39,1.39,0,0,1,.06.39v.17a1.29,1.29,0,0,1,.06.42v.09c.06.06,0,.23,0,.34v.15l.1,0c0-.12,0-.24,0-.35v0c0-.35,0-.75-.07-1.13v-.43a3.86,3.86,0,0,1-.07-.7v-.32a3,3,0,0,1-.06-.56v-.14c-.09-.57-.14-1.18-.19-1.78a4.18,4.18,0,0,0-.07-.65.72.72,0,0,1-.05-.31c0-.1,0-.23,0-.29a1,1,0,0,1,0-.28V12.9a.84.84,0,0,1,0-.29c0-.16-.05-.32-.08-.48a4.28,4.28,0,0,1-.14-.76v-.2a.64.64,0,0,1-.08-.31c-.07-.4-.16-.77-.24-1.15a1.92,1.92,0,0,1-.11-.4c-.07-.45-.19-.85-.29-1.26a.71.71,0,0,1-.1-.28,2.35,2.35,0,0,0-.09-.4A2.58,2.58,0,0,1,127,7a11.23,11.23,0,0,0-1-2.78,1.55,1.55,0,0,1-.24-.27,8,8,0,0,0-.93-1,1.14,1.14,0,0,1-.31-.27,8.93,8.93,0,0,0-.8-.57c0,.14.15.18.17.34a.84.84,0,0,1,.2.33,10.56,10.56,0,0,1,.55,1.06c.09.07.12.2.18.31v0a1.58,1.58,0,0,1,.2.39v0c.08.06.09.19.15.28.07.24.2.41.27.65a.65.65,0,0,1,.15.3c0,.09,0,.11.06.17a1,1,0,0,1,.12.28c.21.61.45,1.19.66,1.8A1.08,1.08,0,0,1,126.57,8.44Z"/><path class="cls-1" d="M128.63,42.62c.14.56.26,1.14.35,1.72l.09,0v0s0-.16,0-.23v0a1.89,1.89,0,0,1-.06-.45c-.06-1-.18-1.85-.28-2.77a.73.73,0,0,1-.06-.28c-.17-1.64-.45-3.15-.74-4.66-.06-.07-.05-.23-.08-.34-.12-.77-.31-1.46-.46-2.19-.06,0,0-.19-.08-.28-.35-1.52-.75-3-1.2-4.36a1.24,1.24,0,0,1-.13-.37c-.27-.95-.6-1.81-.92-2.69-.1-.1-.12-.29-.18-.42a11.35,11.35,0,0,0-.44-1.12,1.34,1.34,0,0,1-.15-.34c-.27-.74-.63-1.38-.93-2.09a2.15,2.15,0,0,1-.17-.34,36.23,36.23,0,0,0-3.76-6.17,2.12,2.12,0,0,1-.3-.36c-.06-.17-.21-.24-.29-.39a1.6,1.6,0,0,1-.25-.27,1.24,1.24,0,0,0-.22-.28,1.55,1.55,0,0,1-.24-.27s0-.07,0-.06-.27-.3-.41-.44a17.71,17.71,0,0,0-3.4-2.92,9.45,9.45,0,0,0-5.08-1.71c-.07,0-.21.05-.24,0a7.54,7.54,0,0,0-2.24.45,7.09,7.09,0,0,0-2.21,1.46c-.24.26-.51.49-.71.74a7.88,7.88,0,0,0-.68,1.1,3.89,3.89,0,0,0-.61,1.18c.1,0,.14-.12.19-.18a7.05,7.05,0,0,1,4.45-2.53A8.75,8.75,0,0,1,112.75,12a23.84,23.84,0,0,1,7.52,7.66,1.42,1.42,0,0,1,.2.28,45.68,45.68,0,0,1,3.44,6.44,1,1,0,0,1,.15.33,68.19,68.19,0,0,1,4.07,13.46C128.3,41,128.42,41.8,128.63,42.62Z"/><path class="cls-1" d="M127.64,6.64a1.12,1.12,0,0,0,.08.39,1.49,1.49,0,0,1,.08.4v0a1.31,1.31,0,0,1,.08.42c0,.1,0,.11,0,.2a2,2,0,0,1,.11.53c0,.12,0,.18,0,.31a.62.62,0,0,1,.06.26,1.21,1.21,0,0,1,.08.42v.08a.74.74,0,0,1,.06.29c0,.27.08.42.06.7a1,1,0,0,1,.06.31,1,1,0,0,1,0,.37v.17a1.47,1.47,0,0,1,.06.4c0,.17,0,.25,0,.42a5.22,5.22,0,0,1,.1.85v.07l0,0a5.46,5.46,0,0,1,0-.7v-.18c0-.32-.06-.68-.07-1l0-.4c-.05-.33-.07-.7-.09-1.07s-.05-.39-.05-.63c0,0,0-.19,0-.28v0a.54.54,0,0,1,0-.28c-.05-.28-.1-.54-.17-.79a1.71,1.71,0,0,1-.1-.36V7.36c-.06-.06-.07-.19-.1-.28a7.34,7.34,0,0,0-.39-1c0-.1,0-.26-.15-.28a1.57,1.57,0,0,1,.08.31A2.13,2.13,0,0,1,127.64,6.64Z"/><path class="cls-1" d="M126.85,15.13c.05.27.14.5.21.76a1.13,1.13,0,0,1,.1.31c0,.31.15.56.21.87a1.47,1.47,0,0,1,.08.25.77.77,0,0,1,.08.28c.1.57.23,1.1.35,1.64a1.45,1.45,0,0,1,.08.33c0,.43.15.79.22,1.19a.55.55,0,0,1,.06.31,4.68,4.68,0,0,0,.08.54.52.52,0,0,1,.06.3v0a2.18,2.18,0,0,1,.08.48c0,.57.16,1,.21,1.61a1.09,1.09,0,0,1,.06.34,3.53,3.53,0,0,0,0,.48,1.2,1.2,0,0,1,.06.4v.2a1.31,1.31,0,0,1,0,.42v.2a1.7,1.7,0,0,1,.06.48v.12l.07,0c0-.14,0-.28,0-.41v-.09c0-.44,0-1-.08-1.42v-.34a2.86,2.86,0,0,1-.07-.62v-.25c-.06,0,0-.2,0-.29,0-.52-.09-1-.13-1.52a1,1,0,0,1-.06-.37,6.62,6.62,0,0,0-.06-.68,5.75,5.75,0,0,1-.12-.76v-.14c-.1-.56-.15-1.16-.26-1.7a2.93,2.93,0,0,1-.11-.65c-.16-1-.37-1.89-.58-2.81a2,2,0,0,1-.1-.45c-.11-.52-.25-1-.37-1.47a.86.86,0,0,1-.13-.39,2.22,2.22,0,0,0-.11-.39,1.13,1.13,0,0,1-.1-.34c-.27-.94-.59-1.81-.92-2.67a1.36,1.36,0,0,1-.13-.3c0-.13-.08-.22-.1-.34A.8.8,0,0,1,125.4,8c-.45-1-.91-2-1.43-3a2.72,2.72,0,0,1-.27-.44,15.26,15.26,0,0,0-1.48-2.34c-.17-.18-.31-.41-.47-.61s-.3-.39-.44-.61a9.27,9.27,0,0,0-3.45-.48,5.59,5.59,0,0,0,.85.62c.07.09.19.11.24.23s.22.23.37.3a.91.91,0,0,1,.24.24c.17.16.32.33.49.5,0,0,0,0,0,0a6.23,6.23,0,0,1,.49.55.82.82,0,0,1,.17.2,2.16,2.16,0,0,1,.25.27,2.76,2.76,0,0,1,.41.53s0,0,0,0a1.44,1.44,0,0,1,.24.3v0a1.88,1.88,0,0,1,.32.41s0,0,0,.06v0c.09.06.14.19.22.27.44.62.84,1.3,1.23,2a1,1,0,0,1,.23.36c.33.64.67,1.27,1,2,.09.08.11.23.18.34a43.05,43.05,0,0,1,1.88,5.07C126.81,14.88,126.81,15,126.85,15.13Z"/><path class="cls-1" d="M128.11,27a1.09,1.09,0,0,0,.06.34,1.74,1.74,0,0,1,.08.42v.09a1.63,1.63,0,0,1,.09.42v.2s0,.12,0,.2a.65.65,0,0,1,.06.33,2.22,2.22,0,0,1,0,.37.47.47,0,0,1,.06.28v.09a.78.78,0,0,1,.06.36c0,.12,0,.29.06.43a2.68,2.68,0,0,1,.05.42.71.71,0,0,1,.06.34v.28a3.82,3.82,0,0,1,.09.71,1.3,1.3,0,0,1,.06.37c0,.25,0,.47,0,.7l.11,0c0-.12,0-.25,0-.36l0-.57a8.79,8.79,0,0,1-.08-1.19v0c-.06-.06,0-.23,0-.34v-.25c-.05,0,0-.2,0-.29v0c0-.29-.06-.61-.1-.91v-.2a4.76,4.76,0,0,1-.09-.79v-.14a2.16,2.16,0,0,1-.06-.48,6.08,6.08,0,0,0-.09-.76,3.09,3.09,0,0,1-.09-.57v-.14c-.17-1.06-.32-2.16-.53-3.16a1.34,1.34,0,0,1-.08-.37c-.12-.7-.28-1.36-.44-2a1.19,1.19,0,0,1-.08-.3c-.21-1-.49-1.89-.76-2.82a1.78,1.78,0,0,1-.13-.39c-.31-1.06-.67-2-1-3a.91.91,0,0,1-.12-.28,34.5,34.5,0,0,0-2.68-5.41,1.18,1.18,0,0,1-.2-.28,10.17,10.17,0,0,0-.66-1c-.09-.09-.13-.24-.25-.3v0c0-.09-.06-.1-.07-.17a2.16,2.16,0,0,1-.27-.33c-.1-.14-.22-.25-.32-.39s-.33-.36-.47-.58v0A6.1,6.1,0,0,1,120,5a1.44,1.44,0,0,0-.32-.33,2.67,2.67,0,0,1-.31-.36c-.07,0-.07-.12-.15-.11a1,1,0,0,1-.29-.3,12,12,0,0,0-4.33-2.7,15,15,0,0,0-3.16,1.64c-.13.09-.34.18-.32.29a9.35,9.35,0,0,1,6.41,2.29c.09,0,.15.13.24.19v0c.09.06.15.17.26.21a2.13,2.13,0,0,1,.34.33,19.19,19.19,0,0,1,2.52,2.79,1.44,1.44,0,0,1,.24.3c.43.64.88,1.27,1.28,1.94.1.05.12.2.2.28.15.33.35.6.5.92.08.06.11.19.17.28a3.78,3.78,0,0,0,.28.53,2.91,2.91,0,0,1,.17.3.54.54,0,0,0,.1.23A1.14,1.14,0,0,1,124,14c.09.26.23.46.33.7a2,2,0,0,1,.18.36c.11.34.27.64.4,1a1.26,1.26,0,0,1,.15.33,3,3,0,0,0,.18.45,1,1,0,0,1,.13.28c0,.15.1.28.15.42a2.48,2.48,0,0,1,.2.5A59,59,0,0,1,128,26.67.87.87,0,0,1,128.11,27Z"/><path class="cls-1" d="M126.32,26.44c.32,1.14.65,2.28,1,3.46.06,0,0,.18.08.28.07.46.19.88.29,1.32.07.06,0,.22.08.31a1.09,1.09,0,0,0,.06.34,1.16,1.16,0,0,1,.08.31,80.72,80.72,0,0,1,1.27,9.13l.08,0,0-.93a6.78,6.78,0,0,1-.05-.93l0-.54c-.05-.09,0-.31,0-.45v0c-.06-.08,0-.27,0-.4V38c-.06,0,0-.21,0-.31v-.31c-.05,0,0-.2,0-.29-.11-1.45-.27-2.85-.46-4.21a.73.73,0,0,1-.06-.28c0-.37-.1-.68-.14-1a.53.53,0,0,1-.06-.31c0-.09,0-.1,0-.19a1.83,1.83,0,0,1-.08-.43v-.08a1,1,0,0,1-.08-.4v0a.76.76,0,0,1-.05-.29c-.24-1.32-.52-2.6-.84-3.83a1.55,1.55,0,0,1-.1-.36c-.37-1.5-.8-2.91-1.27-4.27a.69.69,0,0,1-.13-.34c-.07-.24-.16-.45-.23-.67a1.33,1.33,0,0,1-.18-.42c-.07-.24-.17-.46-.25-.67a.8.8,0,0,1-.13-.28,3.41,3.41,0,0,0-.18-.48,1.63,1.63,0,0,1-.2-.42A34.47,34.47,0,0,0,120,10.33a1.9,1.9,0,0,1-.29-.33v0a3.67,3.67,0,0,1-.47-.56c-2.1-2.33-4.7-4.62-8.27-4.8-.06.07-.24,0-.35,0h-.31c0,.07-.19,0-.28,0a4.05,4.05,0,0,0-1.55.39,8.8,8.8,0,0,0-1.2,1.29,15.21,15.21,0,0,0-1.1,1.43c-.11.1-.3.22-.25.43a7.05,7.05,0,0,1,4-1.41.32.32,0,0,1,.3,0c3.75.3,6.07,2.4,8.25,4.69.11,0,.17.16.24.25s.13.13.17.22a29.09,29.09,0,0,1,1.89,2.46.84.84,0,0,1,.2.28,44.34,44.34,0,0,1,4,7.78,1.37,1.37,0,0,1,.15.37c0,.1.07.15.08.25.38.94.7,1.94,1,2.94A1,1,0,0,1,126.32,26.44Z"/><path class="cls-2" d="M135.8,2.32c-.09.1-.2.17-.3.27s-.2.21-.32.29a4.69,4.69,0,0,1-.42.47.63.63,0,0,0-.17.19,1,1,0,0,1-.23.27c-.28.61-.47,1.33-.7,2a1.22,1.22,0,0,1-.13.42,1.82,1.82,0,0,1-.11.39,1.62,1.62,0,0,1-.11.37,1.53,1.53,0,0,0-.09.34,1,1,0,0,1-.11.36c0,.24-.12.43-.17.68a.63.63,0,0,1-.08.3c-.06.13,0,.37-.11.48a.69.69,0,0,1-.06.28.77.77,0,0,1-.09.34,5.59,5.59,0,0,1-.12.56,2.4,2.4,0,0,1-.06.4,2.31,2.31,0,0,1-.12.56,1.7,1.7,0,0,0-.06.42.73.73,0,0,1-.06.28,3.25,3.25,0,0,1-.07.48.68.68,0,0,1-.06.31v.11a3.87,3.87,0,0,1-.1.65c0,.22-.08.3-.07.51,0,.48-.12.92-.15,1.41a2.73,2.73,0,0,1-.07.54v.28a3.12,3.12,0,0,1-.08.65v.26a6.58,6.58,0,0,1-.08.93l0,.51-.06,1.11.06,0v-.08a6.85,6.85,0,0,1,.11-1v-.2a1.39,1.39,0,0,1,.06-.39c0-.16.05-.23,0-.4s0-.26,0-.31a61.41,61.41,0,0,1,1.37-6.92,1.22,1.22,0,0,1,.14-.42c0-.14.08-.22.09-.36a.67.67,0,0,1,.1-.31c.35-1.19.77-2.31,1.18-3.41a1,1,0,0,1,.13-.28c.24-.57.5-1.11.74-1.67a1.59,1.59,0,0,1,.2-.39.54.54,0,0,0,.05-.11,1,1,0,0,1,.13-.3c.34-.57.66-1.14,1-1.72A6.49,6.49,0,0,0,135.8,2.32Z"/><path class="cls-2" d="M131.77,12.83l.07,0v-.29c0-.08,0-.24,0-.28,0-.38.06-.8.12-1.15,0-.16,0-.23,0-.37a2.21,2.21,0,0,1,.07-.48v-.06a1.09,1.09,0,0,1,.06-.34c0-.22.07-.44.1-.67a6.52,6.52,0,0,1,.1-.68,1.78,1.78,0,0,1,.12-.56c0-.1,0-.12,0-.23a2.84,2.84,0,0,1,.06-.31c.09-.35.15-.74.23-1.1V6.26a1.69,1.69,0,0,1,.08-.34,5,5,0,0,0,.15-.61c0-.07,0-.07,0-.15s0,.11-.08.11c-.09.29-.24.51-.32.81a2.26,2.26,0,0,1-.1.31,8.18,8.18,0,0,0-.23.79,2.22,2.22,0,0,1-.11.39c0,.07,0,.19-.06.28a4.68,4.68,0,0,1-.09.56v.28c-.05.59-.08,1.22-.17,1.76,0,.33,0,.58-.06.9a9.75,9.75,0,0,1-.06,1C131.78,12.51,131.78,12.67,131.77,12.83Z"/><path class="cls-2" d="M140.17.25c-.58.11-1,.15-1.24.65-.14.17-.27.35-.42.52s-.15.12-.18.24l-.48.72h0l-.1.17h0c0,.07-.09,0-.08.14s-.14.22-.2.33h0c0,.08-.05.06-.05.11l-.2.34h0a8.55,8.55,0,0,1-.53.88,1,1,0,0,1-.21.39s0,.07,0,.14-.16.28-.23.44h0c-.4.84-.83,1.64-1.17,2.56a.86.86,0,0,1-.14.27c0,.06,0,.07,0,.12a1.69,1.69,0,0,1-.13.3c-.16.49-.38.89-.51,1.4a3,3,0,0,1-.16.45c-.11.39-.25.72-.36,1.12a1.27,1.27,0,0,1-.11.36c-.37,1.37-.75,2.74-1,4.24a1.32,1.32,0,0,1-.09.39c-.09.53-.19,1.05-.28,1.58a.8.8,0,0,1-.06.37,1.27,1.27,0,0,1-.07.42V19a3,3,0,0,1-.09.57v.17a2.12,2.12,0,0,1-.07.45v0a1,1,0,0,1-.06.33c-.06.36-.08.78-.12,1.16a1.47,1.47,0,0,1-.07.45v.23c0,.09,0,.25,0,.28v.23c0,.08,0,.25,0,.28v.06c0,.08,0,.24,0,.28s0,.3,0,.37l0,.39c0,.14,0,.35,0,.43l0,.51a8.72,8.72,0,0,1-.06.93.28.28,0,0,1,0,.09l.07,0v0c.08-.64.14-1.32.22-2a4,4,0,0,1,.07-.53c0-.14.05-.2,0-.34s0-.16,0-.28a.65.65,0,0,1,.06-.28,1.59,1.59,0,0,1,0-.4.9.9,0,0,1,.06-.31V22a3.31,3.31,0,0,0,0-.34h0a3.8,3.8,0,0,0,.06-.4.63.63,0,0,1,.06-.33c.31-1.74.67-3.25,1.08-4.87a1.38,1.38,0,0,1,.11-.39,47.65,47.65,0,0,1,2.68-7.12c.06-.08.08-.22.16-.27s.19-.33.26-.53a1.25,1.25,0,0,1,.15-.28,1.66,1.66,0,0,0,.23-.44c.08-.12.14-.25.23-.36.38-.68.82-1.29,1.22-2a2.42,2.42,0,0,1,.27-.36l1-1.23a2.35,2.35,0,0,1,.3-.33c0-.1.1-.1.15-.16a1.46,1.46,0,0,1,.3-.35s0,0,.07-.06.12-.14.2-.19a2.11,2.11,0,0,1,.35-.38,2.5,2.5,0,0,0,.24-.22c.05-.07.14-.1.2-.16s.16-.16.24-.24.44-.34.66-.51a2.87,2.87,0,0,0,.64-.51A9.66,9.66,0,0,0,140.17.25Z"/><path class="cls-2" d="M146.05.71a12.35,12.35,0,0,0-4.45,2.72c-.07.09-.17.14-.22.25h0a9.49,9.49,0,0,0-1,1.06,4,4,0,0,1-.39.43c0,.11-.11.14-.15.22s-.34.38-.48.6h0V6l-.25.33a.11.11,0,0,0-.08.11,1.89,1.89,0,0,1-.25.3s-.06.08-.08.14-.16.21-.22.33h0c-.48.76-1,1.5-1.39,2.32l-.21.39h0c-.14.25-.27.51-.39.77a1.56,1.56,0,0,1-.18.34c-.42.85-.82,1.73-1.18,2.67a3.24,3.24,0,0,1-.13.33h0c-.44,1.22-.89,2.45-1.27,3.75a.71.71,0,0,1-.11.31c-.15.52-.29,1.05-.42,1.6a1.36,1.36,0,0,1-.11.42v0a1.27,1.27,0,0,1-.08.31c-.2.7-.33,1.47-.5,2.19a1.79,1.79,0,0,1-.06.37c0,.28-.1.53-.15.79s0,.17,0,.31h0v0a2.36,2.36,0,0,0,0,.31h0c0,.16-.08.2-.07.36a.56.56,0,0,1-.06.34v.14a2.1,2.1,0,0,0,0,.37h0c0,.12-.05.14,0,.25a.73.73,0,0,1-.06.28v.15a.79.79,0,0,1-.06.3c-.13.93-.24,1.87-.33,2.83a5.61,5.61,0,0,1-.08.87l0,.32c0,.11,0,.3,0,.36l0,.46a2,2,0,0,1,0,.51v.34c0,.18-.06.27,0,.45v.14l.12,0a71.09,71.09,0,0,1,1.27-8,1.19,1.19,0,0,1,.09-.36c.26-1.07.53-2.13.81-3.17,0-.13.06-.31.14-.4.38-1.3.83-2.52,1.27-3.74a1,1,0,0,1,.13-.31c.36-.87.71-1.77,1.12-2.59a.77.77,0,0,1,.18-.36c.37-.78.79-1.48,1.16-2.24.07-.09.1-.22.18-.28s.19-.23.23-.41a2.36,2.36,0,0,1,.2-.31s0,0,0,0a1.38,1.38,0,0,1,.2-.31c.55-.83,1.13-1.64,1.73-2.42a1.83,1.83,0,0,1,.3-.32,6.05,6.05,0,0,1,.52-.6.88.88,0,0,1,.27-.3,3,3,0,0,1,.38-.41c.11-.06.17-.17.27-.25a1.94,1.94,0,0,1,.32-.32c1.86-1.57,3.81-3,6.83-3.1a1.54,1.54,0,0,1,.64,0c.06,0,.13.06.14,0A15,15,0,0,0,146.05.71Z"/><path class="cls-2" d="M154.43,7.51c-.52-.7-1.07-1.33-1.62-2a4.21,4.21,0,0,0-.71-.74,4.11,4.11,0,0,0-1.56-.47,8,8,0,0,0-1.69,0,9.41,9.41,0,0,0-3.09.94,15.92,15.92,0,0,0-4.7,3.87,2.82,2.82,0,0,1-.33.36c-.26.34-.55.64-.8,1a2.37,2.37,0,0,0-.22.33h0A33.33,33.33,0,0,0,137.07,15c0,.13-.11.2-.15.31h0c-.67,1.38-1.34,2.79-1.91,4.31a.79.79,0,0,1-.13.31c-.16.42-.31.85-.45,1.28a1.59,1.59,0,0,1-.14.37,64.16,64.16,0,0,0-3.06,14.62c0,.08,0,.24,0,.28s0,.19,0,.28v.32c0,.09,0,.26,0,.31s0,.32,0,.39l0,.43a1.91,1.91,0,0,1,0,.5l0,.71a10.11,10.11,0,0,1-.07,1.14,5.33,5.33,0,0,0,0,.57h0s0-.1,0-.12a72.8,72.8,0,0,1,3.34-16.2,1.42,1.42,0,0,1,.14-.33c.36-1.07.77-2.08,1.17-3.1a.79.79,0,0,1,.13-.31,47.87,47.87,0,0,1,2.5-5c0-.12.11-.17.15-.28h0a32.64,32.64,0,0,1,3.16-4.4c.06,0,.08-.12.15-.16A1.27,1.27,0,0,1,142,11a22.33,22.33,0,0,1,1.8-1.71c.07-.12.2-.17.29-.27s.11-.08.17-.11a.9.9,0,0,1,.27-.21,9.91,9.91,0,0,1,6.42-2.26c.08,0,.23,0,.28,0a6.11,6.11,0,0,1,3.1,1.25c.11.07.24.2.35.16S154.51,7.62,154.43,7.51Z"/><path class="cls-2" d="M157.49,11.88a9.77,9.77,0,0,0-.64-1.05,8.28,8.28,0,0,0-2.22-1.89,6.27,6.27,0,0,0-3.16-.89s-.21,0-.23,0a11.54,11.54,0,0,0-7,3.2,3.82,3.82,0,0,1-.32.27c-.46.42-.91.85-1.33,1.31a10,10,0,0,1-.7.76,3.24,3.24,0,0,1-.27.35h0c-.61.79-1.25,1.55-1.8,2.42a2.53,2.53,0,0,1-.18.27h0a41.8,41.8,0,0,0-3.77,7.13c-.06.11-.08.26-.16.33-.7,1.79-1.39,3.59-2,5.56a1.48,1.48,0,0,1-.13.42A72.06,72.06,0,0,0,131,43.68a2,2,0,0,0,0,.24h0c.17-1.1.48-2.15.69-3.22a76.12,76.12,0,0,1,2.74-10.21,1.51,1.51,0,0,1,.13-.34c.39-1.07.81-2.11,1.22-3.15.05-.1.07-.24.16-.3.39-1,.85-1.86,1.27-2.78.07-.13.11-.29.21-.36.27-.61.62-1.12.9-1.72a2.61,2.61,0,0,1,.17-.28,37.49,37.49,0,0,1,3.73-5.36,3.73,3.73,0,0,1,.32-.36,21.13,21.13,0,0,1,4.33-3.8,9.6,9.6,0,0,1,5.85-1.84,7.08,7.08,0,0,1,5,2.53c.07.08.19.29.32.22A5.3,5.3,0,0,0,157.49,11.88Z"/><path class="cls-3" d="M15.12,39.71a21.87,21.87,0,0,1-5.73,1C3.24,40.71,0,37.6,0,32.05a7.84,7.84,0,0,1,4.63-7.47,11.8,11.8,0,0,1,5.13-1,41.46,41.46,0,0,1,5.21.58,29.27,29.27,0,0,0-.48,4.18,1,1,0,0,1-.87.08c-.21-2-.52-2.71-1.28-3.15a6.81,6.81,0,0,0-3.58-.74c-4.1,0-6.08,2.92-6.08,7.23,0,4.53,2.42,8,7.18,8a3.53,3.53,0,0,0,1.77-.35,1.35,1.35,0,0,0,.57-1.1,23.6,23.6,0,0,0,.06-2.68c-.06-.87-.21-1.19-1-1.4-.47-.1-.94-.16-1.76-.26-.13-.08-.08-.68,0-.76.81,0,2.08.08,3.68.08s2.34-.06,2.87-.08a1.13,1.13,0,0,1,0,.79,6,6,0,0,0-.87.18c-.5.16-.63.5-.65,1.26s-.06,2.42,0,2.92.07.53.65.76A1.21,1.21,0,0,1,15.12,39.71Z"/><path class="cls-3" d="M17.91,24c.63,0,2.21.08,3,.08,1.94,0,3.31-.06,4.36-.06C28.38,24,30,25.85,30,28.06a4.56,4.56,0,0,1-3,4.23.16.16,0,0,0-.05.18,43.28,43.28,0,0,0,4.29,5.69,3.85,3.85,0,0,0,3,1.44c0,.08,0,.69-.16.74a11.24,11.24,0,0,1-4.2-.5,3.68,3.68,0,0,1-1.27-1.05C27.64,37.6,26,35,25,33.55a.86.86,0,0,0-.66-.39c-.37,0-1.5,0-1.87,0-.05,0-.1.13-.1.16,0,1.45,0,3.89.05,4.76s.24,1.13.84,1.26c.4.08.87.16,1.48.24.13.1.08.66-.06.76-.5,0-1.76-.08-3.49-.08s-2.85.08-3.34.08a.74.74,0,0,1,0-.76c.57-.08,1-.13,1.34-.21.63-.13.84-.45.89-1.45,0-.6.05-4.18.05-5.63,0-2.68,0-5.31,0-6.12s-.21-1.06-.87-1.21c-.4-.08-.9-.16-1.42-.22A.88.88,0,0,1,17.91,24ZM22.65,25a.6.6,0,0,0-.19.39c-.05.9-.05,4.48-.05,6.53a.14.14,0,0,0,.13.13,10.61,10.61,0,0,0,3.39-.21,3.15,3.15,0,0,0,1.71-3.05c0-2.47-1.26-3.92-4.07-3.92A3.14,3.14,0,0,0,22.65,25Z"/><path class="cls-3" d="M36.66,38.31A9.16,9.16,0,0,1,34.4,32,8.44,8.44,0,0,1,36,26.92a9.07,9.07,0,0,1,7-3.34c5.36,0,8.07,3.92,8.07,8.21a8.77,8.77,0,0,1-1.6,5.47,8.53,8.53,0,0,1-6.92,3.45A7.91,7.91,0,0,1,36.66,38.31Zm9.76.32c1.63-1.32,2.21-3.5,2.21-5.92,0-2.84-.94-5.58-3-7a5.88,5.88,0,0,0-3.45-1.05,4.82,4.82,0,0,0-2.36.57C37.87,26.35,37,28.71,37,31.4s1,5.76,3.34,7.26a6,6,0,0,0,3.29.89A4.39,4.39,0,0,0,46.42,38.63Z"/><path class="cls-3" d="M52.08,24c.94,0,2.21.11,3.52.11,1.71,0,2.53-.06,3.16-.08.1.05.13.66,0,.73-.61.14-1,.22-1.32.32s-.5.47-.39,1c.52,2.26,2,7.41,2.87,10.52a.21.21,0,0,0,.1,0c1.13-3.1,3.29-9.21,4-11.76a5.38,5.38,0,0,0,1.39,0c.63,2.37,3.26,9.76,4.11,12,0,0,.1,0,.13,0,.71-2.19,2.44-7.87,2.92-10,.21-.89.23-1.5-.56-1.71-.42-.1-.81-.18-1.55-.29a.81.81,0,0,1,0-.73c.63,0,2,.08,3.05.08,1.74,0,2.48-.08,3-.08a.93.93,0,0,1,0,.73,9.62,9.62,0,0,0-1.16.29c-.63.24-1,.58-1.37,1.63-1.13,3.08-3.47,10.55-4.42,13.76-.23,0-1.1,0-1.34,0-.6-2.19-3.15-9.52-4.13-12.1a.16.16,0,0,0-.1.05c-1.18,3.29-3.34,9.34-4.18,12a6.7,6.7,0,0,0-1.34,0c-.79-3.24-2.92-11.13-3.77-13.71-.39-1.15-.65-1.52-1.34-1.71A10.3,10.3,0,0,0,52,24.71C51.92,24.61,52,24,52.08,24Z"/><path class="cls-3" d="M89,40.31c-.76,0-2.31-.08-3.92-.08-1.94,0-3.29.08-4,.08a1.1,1.1,0,0,1,0-.76A14.9,14.9,0,0,0,83,39.29c.84-.16,1-.69,1-1.9.08-2,.1-7.68.1-12a.22.22,0,0,0-.18-.21c-.45,0-2.39,0-3.39,0a1.29,1.29,0,0,0-1.11.73,15.81,15.81,0,0,0-1,2.45,1.13,1.13,0,0,1-.82-.21,42.14,42.14,0,0,0,.53-4.34c0-.05.23-.13.29-.11a4.69,4.69,0,0,0,2.13.4h9.73a5.48,5.48,0,0,0,2.55-.4.4.4,0,0,1,.26.13,34.17,34.17,0,0,0-.6,4.45,1.07,1.07,0,0,1-.84,0,8.75,8.75,0,0,0-.43-2.35,1.06,1.06,0,0,0-1-.76c-1.24,0-3.08,0-3.68,0a.24.24,0,0,0-.14.21c0,3.87,0,11.15.08,12.5.08.92.29,1.23.9,1.39a10.56,10.56,0,0,0,1.79.29C89.22,39.68,89.16,40.26,89,40.31Z"/><path class="cls-3" d="M94.63,24c.63,0,2,.08,3.37.08,1.76,0,2.55-.08,3.29-.08.08.13.08.66,0,.73-.47.08-1,.16-1.26.24-.53.16-.71.37-.74,1.21s0,2.32,0,4.89c0,.11.05.24.13.27s.66.05,4.47.05c2.89,0,3.89,0,4.13-.05.08,0,.16-.11.16-.16,0-1.37,0-4.34-.06-5.29a.85.85,0,0,0-.52-.87,8.12,8.12,0,0,0-1.55-.29c-.14-.1-.11-.63,0-.76.61,0,1.9.11,3.29.11s2.84-.08,3.26-.08a1,1,0,0,1,0,.73,8.69,8.69,0,0,0-1.37.27c-.57.18-.68.47-.73,1.42s-.06,2.47-.06,5.6c0,2.29,0,5.18.06,6.08.08.73.23,1,.73,1.18a7.56,7.56,0,0,0,1.69.29c.08.1,0,.68-.11.76-.79,0-2.18-.08-3.52-.08s-2.66.06-3.34.08a.92.92,0,0,1,0-.76,8.14,8.14,0,0,0,1.5-.26c.47-.14.63-.4.68-1.21s0-3.63,0-5.29a.19.19,0,0,0-.16-.18c-.5,0-2.74,0-4.18,0-2.05,0-4.21,0-4.47,0-.06,0-.08.13-.08.15,0,1.45,0,4.47,0,5,.06.89.16,1.26.82,1.44a10.56,10.56,0,0,0,1.58.32.94.94,0,0,1-.11.76c-.5,0-1.74-.08-3.42-.08s-3,.08-3.5.08a1.1,1.1,0,0,1,0-.76c.63-.08,1-.16,1.42-.24.76-.23.84-.71.92-1.92,0-.89,0-3.13,0-5.42,0-2.55,0-5.34,0-5.81,0-.74-.21-1-.73-1.16a11.16,11.16,0,0,0-1.58-.29A.89.89,0,0,1,94.63,24Z"/><path class="cls-3" d="M144.39,24c.53,0,1.85.08,3.24.08h6.21a21.72,21.72,0,0,0,2.52-.13c.08,0,.11.1.13.15a21.17,21.17,0,0,0-.39,3.71c-.08.13-.74.19-.84.05a9.86,9.86,0,0,0-.4-1.78,1.17,1.17,0,0,0-1.18-.9c-.92,0-3.81-.08-4.45,0-.18,0-.31.32-.31.48,0,1.52,0,4.12,0,5.94,0,.08.1.13.13.13,1.18,0,3.42,0,4.26-.05a1.07,1.07,0,0,0,1.05-.84,5.82,5.82,0,0,0,.32-1.16,1.65,1.65,0,0,1,.89.08,23.14,23.14,0,0,0-.16,2.63c0,.92,0,1.79.06,2.52a1.13,1.13,0,0,1-.85.06,7.29,7.29,0,0,0-.31-1.16c-.16-.55-.45-.82-.92-.84-1-.06-3.74-.08-4.34-.06-.08,0-.13.11-.13.14,0,1.6,0,3.78,0,4.89,0,.87.16,1.21.92,1.39.52.11,1,.16,1.76.24a.92.92,0,0,1,0,.76c-.84,0-2-.08-3.91-.08-1.61,0-2.48.08-3.4.08a1,1,0,0,1,0-.76,9,9,0,0,0,1.4-.21c.73-.19.86-.45.92-1.39s0-2.85,0-6c0-2.9,0-4.84,0-5.66s-.1-1.1-.68-1.31a9,9,0,0,0-1.5-.27C144.26,24.64,144.32,24.06,144.39,24Z"/><path class="cls-3" d="M161,38.31A9.11,9.11,0,0,1,158.76,32a8.38,8.38,0,0,1,1.63-5.08,9,9,0,0,1,7-3.34c5.36,0,8.07,3.92,8.07,8.21a8.77,8.77,0,0,1-1.6,5.47A8.53,8.53,0,0,1,167,40.71,7.89,7.89,0,0,1,161,38.31Zm9.76.32c1.63-1.32,2.21-3.5,2.21-5.92,0-2.84-1-5.58-3-7a5.88,5.88,0,0,0-3.45-1.05,4.82,4.82,0,0,0-2.36.57c-1.92,1.14-2.82,3.5-2.82,6.19s1,5.76,3.34,7.26a6,6,0,0,0,3.29.89A4.42,4.42,0,0,0,170.78,38.63Z"/><path class="cls-3" d="M177.61,24c.48,0,2.11.08,3.34.08s2.45-.08,3.11-.08a.93.93,0,0,1,0,.73c-.55.11-.92.14-1.24.24-.6.19-.76.47-.79,1.4-.05,2.57,0,6.12,0,7.52a7.42,7.42,0,0,0,.5,2.68c.52,1.47,2.05,2.66,4.55,2.66,2.18,0,4.31-.66,4.55-4.82.1-2,.16-4.94.05-7.62,0-1.32-.31-1.66-1.18-1.82-.37-.1-.76-.13-1.34-.24a.88.88,0,0,1,0-.73c.48,0,1.63.08,3.16.08,1.18,0,2.37-.08,2.81-.08.08.08.11.68,0,.73-.39.11-.81.16-1.1.27-.76.21-.92.68-1,1.94-.16,5.4-.08,7.32-.52,9.16-.77,3.55-3.61,4.63-6.37,4.63-4.16,0-6-1.9-6.34-4.76-.21-1.66-.16-8.34-.21-9.68,0-.69-.18-1.11-.74-1.29a9.57,9.57,0,0,0-1.36-.27C177.48,24.64,177.51,24.06,177.61,24Z"/><path class="cls-3" d="M195.92,24c.66,0,2,.08,3.29.08a11.8,11.8,0,0,0,1.18,0,5.94,5.94,0,0,0,1,1.42c2.68,3.37,8.07,9.94,9.34,11.42,0,0,.07,0,.1,0,0-3.6,0-8.52-.1-10.42-.06-.76-.22-1.18-1-1.39a11.89,11.89,0,0,0-1.77-.32,1,1,0,0,1,0-.73c.69,0,1.9.08,3.5.08.9,0,2.45-.08,2.79-.08a.93.93,0,0,1,0,.73A8,8,0,0,0,213,25c-.68.23-.84.71-.89,1.42-.16,2-.13,5.39-.21,10.36,0,1.21,0,2.74.05,3.6-.29,0-1.5,0-1.81,0-1.4-2-8.63-11-10.21-13,0,0-.11,0-.11,0-.05,2.71-.05,8.87,0,10.34.05,1,.4,1.42,1.08,1.58a9.06,9.06,0,0,0,1.58.26c.1.1,0,.66-.06.76-.63,0-1.81-.08-3.28-.08s-2.61.08-3.16.08a1.23,1.23,0,0,1,0-.76,7.21,7.21,0,0,0,1.39-.24c.61-.18.95-.52,1-1.55.11-1.37.19-5.65.24-11.18a1.42,1.42,0,0,0-.71-1.29,4.36,4.36,0,0,0-2.1-.58A1,1,0,0,1,195.92,24Z"/><path class="cls-3" d="M226.9,40.31c-.76,0-2.31-.08-3.92-.08-1.94,0-3.28.08-4,.08a1.1,1.1,0,0,1,0-.76,14.9,14.9,0,0,0,1.87-.26c.84-.16,1-.69,1-1.9.08-2,.1-7.68.1-12a.22.22,0,0,0-.18-.21c-.45,0-2.39,0-3.39,0a1.29,1.29,0,0,0-1.11.73,15.81,15.81,0,0,0-1,2.45,1.13,1.13,0,0,1-.82-.21,42.14,42.14,0,0,0,.53-4.34c0-.05.23-.13.29-.11a4.69,4.69,0,0,0,2.13.4h9.73a5.48,5.48,0,0,0,2.55-.4.4.4,0,0,1,.26.13,34.17,34.17,0,0,0-.6,4.45c-.08.13-.76.13-.84,0a9.22,9.22,0,0,0-.42-2.35,1.07,1.07,0,0,0-1-.76c-1.24,0-3.08,0-3.68,0a.23.23,0,0,0-.13.21c0,3.87,0,11.15.08,12.5.07.92.28,1.23.89,1.39a10.56,10.56,0,0,0,1.79.29C227.09,39.68,227,40.26,226.9,40.31Z"/><path class="cls-3" d="M232.08,37.1c1.35-3.18,3.82-9.89,4.4-11.57a7.85,7.85,0,0,0,.44-1.5c.11,0,.42,0,.87,0s.79,0,.87,0c.1.4.24.87.42,1.37.53,1.5,3.45,9.84,4.37,12,.76,1.76.94,1.89,2.84,2.13.1.08,0,.66-.06.76-.68,0-2-.08-3.2-.08s-2.9.06-3.45.08a1.11,1.11,0,0,1,0-.76,8.4,8.4,0,0,0,1.45-.29.49.49,0,0,0,.29-.66c-.32-1.13-1.1-3.34-1.58-4.52a.38.38,0,0,0-.23-.19c-.37,0-1.29,0-2.48,0-1.68,0-1.87,0-2.18,0-.11,0-.24.16-.26.24a32,32,0,0,0-1.42,4.26c0,.45,0,.74.84,1a8.85,8.85,0,0,0,1.26.21,1.24,1.24,0,0,1-.05.76c-.55,0-1.9-.08-3.37-.08s-2.31.08-2.81.08a.92.92,0,0,1,0-.76C230.9,39.31,231.22,39.13,232.08,37.1Zm5-10.31c-.45,1.32-1.53,4.29-2,5.68,0,.11,0,.16.11.19.26,0,1.1,0,2.1,0,.64,0,1.5,0,1.77,0a.15.15,0,0,0,.08-.21c-.53-1.63-1.53-4.55-1.95-5.68C237.21,26.77,237.13,26.74,237.11,26.79Z"/><path class="cls-3" d="M246.68,24c.55,0,2,.08,3.42.08s2.6-.08,3.26-.08a1.13,1.13,0,0,1,0,.73c-.58.08-1,.14-1.34.22-.61.15-.71.49-.77,1.31-.07,1.1-.05,3.31-.05,5.6,0,2.61,0,5.13.05,6.05,0,.77.14,1.21.92,1.4a13.17,13.17,0,0,0,1.56.26,1,1,0,0,1-.06.76c-.63,0-2.1-.08-3.39-.08-1.5,0-2.81.08-3.66.08-.13-.08-.13-.68,0-.76a7.41,7.41,0,0,0,1.34-.21c.76-.16.87-.53.92-1.13s.11-3.45.11-6.89c0-2.16,0-3.87-.08-5.11-.06-.65-.11-1.05-.66-1.21a11.45,11.45,0,0,0-1.61-.29A1,1,0,0,1,246.68,24Z"/><path class="cls-3" d="M254.91,24c.66,0,2,.08,3.29.08a11.69,11.69,0,0,0,1.18,0,6.32,6.32,0,0,0,.95,1.42c2.68,3.37,8.08,9.94,9.34,11.42a.07.07,0,0,0,.1,0c0-3.6,0-8.52-.1-10.42-.05-.76-.21-1.18-1-1.39a11.49,11.49,0,0,0-1.76-.32,1,1,0,0,1,0-.73c.68,0,1.89.08,3.5.08.89,0,2.44-.08,2.78-.08a.85.85,0,0,1,0,.73A7.86,7.86,0,0,0,272,25c-.69.23-.85.71-.9,1.42-.16,2-.13,5.39-.21,10.36,0,1.21,0,2.74.05,3.6-.29,0-1.5,0-1.81,0-1.39-2-8.63-11-10.21-13,0,0-.1,0-.1,0-.05,2.71-.05,8.87,0,10.34.06,1,.4,1.42,1.08,1.58a9.23,9.23,0,0,0,1.58.26c.11.1,0,.66-.05.76-.63,0-1.82-.08-3.29-.08s-2.6.08-3.16.08a1.4,1.4,0,0,1,0-.76,7.47,7.47,0,0,0,1.4-.24c.6-.18.95-.52,1-1.55.1-1.37.18-5.65.23-11.18a1.42,1.42,0,0,0-.71-1.29,4.29,4.29,0,0,0-2.1-.58A1,1,0,0,1,254.91,24Z"/><path class="cls-3" d="M50.05,51.54c.51,0,1.2.06,1.92.06l1.73,0c.06,0,.07.36,0,.4-.33.07-.53.11-.72.17s-.27.26-.22.56c.29,1.24,1.08,4.06,1.57,5.75h.06c.62-1.7,1.8-5,2.18-6.43a3.3,3.3,0,0,0,.77,0c.34,1.3,1.78,5.34,2.24,6.54,0,0,.06,0,.07,0,.39-1.19,1.34-4.3,1.6-5.48.11-.49.13-.82-.3-.93A7.77,7.77,0,0,0,60.1,52c-.07-.06-.06-.38,0-.4.34,0,1.08,0,1.67,0,.94,0,1.35,0,1.65,0a.47.47,0,0,1,0,.4,4,4,0,0,0-.63.16c-.35.13-.54.31-.75.89-.62,1.68-1.9,5.76-2.42,7.52h-.73c-.33-1.19-1.73-5.2-2.26-6.61a.11.11,0,0,0-.06,0c-.64,1.8-1.82,5.1-2.28,6.57a6.14,6.14,0,0,0-.74,0c-.43-1.77-1.59-6.08-2-7.49-.22-.63-.36-.83-.74-.93A4.49,4.49,0,0,0,50,52C50,51.9,50,51.58,50.05,51.54Z"/><path class="cls-3" d="M65.55,53.15c.29,0,.88,0,1.52,0,.79,0,1.14,0,1.47,0a.42.42,0,0,1,0,.33l-.57.1c-.23.08-.32.17-.33.55s0,1,0,2.19c0,0,0,.11.06.12s.3,0,2,0l1.85,0s.07,0,.07-.07c0-.61,0-1.95,0-2.37a.38.38,0,0,0-.24-.39,3.13,3.13,0,0,0-.7-.13.37.37,0,0,1,0-.34c.27,0,.85,0,1.47,0s1.28,0,1.47,0a.53.53,0,0,1,0,.33,3.4,3.4,0,0,0-.62.12c-.26.08-.3.21-.33.63s0,1.11,0,2.52c0,1,0,2.32,0,2.73s.11.46.33.53a3.59,3.59,0,0,0,.76.13s0,.3,0,.34c-.35,0-1,0-1.58,0s-1.19,0-1.5,0a.4.4,0,0,1,0-.34,3.73,3.73,0,0,0,.67-.12c.21-.06.29-.18.31-.54s0-1.63,0-2.38c0,0,0-.08-.07-.08H67.66s0,.06,0,.07c0,.65,0,2,0,2.26s.07.56.37.64a4.57,4.57,0,0,0,.71.15.44.44,0,0,1,0,.34c-.22,0-.78,0-1.53,0s-1.34,0-1.58,0a.57.57,0,0,1,0-.34,6.25,6.25,0,0,0,.64-.11c.34-.11.38-.32.41-.86s0-1.41,0-2.43,0-2.4,0-2.61-.09-.46-.33-.52a4.86,4.86,0,0,0-.71-.13A.47.47,0,0,1,65.55,53.15Z"/><path class="cls-3" d="M76.72,53.14c.3,0,.91,0,1.57,0h2.33c.45,0,1.06,0,1.31,0l0,0a12,12,0,0,0-.22,1.62c0,.06-.33.06-.36,0a5.4,5.4,0,0,0-.13-.72.55.55,0,0,0-.59-.45c-.23,0-1.66,0-1.81,0s-.14.16-.14.22c0,.66,0,2,0,2.5,0,0,0,.09.06.09.47,0,1.38,0,1.8,0a.41.41,0,0,0,.4-.35,2.65,2.65,0,0,0,.13-.47c.07,0,.35,0,.39,0a9.68,9.68,0,0,0-.08,1.11c0,.44,0,.78,0,1.08a.47.47,0,0,1-.4,0,2.16,2.16,0,0,0-.09-.49.42.42,0,0,0-.4-.34c-.36,0-1.34,0-1.77,0,0,0-.06.06-.06.09,0,.55,0,1.8,0,2.36a.46.46,0,0,0,.27.45,14.56,14.56,0,0,0,1.75.07.9.9,0,0,0,.87-.39,4.38,4.38,0,0,0,.59-1,.79.79,0,0,1,.35.13,8,8,0,0,1-.5,1.62c-.07.13-.14.19-.73.19-1,0-1.84-.05-3.07-.05-.79,0-1.38,0-1.87,0a.44.44,0,0,1,0-.34,6.6,6.6,0,0,0,.9-.12c.28-.07.36-.23.4-.64,0-.22,0-1.52,0-2.86,0-1.07,0-2.12,0-2.33,0-.43-.07-.53-.35-.61a4.67,4.67,0,0,0-.63-.11C76.65,53.42,76.67,53.19,76.72,53.14Z"/><path class="cls-3" d="M85.48,53.15l1.36,0,2,0A1.87,1.87,0,0,1,90.91,55a2.06,2.06,0,0,1-1.34,1.9.07.07,0,0,0,0,.08,19.21,19.21,0,0,0,1.93,2.55,1.68,1.68,0,0,0,1.35.65s0,.31-.07.33a5.14,5.14,0,0,1-1.89-.22,1.77,1.77,0,0,1-.56-.48c-.45-.53-1.17-1.71-1.62-2.35a.39.39,0,0,0-.3-.17,7.66,7.66,0,0,0-.83,0s0,.05,0,.07c0,.65,0,1.74,0,2.13s.11.51.38.57l.66.11c.06,0,0,.29,0,.34-.23,0-.79,0-1.57,0s-1.28,0-1.5,0a.34.34,0,0,1,0-.34c.26,0,.45-.06.6-.1s.38-.2.4-.65c0-.27,0-1.87,0-2.52,0-1.21,0-2.39,0-2.75s-.09-.48-.39-.55-.4-.07-.63-.09C85.41,53.43,85.43,53.17,85.48,53.15Zm2.13.47a.26.26,0,0,0-.09.18c0,.4,0,2,0,2.92a.06.06,0,0,0,.06.06,4.68,4.68,0,0,0,1.52-.09,1.42,1.42,0,0,0,.77-1.37A1.6,1.6,0,0,0,88,53.56,1.2,1.2,0,0,0,87.61,53.62Z"/><path class="cls-3" d="M95,53.14c.29,0,.91,0,1.57,0h2.32c.45,0,1.07,0,1.31,0l0,0a12.07,12.07,0,0,0-.21,1.62.53.53,0,0,1-.37,0,3.35,3.35,0,0,0-.13-.72c-.09-.29-.2-.42-.59-.45-.22,0-1.65,0-1.8,0s-.14.16-.14.22c0,.66,0,2,0,2.5,0,0,0,.09.06.09.47,0,1.38,0,1.81,0a.41.41,0,0,0,.4-.35,3.9,3.9,0,0,0,.13-.47.52.52,0,0,1,.39,0,7.83,7.83,0,0,0-.08,1.11c0,.44,0,.78,0,1.08a.47.47,0,0,1-.4,0,2.75,2.75,0,0,0-.1-.49.41.41,0,0,0-.4-.34c-.35,0-1.33,0-1.77,0,0,0-.06.06-.06.09,0,.55,0,1.8,0,2.36a.46.46,0,0,0,.27.45,14.37,14.37,0,0,0,1.75.07.91.91,0,0,0,.87-.39,4.38,4.38,0,0,0,.59-1,.75.75,0,0,1,.34.13,8.62,8.62,0,0,1-.49,1.62c-.07.13-.15.19-.74.19-1,0-1.84-.05-3.07-.05-.79,0-1.38,0-1.86,0a.4.4,0,0,1,0-.34,7.09,7.09,0,0,0,.9-.12c.28-.07.36-.23.4-.64,0-.22,0-1.52,0-2.86,0-1.07,0-2.12,0-2.33,0-.43-.07-.53-.36-.61a4.21,4.21,0,0,0-.62-.11C95,53.42,95,53.19,95,53.14Z"/><path class="cls-3" d="M112.93,52.17a4.14,4.14,0,0,0-1.78-.31c-2.09,0-3.28,1.54-3.28,4s1.28,4.24,3.84,4.24a2.39,2.39,0,0,0,1.58-.49,5.26,5.26,0,0,0,1.08-1.41c.07,0,.32.13.35.23a4.59,4.59,0,0,1-1.1,1.94,7.28,7.28,0,0,1-2.2.36c-3.2,0-5-1.75-5-4.74a4.37,4.37,0,0,1,2.29-4,5.9,5.9,0,0,1,2.92-.66,24.49,24.49,0,0,1,2.83.29,22.16,22.16,0,0,0-.23,2.21c-.06.06-.43.1-.44,0C113.65,52.72,113.47,52.43,112.93,52.17Z"/><path class="cls-3" d="M118.68,59c.61-1.43,1.72-4.44,2-5.2a4.32,4.32,0,0,0,.2-.67h.78a5.65,5.65,0,0,0,.18.62c.24.67,1.55,4.41,2,5.39.35.79.43.85,1.28,1,0,0,0,.29,0,.34-.3,0-.9,0-1.44,0s-1.29,0-1.54,0c0,0-.06-.3,0-.34a4.13,4.13,0,0,0,.65-.13.23.23,0,0,0,.13-.3c-.15-.51-.5-1.5-.71-2a.21.21,0,0,0-.11-.08h-2.09s-.1.07-.12.1a14.74,14.74,0,0,0-.63,1.92c0,.2,0,.33.37.42a5.05,5.05,0,0,0,.57.1.57.57,0,0,1,0,.34c-.25,0-.85,0-1.51,0s-1,0-1.27,0a.5.5,0,0,1,0-.34C118.15,60,118.29,60,118.68,59Zm2.26-4.63c-.2.59-.69,1.92-.89,2.55,0,0,0,.07,0,.08s.5,0,.94,0c.29,0,.68,0,.8,0s0,0,0-.09c-.23-.73-.68-2-.87-2.55C121,54.4,121,54.39,120.94,54.41Z"/><path class="cls-3" d="M129.9,57.21c0-.05,0-.1,0-.11a1.91,1.91,0,0,0,.46,0,1.66,1.66,0,0,0,.82-.18,1.59,1.59,0,0,0,.72-1.52,1.69,1.69,0,0,0-1.89-1.88,1.53,1.53,0,0,0-.49.06.22.22,0,0,0-.1.17c0,.27,0,.88,0,2.79,0,1.35,0,2.25,0,2.85,0,.42.11.52.44.6a6.36,6.36,0,0,0,.71.11.5.5,0,0,1,0,.34c-.34,0-1.16,0-1.62,0s-1.28,0-1.55,0a.42.42,0,0,1,0-.33c.24,0,.48-.06.62-.1s.35-.21.37-.68,0-1.37,0-2.65,0-2.16,0-2.52-.09-.56-.42-.63a5.53,5.53,0,0,0-.58-.09.46.46,0,0,1,0-.33c.19,0,.84,0,1.4,0l1.91,0a2.67,2.67,0,0,1,1.57.45,1.92,1.92,0,0,1,.73,1.59,2.23,2.23,0,0,1-1.25,2.06,2.71,2.71,0,0,1-1.24.29,1.55,1.55,0,0,1-.51-.06A.59.59,0,0,1,129.9,57.21Z"/><path class="cls-3" d="M136.09,53.15c.25,0,.93,0,1.54,0s1.17,0,1.46,0a.53.53,0,0,1,0,.33l-.61.09c-.27.07-.32.23-.34.59s0,1.49,0,2.52,0,2.3,0,2.71.06.55.41.63a5.84,5.84,0,0,0,.7.12s0,.3,0,.34c-.29,0-.95,0-1.53,0s-1.26,0-1.64,0a.37.37,0,0,1,0-.34,3.37,3.37,0,0,0,.6-.1c.35-.07.39-.23.42-.51s0-1.54,0-3.09c0-1,0-1.73,0-2.29,0-.29,0-.47-.3-.54a4.79,4.79,0,0,0-.72-.13A.53.53,0,0,1,136.09,53.15Z"/><path class="cls-3" d="M147.18,60.48c-.34,0-1,0-1.76,0s-1.48,0-1.78,0a.44.44,0,0,1,0-.34,6.63,6.63,0,0,0,.84-.12c.37-.07.43-.31.44-.85,0-.92.05-3.45.05-5.41a.1.1,0,0,0-.08-.09c-.2,0-1.08,0-1.52,0a.57.57,0,0,0-.5.33,7.62,7.62,0,0,0-.46,1.1A.55.55,0,0,1,142,55a15.74,15.74,0,0,0,.24-2s.11-.06.13,0a2.25,2.25,0,0,0,1,.17h4.36a2.51,2.51,0,0,0,1.15-.17s.11,0,.12.06a13.33,13.33,0,0,0-.27,2,.46.46,0,0,1-.38,0,4.62,4.62,0,0,0-.19-1,.49.49,0,0,0-.46-.34h-1.65a.1.1,0,0,0-.06.09c0,1.74,0,5,0,5.61,0,.41.13.56.4.63a4.65,4.65,0,0,0,.81.13C147.26,60.2,147.24,60.45,147.18,60.48Z"/><path class="cls-3" d="M152.7,59c.61-1.43,1.72-4.44,2-5.2a3.56,3.56,0,0,0,.21-.67h.77c0,.18.11.39.19.62.24.67,1.55,4.41,2,5.39.35.79.43.85,1.28,1,0,0,0,.29,0,.34-.3,0-.9,0-1.44,0s-1.29,0-1.54,0c0,0-.06-.3,0-.34a4.13,4.13,0,0,0,.65-.13.23.23,0,0,0,.13-.3c-.15-.51-.5-1.5-.71-2a.21.21,0,0,0-.11-.08h-2.09c-.05,0-.11.07-.12.1a14.74,14.74,0,0,0-.63,1.92c0,.2,0,.33.37.42a5.05,5.05,0,0,0,.57.1.57.57,0,0,1,0,.34c-.25,0-.85,0-1.51,0s-1,0-1.27,0a.5.5,0,0,1,0-.34C152.17,60,152.31,60,152.7,59ZM155,54.41c-.2.59-.69,1.92-.89,2.55,0,0,0,.07.05.08s.5,0,.94,0c.29,0,.68,0,.8,0s0,0,0-.09c-.24-.73-.68-2-.87-2.55C155,54.4,155,54.39,155,54.41Z"/><path class="cls-3" d="M161.45,53.15c.34,0,.73,0,1.51,0s1.23,0,1.47,0a.38.38,0,0,1,0,.33,5.47,5.47,0,0,0-.61.1c-.28.08-.3.23-.32.48,0,.42,0,1.44,0,2.55,0,1.46,0,2.44,0,3a.42.42,0,0,0,.23.33,10.81,10.81,0,0,0,2,.09.82.82,0,0,0,.7-.43,7,7,0,0,0,.69-1.3.46.46,0,0,1,.36.13,10.56,10.56,0,0,1-.62,2c0,.09-.16.15-.48.15-.76,0-2.79-.06-3.39-.06s-1.45,0-1.69,0c0,0-.06-.31,0-.34a6.91,6.91,0,0,0,.78-.11c.26-.07.34-.2.37-.48s.05-1.48.05-3c0-1.26,0-2,0-2.27,0-.48-.06-.61-.38-.69-.15,0-.43-.08-.65-.1C161.37,53.43,161.39,53.18,161.45,53.15Z"/><path class="cls-3" d="M172.53,51.56c.29,0,1,0,1.77,0h3.39a11.63,11.63,0,0,0,1.38-.07s.06,0,.07.08a11.8,11.8,0,0,0-.21,2c-.05.07-.41.1-.46,0a6.16,6.16,0,0,0-.22-1,.65.65,0,0,0-.65-.49c-.5,0-2.08,0-2.43,0-.1,0-.17.18-.17.26,0,.84,0,2.26,0,3.25,0,0,.06.07.07.07.65,0,1.87,0,2.33,0a.59.59,0,0,0,.58-.47,2.84,2.84,0,0,0,.17-.63.89.89,0,0,1,.49.05,13.43,13.43,0,0,0-.09,1.43c0,.51,0,1,0,1.38a.56.56,0,0,1-.46,0,3.2,3.2,0,0,0-.17-.63c-.09-.3-.24-.45-.5-.46-.52,0-2,0-2.38,0,0,0-.07.06-.07.07,0,.88,0,2.07,0,2.68s.09.66.5.76a9.6,9.6,0,0,0,1,.13.51.51,0,0,1,0,.42c-.46,0-1.09-.05-2.14-.05-.88,0-1.35.05-1.85.05a.51.51,0,0,1,0-.42,4.32,4.32,0,0,0,.76-.12c.4-.1.47-.24.5-.76s0-1.55,0-3.28c0-1.58,0-2.64,0-3.09s-.06-.6-.38-.72a4.51,4.51,0,0,0-.82-.14A.55.55,0,0,1,172.53,51.56Z"/><path class="cls-3" d="M182.32,53.15c.34,0,.73,0,1.51,0s1.23,0,1.47,0a.38.38,0,0,1,0,.33,5.47,5.47,0,0,0-.61.1c-.28.08-.3.23-.32.48,0,.42,0,1.44,0,2.55,0,1.46,0,2.44,0,3a.42.42,0,0,0,.23.33,10.81,10.81,0,0,0,2,.09.82.82,0,0,0,.7-.43,7,7,0,0,0,.69-1.3.46.46,0,0,1,.36.13,9.86,9.86,0,0,1-.62,2c0,.09-.16.15-.48.15-.76,0-2.79-.06-3.39-.06s-1.45,0-1.69,0c0,0-.06-.31,0-.34a6.91,6.91,0,0,0,.78-.11.44.44,0,0,0,.37-.48c0-.32.05-1.48.05-3,0-1.26,0-2,0-2.27,0-.48-.06-.61-.38-.69-.15,0-.43-.08-.64-.1C182.24,53.43,182.26,53.18,182.32,53.15Z"/><path class="cls-3" d="M192.33,59.58a4.09,4.09,0,0,1-1-2.83,3.78,3.78,0,0,1,.73-2.28A4,4,0,0,1,195.2,53a3.47,3.47,0,0,1,3.62,3.68,3.91,3.91,0,0,1-.72,2.46,3.83,3.83,0,0,1-3.1,1.55A3.57,3.57,0,0,1,192.33,59.58Zm4.38.14a3.27,3.27,0,0,0,1-2.65,3.75,3.75,0,0,0-1.36-3.16,2.65,2.65,0,0,0-1.54-.47,2.16,2.16,0,0,0-1.06.26,3.07,3.07,0,0,0-1.27,2.78,3.83,3.83,0,0,0,1.5,3.25,2.66,2.66,0,0,0,1.48.41A2,2,0,0,0,196.71,59.72Z"/><path class="cls-3" d="M201.46,53.14c.42,0,1,0,1.58,0l1.41,0c.05,0,.06.29,0,.33-.27.06-.43.09-.59.14s-.22.21-.17.46c.23,1,.88,3.33,1.28,4.72H205c.51-1.39,1.48-4.13,1.79-5.28a2.21,2.21,0,0,0,.63,0c.28,1.07,1.46,4.38,1.84,5.37,0,0,.05,0,.06,0,.32-1,1.1-3.53,1.31-4.49.1-.41.11-.68-.25-.77a6.21,6.21,0,0,0-.69-.13c-.06,0-.05-.31,0-.33.28,0,.88,0,1.37,0,.78,0,1.11,0,1.35,0a.38.38,0,0,1,0,.33,3.88,3.88,0,0,0-.52.13c-.28.1-.43.26-.61.73-.51,1.38-1.56,4.73-2,6.17a5.91,5.91,0,0,0-.6,0c-.28-1-1.42-4.28-1.86-5.43l-.05,0c-.53,1.47-1.49,4.19-1.87,5.39a3,3,0,0,0-.6,0c-.36-1.46-1.31-5-1.69-6.15-.18-.52-.3-.69-.6-.77a4.89,4.89,0,0,0-.63-.13S201.4,53.17,201.46,53.14Z"/><path class="cls-3" d="M216,59.9a2,2,0,0,0,1.16.32A1.19,1.19,0,0,0,218.43,59c0-.78-.48-1.15-1.55-1.77S215.12,56,215.12,55a2.08,2.08,0,0,1,2.33-2,12.49,12.49,0,0,1,1.79.2c-.08.39-.15,1-.2,1.63,0,.07-.3.07-.34,0-.07-.69-.18-1-.46-1.21a1.59,1.59,0,0,0-1-.25,1.19,1.19,0,0,0-1.24,1.2,1.49,1.49,0,0,0,.8,1.35c.47.31,1.06.59,1.46.82a2,2,0,0,1,1.14,1.75,2.34,2.34,0,0,1-2.63,2.19,4.43,4.43,0,0,1-1.7-.37,10.23,10.23,0,0,1-.33-1.77.5.5,0,0,1,.37-.11A2.56,2.56,0,0,0,216,59.9Z"/><line class="cls-4" x1="0.12" y1="56.52" x2="38.76" y2="56.52"/><polygon class="cls-5" points="0.12 56.6 0.12 56.44 38.76 56.44 38.76 56.6 0.12 56.6 0.12 56.6"/><line class="cls-4" x1="232.99" y1="56.84" x2="271.63" y2="56.84"/><polygon class="cls-5" points="232.99 56.92 232.99 56.76 271.63 56.76 271.63 56.92 232.99 56.92 232.99 56.92"/></g></g></g></svg>