<svg xmlns="http://www.w3.org/2000/svg" viewBox="0 0 234.73 30.75"><defs><style>.cls-1{fill:#010101;}</style></defs><title>logo-food-and-wine</title><g id="Layer_2" data-name="Layer 2"><g id="Logos"><g id="logo-food-and-wine"><path class="cls-1" d="M17.45,12.83v5.71H6.77V30.16H0V.59H19.29V6.3H6.64v6.53Z"/><path class="cls-1" d="M173.55,30.16V.59h6.64V30.16Z"/><path class="cls-1" d="M192.48.59,203.8,19.27V.59h6.35V30.16h-6.21L192.23,11.48V30.16h-6.34V.59Z"/><path class="cls-1" d="M232.42,12.51v5.28H221.57v6.66h13.16v5.71h-19.8V.59h19.33V6.3H221.57v6.21Z"/><path class="cls-1" d="M21,15.37C21,23.76,25,30.75,34.33,30.75s13.28-7,13.28-15.38S43.69,0,34.33,0,21,7,21,15.37ZM34.33,5.71c4.3,0,6.43,3.79,6.43,9.66S38.63,25,34.33,25s-6.43-3.79-6.43-9.67S30,5.71,34.33,5.71Z"/><path class="cls-1" d="M79.84,30.16h7.35c10.06,0,16.24-4.27,16.24-14.79S97.25.59,87.19.59H79.84ZM86.48,6.3h1.44c6.1,0,8.78,2.3,8.78,9.07S94,24.45,87.92,24.45H86.48Z"/><path class="cls-1" d="M138.36.59l4.87,19.88L148.94.59h5.15l5.5,19.88L164.28.59h6.35l-7.95,29.57H157l-5.8-18.52-5.7,18.52h-5.89L131.89.59Z"/><path class="cls-1" d="M50.4,15.37c0,8.39,3.92,15.38,13.28,15.38S77,23.76,77,15.37,73,0,63.68,0,50.4,7,50.4,15.37ZM63.68,5.71c4.31,0,6.44,3.79,6.44,9.66S68,25,63.68,25s-6.43-3.79-6.43-9.67S59.38,5.71,63.68,5.71Z"/><path class="cls-1" d="M116,30.75c-5.92,0-7.93-4.08-7.93-6.73,0-3.56,2.71-6.13,4.81-7.27a6.76,6.76,0,0,1-1.53-4.26c0-2.41,2.29-5.6,7-5.6a9,9,0,0,1,3.69.7c.44.2.45.41.45.77a35.81,35.81,0,0,1-.27,3.7c-.08.46-.18.52-.34.52s-.19-.12-.19-.58a3.78,3.78,0,0,0-.92-2.57,4.16,4.16,0,0,0-3.21-1.35A3.47,3.47,0,0,0,114,11.8c0,2.62,2.13,4.83,4.93,7.9,1,1.16,4.78,4.6,5.56,5.27A9.27,9.27,0,0,0,126,20.1a1.9,1.9,0,0,0-.58-1.45,2.19,2.19,0,0,0-1.49-.47c-.18,0-.36-.06-.36-.23s.24-.26.48-.26a32.75,32.75,0,0,1,3.66.22c.51.06.79.27.79.6a12.67,12.67,0,0,1-3,7.2,28.67,28.67,0,0,0,4.22,3,8.53,8.53,0,0,0,3.43,1.13c.28,0,.43,0,.43.24s-.24.24-.72.24h-2.66c-2.86,0-3.77-.27-6.75-2.6A10,10,0,0,1,116,30.75Zm1-1.77a7.93,7.93,0,0,0,5.37-2c-1.74-1.47-4.7-4.34-5.5-5.19a51.67,51.67,0,0,1-3.42-4,5.61,5.61,0,0,0-2.42,4.87C111.1,26.4,113.78,29,117.07,29Z"/></g></g></g></svg>