<svg xmlns="http://www.w3.org/2000/svg" viewBox="0 0 125.32 79.23"><defs><style>.cls-1{fill:none;}.cls-2{fill:#e11f70;}.cls-3{fill:#558744;}.cls-4{fill:#e12c23;}.cls-5{fill:#0073ad;}.cls-6{fill:#c9164b;}.cls-7{fill:#214983;}.cls-8{fill:#2d226f;}.cls-9{fill:#c5181f;}.cls-10{fill:#681a67;}.cls-11{fill:#eb7723;}.cls-12{fill:#15674c;}.cls-13{fill:#e64a23;}.cls-14{fill:#f8a41d;}.cls-15{fill:#a6321a;}.cls-16{fill:#d04422;}.cls-17{fill:#fec810;}.cls-18{fill:#fff;}.cls-19{fill:#808285;}</style></defs><title>logo-fcb</title><g id="Layer_2" data-name="Layer 2"><g id="Logos"><g id="logo-fcb"><path class="cls-1" d="M67.75,44.52c0,.4,0,.8,0,1.21h0C67.75,45.32,67.75,44.92,67.75,44.52Z"/><path class="cls-1" d="M110.83,45.92c0-1.24,0-2.49,0-3.74h0c0,1.25,0,2.5,0,3.74Z"/><path class="cls-1" d="M52.18,41.24a1.54,1.54,0,0,1,.37.09h0A1.54,1.54,0,0,0,52.18,41.24Z"/><path class="cls-1" d="M71.73,36.76a3.52,3.52,0,0,0,1.1-.15v0A3.52,3.52,0,0,1,71.73,36.76Z"/><path class="cls-1" d="M71.72,36.76h0Z"/><path class="cls-1" d="M60.18,45.77v5.66h0V45.77Z"/><path class="cls-1" d="M47.48,47.3h0c0,.11,0,.21,0,.32C47.49,47.51,47.49,47.41,47.48,47.3Z"/><path class="cls-1" d="M47.27,47.23l.09,0Z"/><path class="cls-1" d="M42.49,42.36a.41.41,0,0,0,0-.19A.41.41,0,0,1,42.49,42.36Z"/><path class="cls-1" d="M103.25,42.69c0-.11,0-.23,0-.34,0,.11,0,.23,0,.34.19,0,.37,0,.56,0C103.62,42.66,103.44,42.68,103.25,42.69Z"/><path class="cls-1" d="M42.48,42.39s0,0-.06,0h0S42.46,42.4,42.48,42.39Z"/><path class="cls-1" d="M37.37,39.18h0v0Z"/><path class="cls-1" d="M39.92,10c0,.12,0,.23,0,.35l.08,0-.08,0C39.93,10.21,39.92,10.1,39.92,10Z"/><path class="cls-1" d="M42.41,11.76c0-.46,0-.92,0-1.38h0C42.4,10.84,42.41,11.3,42.41,11.76Z"/><path class="cls-1" d="M29.79,9.09h0l.29,0Z"/><path class="cls-1" d="M52.56,6.88c0,.09,0,.18,0,.27,0,1.06,0,2.13,0,3.19h0c0-1.06,0-2.13,0-3.19C52.55,7.06,52.56,7,52.56,6.88Z"/><path class="cls-1" d="M67.76,1.7h0v0Z"/><path class="cls-1" d="M59.62,0l-1,0-.8,0Z"/><path class="cls-2" d="M97.18,19.66V9.1h1V.28H93.12l0,5.21c0,.33,0,.33-.26.33H90.94c-.09,0-.22.07-.26,0s0-.26,0-.4c0-1.36,0-2.72,0-4.09,0-.35,0-.71,0-1.07H88.09V51.14h2.52c0-1.71,0-3.43,0-5.14,0-.2,0-.25.2-.24.66,0,1.32,0,2,0,.27,0,.27,0,.27.33,0,.84,0,1.69,0,2.53s0,1.67,0,2.51h5.08v-9h-1V28.76h1v-9.1Z"/><path class="cls-3" d="M27.3,30.29V21.61H19.67v8.68Z"/><path class="cls-3" d="M19.67,9.16H27.3c0-2.95,0-5.91,0-8.87V.21H19.67v9Z"/><path class="cls-4" d="M108.24,9.1h1.2a5,5,0,0,1,1.38.19V8.86c0-2.84,0-5.68,0-8.52-.45,0-.89-.06-1.35-.06h-1.18c0,2.29,0,4.58,0,6.88C108.26,7.8,108.25,8.45,108.24,9.1Z"/><path class="cls-4" d="M112.83,18a4.36,4.36,0,0,1-3.53,1.62h-6.07v9.1h8a6.37,6.37,0,0,1,2.12.34V17.33A4,4,0,0,1,112.83,18Z"/><path class="cls-4" d="M103.25,42.69c.19,0,.37,0,.56,0H104a2.29,2.29,0,0,0,.74,0c.31-.07.61.07.92,0,.07,0,.09.07.09.13,0,.3.06.59,0,.89s.06.48.38.49H108c.22,0,.26.05.26.33,0,1.52,0,3,0,4.56l2.57-3v-.11c0-1.24,0-2.49,0-3.74h-7.59v.17C103.23,42.46,103.25,42.58,103.25,42.69Z"/><path class="cls-5" d="M9.54,30.29h7.62V21.61H9.54Z"/><path class="cls-5" d="M12,4c0,1.74,0,3.47,0,5.2h5.17v-9H12C12,1.46,12.05,2.71,12,4Z"/><path class="cls-4" d="M52.55,41.33h0c0,.56,0,1.12,0,1.68v7.73a24.41,24.41,0,0,0,6,.75c.54,0,1.08,0,1.61-.06V42.32c-.53,0-1.06.07-1.61.07a15,15,0,0,1-6-1.25c0,.07,0,.13,0,.19Z"/><path class="cls-4" d="M57.66,0c0,1.27-.06,2.54,0,3.81,0,.31,0,.35-.29.35H55.38c-.18,0-.25-.07-.24-.31V.26a22.06,22.06,0,0,0-2.57.52q0,3,0,6.1c0,.09,0,.18,0,.27,0,1.06,0,2.13,0,3.19a15.21,15.21,0,0,1,6-1.24c.55,0,1.08,0,1.61.07V.05l-.56,0h-2Z"/><path class="cls-6" d="M98.21,19.66v9.1h5v-9.1Z"/><path class="cls-6" d="M98.21,9.1h5V.28h-5V9.1Z"/><path class="cls-6" d="M98.21,51.14h5V43a1.35,1.35,0,0,1,0-.35c0-.11,0-.23,0-.34v-.17h-5v9Z"/><path class="cls-7" d="M7,3.86C6.94,7,7,10.09,7,13.2c0,.31,0,.31-.25.31H4.8c-.18,0-.27.09-.26.32s0,.56,0,.84-.07.4-.07.61q0,11.94,0,23.89a1.93,1.93,0,0,0,0,.24c0,.22.15.33.32.31a19.07,19.07,0,0,1,2,0q.15,0,.15.18v.22c0,3.27,0,6.54,0,9.81,0,.42,0,.83,0,1.25H9.14V30.29h.4V21.61h-.4V9.16H12C12,7.43,12,5.7,12,4c0-1.25,0-2.5,0-3.75H7C7,1.43,7,2.64,7,3.86Z"/><path class="cls-4" d="M72.83,36.61V47a24.11,24.11,0,0,0,5-4.89V30.75H74l-.25.72a17.54,17.54,0,0,1-.91,2.18v3Z"/><path class="cls-4" d="M72.83,13.74v4.42c.18.4.35.82.5,1.24l.25.72h4.3V9.4a23.36,23.36,0,0,0-5-4.93v9.27Z"/><path class="cls-8" d="M7,49.89c0-3.27,0-6.54,0-9.81v-.22q0-.2-.15-.18a19.07,19.07,0,0,0-2,0c-.17,0-.29-.09-.32-.31a1.93,1.93,0,0,1,0-.24q0-11.94,0-23.89c0-.21.09-.4.07-.61s0-.56,0-.84.08-.32.26-.32H6.73c.25,0,.25,0,.25-.31,0-3.11,0-6.23,0-9.34C7,2.64,7,1.43,7,.21H0C0,1.65,0,3.09,0,4.53H1.52c.07,0,.15,0,.21,0s.21-.06.21.16c0,.38,0,.76,0,1.14C2,17.4,2,29,2,40.6c0,.61-.05,1.22,0,1.83,0,.1,0,.21-.12.19-.6,0-1.2,0-1.81,0v8.54H7C7,50.72,7,50.31,7,49.89Z"/><path class="cls-4" d="M29.77,8.67a1.48,1.48,0,0,0,0,.21c0,.07,0,.14,0,.21l.29,0a.08.08,0,0,1,.08.07s0,0,0,0h.57a.1.1,0,0,1,0,0c0-.07.07-.07.11-.07h.36V.21h-1.4V8.67Z"/><path class="cls-4" d="M37.37,24.22q0-6,0-11.91A27,27,0,0,0,34.84,18v15.5a26.77,26.77,0,0,0,2.53,5.66v-15Z"/><path class="cls-9" d="M118.34,36V12.38c0-.14,0-.28,0-.42a6.56,6.56,0,0,1-1.17.06c-.39,0-.78,0-1.17,0-.11,0-.15-.07-.15-.2v-.2c0-.83-.06-1.65,0-2.47,0-.19-.05-.22-.2-.22-.68,0-1.36,0-2,0-.15,0-.23-.09-.23-.31V.77a14.74,14.74,0,0,0-2.52-.43c0,2.84,0,5.68,0,8.52v.43c2.22.64,3.24,2.83,3.24,5a6.26,6.26,0,0,1-.76,3V29.1c2.61.9,3.92,3.48,3.92,6.35v1a8.27,8.27,0,0,1,1.11.07C118.33,36.35,118.34,36.2,118.34,36Z"/><path class="cls-9" d="M110.9,45.94l2.42-2.88c0-.3,0-.59,0-.88h-2.52c0,1.25,0,2.5,0,3.74Z"/><path class="cls-8" d="M123.38,15c0-.15,0-.3,0-.45,0-.31,0-.62,0-.93A14.94,14.94,0,0,0,122.28,9,15.29,15.29,0,0,0,121,6.38V21.62A11.47,11.47,0,0,0,123.38,15Z"/><path class="cls-8" d="M121,23.86V34l2.39-2.85c0-1.68,0-3.36,0-5.05A17.25,17.25,0,0,0,121,23.86Z"/><path class="cls-10" d="M121,23.86a11.72,11.72,0,0,0-1.27-.85A11.81,11.81,0,0,0,121,21.62V6.38a13.26,13.26,0,0,0-2.61-3v8.24a1,1,0,0,1,0,.34c0,.14,0,.28,0,.42V36c0,.16,0,.31,0,.47s0,.23,0,.34v.23L121,34V23.86Z"/><path class="cls-11" d="M77.88,42.11a26,26,0,0,0,2.56-4V30.75H77.88V42.11Z"/><path class="cls-11" d="M80.44,20.12q0-3.27,0-6.54A24.42,24.42,0,0,0,77.88,9.4V20.12Z"/><path class="cls-12" d="M19.67,30.29V21.61H17.16v8.68Z"/><path class="cls-12" d="M17.15,9.16h2.52V.21H17.15v9Z"/><path class="cls-4" d="M83,30.75H83v.19Z"/><path class="cls-13" d="M82.68,32.07,83,30.94v-.19H80.44v7.33A28.67,28.67,0,0,0,82.68,32.07Z"/><path class="cls-13" d="M82.67,20.12l-.34-1.33a27.08,27.08,0,0,0-1.9-5.21q0,3.27,0,6.54Z"/><path class="cls-14" d="M65.24,42.69h0c0,2.22,0,4.44,0,6.66,0,.42,0,.83,0,1.25a24,24,0,0,0,2.48-.83v-4c0-.41,0-.81,0-1.21V39.6A15.49,15.49,0,0,1,65.27,41v1.3A1.29,1.29,0,0,1,65.24,42.69Z"/><path class="cls-14" d="M65.25,8.83c0,.12,0,.23,0,.35v1.25a14.24,14.24,0,0,1,2.48,1.37V4.72c0-.12,0-.25,0-.37V1.7A25.9,25.9,0,0,0,65.27.88q0,3.78,0,7.56C65.26,8.57,65.26,8.7,65.25,8.83Z"/><path class="cls-15" d="M27.3,9.16h2.49V9.09h0c0-.07,0-.14,0-.21a1.48,1.48,0,0,1,0-.21V.21H27.31V.29C27.31,3.25,27.3,6.21,27.3,9.16Z"/><path class="cls-15" d="M28.66,30.29V21.61H27.3v8.68Z"/><path class="cls-15" d="M118.33,36.51a8.27,8.27,0,0,0-1.11-.07v2l1.12-1.34v-.23C118.34,36.74,118.33,36.62,118.33,36.51Z"/><path class="cls-15" d="M114.06,42.18h-.72c0,.29,0,.58,0,.88Z"/><path class="cls-15" d="M110.83,45.92V46l.07-.09-.07,0Z"/><path class="cls-7" d="M1.81,42.62c.13,0,.13-.09.12-.19,0-.61,0-1.22,0-1.83C2,29,2,17.4,1.93,5.8c0-.38,0-.76,0-1.14,0-.22,0-.31-.21-.16s-.14,0-.21,0H0V42.6C.61,42.61,1.21,42.57,1.81,42.62Z"/><path class="cls-7" d="M123.37,26.06c0,1.69,0,3.37,0,5.05l1.77-2.1.1-.13v-.31A13.87,13.87,0,0,0,123.37,26.06Z"/><path class="cls-7" d="M123.38,15a12.74,12.74,0,0,0,0-1.38c0,.31,0,.62,0,.93C123.36,14.74,123.37,14.89,123.38,15Z"/><path class="cls-15" d="M113.54,8.94c.69,0,1.37,0,2,0,.15,0,.21,0,.2.22,0,.82.07,1.64,0,2.47v.2c0,.13,0,.2.15.2.39,0,.78,0,1.17,0a6.56,6.56,0,0,0,1.17-.06,1,1,0,0,0,0-.34V3.38a13,13,0,0,0-5-2.61V8.63C113.31,8.85,113.39,8.94,113.54,8.94Z"/><path class="cls-9" d="M103.23,9.1h5c0-.65,0-1.3,0-1.94,0-2.3,0-4.59,0-6.88h-5V9.1Z"/><path class="cls-15" d="M70.3,42.44c0,1,0,2,0,3,0,.19,0,.25-.19.25H67.76v4A23.59,23.59,0,0,0,72.83,47V36.91q-.1-.06,0-.12v-.18a3.52,3.52,0,0,1-1.1.15h-.29c-.2,0-.41,0-.61,0-.17.2-.34.4-.52.59C70.32,39,70.33,40.74,70.3,42.44Z"/><path class="cls-14" d="M47.49,44.24a18.65,18.65,0,0,0,2.24,0c.18,0,.26.06.26.28s0,.17,0,.25V50a25.24,25.24,0,0,0,2.56.79V43c0-.56,0-1.12,0-1.68h0a1.54,1.54,0,0,0-.37-.09h-.41c-.5,0-1,0-1.51,0-.19,0-.25-.08-.25-.31V39.74a16.62,16.62,0,0,1-2.52-2.1v6.6Z"/><path class="cls-15" d="M68.44,4.28H70c.18,0,.23.07.24.3,0,2.83,0,5.67,0,8.51,0,.36,0,.37.3.36.65,0,1.31,0,2,0a1.15,1.15,0,0,1,.26,0v-9A23.28,23.28,0,0,0,67.76,1.7V4.35A1.74,1.74,0,0,1,68.44,4.28Z"/><path class="cls-14" d="M50.34,7.26h1.77a.69.69,0,0,0,.44-.11c0-.09,0-.18,0-.27q0-3.06,0-6.1A23.09,23.09,0,0,0,50,1.6V6.88c0,.4,0,.43-.35.43H47.49q0,3.27,0,6.54A16.21,16.21,0,0,1,50,11.74V7.66C50,7.27,50,7.26,50.34,7.26Z"/><path class="cls-9" d="M108,44.19h-1.83c-.32,0-.44-.15-.38-.49s0-.59,0-.89c0-.06,0-.14-.09-.13-.31.06-.61-.08-.92,0a2.29,2.29,0,0,1-.74,0h-.18c-.19,0-.37,0-.56,0a1.35,1.35,0,0,0,0,.35v8.1h3.31l1.72-2.06c0-1.52,0-3,0-4.56C108.22,44.24,108.18,44.19,108,44.19Z"/><path class="cls-13" d="M65.24,42.69h0l-1,0c-.47,0-.93,0-1.4,0-.08,0-.13.07-.13.18a.66.66,0,0,0,0,.14c0,.83-.07,1.65,0,2.48,0,.22-.08.27-.24.27H60.18v5.66a25.64,25.64,0,0,0,5.09-.83c0-.42,0-.83,0-1.25C65.27,47.13,65.27,44.91,65.24,42.69Z"/><path class="cls-14" d="M47.48,47.3l-.12,0-.09,0a1.45,1.45,0,0,0-.36,0H45.35c-.25,0-.26,0-.26-.34v-.32A1.89,1.89,0,0,0,45,45.8a.67.67,0,0,1,0-.29V41.63c0-.34,0-.37-.29-.37-.64,0-1.28,0-1.91,0-.2,0-.26.08-.25.31s0,.4,0,.6a.41.41,0,0,1,0,.19,0,0,0,0,1,0,0s0,0-.06,0c0,1,0,1.93,0,2.9a24.92,24.92,0,0,0,5.09,3.5V47.62C47.49,47.51,47.49,47.41,47.48,47.3Z"/><path class="cls-13" d="M62.48,5.8c.16,0,.18.12.19.28l0,2.37c0,.31,0,.34.28.34h1.61l.66,0c0-.13,0-.26,0-.39q0-3.78,0-7.56A25.64,25.64,0,0,0,60.18.05V5.82C61,5.8,61.72,5.85,62.48,5.8Z"/><path class="cls-16" d="M39.93,10.33l.08,0a.16.16,0,0,0,.07-.12V9.43c0-.33.06-.4.32-.43a1,1,0,0,1,.3,0,.72.72,0,0,0,.41,0c.31-.1.63,0,1,0,.14,0,.2.07.19.25s0,.54,0,.81,0,.3.14.33h0c0-.9,0-1.8,0-2.7,0-.12,0-.24,0-.37,0-.37,0-.75,0-1.13-.51.45-1,.91-1.49,1.41s-.67.75-1,1.13V10C39.92,10.1,39.93,10.21,39.93,10.33Z"/><path class="cls-14" d="M42.42,7.31h2.26c.27,0,.29,0,.29-.37V4.21a26.81,26.81,0,0,0-2.56,2c0,.38,0,.76,0,1.13Z"/><path class="cls-11" d="M49.66,7.31c.33,0,.35,0,.35-.43V1.6a21.8,21.8,0,0,0-2.52,1.13V7.31Z"/><path class="cls-11" d="M50,44.56c0-.22-.08-.28-.26-.28a18.65,18.65,0,0,1-2.24,0c0,1,0,2,0,3.06,0,.11,0,.21,0,.32v1.21A25.76,25.76,0,0,0,50,50V44.81C50,44.73,50,44.65,50,44.56Z"/><path class="cls-6" d="M93.09,46.1c0-.33,0-.33-.27-.33-.65,0-1.31,0-2,0-.18,0-.2,0-.2.24,0,1.71,0,3.43,0,5.14h2.52c0-.84,0-1.68,0-2.51S93.09,46.94,93.09,46.1Z"/><path class="cls-6" d="M90.65,5.44c0,.14,0,.3,0,.4s.17,0,.26,0h1.89c.26,0,.26,0,.26-.33l0-5.21H90.61c0,.36,0,.72,0,1.07C90.66,2.72,90.65,4.08,90.65,5.44Z"/><path class="cls-9" d="M55.38,4.19h1.95c.25,0,.29,0,.29-.35,0-1.27,0-2.54,0-3.81a23.61,23.61,0,0,0-2.52.24V3.88C55.13,4.12,55.2,4.19,55.38,4.19Z"/><path class="cls-17" d="M50.26,41.22c.5,0,1,0,1.51,0h.41a1.54,1.54,0,0,1,.37.09c0-.06,0-.12,0-.19A15.08,15.08,0,0,1,50,39.74v1.17C50,41.14,50.07,41.22,50.26,41.22Z"/><path class="cls-17" d="M52.11,7.26H50.34c-.31,0-.32,0-.32.4v4.08a15.38,15.38,0,0,1,2.54-1.4c0-1.06,0-2.13,0-3.19A.69.69,0,0,1,52.11,7.26Z"/><path class="cls-17" d="M47.49,2.73A22.76,22.76,0,0,0,45,4.21V6.94c0,.34,0,.37-.29.37H42.42c0,.13,0,.25,0,.37,0,.9,0,1.8,0,2.7h0c0,.46,0,.92,0,1.38V41.94c0,.16,0,.33,0,.49,0,0,0,0,.06,0a0,0,0,0,0,0,0,.41.41,0,0,0,0-.19c0-.2,0-.4,0-.6s0-.32.25-.31c.63,0,1.27,0,1.91,0,.27,0,.29,0,.29.37v3.88a.67.67,0,0,0,0,.29,1.89,1.89,0,0,1,.09.75v.32c0,.32,0,.34.26.34h1.56a1.45,1.45,0,0,1,.36,0l.09,0,.12,0h0c0-1,0-2,0-3.06v-6.6l-.14-.15a16.95,16.95,0,0,1,0-23.49l.15-.15q0-3.27,0-6.54Z"/><path class="cls-11" d="M60.18,45.77h2.25c.16,0,.24-.05.24-.27,0-.83.06-1.65,0-2.48a.66.66,0,0,1,0-.14c0-.11,0-.17.13-.18.47,0,.93,0,1.4,0l1,0h0a1.29,1.29,0,0,0,0-.39V41a16.18,16.18,0,0,1-5.09,1.32v3.45Z"/><path class="cls-11" d="M65.25,8.83l-.66,0H63c-.25,0-.27,0-.28-.34l0-2.37c0-.16,0-.29-.19-.28-.76,0-1.53,0-2.3,0V9.17a16.33,16.33,0,0,1,5.09,1.26V9.18C65.27,9.06,65.26,9,65.25,8.83Z"/><path class="cls-16" d="M67.76,45.73h2.32c.14,0,.19-.06.19-.25,0-1,0-2,0-3,0-1.7,0-3.4,0-5.1a15.24,15.24,0,0,1-2.56,2.26v4.92C67.75,44.92,67.75,45.32,67.76,45.73Z"/><path class="cls-16" d="M71.44,36.76h.29a3.52,3.52,0,0,0,1.1-.15v-3a16.6,16.6,0,0,1-2,3.1C71,36.74,71.24,36.75,71.44,36.76Z"/><path class="cls-16" d="M72.83,13.45a1.15,1.15,0,0,0-.26,0c-.65.07-1.31,0-2,0-.3,0-.3,0-.3-.36,0-2.84,0-5.68,0-8.51,0-.23-.06-.31-.24-.3h-1.6a1.74,1.74,0,0,0-.68.07c0,.12,0,.25,0,.37V11.8a14.93,14.93,0,0,1,5.08,6.36V13.45Z"/><path class="cls-16" d="M72.83,36.91v-.12Q72.73,36.85,72.83,36.91Z"/><path class="cls-13" d="M33.66,25.82a26,26,0,0,0,1.18,7.7V18A26.51,26.51,0,0,0,33.66,25.82Z"/><path class="cls-14" d="M39.93,10.6a2.43,2.43,0,0,1,0-.27c0-.12,0-.23,0-.35V8.72a27.48,27.48,0,0,0-2.54,3.59q0,6,0,11.91v15a27.74,27.74,0,0,0,2.55,3.58q0-10.8,0-21.6Z"/><path class="cls-13" d="M30.7,9.12a.1.1,0,0,0,0,0h.46V9.05h-.36S30.7,9.05,30.7,9.12Z"/><path class="cls-13" d="M30.08,9.05l-.29,0v.07h.35s0,0,0,0A.08.08,0,0,0,30.08,9.05Z"/><path class="cls-13" d="M42.42,42.43c0-.16,0-.33,0-.49V11.76c0-.46,0-.92,0-1.38-.16,0-.14-.2-.14-.33s0-.54,0-.81,0-.28-.19-.25c-.32.08-.64-.06-1,0a.72.72,0,0,1-.41,0,1,1,0,0,0-.3,0c-.26,0-.31.1-.32.43v.76a.16.16,0,0,1-.07.12l-.08,0a2.43,2.43,0,0,0,0,.27V21.16q0,10.8,0,21.6c.32.39.66.78,1,1.15s1,1,1.47,1.42c0-1,0-1.93,0-2.9Z"/><path class="cls-18" d="M125.21,28.57v.31l.11-.12Z"/><path class="cls-19" d="M114.06,75.48h-3.34v1.07h2a1.76,1.76,0,0,1-1.61.92,2,2,0,0,1,0-3.94,1.67,1.67,0,0,1,1.73,1.17l0,.09H114l0-.15a2.77,2.77,0,0,0-2.85-2.18,3,3,0,0,0,0,6.05,3.06,3.06,0,0,0,2.49-1.4,3,3,0,0,0,.41-1.62"/><polygon class="cls-19" points="9.14 78.42 10.2 78.42 10.2 76.01 12.45 76.01 12.45 75.01 10.2 75.01 10.2 73.57 12.74 73.57 12.74 72.54 9.14 72.54 9.14 78.42"/><path class="cls-19" d="M18.51,73.33a3,3,0,0,0-4.29,0,3.08,3.08,0,0,0-.88,2.15,3,3,0,0,0,.88,2.14,3,3,0,0,0,2.14.9,3,3,0,0,0,2.15-.9,3,3,0,0,0,.88-2.14,3.08,3.08,0,0,0-.88-2.15Zm-2.15,4.13A1.89,1.89,0,0,1,15,76.87h0a2,2,0,0,1,0-2.78h0a1.89,1.89,0,0,1,1.37-.59,2,2,0,0,1,0,4"/><path class="cls-19" d="M25.34,73.33a3,3,0,0,0-2.15-.9,3.06,3.06,0,0,0-2.14.9,3.12,3.12,0,0,0-.88,2.15,3.08,3.08,0,0,0,.88,2.14,3,3,0,0,0,4.29,0,3,3,0,0,0,.88-2.14,3.08,3.08,0,0,0-.88-2.15Zm-2.15,4.13a1.91,1.91,0,0,1-1.37-.59h0a2,2,0,0,1,0-2.78h0a1.91,1.91,0,0,1,1.37-.59,2,2,0,0,1,0,4"/><polygon class="cls-19" points="26.7 73.55 28.41 73.55 28.41 78.42 29.46 78.42 29.46 73.55 31.16 73.55 31.16 72.54 26.7 72.54 26.7 73.55"/><polygon class="cls-19" points="33.2 76.01 35.76 76.01 35.76 74.95 33.2 74.95 33.2 73.6 35.81 73.6 35.81 72.55 32.14 72.55 32.14 78.42 35.82 78.42 35.82 77.37 33.2 77.37 33.2 76.01"/><polygon class="cls-19" points="36.41 79.22 37.4 79.22 38.27 77.5 37.09 77.5 36.41 79.22"/><path class="cls-19" d="M45.38,76.15a1.81,1.81,0,0,1-1.75,1.27,1.85,1.85,0,0,1-1.31-.57,2,2,0,0,1,0-2.72,1.8,1.8,0,0,1,1.31-.57,1.72,1.72,0,0,1,1.7,1.19l0,.08h1l0-.14a2.92,2.92,0,0,0-1-1.59,2.87,2.87,0,0,0-3.79.29h0a3.09,3.09,0,0,0-.84,2.11,3,3,0,0,0,.84,2.08,2.78,2.78,0,0,0,2,.88,2.84,2.84,0,0,0,2.78-2.24l0-.15h-1Z"/><path class="cls-19" d="M52.33,73.33a3,3,0,0,0-2.14-.9,3.06,3.06,0,0,0-2.15.9,3.11,3.11,0,0,0-.87,2.15A3.07,3.07,0,0,0,48,77.62a3,3,0,0,0,4.29,0,3,3,0,0,0,.88-2.14,3.08,3.08,0,0,0-.88-2.15Zm-2.14,4.13a1.92,1.92,0,0,1-1.38-.59h0a2,2,0,0,1,0-2.78h0a1.92,1.92,0,0,1,1.38-.59,2,2,0,0,1,1.39.59,2,2,0,0,1,0,2.78,2,2,0,0,1-1.39.59"/><polygon class="cls-19" points="57.81 76.25 55.28 72.59 55.24 72.54 54.43 72.54 54.43 78.42 55.48 78.42 55.48 74.74 57.99 78.37 58.02 78.42 58.85 78.42 58.85 72.54 57.81 72.54 57.81 76.25"/><polygon class="cls-19" points="61.56 76.01 64.12 76.01 64.12 74.95 61.56 74.95 61.56 73.6 64.17 73.6 64.17 72.55 60.5 72.55 60.5 78.42 64.18 78.42 64.18 77.37 61.56 77.37 61.56 76.01"/><path class="cls-19" d="M72.7,75.93l-.91-.47-.35.6-.71-.74a2.34,2.34,0,0,0,.63-.5,1.4,1.4,0,0,0,.32-.93,1.43,1.43,0,0,0-1.48-1.41,1.66,1.66,0,0,0-.59.1,1.53,1.53,0,0,0-.52.28,1.35,1.35,0,0,0-.51,1.1A1.8,1.8,0,0,0,69,75.1a1.81,1.81,0,0,0-1,1.58,1.79,1.79,0,0,0,.14.73,1.59,1.59,0,0,0,.38.57,1.68,1.68,0,0,0,.6.37,2.09,2.09,0,0,0,.76.13,2,2,0,0,0,.89-.19,2.17,2.17,0,0,0,.7-.54l.59.66h1v-.48l-1-1.06Zm-2.53-2.45a.44.44,0,0,1,.47.43.61.61,0,0,1-.21.42,2.13,2.13,0,0,1-.43.31,1.28,1.28,0,0,1-.35-.69.5.5,0,0,1,.52-.47m-.44,2.35L70.84,77a1.15,1.15,0,0,1-.86.47.83.83,0,0,1-.89-.8c0-.28.21-.55.64-.83"/><path class="cls-19" d="M80.27,75.17a1.42,1.42,0,0,0,.3-1.62,1.49,1.49,0,0,0-.58-.74,1.59,1.59,0,0,0-.9-.26H76.63v5.87h2.66a1.67,1.67,0,0,0,1.31-.57,1.82,1.82,0,0,0,.34-.59,2.08,2.08,0,0,0,.11-.66,1.79,1.79,0,0,0-.23-.89,1.58,1.58,0,0,0-.55-.54m-.78-.57a.52.52,0,0,1-.41.19H77.67V73.56h1.42a.55.55,0,0,1,.54.6.7.7,0,0,1-.14.44m-.2,2.79H77.67V75.83h1.62a.72.72,0,0,1,.71.78.73.73,0,0,1-.71.78"/><polygon class="cls-19" points="83.32 76.01 85.88 76.01 85.88 74.95 83.32 74.95 83.32 73.6 85.94 73.6 85.94 72.55 82.26 72.55 82.26 78.42 85.94 78.42 85.94 77.37 83.32 77.37 83.32 76.01"/><polygon class="cls-19" points="88.49 72.54 87.44 72.54 87.44 78.42 91.14 78.42 91.14 77.39 88.49 77.39 88.49 72.54"/><path class="cls-19" d="M96.52,73.49a2.76,2.76,0,0,0-2.19-.94H92.18v5.87h2.15a2.76,2.76,0,0,0,2.19-.94,2.7,2.7,0,0,0,.52-.94,3.18,3.18,0,0,0,0-2.11,2.7,2.7,0,0,0-.52-.94m-2.19,3.88H93.24V73.6h1.09a1.89,1.89,0,0,1,0,3.77"/><polygon class="cls-19" points="98.14 73.51 99.19 73.51 99.19 77.44 98.14 77.44 98.14 78.42 101.29 78.42 101.29 77.44 100.24 77.44 100.24 73.51 101.29 73.51 101.29 72.54 98.14 72.54 98.14 73.51"/><polygon class="cls-19" points="106.03 76.25 103.49 72.59 103.46 72.54 102.65 72.54 102.65 78.42 103.7 78.42 103.7 74.74 106.21 78.37 106.24 78.42 107.07 78.42 107.07 72.54 106.03 72.54 106.03 76.25"/></g></g></g></svg>