<svg xmlns="http://www.w3.org/2000/svg" viewBox="0 0 209.84 62.06"><defs><style>.cls-1{fill:#3f3a36;}.cls-2{fill:#d9282e;}</style></defs><title>logo-barkernyc</title><g id="Layer_2" data-name="Layer 2"><g id="Logos"><g id="logo-barkernyc"><path class="cls-1" d="M24.14,12.25a10.44,10.44,0,0,0-9.63,5.46V0L0,1.46v5.1l4.74,2V48.94h9l.43-4.31h.29A10.6,10.6,0,0,0,24.14,50c6.05,0,12.11-5.1,12.11-18.88s-6.06-18.9-12.11-18.9M20.2,40.62c-3.79,0-5.83-3.21-5.83-9.47s2-9.48,5.83-9.48S26,24.88,26,31.15,24,40.62,20.2,40.62"/><path class="cls-1" d="M66.38,42.23V25.45c0-10.58-5.25-13.2-13.13-13.2A31.75,31.75,0,0,0,40.78,15l1.89,7.29a19.55,19.55,0,0,1,7.15-1.53c4.09,0,6.78,1.32,6.78,6.27v2c-1.31-1.53-3.94-2.56-7.22-2.56-5.54,0-11.09,3.5-11.09,11.89,0,7.44,5,11.67,10.43,11.67a8.5,8.5,0,0,0,7.87-4.81h.29l.8,3.72H70.23V43.82Zm-13.79,0c-2.33,0-4.09-1.82-4.09-4.67s1.76-4.66,4.09-4.66,4.16,1.83,4.16,4.66-1.83,4.67-4.16,4.67"/><path class="cls-1" d="M164.18,31.29c0-12.33-5.54-19-14.51-19-9.7,0-15,6.56-15,18.89S141,50,150.39,50A16.08,16.08,0,0,0,163.52,43l-5.25-4.6c-1.9,2.62-5,4.37-7.3,4.37-3.72,0-5.54-2.4-6-8.53h19.18V31.29ZM145,27.71c.29-7.07,1.68-8.53,4.6-8.53s4.66,1.89,4.66,8.53Z"/><polygon class="cls-1" points="112.4 0 97.89 1.46 97.89 6.56 102.63 8.53 102.63 42.23 97.89 43.83 97.89 48.94 116.41 48.94 116.41 43.83 112.4 42.23 112.4 0"/><polygon class="cls-1" points="131 42.44 123.27 27.85 129.25 20.05 133.55 18.45 133.55 13.41 116.11 13.41 116.11 18.45 120.13 19.69 113.2 28.73 123.12 48.94 133.91 48.94 133.91 43.83 131 42.44"/><path class="cls-1" d="M87.16,42.23V24a7.66,7.66,0,0,1,5.47-2.4,11.38,11.38,0,0,1,2.63.36l1.82.51,2-9.19a14,14,0,0,0-4.81-1c-3.8,0-5.26,2.25-7.15,5.46h-.29l-.8-5L72.65,14.08v5.11l4.73,2V42.24l-4.73,1.6v5.1H93.36v-5.1Z"/><path class="cls-1" d="M180.59,42.23V24a7.66,7.66,0,0,1,5.47-2.4,11.38,11.38,0,0,1,2.63.36l1.82.51,2-9.19a14,14,0,0,0-4.82-1c-3.79,0-5.25,2.25-7.14,5.46h-.29l-.8-5-13.43,1.39v5.11l4.74,2V42.24l-4.74,1.6v5.1h20.72v-5.1Z"/><polygon class="cls-2" points="193.28 36.9 201.52 36.9 209.84 49.52 201.52 62.06 193.28 62.06 197.44 49.52 193.28 36.9"/></g></g></g></svg>