<svg xmlns="http://www.w3.org/2000/svg" viewBox="0 0 254.56 50.8"><defs><style>.cls-1{fill:#f1c066;}.cls-2{fill:#e43d30;}</style></defs><title>logo-united-palace</title><g id="Layer_2" data-name="Layer 2"><g id="Logos"><g id="logo-united-palace"><path class="cls-1" d="M20.75,37.37a7.32,7.32,0,0,1-14.64,0V20.8L0,20.77v16.6H0a13.43,13.43,0,0,0,26.86,0h0V26.86h10.5A13.43,13.43,0,1,0,37.36,0H20.76V6.11H37.36a7.32,7.32,0,0,1,0,14.64l-16.61,0Z"/><path class="cls-2" d="M59.64,42.35v-9.9a19.63,19.63,0,0,0-.24-3.53c-.17-.67-.4-.84-1.61-1l-1.11-.14v-.3H68.53v.3L67,27.92c-1.28.13-1.61.33-1.78,1A18.71,18.71,0,0,0,65,32.45V42.59c0,4.33,2.45,6,5.54,6,3.59,0,5.88-2.15,5.88-6,0-2.79,0-2.86,0-4.77l-.13-5.94c-.07-2.65-.67-3.23-2.35-3.73l-1.31-.47v-.2h8.56v.2l-1,.44c-1.65.64-2.25,1.14-2.35,3.76l-.47,10.91c-.2,5.27-3.79,7.65-8.36,7.65C63.66,50.44,59.64,48.16,59.64,42.35Z"/><path class="cls-2" d="M95.12,34.9c.63.67,1,1.37,1,3.39V48.8c0,.53.1.6.94.74l.51.1v.26H90.08v-.26l.5-.1c.71-.11.81-.24.81-.74V40.3c0-1.41-.13-2.41-.6-2.92a2.27,2.27,0,0,0-1.68-.53,4.88,4.88,0,0,0-2.19.6V48.8c0,.5.11.63.78.74l.53.1v.26H80.71v-.26l.54-.1c.81-.14.91-.24.91-.78V38.26A1.73,1.73,0,0,0,81.79,37l-1-1.1v-.1l6.24-2.12.07.1c-.07.91-.14,1.78-.14,2.15l0,1,.13.07c2.08-2.12,3.76-3,5.54-3A3.68,3.68,0,0,1,95.12,34.9Z"/><path class="cls-2" d="M105.69,48.76c0,.54.1.64.94.78l.5.1v.26H99.48v-.26l.54-.1c.8-.14.9-.24.9-.78V38.22a1.77,1.77,0,0,0-.37-1.24l-1-1.07v-.1l6.14-2.09.07.1c-.07.91-.1,2-.1,2.49Zm-2.35-21.41a2.49,2.49,0,0,1,1.82.72,2.52,2.52,0,0,1,.73,1.83,2.64,2.64,0,0,1-.73,1.88,2.49,2.49,0,0,1-1.88.76,2.36,2.36,0,0,1-1.81-.81,2.66,2.66,0,0,1-.75-1.89,2.35,2.35,0,0,1,.79-1.77A2.65,2.65,0,0,1,103.34,27.35Z"/><path class="cls-2" d="M111.73,49.3a4.56,4.56,0,0,1-1.14-3.49v-9h-1.85v-.51a82.8,82.8,0,0,0,6.65-5.77l.13.07-.13,3.93h5l-.4,2.31-4.7,0v8.09A2.78,2.78,0,0,0,116,47a2.62,2.62,0,0,0,2,.6,4.64,4.64,0,0,0,2.69-.9l.1.1a6.18,6.18,0,0,1-5.64,3.66A4.75,4.75,0,0,1,111.73,49.3Z"/><path class="cls-2" d="M129.08,50.44c-4.56,0-7.28-3.59-7.28-7.82,0-4.9,3.39-8.66,7.89-8.66,3.93,0,6.24,2.28,6.24,5a2.94,2.94,0,0,1-.13,1l-9.53,0v.6c0,4.5,2.18,6.72,5.37,6.72A5.82,5.82,0,0,0,136,45.34l.13.1A7.55,7.55,0,0,1,129.08,50.44Zm-2.78-11c3.59-.07,5.07-.2,5.47-.37.07-2.25-.77-4.5-2.35-4.5a2.24,2.24,0,0,0-1.58.71A6.86,6.86,0,0,0,126.3,39.43Z"/><path class="cls-2" d="M148.49,34.5V30.74a1.64,1.64,0,0,0-.41-1.25l-1-1.1v-.1l6.14-2.09.1.07c-.06.91-.1,2.12-.1,2.52V48.13c0,.8.14.94,1,.94l.77,0,0,.3-6.71,1.25-.07-.11c.07-.4.1-.83.14-1.3l.06-.91-.13-.07a6.58,6.58,0,0,1-4.57,2.25c-3.49,0-5.94-3-5.94-7.62,0-4.73,3.19-8.79,8-8.79A7.23,7.23,0,0,1,148.49,34.5Zm-5.74,7.15c0,4.19,1.94,6.48,4.09,6.48a3.49,3.49,0,0,0,1.65-.41l.06-9.33c0-2.82-1.14-3.66-2.38-3.66C144.39,34.73,142.75,37.28,142.75,41.65Z"/><path class="cls-2" d="M161.51,27.68c2.82-.23,5.61-.33,8.43-.33,8.19,0,11.38,2.58,11.38,6.54S177,40.57,171,40.54V40.3c3.46-.63,4.84-3.25,4.84-6.51s-2-5.91-6-5.94c-.06.84-.1,2.45-.1,3.76V44.94a20.06,20.06,0,0,0,.2,3.59c.17.67.44.84,1.72,1l1.3.1v.3H161.51v-.3l1.07-.13c1.25-.17,1.48-.34,1.65-1a20.68,20.68,0,0,0,.2-3.52V32.58a21.18,21.18,0,0,0-.2-3.52c-.17-.67-.57-.94-1.91-1l-.81,0Z"/><path class="cls-2" d="M185.88,36.51l.91,2.85a7,7,0,0,1-3,.84c-1,0-1.51-.37-1.51-1a3.41,3.41,0,0,1,1.21-1.91c1.51-1.51,4.47-3.46,6.75-3.46a4.68,4.68,0,0,1,3.32,1c.81.84,1,2.05,1,3.73v7.65a2.22,2.22,0,0,0,.54,1.75,1.35,1.35,0,0,0,.94.37,1.93,1.93,0,0,0,1.11-.41l.1.14a5.27,5.27,0,0,1-4,2.35A3.2,3.2,0,0,1,190,48.06l-.1,0-.54.44c-1.38,1.18-2.38,1.81-3.93,1.81A3.31,3.31,0,0,1,182.12,47a2.71,2.71,0,0,1,.74-1.91c.67-.67,1.78-1.21,4.5-2.15l2.58-.87V39.7c0-1.65-.23-2.52-.7-3a2.32,2.32,0,0,0-1.82-.6A3.08,3.08,0,0,0,185.88,36.51Zm4.06,5.91a8.64,8.64,0,0,0-2.52,1.41,2.4,2.4,0,0,0-.67,1.78c0,1.54.88,2.41,1.88,2.41a2.35,2.35,0,0,0,1.31-.36Z"/><path class="cls-2" d="M204.74,48.8c0,.5.1.6.94.74l.51.1v.26h-7.66v-.26l.54-.1c.81-.14.91-.24.91-.78v-18a1.8,1.8,0,0,0-.37-1.25l-1-1.1v-.1l6.15-2.09.06.07c-.06.94-.1,2.08-.1,2.52Z"/><path class="cls-2" d="M212.43,36.51l.91,2.85a7,7,0,0,1-3,.84c-1,0-1.51-.37-1.51-1a3.38,3.38,0,0,1,1.2-1.91c1.51-1.51,4.47-3.46,6.75-3.46a4.68,4.68,0,0,1,3.32,1c.81.84,1,2.05,1,3.73v7.65a2.23,2.23,0,0,0,.53,1.75,1.35,1.35,0,0,0,.94.37,1.93,1.93,0,0,0,1.11-.41l.1.14a5.27,5.27,0,0,1-4,2.35,3.21,3.21,0,0,1-3.22-2.35l-.1,0-.54.44c-1.37,1.18-2.38,1.81-3.93,1.81A3.31,3.31,0,0,1,208.67,47a2.71,2.71,0,0,1,.74-1.91c.67-.67,1.78-1.21,4.5-2.15l2.58-.87V39.7c0-1.65-.23-2.52-.7-3a2.3,2.3,0,0,0-1.81-.6A3.09,3.09,0,0,0,212.43,36.51Zm4.06,5.91A8.44,8.44,0,0,0,214,43.83a2.36,2.36,0,0,0-.68,1.78c0,1.54.88,2.41,1.88,2.41a2.35,2.35,0,0,0,1.31-.36Z"/><path class="cls-2" d="M238.28,46.21l.1.17A7.11,7.11,0,0,1,232,50.44c-4.57,0-7.29-3.69-7.29-7.89a8.4,8.4,0,0,1,8.6-8.59c3.15,0,5.2,1.24,5.2,3a2.28,2.28,0,0,1-2.18,2.22c-.44,0-.71-.14-1.24-.94l-1.88-3.09c-.37-.5-.51-.6-.84-.6-1.28,0-3.23,2-3.23,6.11,0,4.39,2.52,6.95,5.58,6.95A5.1,5.1,0,0,0,238.28,46.21Z"/><path class="cls-2" d="M247.51,50.44c-4.57,0-7.29-3.59-7.29-7.82,0-4.9,3.39-8.66,7.89-8.66,3.93,0,6.25,2.28,6.25,5a2.88,2.88,0,0,1-.14,1l-9.53,0v.6c0,4.5,2.18,6.72,5.37,6.72a5.81,5.81,0,0,0,4.36-1.85l.14.1A7.57,7.57,0,0,1,247.51,50.44Zm-2.79-11c3.59-.07,5.07-.2,5.47-.37.07-2.25-.77-4.5-2.35-4.5a2.2,2.2,0,0,0-1.57.71A6.8,6.8,0,0,0,244.72,39.43Z"/></g></g></g></svg>