<svg xmlns="http://www.w3.org/2000/svg" viewBox="0 0 267.48 38.37"><defs><style>.cls-1{fill:#005236;}.cls-2{fill:#7e2618;}.cls-3{fill:#bb9a8b;}.cls-4{fill:#ba998a;}.cls-5{fill:#f8cb86;}.cls-6{fill:#7d2618;}.cls-7{fill:#609f72;}.cls-8{fill:#f1be86;}.cls-9{fill:#f2c086;}.cls-10{fill:#f19052;}.cls-11{fill:#f2c087;}.cls-12{fill:#f2c089;}.cls-13{fill:#5fa376;}.cls-14{fill:#f08646;}.cls-15{fill:#f29151;}.cls-16{fill:#f28f50;}.cls-17{fill:#0b7950;}.cls-18{fill:#f8d08c;}.cls-19{fill:#f1c296;}.cls-20{fill:#fbde9b;}.cls-21{fill:#f3b280;}.cls-22{fill:#f4ab77;}.cls-23{fill:#f2bc8d;}.cls-24{fill:#fce8a7;}.cls-25{fill:#f9d48f;}.cls-26{fill:#fad894;}.cls-27{fill:#f2995e;}.cls-28{fill:#f4a26a;}.cls-29{fill:#f2a069;}.cls-30{fill:#53b489;}.cls-31{fill:#f49c5f;}.cls-32{fill:#f3a168;}.cls-33{fill:#f4a268;}.cls-34{fill:#53b689;}.cls-35{fill:#6ac2ea;}.cls-36{fill:#98d4f0;}.cls-37{fill:#6ac3ea;}.cls-38{fill:#5abbe7;}.cls-39{fill:#8cd0ee;}.cls-40{fill:#cae9f8;}.cls-41{fill:#c4e7f7;}.cls-42{fill:#b7e2f6;}.cls-43{fill:#b6e1f6;}.cls-44{fill:#9cd6f1;}.cls-45{fill:#b6e2f6;}.cls-46{fill:#9ad6f1;}.cls-47{fill:#d8effb;}.cls-48{fill:#e8f6fd;}.cls-49{fill:#1e1952;}.cls-50{fill:#2b2869;}.cls-51{fill:#fff;}.cls-52{fill:#2f2f7e;}</style></defs><title>logo-sublimate-nyc</title><g id="Layer_2" data-name="Layer 2"><g id="Logos"><g id="logo-sublimate-nyc"><path class="cls-1" d="M29.31,33.11l-.62.12-2.1.37c-.53.09-1.07.17-1.6.24s-.86.11-1.3.15l-1.35.13c-.28,0-.57.05-.86.06-.86,0-1.72.07-2.59.07s-1.83,0-2.74-.07c-.73,0-1.46-.11-2.18-.19-.89-.1-1.77-.21-2.65-.34s-2-.33-2.93-.54H8.32a2.17,2.17,0,0,1-.5-.08l-.63-.14-.47-.12c-.81-.2-1.62-.43-2.41-.69l-.48-.17a17,17,0,0,1-1.92-.82,7.06,7.06,0,0,1-1.45-1,1.82,1.82,0,0,1-.46-.6v-.3A1.89,1.89,0,0,0,.05,29c0-.45.07-.91.12-1.36s.14-1.18.23-1.76c.13-.81.27-1.61.44-2.4a26.77,26.77,0,0,1,1.6-5.23A14.47,14.47,0,0,1,4,15.47a11.58,11.58,0,0,1,3.21-3,15.33,15.33,0,0,1,4.08-1.8,17.53,17.53,0,0,1,2.45-.52l.56-.07c.06,0,.09,0,.08-.09V5.85c0-.07,0-.1-.09-.12a2.65,2.65,0,0,1-.76-.31,2.16,2.16,0,0,1-1.06-1.56,4,4,0,0,1,.08-1.73,2.21,2.21,0,0,1,1-1.31,4.79,4.79,0,0,1,1.32-.5A11.31,11.31,0,0,1,16.7.07L18,0c.43,0,.87,0,1.3,0a1.43,1.43,0,0,1,.29,0c.57,0,1.14,0,1.71.1a7.45,7.45,0,0,1,2.09.41,3.81,3.81,0,0,1,.68.32A2.16,2.16,0,0,1,25.16,2.4a4.06,4.06,0,0,1,.05,1.3,2.26,2.26,0,0,1-1.58,2,1.72,1.72,0,0,1-.28.08c-.06,0-.09,0-.08.11V10c0,.07,0,.09.09.09.45.07.9.12,1.35.2a16.41,16.41,0,0,1,5.42,2,11.68,11.68,0,0,1,4.57,4.9,23.23,23.23,0,0,1,1.55,4A34.24,34.24,0,0,1,37.09,25c.13.81.24,1.63.35,2.44.07.63.13,1.25.16,1.88a.77.77,0,0,1-.17.51,3.72,3.72,0,0,1-.82.72,10.11,10.11,0,0,1-1.84,1l-.85.34-.14.06a3,3,0,0,1-.45.19c-.79.26-1.6.49-2.41.69l-.47.11L29.8,33A1.67,1.67,0,0,1,29.31,33.11Z"/><path class="cls-2" d="M3,37.86l-.72,0-.22,0a.35.35,0,0,1-.32-.28,1.76,1.76,0,0,1-.07-.4,4.23,4.23,0,0,1,.49-2.2c.27-.52.58-1,.87-1.53A13.73,13.73,0,0,0,3.79,32a1.21,1.21,0,0,0,0-.14L4.3,32a.39.39,0,0,1-.06.21,18.32,18.32,0,0,1-1.07,1.94c-.18.3-.36.61-.52.92a3.89,3.89,0,0,0-.45,2c0,.18,0,.19.19.21a10.48,10.48,0,0,0,1.12,0c.67,0,1.34,0,2,0a11.11,11.11,0,0,0,2.15-.21c.29-.06.3-.07.17-.35a2.38,2.38,0,0,0-.85-1,2.65,2.65,0,0,0-.91-.31c-.22,0-.45-.07-.67-.11s-.43-.29-.25-.58.4-.53.6-.79.56-.72.81-1.1c0-.06.07-.13.15-.16l.47.12c0,.07,0,.13-.07.19A17.4,17.4,0,0,1,6,34.61l-.12.15c-.07.1-.07.12.06.13a4.7,4.7,0,0,1,1,.25,2.37,2.37,0,0,1,1.21,1,.4.4,0,0,0,.47.23,8.94,8.94,0,0,0,1.54-.31c.22-.07.23-.1.15-.33a1.74,1.74,0,0,0-1.51-1.21c-.37-.06-.74-.07-1.1-.12s-.42-.2-.32-.5A7.83,7.83,0,0,1,7.8,33s0,0,0,0l.48.11L7.88,34l.46,0a5,5,0,0,1,1,.19,2,2,0,0,1,.87.55A2.4,2.4,0,0,1,10.84,36a.38.38,0,0,1-.22.42,3.69,3.69,0,0,1-.79.27,9.82,9.82,0,0,1-1.32.22H8.44c0,.1,0,.18,0,.27a.28.28,0,0,1-.17.3,1.78,1.78,0,0,1-.55.18,10.15,10.15,0,0,1-1.44.19l-.31,0H4.61a4,4,0,0,0-.6,0,.75.75,0,0,1-.26,0H3.67a4.18,4.18,0,0,0-.5,0Z"/><path class="cls-2" d="M30.44,32.86l.48-.12s.08.06.1.1c.38.57.81,1.1,1.22,1.63a1.82,1.82,0,0,1,.27.41.31.31,0,0,1-.21.47,5.81,5.81,0,0,1-.58.09,5,5,0,0,0-.67.16,2,2,0,0,0-1.09.9,3.11,3.11,0,0,0-.22.45c-.06.14,0,.17.1.2a7.53,7.53,0,0,0,.95.16,11,11,0,0,0,1.72.08c.57,0,1.13,0,1.69,0,.35,0,.7,0,1,0,.16,0,.19,0,.19-.21a3.54,3.54,0,0,0-.07-.92,4.67,4.67,0,0,0-.63-1.53c-.39-.68-.81-1.35-1.17-2-.08-.14-.14-.29-.21-.44s0-.08,0-.13l.44-.15a14.53,14.53,0,0,0,.74,1.41c.31.52.62,1,.91,1.57a4.28,4.28,0,0,1,.51,2.25,1.56,1.56,0,0,1-.08.42.31.31,0,0,1-.3.25l-.74.06h-.2a2.79,2.79,0,0,1-.5,0s-.1,0-.15,0h-.1c-.23,0-.46,0-.69,0a.26.26,0,0,0-.15,0H31.64l-.51-.06a8,8,0,0,1-1.47-.22,1.27,1.27,0,0,1-.32-.13.31.31,0,0,1-.18-.38,1.49,1.49,0,0,1,0-.18l-.48-.06a7.44,7.44,0,0,1-1.47-.33L27,36.41a.33.33,0,0,1-.18-.32,1.72,1.72,0,0,1,.16-.64,2.19,2.19,0,0,1,1.16-1.21A3.63,3.63,0,0,1,29,34l.72-.07-.44-.84.48-.11a.11.11,0,0,1,.07.08c.14.26.29.5.41.77l0,.1a.33.33,0,0,1-.29.49c-.22,0-.45,0-.67.06a3.56,3.56,0,0,0-1,.21,1.61,1.61,0,0,0-.89.92c-.2.46-.15.41.24.52a9.85,9.85,0,0,0,1.55.28.2.2,0,0,0,.23-.13A2.6,2.6,0,0,1,31.25,35a5.18,5.18,0,0,1,.59-.1.26.26,0,0,0-.09-.15c-.37-.47-.74-.94-1.09-1.44l-.2-.31A.13.13,0,0,1,30.44,32.86Z"/><path class="cls-3" d="M3.75,37.88h.82l0,0H3.75Z"/><path class="cls-4" d="M33,37.91l.19,0h.65v0Z"/><path class="cls-4" d="M34,37.88l.3,0h.35l-.19,0Z"/><path class="cls-5" d="M22.88,10.48a.48.48,0,0,0,.17,0,13,13,0,0,1,1.51.21,16.38,16.38,0,0,1,3.28.94,13.53,13.53,0,0,1,3.63,2.13A10.88,10.88,0,0,1,34,16.88a20.34,20.34,0,0,1,1.61,3.85,29.36,29.36,0,0,1,.92,3.81c.14.8.27,1.6.38,2.4.08.57.12,1.13.18,1.7,0,0,0,.06-.05.05a.18.18,0,0,1-.08-.07,7.2,7.2,0,0,0-.85-.72s-.13-.06-.11-.14a.82.82,0,0,0,.1-.48A10.94,10.94,0,0,0,36,25.47a26.46,26.46,0,0,0-.56-2.95,21.5,21.5,0,0,0-1.83-4.91A11.12,11.12,0,0,0,29,13a19.29,19.29,0,0,0-4.12-1.59c-.45-.12-.89-.23-1.32-.38a2.22,2.22,0,0,1-.81-.45,1.76,1.76,0,0,1-.42-.88,9,9,0,0,1-.18-1.47c0-.44-.05-.88-.05-1.31a5.1,5.1,0,0,1,.43-2.25,3.44,3.44,0,0,0,.27-.84,2.76,2.76,0,0,0,0-.76c0-.07.08-.09.14-.12a.72.72,0,0,0,.19-.11.17.17,0,0,0,0-.22.17.17,0,0,0-.2-.1.79.79,0,0,0-.23.09c-.06,0-.12.07-.2,0a1.69,1.69,0,0,0-.8-.72,4.2,4.2,0,0,0-1.38-.44,7.63,7.63,0,0,0-1.65-.16,8.72,8.72,0,0,0-2.53.43,3.11,3.11,0,0,0-1,.57.57.57,0,0,0-.12.23c-.08.07-.14,0-.21,0a.18.18,0,0,0-.16,0,.2.2,0,0,0-.12.12.22.22,0,0,0,0,.16c0,.08.14.11.16.19a3.25,3.25,0,0,1-.07.45A2.65,2.65,0,0,0,15,4.73,3.61,3.61,0,0,1,15.37,6a10.85,10.85,0,0,1,0,1.71c0,.24,0,.48,0,.72a10.78,10.78,0,0,1-.15,1.38,1.39,1.39,0,0,1-.91,1.1c-.57.22-1.17.37-1.76.54a18.62,18.62,0,0,0-3.67,1.43c-.18.1-.37.2-.55.32a.26.26,0,0,1-.18.06h0c-.25-.16-.25-.22,0-.37a15.25,15.25,0,0,1,2.72-1.26c.85-.3,1.71-.53,2.58-.75.24-.05.47-.12.7-.18a.76.76,0,0,0,.29-.13c.07-.06.17,0,.24,0l.05,0a.14.14,0,0,0,.11-.12h0A7.87,7.87,0,0,0,15,9c.06-.86,0-1.72.05-2.57a4.73,4.73,0,0,0,0-.54,1.84,1.84,0,0,0-.45-1,3.37,3.37,0,0,1-.51-.88A1.91,1.91,0,0,1,14.8,1.8a4.06,4.06,0,0,1,1.67-.67,17.46,17.46,0,0,1,2-.24A10.38,10.38,0,0,1,20.44,1a6.62,6.62,0,0,1,1.4.32,3,3,0,0,1,1.1.63,1.82,1.82,0,0,1,.5,2,3.85,3.85,0,0,1-.55,1,2.57,2.57,0,0,0-.42,1.44c0,.54,0,1.08,0,1.62a9.6,9.6,0,0,0,.19,1.85.9.9,0,0,0,.08.23.31.31,0,0,1,.06.23A.12.12,0,0,0,22.88,10.48Z"/><path class="cls-6" d="M4.42,31.58l-.48-.17a.29.29,0,0,1,0-.13,3.89,3.89,0,0,0-.35-1c-.29-.6-.61-1.19-.85-1.82,0-.13-.09-.26-.13-.39s-.1-.31-.15-.46a7,7,0,0,1-.2-1.51v-.3a1.7,1.7,0,0,1,0-.22.78.78,0,0,0,0-.22,6.67,6.67,0,0,1,1.25-3.09l.08-.12a7.82,7.82,0,0,1,1.12-1.25l.42-.38a14.92,14.92,0,0,1,2.22-1.46l2.49-1.48a.69.69,0,0,0,.3-.31,11.38,11.38,0,0,1,1.26-2,8.2,8.2,0,0,1,2.47-2.07,9.32,9.32,0,0,1,3.29-1,12.26,12.26,0,0,1,2-.11,10.69,10.69,0,0,1,3.71.72l.09,0,.08,0c.19.08.38.18.57.28a8.09,8.09,0,0,1,1.81,1.27,9.13,9.13,0,0,1,1.8,2.35c.11.21.22.41.32.62a.53.53,0,0,0,.24.23l2.95,1.76a11.24,11.24,0,0,1,1.66,1.08l.17.15a9.53,9.53,0,0,1,1.68,1.85l.15.23a6,6,0,0,1,.91,4.66c0,.16-.07.32-.12.47a11.63,11.63,0,0,1-1,2.27,6.32,6.32,0,0,0-.43,1,1,1,0,0,1-.09.33l-.47.16c-.06,0,0-.09,0-.14a3.29,3.29,0,0,1,.32-1.12l.18-.41c.2-.44.45-.86.63-1.31a6.42,6.42,0,0,0,.56-2.29,4.18,4.18,0,0,0-.12-1.45,6.12,6.12,0,0,0-1.13-2.37,8.49,8.49,0,0,0-1.17-1.3,9.65,9.65,0,0,0-1.07-.84l-.17-.09c-.9-.52-1.79-1.06-2.68-1.59-.36-.22-.71-.44-1.08-.64a1,1,0,0,1-.42-.46A10,10,0,0,0,26,15.78a7.67,7.67,0,0,0-2.85-2.33,9.22,9.22,0,0,0-2.66-.77,12.14,12.14,0,0,0-2-.11,10.75,10.75,0,0,0-2.76.44,8,8,0,0,0-2.89,1.58A8.27,8.27,0,0,0,11,16.79c-.16.27-.29.55-.44.83a1,1,0,0,1-.35.37L6.45,20.23a8.55,8.55,0,0,0-1.32,1,8.31,8.31,0,0,0-1.84,2.44,3.74,3.74,0,0,0-.27.7,4.93,4.93,0,0,0-.25,1.2,4.33,4.33,0,0,0,0,.72,7.31,7.31,0,0,0,.15,1,6.6,6.6,0,0,0,.33,1c.23.59.52,1.15.8,1.72a3.77,3.77,0,0,1,.39,1.11A.62.62,0,0,1,4.42,31.58Z"/><path class="cls-7" d="M29.09,32.66l-.93.19c-.34.07-.67.13-1,.18L26,33.22l-1.12.15-.63.07-.66.07-.46,0-.46,0-.68.05c-.33,0-.67,0-1,.06l-1.37,0-1.29,0-1.21,0-.67,0-1-.06-1.1-.08-1.33-.14-1.74-.25c-.91-.12-1.81-.3-2.71-.48l-.06,0c0-.07,0-.13,0-.18a4.45,4.45,0,0,0,.35-1.18s0-.1.08-.08a.48.48,0,0,0,.21.07c1.38.31,2.77.54,4.18.72.75.1,1.51.22,2.27.29l1.27.1c1,.07,1.93.06,2.89.05.52,0,1,0,1.54-.08s1.23-.08,1.85-.16,1.51-.24,2.27-.35c1-.15,2-.33,3-.56l.12,0c.06,0,.07,0,.08.1a5.12,5.12,0,0,0,.36,1.15A.15.15,0,0,1,29.09,32.66Z"/><path class="cls-6" d="M9,31.21c0,.12,0,.25-.07.37a4.91,4.91,0,0,1-.34,1,.26.26,0,0,0,0,.08L8,32.56c.11-.25.21-.5.3-.76a2.21,2.21,0,0,0,0-1.56c-.09-.26-.18-.53-.28-.78-.21-.53-.47-1-.65-1.58,0-.1-.07-.11-.15,0a2,2,0,0,0-.39.43.48.48,0,0,0,0,.45,3.74,3.74,0,0,0,.27.7,11.14,11.14,0,0,1,.46,1.13,3,3,0,0,1,.16,1,2.15,2.15,0,0,1-.21.79s0,.07-.08.08L7,32.31c0-.05,0-.1,0-.14a1.69,1.69,0,0,0,.09-1.34,7.18,7.18,0,0,0-.46-1.16c-.06-.14-.11-.28-.18-.41a1.57,1.57,0,0,1-.18-.63,2.53,2.53,0,0,1,0-.28A.69.69,0,0,1,6.41,28a5.15,5.15,0,0,1,1.3-1.25,7.12,7.12,0,0,1,1-.63,6,6,0,0,1,.67-.34,1.91,1.91,0,0,1,.34-.1.43.43,0,0,1,.48.19c.19.3.34.61.53.91a7.81,7.81,0,0,0,2.79,2.66,9.67,9.67,0,0,0,3.43,1.11c.52.07,1.05.1,1.58.12a12.75,12.75,0,0,0,3.37-.35A8.32,8.32,0,0,0,25,28.88a7,7,0,0,0,1.38-1.34c.2-.29.41-.58.6-.88s.26-.44.4-.66a.48.48,0,0,1,.68-.26,5.28,5.28,0,0,1,1.21.61,10.09,10.09,0,0,1,1.48,1.12c.11.1.19.22.3.32a1.07,1.07,0,0,1,.22,1.2c-.13.37-.29.71-.44,1.06-.05.12-.1.23-.14.35a3.35,3.35,0,0,0-.24.93,1.56,1.56,0,0,0,.17.82.29.29,0,0,1,0,.16l-.49.12a1.81,1.81,0,0,1-.27-.85,4,4,0,0,1,.44-1.78c0-.11.1-.22.14-.33s.14-.31.2-.47a.36.36,0,0,0,0-.09.67.67,0,0,0-.19-.9,1.14,1.14,0,0,1-.19-.19q-.08-.09-.12,0c-.13.37-.28.73-.44,1.09-.1.21-.17.42-.26.63s-.22.6-.3.91a2.08,2.08,0,0,0,0,1.21,6.09,6.09,0,0,0,.28.75.28.28,0,0,1,0,.12l-.5.1a5.56,5.56,0,0,1-.4-1.19c0-.06,0-.12,0-.17a1,1,0,0,1,0-.56A6.61,6.61,0,0,1,29.18,29c.19-.46.4-.92.56-1.39.08-.22.08-.23-.11-.36a9,9,0,0,0-1.45-.89c-.3-.14-.3-.14-.45.15a8.92,8.92,0,0,1-1.85,2.38,8.55,8.55,0,0,1-2.7,1.63,11.18,11.18,0,0,1-2.8.65,7.83,7.83,0,0,1-1.08.07c-.18,0-.36,0-.54,0a12.65,12.65,0,0,1-4.09-.66,8.65,8.65,0,0,1-3-1.79,9.44,9.44,0,0,1-1.81-2.37c-.11-.2-.13-.21-.33-.12a10.08,10.08,0,0,0-1.6,1,.2.2,0,0,0-.07.23c.1.33.25.65.38,1A13,13,0,0,1,9,30.41a3,3,0,0,1,.08.66C9,31.12,9,31.17,9,31.21Z"/><path class="cls-5" d="M22.88,10.48c-.11,0-.11,0-.09-.14a.25.25,0,0,0,0-.14,1,1,0,0,1-.12-.28,5.4,5.4,0,0,1-.11-.58,1.53,1.53,0,0,1,0-.3c0-.17,0-.34,0-.51-.05-.71,0-1.43,0-2.14a2.59,2.59,0,0,1,.25-1.13c.09-.17.21-.32.31-.49a3.18,3.18,0,0,0,.48-1,1.79,1.79,0,0,0-.13-1.18,1.85,1.85,0,0,0-.4-.55,2.83,2.83,0,0,0-.8-.52,4.72,4.72,0,0,0-.72-.25c-.23-.06-.46-.11-.7-.15L20,1c-.26,0-.52,0-.78-.06l-.44,0-.31,0-.31,0-.35,0-.64.08c-.25,0-.5.06-.75.11a4.49,4.49,0,0,0-1,.32,3.56,3.56,0,0,0-.6.34A1.77,1.77,0,0,0,14,3.05a1.92,1.92,0,0,0,.15,1.13,6.47,6.47,0,0,0,.59.94,1.36,1.36,0,0,1,.28.61,3.83,3.83,0,0,1,.07.58c0,.59,0,1.18,0,1.76,0,.31,0,.61-.06.91s0,.34,0,.51-.06.37-.09.56a.09.09,0,0,1,0,.06.24.24,0,0,0-.06.24l0,.05c0-.07,0-.14,0-.21V5.58a.24.24,0,0,0-.23-.26,2.08,2.08,0,0,1-.73-.23,1.81,1.81,0,0,1-1-1.5A4.25,4.25,0,0,1,13,2.36a1.78,1.78,0,0,1,.93-1.19A3.87,3.87,0,0,1,15,.77,11,11,0,0,1,16.73.54C17.49.48,18.26.46,19,.47c.55,0,1.11,0,1.66.05a11.63,11.63,0,0,1,2,.27,4.62,4.62,0,0,1,1.09.41,1.74,1.74,0,0,1,.88,1.21,3.67,3.67,0,0,1,0,1.44,1.74,1.74,0,0,1-1,1.28,2.11,2.11,0,0,1-.65.19.22.22,0,0,0-.22.25v4.65A.36.36,0,0,0,22.88,10.48Z"/><path class="cls-8" d="M6.72,32.74c-.33.52-.71,1-1.08,1.48l-.38.48a2.15,2.15,0,0,0-.14.26.25.25,0,0,0,.17.34,3.25,3.25,0,0,0,.43.08,4.27,4.27,0,0,1,.94.21,1.89,1.89,0,0,1,.83.59A3.09,3.09,0,0,1,8,37c0,.15,0,.16-.11.19-.32.06-.64.12-1,.16a10.87,10.87,0,0,1-1.61.09L4,37.41l-1.38,0-.38,0s-.07,0-.08-.07,0-.12,0-.18a4,4,0,0,1,.55-2.19c.35-.61.72-1.21,1.07-1.83.18-.34.34-.69.52-1l1,.31c.44.13.89.24,1.33.36Z"/><path class="cls-9" d="M33.34,32a12.92,12.92,0,0,0,.86,1.65c.27.46.55.93.81,1.4a3.76,3.76,0,0,1,.46,2v0c0,.21,0,.22-.22.23l-2.18,0c-.35,0-.71,0-1.07,0a10.53,10.53,0,0,1-2.17-.24c-.23-.06-.21,0-.13-.25a3.09,3.09,0,0,1,.48-.8,1.94,1.94,0,0,1,1.1-.64c.27-.06.55-.1.82-.15a1,1,0,0,0,.25-.06.24.24,0,0,0,.16-.33,1.22,1.22,0,0,0-.17-.29c-.23-.31-.47-.6-.7-.91s-.48-.68-.72-1l.55-.15,1.78-.53Z"/><path class="cls-5" d="M14.66,10.54c0,.06-.05.06-.1,0s-.08,0-.12,0a.61.61,0,0,1-.18.09l-1.35.36-1.36.39a13.53,13.53,0,0,0-1.65.6,12.19,12.19,0,0,0-1.41.68L8,13.05l.18.21c0,.07-.05.09-.09.12a11.79,11.79,0,0,0-2.1,1.69,12.66,12.66,0,0,0-1.56,2,17,17,0,0,0-1.53,3.3,25.61,25.61,0,0,0-1.08,4.22c-.11.69-.19,1.38-.24,2.08a5.92,5.92,0,0,0,0,1.19.3.3,0,0,0,.08.18c0,.06,0,.09-.06.11-.32.21-.64.42-.94.66,0,0-.07.05-.11,0,0-.35,0-.7.09-1.05s.09-.84.16-1.25c.09-.64.19-1.27.3-1.9.16-.94.37-1.87.61-2.79a23.89,23.89,0,0,1,1.48-4.1,12.53,12.53,0,0,1,1.61-2.58,11.33,11.33,0,0,1,3-2.5A15.61,15.61,0,0,1,11.83,11a17.74,17.74,0,0,1,1.9-.38C14,10.58,14.35,10.57,14.66,10.54Z"/><path class="cls-10" d="M6.47,29.24a9.74,9.74,0,0,1,.67,1.69,2.07,2.07,0,0,1,.07.41,1.5,1.5,0,0,1-.16.78c0,.06,0,.12-.08.19l-1-.25-1.5-.45-.07,0a2.61,2.61,0,0,0-.27-1.17c-.16-.35-.34-.69-.5-1s-.27-.59-.41-.89l0-.09c.08-.05.13,0,.17.06a.41.41,0,0,0,.2.14,5.31,5.31,0,0,0,1.12.31,4.32,4.32,0,0,1,.51.16,1.79,1.79,0,0,0,.46.09,1,1,0,0,1,.36.07.49.49,0,0,0,.29,0A.26.26,0,0,1,6.47,29.24Z"/><path class="cls-11" d="M30.44,32.86c.17.25.33.52.51.76s.58.76.87,1.13l.1.15-.55.09a2.86,2.86,0,0,0-1.19.5,2.75,2.75,0,0,0-.72.87.17.17,0,0,1-.18.11,9.09,9.09,0,0,1-1.87-.36c-.16-.06-.16-.06-.12-.22a2.08,2.08,0,0,1,.58-1,1.68,1.68,0,0,1,.87-.39l1-.12.39,0a.26.26,0,0,0,.2-.36,1.56,1.56,0,0,0-.14-.33l-.36-.7Z"/><path class="cls-12" d="M7.84,33l-.26.5-.21.42a.94.94,0,0,0,0,.16.24.24,0,0,0,.2.3c.13,0,.27,0,.41.06.31,0,.62.06.93.11a1.87,1.87,0,0,1,.34.08,1.52,1.52,0,0,1,.78.56,2,2,0,0,1,.36.74c0,.11,0,.13-.09.16a5.37,5.37,0,0,1-1,.26l-.75.11H8.33c-.07,0-.11,0-.15-.08a2.72,2.72,0,0,0-.63-.8A2.52,2.52,0,0,0,6.39,35l-.68-.13.09-.12,1-1.31c.14-.19.26-.4.39-.6Z"/><path class="cls-13" d="M33.69,31.41a1.81,1.81,0,0,1,.18-.69c.14-.33.3-.66.46-1A13.1,13.1,0,0,0,35,28.15c.05-.12.09-.25.13-.38s.1,0,.14.05a7.13,7.13,0,0,1,1.6,1.3,1.73,1.73,0,0,1,.17.21.12.12,0,0,1,0,.14,4.13,4.13,0,0,1-.9.77A12.66,12.66,0,0,1,33.69,31.41Z"/><path class="cls-13" d="M2.58,28.08c.08.2.15.42.24.62l.72,1.51a4.38,4.38,0,0,1,.35.91,2.93,2.93,0,0,1,0,.29,14.07,14.07,0,0,1-1.87-.81,6.2,6.2,0,0,1-1-.67,2,2,0,0,1-.47-.46c0-.1.11-.14.17-.19A10.4,10.4,0,0,1,2.48,28.1S2.54,28.06,2.58,28.08Z"/><path class="cls-14" d="M30.67,32.31A1.63,1.63,0,0,1,30.46,31c.06-.23.14-.44.21-.66a13.16,13.16,0,0,0,1.53-.24,5.63,5.63,0,0,0,1.07-.21.53.53,0,0,1,.43,0c-.06.13-.11.25-.16.38a3.66,3.66,0,0,0-.3.9,2.48,2.48,0,0,0,0,.38c-.3.1-.6.21-.91.29C31.77,32,31.22,32.16,30.67,32.31Z"/><path class="cls-15" d="M7.44,32.41a2.1,2.1,0,0,0,.25-1.1,3.47,3.47,0,0,0-.21-.9c-.1-.26-.21-.51-.31-.77a1.6,1.6,0,0,1-.1-.23.17.17,0,0,1,.13,0,3.29,3.29,0,0,1,.63.07.43.43,0,0,0,.25,0,4.85,4.85,0,0,1,.43,1.45,1.7,1.7,0,0,1-.09.74c-.09.28-.2.55-.31.83a.87.87,0,0,0-.08.1Z"/><path class="cls-16" d="M29.59,32.56l-.06-.08a5.46,5.46,0,0,1-.36-1,2.13,2.13,0,0,1,0-.94,5,5,0,0,1,.34-1,1.19,1.19,0,0,0,.65,0,1.18,1.18,0,0,1,.37-.09c-.08.18-.15.36-.23.55A4.84,4.84,0,0,0,30,31.1a2,2,0,0,0,.15,1.15l.06.18Z"/><path class="cls-17" d="M37.09,29.47a.56.56,0,0,0-.18-.27,7.18,7.18,0,0,0-1.77-1.43l.11-.46c.14,0,.23.11.35.16a3,3,0,0,1,.4.3l.64.51.4.37s0,0,.05,0,0,0,0,0l0,.63A.21.21,0,0,1,37.09,29.47Z"/><path class="cls-17" d="M2.58,28.08a10.74,10.74,0,0,0-2,1.39c-.05,0-.05-.08-.05-.13l0-.48.19-.14.83-.57.09-.07c.06-.12.18-.15.28-.2a3.3,3.3,0,0,0,.32-.18c.07,0,.13-.09.21-.07Z"/><path class="cls-5" d="M14.82,10.39c0,.1,0,.1-.11.12Z"/><path class="cls-3" d="M3,37.86l.65,0Z"/><path class="cls-18" d="M2.25,27.73l-.53.3-.08,0c-.08,0-.1-.07-.11-.15a5.54,5.54,0,0,1-.06-1c0-.19,0-.39.05-.58s0-.24,0-.37,0-.41.07-.61l.09-.68c0-.23.07-.45.12-.67.13-.6.26-1.19.41-1.79.08-.33.18-.66.29-1s.22-.72.35-1.08.29-.74.44-1.1.3-.69.47-1,.39-.71.61-1.05.46-.69.71-1a7,7,0,0,1,.49-.59c.21-.23.44-.47.67-.69a5.62,5.62,0,0,1,.64-.55c.34-.27.7-.51,1-.76l.16-.12.12,0a10.28,10.28,0,0,1,1.47-.77c.39-.17.79-.35,1.2-.5s.77-.26,1.15-.38l1-.29L14,11a3.15,3.15,0,0,0,.65-.29,1.23,1.23,0,0,0,.54-.84c0-.2.07-.39.1-.59s0-.28,0-.42l.06-.61v0c0-.59,0-1.17,0-1.75A3.63,3.63,0,0,0,15,4.94a6.91,6.91,0,0,1-.29-.7,1.83,1.83,0,0,1,0-1.2.22.22,0,0,0,0-.08.12.12,0,0,1,.14,0,7.3,7.3,0,0,0,.84.33.15.15,0,0,1,.12.08,3.2,3.2,0,0,1-.1.42,3.15,3.15,0,0,0,0,.92A9.5,9.5,0,0,1,15.9,6c0,.5,0,1,0,1.5,0,.31,0,.61-.07.91a6.88,6.88,0,0,1-.34,1.74,2.11,2.11,0,0,1-1.15,1.18,13.47,13.47,0,0,1-1.75.62,20.17,20.17,0,0,0-3.34,1.36A12.44,12.44,0,0,0,6.89,15,11.56,11.56,0,0,0,4.5,18a19,19,0,0,0-1.63,4.12,20.65,20.65,0,0,0-.54,2.48c0,.22-.06.44-.09.66a.14.14,0,0,0,0,.11l0,.23s0,0,0,0a.49.49,0,0,0,0,.24h0v.31s-.06,0-.08,0c0,.17,0,.35,0,.52a3.93,3.93,0,0,0,.11,1.08A.06.06,0,0,1,2.25,27.73Z"/><path class="cls-18" d="M36,27.77l-.41-.27a1.59,1.59,0,0,0,.07-.48,15.16,15.16,0,0,0-.47-3.91,21,21,0,0,0-.69-2.47,16.8,16.8,0,0,0-1.61-3.53,9.5,9.5,0,0,0-1.08-1.44,11.3,11.3,0,0,0-2.17-1.86,15.22,15.22,0,0,0-3.12-1.51c-.9-.34-1.84-.58-2.76-.89a4.13,4.13,0,0,1-.75-.32,2,2,0,0,1-1-1.27,8.75,8.75,0,0,1-.26-1.6,14.08,14.08,0,0,1-.07-1.45A6.82,6.82,0,0,1,21.89,5a5,5,0,0,0,.17-1.22A3,3,0,0,0,22,3.38s0-.06.08-.08l.6-.23s.07,0,.11,0a1.93,1.93,0,0,1-.06,1.14c-.08.27-.19.52-.29.79a4,4,0,0,0-.24.85,5.52,5.52,0,0,0-.05.71c0,.2,0,.4,0,.59s0,.58,0,.86,0,.52.06.77.1.67.17,1a1.61,1.61,0,0,0,.26.62,1.31,1.31,0,0,0,.43.38,6,6,0,0,0,1.23.44l1.2.34.86.26c.49.17,1,.35,1.47.57.32.15.65.3,1,.47a9,9,0,0,1,1.23.72l.9.69a10.85,10.85,0,0,1,1.15,1.1,6.19,6.19,0,0,1,.47.55c.16.21.31.41.46.63s.23.36.34.55c.26.49.52,1,.76,1.46A12.74,12.74,0,0,1,34.69,20q.16.43.3.87c.13.42.26.85.37,1.28s.23.9.32,1.35.14.75.21,1.12c0,.21.08.41.11.61l.06.52c0,.28.06.56.08.84s0,.36,0,.54a4.19,4.19,0,0,1,0,.5C36.11,27.7,36.09,27.77,36,27.77Z"/><path class="cls-18" d="M15,2.57a.28.28,0,0,1,.14-.28,3.45,3.45,0,0,1,1.46-.72c.27-.06.54-.12.81-.16s.37,0,.56-.06a4.7,4.7,0,0,1,1-.05,3.79,3.79,0,0,1,.58.05c.22,0,.45,0,.68.08a4.88,4.88,0,0,1,1.54.5,2.22,2.22,0,0,1,.64.5.3.3,0,0,1,.1.22c0,.09-.12.09-.2.1h-6.9A.52.52,0,0,1,15,2.57Z"/><path class="cls-1" d="M15,2.57l.36.15c.32.06.63.19.94.28a11,11,0,0,0,2.13.34,9.22,9.22,0,0,0,3.68-.57,1.55,1.55,0,0,1,.23,0l.16-.07.32-.15a.23.23,0,0,1,.26,0,.21.21,0,0,1,.09.22.24.24,0,0,1-.13.17l-.29.15-.78.3c0,.06-.09.06-.14.08a11.1,11.1,0,0,1-1.49.35,10.06,10.06,0,0,1-2.95,0c-.49-.09-1-.19-1.45-.32-.07,0-.15,0-.18-.11L15,3.07,14.71,3a.31.31,0,0,1-.17-.17.29.29,0,0,1,0-.16.23.23,0,0,1,.15-.15h.16Z"/><path class="cls-5" d="M14.85,2.48h-.16A.15.15,0,0,1,14.85,2.48Z"/><path class="cls-5" d="M14.54,2.63v.16A.12.12,0,0,1,14.54,2.63Z"/><path class="cls-19" d="M5.11,21.22l.5-.45a10.85,10.85,0,0,1,1.51-1c1-.63,2.1-1.26,3.16-1.88a.62.62,0,0,0,.22-.26c.16-.29.3-.58.47-.87a8,8,0,0,1,2.89-3,8.51,8.51,0,0,1,2.66-1,11.64,11.64,0,0,1,2.7-.22,10.32,10.32,0,0,1,3.16.58,7.71,7.71,0,0,1,3,1.91c.13.14.25.28.37.43s.4.48.57.74.35.58.52.88.19.36.28.54a.76.76,0,0,0,.31.33l1.38.81,1,.61,1.15.69.29.17c0,.08,0,.12-.07.14H27.83a.57.57,0,0,1-.36-.09.35.35,0,0,1-.15-.07,4.89,4.89,0,0,0-1.91-.91.2.2,0,0,0-.1,0,.22.22,0,0,1-.23-.16A6.77,6.77,0,0,0,23.83,17a7,7,0,0,0-1.71-1.4,6.58,6.58,0,0,0-2.68-.88,6.67,6.67,0,0,0-3.52.55,6.84,6.84,0,0,0-2.12,1.49,6.67,6.67,0,0,0-1.48,2.32.36.36,0,0,1-.28.25,4.56,4.56,0,0,0-1.6.77,5.35,5.35,0,0,0-.9.75.46.46,0,0,1-.07.07.21.21,0,0,0,0,.29.18.18,0,0,0,.27,0l.56-.5a4.64,4.64,0,0,1,1.84-1l.17,0,.1,0h.13a.5.5,0,0,0,.17,0,.67.67,0,0,1,.2,0l.15,0a2.2,2.2,0,0,1,1.71.91,1.56,1.56,0,0,1,.22.59.51.51,0,0,0,0,.13,1.31,1.31,0,0,1,0,.28c0,.07,0,.15,0,.22l0,0a.3.3,0,0,1-.25.1H6.28a.72.72,0,0,1-.49-.14c-.1-.08-.25-.08-.37-.15s-.16-.1-.16-.21,0-.07-.08-.09S5.09,21.29,5.11,21.22Z"/><path class="cls-20" d="M17.41,3.76l.73.07c.34,0,.68,0,1,0s.75-.06,1.13-.09h.11a.19.19,0,0,1,.25.13A2.47,2.47,0,0,1,20.94,5c0,.51,0,1,.06,1.52a15,15,0,0,0,.37,2.83,3.83,3.83,0,0,0,.73,1.6,3.57,3.57,0,0,0,1.23.88c.57.25,1.17.44,1.76.64a22.47,22.47,0,0,1,2.75,1.09,11.7,11.7,0,0,1,2.85,1.92,10.54,10.54,0,0,1,2.18,2.87,19.06,19.06,0,0,1,1.32,3.28c.09.29.18.59.25.89,0,.13,0,.15-.1.17-.13-.18-.25-.36-.38-.53a9.45,9.45,0,0,0-1.32-1.43.47.47,0,0,1-.1-.1.52.52,0,0,0,0-.24,11.61,11.61,0,0,0-1.68-3,9.88,9.88,0,0,0-1.92-1.79,12.61,12.61,0,0,0-1.66-1,27.28,27.28,0,0,0-2.62-1.09l-.77-.3a.7.7,0,0,0-.25-.05L23,12.84a0,0,0,0,0-.06,0l-.08,0a.51.51,0,0,0-.21-.15,5.62,5.62,0,0,1-1.23-1,4.83,4.83,0,0,1-.75-1A11.3,11.3,0,0,1,20,8.85c-.17-.49-.34-1-.55-1.48a2.73,2.73,0,0,0-.32-.55.48.48,0,0,0-.8,0,2.63,2.63,0,0,0-.43.77c-.24.58-.42,1.18-.63,1.78a8,8,0,0,1-.79,1.73,4.86,4.86,0,0,1-1.82,1.61,26.3,26.3,0,0,1-2.56,1.1,15.45,15.45,0,0,0-2.63,1.33A11,11,0,0,0,7.3,16.9,11.11,11.11,0,0,0,5.82,19q-.35.63-.63,1.29a1.38,1.38,0,0,0-.08.27c-.16.14-.32.27-.47.42s-.24.26-.37.39l-.07.08-.31.36c-.1.11-.19.23-.28.35s-.11,0-.1-.1a2.62,2.62,0,0,1,.11-.4A18.68,18.68,0,0,1,4.77,18.8a12.82,12.82,0,0,1,1.72-2.55,11.32,11.32,0,0,1,3-2.38,19.59,19.59,0,0,1,3.12-1.35,13.23,13.23,0,0,0,1.71-.68,3.2,3.2,0,0,0,1.75-2.11,12.52,12.52,0,0,0,.37-2c.08-.59.12-1.18.16-1.78,0-.31,0-.62.09-.93a1.94,1.94,0,0,1,.57-1.16S17.36,3.74,17.41,3.76Z"/><path class="cls-21" d="M5.11,21.22a.19.19,0,0,0,.13.13c.09,0,.08,0,.06.14s0,.07,0,.08.23.16.39.16a.12.12,0,0,1,.09.05.55.55,0,0,0,.39.14h8.44a.48.48,0,0,0,.32-.09c0,.05,0,.11,0,.16a1.74,1.74,0,0,1-.91,1.18,3.52,3.52,0,0,1-1.35.36,5.59,5.59,0,0,1-1.73-.1l-.3-.08a.2.2,0,0,0-.27.11.21.21,0,0,0,.15.26,4.75,4.75,0,0,0,.91.19,3.64,3.64,0,0,0,.66,0,.24.24,0,0,1,.25.16A6.76,6.76,0,0,0,14,26.48l.28.25s.09.07.08.14-.16.09-.25.09H11.05a.38.38,0,0,1-.37-.16l-.39-.65-.15-.25a.4.4,0,0,0-.43-.17A2.25,2.25,0,0,0,9.1,26l-.4.21a1.63,1.63,0,0,1-.31,0H5.28a1.07,1.07,0,0,1-.68-.26,2.82,2.82,0,0,0-.29-.18c-.19-.13-.37-.26-.55-.41a.6.6,0,0,1-.19-.23.1.1,0,0,0,0-.05c-.2-.08-.27-.3-.42-.43A.28.28,0,0,1,3,24.35c.08-.21.15-.42.25-.63a7.31,7.31,0,0,1,1.17-1.78C4.63,21.69,4.87,21.46,5.11,21.22Z"/><path class="cls-22" d="M31,27.8A9,9,0,0,0,28.62,26a2.48,2.48,0,0,0-.68-.27.39.39,0,0,0-.46.18c-.13.2-.24.42-.37.63a10.77,10.77,0,0,1-.61.89,1,1,0,0,0-.08.11.29.29,0,0,1-.2.05H22.29a.31.31,0,0,1-.21-.05c0-.1,0-.12.09-.15l.6-.4A6.81,6.81,0,0,0,25,24.1a.24.24,0,0,1,.24-.17,6.46,6.46,0,0,0,.88,0c.06,0,.11.06.17,0a.09.09,0,0,1,.1,0,.25.25,0,0,0,.12,0h.77c-.08,0-.21,0-.21-.05s.14-.06.21-.06c1.6,0,3.2,0,4.8,0a1.39,1.39,0,0,0,.61-.21.65.65,0,0,0,.17-.22.39.39,0,0,1,.21-.19c.26-.09.33-.34.43-.56s0-.15.11-.2c.17.26.36.51.52.78a5.77,5.77,0,0,1,.68,1.8,4.24,4.24,0,0,1,.07,1.28.47.47,0,0,1-.22.22.62.62,0,0,0-.27.21s-.07,0-.11.05a.61.61,0,0,0-.39.28.19.19,0,0,1-.11.09,4.68,4.68,0,0,1-.72.24.58.58,0,0,0-.18.08.38.38,0,0,1-.38.06.15.15,0,0,0-.13,0,3.1,3.1,0,0,1-.39.09c-.22.08-.48,0-.67.22S31.12,27.86,31,27.8Z"/><path class="cls-23" d="M33.62,22.44a.88.88,0,0,1-.07.29c-.09.11-.12.24-.21.35a.53.53,0,0,1-.19.13.69.69,0,0,1-.15.07s0,0,0,0a.89.89,0,0,1-.08.17s-.11.05-.11.13,0,0-.06.07-.22.1-.33.15a.58.58,0,0,1-.18,0H27.1v0h5.09a.57.57,0,0,1,.13,0l.06.05s0,0-.06,0,0,0-.06,0H26.51c-.05,0-.12,0-.14,0s.11-.05.16-.07a3,3,0,0,0,.41-.09.58.58,0,0,0,.17-.06.19.19,0,0,0,.09-.26.18.18,0,0,0-.24-.1,4.16,4.16,0,0,1-.92.18,4.31,4.31,0,0,1-2.48-.36,1.71,1.71,0,0,1-.95-1.47,1.85,1.85,0,0,1,.09-.81,1.74,1.74,0,0,1,1-1,2.87,2.87,0,0,1,2.43.08,5.74,5.74,0,0,1,1.6,1.13l.14.13a.21.21,0,0,0,.28,0,.21.21,0,0,0,0-.29,6,6,0,0,0-.58-.54c-.05,0-.12-.06-.12-.15s.09,0,.1,0,.13.07.2.07h3.33s.05,0,.07,0,.11,0,.1-.11a1.57,1.57,0,0,1,.25.14,9.32,9.32,0,0,1,2.1,2A.21.21,0,0,1,33.62,22.44Z"/><path class="cls-24" d="M5.11,20.57a.18.18,0,0,1,0-.2l.21-.48a12.91,12.91,0,0,1,1-1.81c.21-.3.44-.59.67-.89a7.8,7.8,0,0,1,1-1,9.76,9.76,0,0,1,.88-.71c.35-.25.71-.47,1.06-.7l.26-.14.7-.35.68-.32,1.15-.47c.49-.19,1-.38,1.47-.61a6.33,6.33,0,0,0,1.27-.77,7.53,7.53,0,0,0,.57-.56,3.6,3.6,0,0,0,.49-.67,6.91,6.91,0,0,0,.47-1c.21-.58.4-1.16.61-1.75.11-.3.23-.61.37-.9a1.88,1.88,0,0,1,.31-.48.5.5,0,0,1,.8,0,2.29,2.29,0,0,1,.43.78c.18.48.35,1,.53,1.46a10,10,0,0,0,.68,1.63,4.53,4.53,0,0,0,.73,1,4.74,4.74,0,0,0,.88.73c.16.11.34.21.51.31s.08,0,0,.09c-.26-.09-.51-.19-.77-.27a10.67,10.67,0,0,0-1.87-.37A12.18,12.18,0,0,0,18,12.09a9.76,9.76,0,0,0-4,1.07,8.16,8.16,0,0,0-3.17,3c-.24.38-.45.79-.66,1.19a.67.67,0,0,1-.26.27q-2,1.15-3.89,2.32c-.27.16-.5.37-.76.56Z"/><path class="cls-25" d="M34.34,22.64c.08,0,.09-.06.07-.12s-.09-.38-.15-.56c-.14-.45-.27-.89-.43-1.33s-.36-.94-.55-1.4c-.09-.23-.19-.45-.3-.67a12.89,12.89,0,0,0-1.07-1.74c-.21-.28-.45-.53-.67-.79a4.59,4.59,0,0,0-.37-.39c-.25-.23-.51-.45-.77-.67A8.49,8.49,0,0,0,29,14.22c-.21-.14-.43-.26-.64-.38s-.61-.32-.92-.46-.86-.37-1.29-.53c-.59-.22-1.18-.41-1.78-.62a9.32,9.32,0,0,1-1.35-.55,3.2,3.2,0,0,1-.87-.62,2.52,2.52,0,0,1-.57-.88c-.1-.28-.21-.57-.28-.85s-.13-.65-.19-1-.07-.51-.11-.77l0-.43c0-.2,0-.39-.05-.59v-.1c0-.4,0-.81,0-1.21a3.27,3.27,0,0,0-.19-1.08l-.12-.28c-.05-.09-.11-.15-.22-.13l.47-.1L22,3.37a.57.57,0,0,1,.08.36A3.85,3.85,0,0,1,22,4.85c-.06.31-.13.62-.17.93a4.38,4.38,0,0,0,0,.51c0,.13,0,.25,0,.38a.29.29,0,0,0,0,.13,4.1,4.1,0,0,1,0,.7l.06.63c0,.11,0,.22,0,.33a6.61,6.61,0,0,0,.23,1.33,2,2,0,0,0,.55,1,2.31,2.31,0,0,0,.65.41,14.65,14.65,0,0,0,1.58.53l1.86.62a14.23,14.23,0,0,1,2.07.93,9.8,9.8,0,0,1,1.5,1q.39.3.75.63l.69.66c.16.17.3.35.45.53a7.44,7.44,0,0,1,.67.92c.18.29.35.58.51.88s.38.76.56,1.15.25.6.37.9.21.58.3.87c.24.71.44,1.42.61,2.14.08.35.16.69.22,1s.1.61.15.92.09.56.11.83,0,.7,0,1.06c0,.2,0,.41,0,.62a.14.14,0,0,1-.08.13l-.34-.19c0-.23.08-.47.1-.7a5.71,5.71,0,0,0,0-1.24,6.38,6.38,0,0,0-1-2.68Z"/><path class="cls-26" d="M17.41,3.76a4.47,4.47,0,0,0-.34.4,2.17,2.17,0,0,0-.3.85,7,7,0,0,0-.09.93c0,.25,0,.49-.05.74s-.05.59-.09.89-.07.49-.1.74a10.14,10.14,0,0,1-.23,1.2,4.16,4.16,0,0,1-.51,1.23,2.69,2.69,0,0,1-.26.33,2.93,2.93,0,0,1-.85.68,5.72,5.72,0,0,1-.75.36c-.55.22-1.12.41-1.67.62s-.89.35-1.32.53-.73.33-1.08.51a10.92,10.92,0,0,0-1.49.93c-.28.22-.57.43-.84.66s-.48.47-.72.71-.2.21-.29.32-.41.5-.6.76a11.82,11.82,0,0,0-.91,1.45,14.24,14.24,0,0,0-.84,1.87c-.14.39-.28.78-.41,1.17,0,.14-.09.3-.13.45s0,.08.07.08l-.08.12a7.13,7.13,0,0,0-1.1,2.27c-.06.26-.1.53-.16.8-.07,0-.08,0-.07-.1L2.41,24c.09-.56.23-1.11.37-1.66.06-.24.14-.48.21-.73s.24-.74.37-1.11.3-.78.47-1.16.31-.69.48-1,.34-.61.52-.9.4-.6.61-.89L5.87,16a7.1,7.1,0,0,1,.75-.8c.24-.22.49-.44.75-.64s.67-.51,1-.74A12.59,12.59,0,0,1,9.89,13a15.06,15.06,0,0,1,1.49-.62l1.1-.38,1.2-.39a4.6,4.6,0,0,0,1.05-.5,1.89,1.89,0,0,0,.73-.92,3.56,3.56,0,0,0,.22-.91c0-.25.08-.5.11-.75s0-.31,0-.46l.06-.62V6.29a5.12,5.12,0,0,0-.08-.87c-.05-.28-.07-.57-.12-.85a2.76,2.76,0,0,1,0-.64,1.4,1.4,0,0,1,.14-.56l.78.22.45.09Z"/><path class="cls-24" d="M23.59,13.12a.17.17,0,0,1,.18,0l2.32.9.78.34c.17.08.34.15.51.25.42.23.84.46,1.25.71s.59.44.88.66a8,8,0,0,1,1,.94,8.92,8.92,0,0,1,.67.85A8.42,8.42,0,0,1,31.9,19c.23.44.42.9.62,1.36l.06.19s0,.08,0,.08-.37-.31-.57-.44c-.37-.24-.74-.47-1.12-.69-1-.63-2.09-1.25-3.14-1.87a.56.56,0,0,1-.22-.24,11.49,11.49,0,0,0-.82-1.45,8.26,8.26,0,0,0-3-2.73Z"/><path class="cls-27" d="M31,27.8h.07c.08.08.16,0,.23,0a.46.46,0,0,1,.37-.13s.05,0,.06,0,.32,0,.47-.1a.56.56,0,0,1,.42,0c.05,0,.13,0,.2-.07l.25-.1a1.28,1.28,0,0,0,.46-.17.42.42,0,0,1,.16,0,.27.27,0,0,0,.17-.13.53.53,0,0,1,.35-.25.24.24,0,0,0,.19-.13.11.11,0,0,1,.08-.07.69.69,0,0,0,.32-.21l.06-.05a4,4,0,0,1-.09.85A8,8,0,0,1,34,29.27l-.33.64a2,2,0,0,0-.69.14,1.06,1.06,0,0,1-.39.06.41.41,0,0,0-.16,0,6,6,0,0,1-.72.12c-.2,0-.4.08-.6.12l-.34,0-.13,0,.2-.51c.1-.24.22-.48.32-.72a1.94,1.94,0,0,0,.15-.63.68.68,0,0,0-.12-.44C31.16,28,31.09,27.89,31,27.8Z"/><path class="cls-28" d="M3,24.35a.43.43,0,0,0,.2.29.26.26,0,0,1,.1.13.26.26,0,0,0,.12.15c.09,0,.2.09.21.21s.23.3.42.35.08.07.12.1,0,.06,0,.07l.33.16a.1.1,0,0,1,0,0,.62.62,0,0,0,.26.17c.07,0,.13.1.22.11H8.45l.25,0c-.25.15-.5.3-.74.47s-.39.29-.58.44a6,6,0,0,0-.48.4,5.46,5.46,0,0,0-.38.44l-.09.1a.89.89,0,0,1-.81,0,1.57,1.57,0,0,1-.41-.28l-.09-.05c-.33,0-.62-.22-.94-.26a.19.19,0,0,1-.09,0,1,1,0,0,0-.32-.16.29.29,0,0,1-.13-.14.39.39,0,0,0-.26-.21.29.29,0,0,1-.13-.08,1.81,1.81,0,0,0-.41-.32.23.23,0,0,1-.1-.22,4.73,4.73,0,0,1,0-.65A3.68,3.68,0,0,1,3,24.35Z"/><path class="cls-29" d="M2.75,25.57v.53a.55.55,0,0,0,.07.28s.05,0,.08.06a.8.8,0,0,1,.29.23.41.41,0,0,0,.23.14.32.32,0,0,1,.23.19.29.29,0,0,0,.25.19.26.26,0,0,1,.13.08.26.26,0,0,0,.22.09h.08l.48.18.29.07a.26.26,0,0,1,.13.06,2.08,2.08,0,0,0,.43.3.57.57,0,0,0,.34.08l.43,0-.13.31a.76.76,0,0,0,0,.3,2,2,0,0,0,.17.61.59.59,0,0,1-.47,0,1,1,0,0,0-.51-.07s0,0,0,0-.25-.07-.37-.12a1.66,1.66,0,0,0-.45-.12,6.52,6.52,0,0,1-1-.31c-.1,0-.2-.06-.24-.18s-.09,0-.13-.06a4.79,4.79,0,0,1-.32-1,6.24,6.24,0,0,1-.17-1.73Z"/><path class="cls-26" d="M2.25,27.73a.7.7,0,0,1-.11-.42c0-.3,0-.6,0-.91,0-.12,0-.24,0-.37l.11.08a7,7,0,0,0,.19,1.45.2.2,0,0,1,0,.07Z"/><path class="cls-26" d="M2.25,25.8l-.11,0c.06-.13,0-.27.1-.38v.34Z"/><path class="cls-24" d="M23,12.82l.06,0v0Z"/><path class="cls-30" d="M9,31.21a4,4,0,0,0-.34-1.63c-.19-.49-.41-1-.61-1.47-.08-.21-.15-.43-.23-.65a.14.14,0,0,1,.06-.17,9.59,9.59,0,0,1,1.49-.94l.32-.13a.09.09,0,0,1,.14.05l.33.58a8.36,8.36,0,0,0,4.78,3.79,11.22,11.22,0,0,0,2,.44,13.91,13.91,0,0,0,2,.12,12.42,12.42,0,0,0,3.68-.54,8.55,8.55,0,0,0,3.78-2.35,9.94,9.94,0,0,0,1.3-1.85l.1-.19c0-.07.08-.08.14-.05l.26.1a10.58,10.58,0,0,1,1.57,1,.11.11,0,0,1,0,.15l-.35,1c-.2.5-.41,1-.6,1.5a3.15,3.15,0,0,0-.22,1.39l-.2.05-1.33.28c-.3.06-.59.12-.89.16s-.67.1-1,.15l-.61.1-.79.12-.72.11-.64.06-.47.05-.38,0-.58,0c-.28,0-.55,0-.83,0s-.78,0-1.17,0h-.88l-1,0-.81-.05-.76-.08L15,32.27l-.71-.1-.67-.09L12.86,32l-.47-.06-.45-.06-.61-.11-1-.17-1.19-.24-.09,0C9,31.3,9,31.25,9,31.21Z"/><path class="cls-31" d="M22.07,27.5l.08.05h4.27c-.2.23-.38.46-.6.67a8.14,8.14,0,0,1-3.47,2,9.37,9.37,0,0,1-1.57.35c-.45.06-.9.09-1.36.11s-.91,0-1.37,0a11.72,11.72,0,0,1-1.44-.15,10.26,10.26,0,0,1-1.83-.48A8,8,0,0,1,11.5,27.9a7.65,7.65,0,0,1-.78-1l0-.08a.49.49,0,0,0,.35.11h3.12c.08,0,.17,0,.2-.08s.14.06.2.11A7.13,7.13,0,0,0,16.61,28a6.42,6.42,0,0,0,1.56.3,6.76,6.76,0,0,0,3.77-.79S22,27.47,22.07,27.5Z"/><path class="cls-32" d="M30.53,29.47a1.62,1.62,0,0,1-.68.16h-.26c-.06,0-.09,0-.08-.08s.11-.31.17-.46c.2-.46.41-.91.57-1.39l0,0,.48.49a.4.4,0,0,1,.08.42c-.05.17-.11.34-.18.52Z"/><path class="cls-33" d="M8.08,29.44c0,.07-.05.09-.12.07a3.33,3.33,0,0,0-.89-.1,3.67,3.67,0,0,1-.29-.74.54.54,0,0,1,.12-.51,4.29,4.29,0,0,1,.48-.47l.06.17c.19.46.37.92.56,1.37Z"/><path class="cls-10" d="M6.3,28.63a.39.39,0,0,1,0-.3Z"/><path class="cls-34" d="M22.38,2.72c-.28.1-.55.2-.84.29a8,8,0,0,1-1.37.3l-.71.07-.52,0A10,10,0,0,1,16.34,3c-.28-.07-.55-.17-.83-.26l-.11,0h7Z"/><path class="cls-2" d="M22.07,27.5c-.3.14-.6.3-.91.42a5.81,5.81,0,0,1-1.64.41,6.75,6.75,0,0,1-5-1.39l-.15-.11c-.26-.25-.53-.49-.78-.76a6.68,6.68,0,0,1-1.21-1.93.32.32,0,0,1,0-.09.11.11,0,0,0-.11-.07h-.44a5.11,5.11,0,0,1-1.16-.19l-.12,0a.24.24,0,0,1-.12-.29.23.23,0,0,1,.29-.15c.22.05.44.12.67.15a5.11,5.11,0,0,0,1.17.06,4.2,4.2,0,0,0,1.06-.18,2.19,2.19,0,0,0,.79-.4,1.66,1.66,0,0,0,.6-1v-.06s0,0,0,0,0-.13,0-.2v-.3s0-.08,0-.12a1.54,1.54,0,0,0-.45-.85A1.92,1.92,0,0,0,14,20a1.9,1.9,0,0,0-.72-.23l-.22,0c-.05,0-.1,0-.14,0h-.23c-.05,0-.11,0-.17,0h-.13s-.06,0-.09,0a2,2,0,0,0-.58.15,5.23,5.23,0,0,0-1.15.65,7.36,7.36,0,0,0-.79.69.57.57,0,0,1-.13.08.2.2,0,0,1-.28-.19.23.23,0,0,1,.08-.23,2.08,2.08,0,0,0,.21-.21l.38-.32a6.09,6.09,0,0,1,.83-.57,3.94,3.94,0,0,1,1.24-.5c.08,0,.11-.06.13-.13a6.91,6.91,0,0,1,2.32-3.12,6.84,6.84,0,0,1,8.44.16,6.66,6.66,0,0,1,1.73,2.11c.13.26.25.53.37.8s.05.13.19.14.06,0,.09,0a3.82,3.82,0,0,1,1.22.45c.27.16.52.34.77.5l0,0,.68.61.09.09a.23.23,0,0,1,0,.3.22.22,0,0,1-.3,0,.63.63,0,0,1-.12-.11A6.1,6.1,0,0,0,26.09,20a2.89,2.89,0,0,0-1.35-.29,2.55,2.55,0,0,0-1.39.42,1.54,1.54,0,0,0-.69,1,1.82,1.82,0,0,0,1,2,3.37,3.37,0,0,0,1.06.3,5,5,0,0,0,1.22,0,3.92,3.92,0,0,0,1-.2.23.23,0,0,1,.31.26.21.21,0,0,1-.16.19l-.52.14-.21,0-.09,0a.15.15,0,0,1-.13,0l-1,0c-.07,0-.09,0-.11.1a7.21,7.21,0,0,1-.55,1.07,6.86,6.86,0,0,1-2.41,2.33Z"/><path class="cls-21" d="M15,21.61l0,.2Z"/><path class="cls-21" d="M12.54,19.72l.17,0Z"/><path class="cls-21" d="M12.94,19.7l.14,0Z"/><path class="cls-21" d="M15,21.19v0Z"/><path class="cls-21" d="M12.32,19.75l.09,0Z"/><path class="cls-23" d="M25.4,19.28l-.09,0Z"/><path class="cls-23" d="M26.15,24h.13v0Z"/><path class="cls-35" d="M23.43,23.59a4.16,4.16,0,0,0,1.09.33c.08,0,.09,0,.06.09s-.2.43-.32.64a6.33,6.33,0,0,1-4.21,3.12,6.22,6.22,0,0,1-2.11.1,6.41,6.41,0,0,1-5.08-3.77s0-.08-.06-.14l.27,0a3.51,3.51,0,0,0,.95-.25h0a6.11,6.11,0,0,1,.36.61,5.06,5.06,0,0,0,2.24,1.93,5.21,5.21,0,0,0,1.77.42A4.91,4.91,0,0,0,21.22,26a5,5,0,0,0,2.09-2.23A.21.21,0,0,1,23.43,23.59Z"/><path class="cls-36" d="M23.43,23.59a6.9,6.9,0,0,1-.55.95c-.1.14-.22.27-.33.4a1.93,1.93,0,0,1-.27.3,5.68,5.68,0,0,1-1,.75,5.43,5.43,0,0,1-1.49.58,4.82,4.82,0,0,1-.75.1l-.36,0-.56-.05a3.83,3.83,0,0,1-.95-.2,4.19,4.19,0,0,1-.59-.22,4.54,4.54,0,0,1-1.07-.66c-.17-.15-.34-.29-.5-.45a4.22,4.22,0,0,1-.7-.92l-.25-.44s0-.06,0-.08a3.79,3.79,0,0,0,.72-.45c.06,0,.07.07.09.12a4.15,4.15,0,0,0,3.34,2.42,4,4,0,0,0,3.26-1,4.17,4.17,0,0,0,1.19-1.62.29.29,0,0,1,.07-.12c.15.13.3.27.46.39A2.2,2.2,0,0,0,23.43,23.59Z"/><path class="cls-37" d="M13.93,19.42l-.61-.16c0-.1,0-.18.07-.26a5.72,5.72,0,0,1,.8-1.26,5.85,5.85,0,0,1,1.94-1.51,5.91,5.91,0,0,1,7.23,1.68,6.85,6.85,0,0,1,.74,1.25s.07.1,0,.14l-.55.17c-.12-.17-.19-.37-.3-.55a5.24,5.24,0,0,0-3-2.4,4.67,4.67,0,0,0-1.52-.22,5.21,5.21,0,0,0-3.46,1.33A5.3,5.3,0,0,0,14,19.21,1.89,1.89,0,0,1,13.93,19.42Z"/><path class="cls-38" d="M24.09,19.3s0-.05,0-.07c-.13-.27-.26-.53-.41-.79a5.52,5.52,0,0,0-.62-.82A5.31,5.31,0,0,0,22,16.68,5.2,5.2,0,0,0,20.75,16a5.92,5.92,0,0,0-1-.27,5.15,5.15,0,0,0-.53-.07l-.53,0a5,5,0,0,0-1.15.12,5.61,5.61,0,0,0-1.49.52A5.23,5.23,0,0,0,15,17c-.19.18-.4.34-.58.53a6.08,6.08,0,0,0-.83,1.13,4,4,0,0,0-.3.63l-.57,0a6.37,6.37,0,0,1,5.29-4,6.35,6.35,0,0,1,6.6,4Z"/><path class="cls-39" d="M13.93,19.42s0-.08,0-.12a4.71,4.71,0,0,1,.57-.94c.16-.19.31-.39.49-.57A5.57,5.57,0,0,1,16,17a5.46,5.46,0,0,1,1.46-.59,4,4,0,0,1,.91-.13l.26,0a6,6,0,0,1,1.12.11,5.29,5.29,0,0,1,1.38.49,4.79,4.79,0,0,1,.89.6,3.07,3.07,0,0,1,.38.34,5.88,5.88,0,0,1,.52.6,5.13,5.13,0,0,1,.52.87c0,.07.05.14.08.2l-.47.26c-.07,0-.08-.09-.11-.15a4.61,4.61,0,0,0-3.63-2.68,4.35,4.35,0,0,0-2.7.44,4.54,4.54,0,0,0-2.12,2.12.64.64,0,0,1-.1.18Z"/><path class="cls-40" d="M15.34,22.33l.12-.64a1.6,1.6,0,0,0,0-.38v-.13s0-.09,0-.12l-.09-.33a3.1,3.1,0,0,1,.51-1.16,3.47,3.47,0,0,1,6.3,1.67,3.32,3.32,0,0,1-.62,2.28,3.43,3.43,0,0,1-5.08.65A3.4,3.4,0,0,1,15.34,22.33Z"/><path class="cls-41" d="M15.34,22.33s.05.08.07.13a3.45,3.45,0,0,0,.64,1.25,3.26,3.26,0,0,0,1.25.95A3.48,3.48,0,0,0,19,25a3.48,3.48,0,0,0,1-.24,3,3,0,0,0,.9-.53,3.4,3.4,0,0,0,.85-1A3.71,3.71,0,0,0,22.1,22c0-.12,0-.24,0-.37a2.64,2.64,0,0,0-.1-.79,3.34,3.34,0,0,0-.66-1.43,3.4,3.4,0,0,0-1.84-1.18,3.34,3.34,0,0,0-.84-.11,3.38,3.38,0,0,0-1.14.2,3.58,3.58,0,0,0-1.09.62,3.33,3.33,0,0,0-.79,1,5.59,5.59,0,0,0-.26.61c0,.06,0,.12-.08.19l-.17-.34a.29.29,0,0,1,0-.16A3.59,3.59,0,0,1,16,18.92a3.72,3.72,0,0,1,2.24-1.09,3.71,3.71,0,0,1,4,2.55,2.25,2.25,0,0,0,.08.24,2.19,2.19,0,0,0-.15,1.16c0,.22.09.43.14.64a.2.2,0,0,1,0,.13,3.77,3.77,0,0,1-.68,1.32,3.74,3.74,0,0,1-4.91.84,3.6,3.6,0,0,1-1.52-1.89.27.27,0,0,1,0-.13Z"/><path class="cls-42" d="M22.33,20.62c-.07,0-.07-.1-.09-.15-.09-.22-.17-.45-.27-.66a3.37,3.37,0,0,0-.51-.74,3.73,3.73,0,0,0-1.17-.87,3.49,3.49,0,0,0-1-.31,3.35,3.35,0,0,0-.63-.05,3.26,3.26,0,0,0-.87.12,3.37,3.37,0,0,0-1.17.54,3.67,3.67,0,0,0-.56.47,3.71,3.71,0,0,0-.81,1.29l-.06.13-.39-.47c0-.05,0-.09,0-.14a4.17,4.17,0,0,1,1.91-2,4.25,4.25,0,0,1,1.54-.48,4.36,4.36,0,0,1,3.51,1.29,4.43,4.43,0,0,1,.88,1.35s.05.1,0,.16Z"/><path class="cls-43" d="M22.71,23.05l-.09.26a3.71,3.71,0,0,1-.64,1,4.72,4.72,0,0,1-1.1.94,4.68,4.68,0,0,1-1.39.52,3.78,3.78,0,0,1-1.16.05,4,4,0,0,1-1.68-.51,4.14,4.14,0,0,1-.81-.58,4.52,4.52,0,0,1-.68-.77,4.06,4.06,0,0,1-.4-.74l.28-.31a.23.23,0,0,1,.11.15,3.88,3.88,0,0,0,6.4,1.11,3.61,3.61,0,0,0,.79-1.3c0-.06,0-.15.12-.15Z"/><path class="cls-44" d="M22.68,20.08A3.64,3.64,0,0,0,22,18.93a3,3,0,0,0-.37-.43,4.1,4.1,0,0,0-1-.71,4.64,4.64,0,0,0-1-.38,3.15,3.15,0,0,0-.75-.1l-.12,0h-.08c-.17,0-.34,0-.51.06a5.59,5.59,0,0,0-.59.11,4.88,4.88,0,0,0-.64.23,4.25,4.25,0,0,0-1.49,1.12,4.11,4.11,0,0,0-.59.9,2.14,2.14,0,0,1-.1.22l-.25-.19c0-.06,0-.12,0-.17a4.62,4.62,0,0,1,2-2.09,4.59,4.59,0,0,1,6.3,2.18c0,.06.06.11,0,.18Z"/><path class="cls-45" d="M22.46,22.72s-.06.08-.08.12-.11.3-.18.45a4,4,0,0,1-.51.77,3.66,3.66,0,0,1-1.1.9,4,4,0,0,1-1.13.42,3.69,3.69,0,0,1-1.1.06,4,4,0,0,1-1.18-.3,3.91,3.91,0,0,1-1.4-1,3.53,3.53,0,0,1-.66-1.08,1.09,1.09,0,0,0-.08-.15l.14-.22c.05.11.1.23.14.34a3.17,3.17,0,0,0,.53.86,3.5,3.5,0,0,0,1.13.93,3.76,3.76,0,0,0,1,.36l.31,0c.15,0,.3,0,.45,0a3.78,3.78,0,0,0,1.82-.51,4.11,4.11,0,0,0,1-.83,3.51,3.51,0,0,0,.62-1.1l.14-.39Z"/><path class="cls-46" d="M22.93,19.83a4.73,4.73,0,0,0-.72-1.2,4.88,4.88,0,0,0-1.08-.95,4.41,4.41,0,0,0-1.36-.57,3.11,3.11,0,0,0-.69-.11l-.38,0a4.33,4.33,0,0,0-1.24.18,4.56,4.56,0,0,0-1.32.62,4.47,4.47,0,0,0-1.56,1.83.56.56,0,0,0,0,.12l-.13-.09c.05-.13.1-.26.16-.38a4.78,4.78,0,0,1,.89-1.16,5.56,5.56,0,0,1,1-.7,4.94,4.94,0,0,1,1.21-.46,3.19,3.19,0,0,1,.68-.1l.47,0A4.56,4.56,0,0,1,20,17a4.79,4.79,0,0,1,1.44.69,4.17,4.17,0,0,1,.68.58,4.9,4.9,0,0,1,.71,1l.24.48Z"/><path class="cls-41" d="M15.47,21.31a.7.7,0,0,1,0,.38Z"/><path class="cls-41" d="M15.44,21.06l0,.12Z"/><path class="cls-47" d="M21.85,21.77a3,3,0,0,1-1,2.11,3.15,3.15,0,0,1-4.35-4.56,3.1,3.1,0,0,1,2.46-.93,3,3,0,0,1,2.14,1.08A3.19,3.19,0,0,1,21.85,21.77Z"/><path class="cls-48" d="M21.49,21.59a2.8,2.8,0,0,1-.83,1.91,2.76,2.76,0,0,1-4.72-2,2.75,2.75,0,0,1,2.77-2.7A2.79,2.79,0,0,1,21.49,21.59Z"/><path class="cls-49" d="M16.27,21.86v-.14a.81.81,0,0,1,0-.22v-.13c0-.05,0-.1,0-.15l0-.19s0-.06,0-.08a2.07,2.07,0,0,1,.33-.76,2.74,2.74,0,0,1,.95-.84A2.57,2.57,0,0,1,21,20.3a2.76,2.76,0,0,1,.28.72l0,.09s0,.07,0,.1v.1c0,.05,0,.11,0,.17v.26c0,.06,0,.12,0,.18V22s0,.08,0,.11-.07.26-.12.39a2.56,2.56,0,0,1-1.74,1.58s-.06,0-.09,0h0s-.09,0-.12,0h-.05c-.05,0-.12,0-.18,0h-.37c-.05,0-.12,0-.17,0h-.05s-.08,0-.12,0h0s-.06,0-.09,0h0s-.07,0-.09,0a2.33,2.33,0,0,1-.71-.34,2.49,2.49,0,0,1-.77-.84,1.76,1.76,0,0,1-.24-.6s0-.06,0-.09l0-.19C16.27,22,16.3,21.9,16.27,21.86Z"/><path class="cls-47" d="M16.26,21.5v.22A.22.22,0,0,1,16.26,21.5Z"/><path class="cls-40" d="M21.37,21.48l0-.17Z"/><path class="cls-40" d="M19,24.16l.18,0Z"/><path class="cls-40" d="M18.46,24.14l.17,0Z"/><path class="cls-40" d="M21.35,21.92l0-.18Z"/><path class="cls-47" d="M16.27,21.86l0,.14Z"/><path class="cls-47" d="M16.29,21.22l0,.15Z"/><path class="cls-40" d="M18.29,24.11l.12,0Z"/><path class="cls-40" d="M19.23,24.14l.12,0Z"/><path class="cls-40" d="M21.32,22.11l0-.11Z"/><path class="cls-40" d="M21.34,21.21l0-.1Z"/><path class="cls-47" d="M16.35,21l0,.08Z"/><path class="cls-40" d="M18.18,24.09l.09,0Z"/><path class="cls-40" d="M18.07,24.06l.09,0Z"/><path class="cls-40" d="M19.37,24.11l.09,0Z"/><path class="cls-47" d="M16.32,22.19l0,.09Z"/><path class="cls-50" d="M19.34,20.2a1.42,1.42,0,0,1,1,1.21,1.49,1.49,0,0,1-.54,1.39,1.41,1.41,0,0,1-.68.31,1.49,1.49,0,0,1-1.43-.5,1.41,1.41,0,0,1-.35-.91,1.51,1.51,0,0,1,.25-.95,1.41,1.41,0,0,1,.57-.49.61.61,0,0,1,.13,0,.09.09,0,0,1,0,.1.62.62,0,0,0,.2.73s.05.05.06.08-.07.13-.11.2a.5.5,0,0,0,.78.61.53.53,0,0,0,.08-.55c0-.1-.14-.15-.16-.26s.05-.07.08-.11a.55.55,0,0,0,.16-.71S19.32,20.24,19.34,20.2Z"/><path class="cls-51" d="M19.34,20.2a.73.73,0,0,1,.11.46.64.64,0,0,1-.33.48.47.47,0,0,1-.61,0,.65.65,0,0,1-.29-.8l.05-.11.06-.07a.63.63,0,0,1,1,0Z"/><path class="cls-52" d="M18.51,21.14a.69.69,0,0,0,.61,0,1.44,1.44,0,0,1,.18.25.53.53,0,0,1-.91.55.56.56,0,0,1,0-.7A.39.39,0,0,0,18.51,21.14Z"/><g id="Ofhj7H.tif"><path d="M184.6,17.22a7.34,7.34,0,0,0-.69,1.57c0,.12-.08.25-.13.38-.47,1.26-1,2.51-1.39,3.8a8.29,8.29,0,0,0-.51,1.82,7.13,7.13,0,0,1-.49,1.48c-.15.48-.26,1-.4,1.45a22.7,22.7,0,0,0-.75,2.77,12.77,12.77,0,0,1-.88,2.66,9.11,9.11,0,0,1-.66,1.28,14,14,0,0,1-.81,1.34,3.93,3.93,0,0,1-.69.66s-.17,0-.2,0c-.22-.36-.44-.69-.63-1a5.49,5.49,0,0,1-.94-2.19c0-.1-.15-.17-.19-.27-.51-1.16-1-2.32-1.51-3.49s-1-2.38-1.5-3.55c-.22-.5-.51-1-.76-1.44l-.13-.23-1.08-2.17a1.15,1.15,0,0,1-.11-.31,16.25,16.25,0,0,0-.78-2.22c-.28-.77-.6-1.53-.92-2.36,0,.15-.07.26,0,.32a1.63,1.63,0,0,1,0,1,5.14,5.14,0,0,1,0,1,1.27,1.27,0,0,0,0,.67,6.54,6.54,0,0,1,.12,1.71c0,.26.07.52.11.78a.3.3,0,0,1,0,.13c-.28.65,0,1.3,0,1.95a30.28,30.28,0,0,0,0,3.16c.16,1.33.07,2.66.15,4,0,1,.27,2,.41,3a4.52,4.52,0,0,0,2,.27l.48.45-.1,1.49-.28.29c-.51,0-1,0-1.58,0s-1-.08-1.55-.12-1.08.08-1.62,0-1,.08-1.55,0a10.17,10.17,0,0,0-1.58,0c-.31-.12-.35-.57-.6-.91l.19-.88a19.14,19.14,0,0,0,2.7-.59l.29-1.35h0c0-.36.06-.72.1-1.07s.11-.47.12-.71c0-1,0-2,0-2.94,0-.57-.1-1.14-.12-1.71a3.4,3.4,0,0,1,.06-.55c-.07-.69-.14-1.3-.2-1.91-.2-1.81-.11-3.64-.16-5.46,0-1.26-.08-2.52-.08-3.77,0-.77.09-1.55.13-2.28a3,3,0,0,0-2.59-1.25l-.6-.29-.18-.37a5.51,5.51,0,0,1,.65-1.93l.45.32h2.82c1.05,0,2.11,0,3.17,0a4.94,4.94,0,0,1,1.24.39,1.24,1.24,0,0,0,.23.32,4.35,4.35,0,0,1,1,1.5,10.5,10.5,0,0,0,.61,1.09,8.06,8.06,0,0,1,.67,1.61c.17.38.3.77.49,1.14a16.93,16.93,0,0,1,.78,2.41,3.14,3.14,0,0,1,.33,1.36c0,.22.19.47.34.78a4.51,4.51,0,0,0,.63,2.17c.14.38.24.78.41,1.15a13.6,13.6,0,0,0,.8,1.57,15.94,15.94,0,0,1,1.06,2.39c.22,0,.28-.15.33-.34.21-.72.43-1.43.65-2.14a20.74,20.74,0,0,1,1.25-3.23,9.44,9.44,0,0,0,.39-1.31c.2-.62.43-1.22.6-1.84a5.6,5.6,0,0,0,.6-1.91.67.67,0,0,1,.12-.31c.65-1.28,1.24-2.59,1.76-3.93.27-.69.61-1.36.93-2a5.25,5.25,0,0,1,.33-.49.64.64,0,0,1,.7-.33,5.68,5.68,0,0,0,1.16,0l4.53-.14c.62,0,1.23-.09,1.82-.14a1.11,1.11,0,0,1,.11,1.8c-.27.29-.57.56-.91.88-.34,0-.74,0-1.13,0s-.79.1-1.2.16a5.77,5.77,0,0,0-.66,3.06,14.16,14.16,0,0,0,0,1.46c0,.34.07.69.07,1,0,.91,0,1.82,0,2.74a19.79,19.79,0,0,0,.25,3.08,4.56,4.56,0,0,1,0,.74,32.79,32.79,0,0,0,0,3.29,14.57,14.57,0,0,1,.08,2c0,.59,0,1.17,0,1.75s-.1,1.12-.12,1.68,0,1.16,0,1.74v.49l2.56-.22c.83-.08,1.66-.19,2.54-.29.6-1,1.24-1.93,1.79-2.95a10.57,10.57,0,0,0,.34-1.12c.64-1.65,1.26-3.3,1.91-4.95.22-.54.49-1.06.75-1.59a4,4,0,0,1,.35-.46c.25-.71.56-1.5.81-2.31.49-1.58.93-3.17,1.4-4.76.14-.5.35-1,.44-1.5a16.31,16.31,0,0,1,1.39-3.53c.25-.65.57-1.27.82-1.91a.88.88,0,0,1,1.59-.31h.68a1.51,1.51,0,0,1,.48,1.11,1.85,1.85,0,0,0,.23.8,22.79,22.79,0,0,1,1,2.22,1.57,1.57,0,0,1,.1.44c.06.3.1.6.19.9s.27.78.38,1.18c.28,1.05.72,2.05.93,3.13a14.46,14.46,0,0,0,.81,2.22c.25.67.5,1.35.77,2,.14.34.32.66.48,1a1.11,1.11,0,0,1,.14.29A18.3,18.3,0,0,0,214.2,28c.43.95.94,1.86,1.28,2.86a18.71,18.71,0,0,0,1.18,2.48c.24.46.53.91.81,1.39a17.64,17.64,0,0,1,3.6.76,4.05,4.05,0,0,1-.15,1.9H219c-.14,0-.28,0-.43,0-1.55,0-3.12.07-4.67,0-1.27-.07-2.54-.13-3.8-.1a9.12,9.12,0,0,1-2.55-.28c-.15,0-.28-.11-.43-.16a4.29,4.29,0,0,1-.23-1.79,42.75,42.75,0,0,1,4.29-.5A47.47,47.47,0,0,0,209.25,29a12.13,12.13,0,0,0-2.33-.17c-.91.08-1.79-.13-2.71,0a6,6,0,0,1-2.57-.09,1.44,1.44,0,0,0-.36,0c-.5,1-1,2-1.45,3s-.92,2-1.4,3l.57.05,2.28.2a1.41,1.41,0,0,1,1.21.62v1a1.31,1.31,0,0,1-1.26.65,8.75,8.75,0,0,1-1.44-.12,14.68,14.68,0,0,0-3.38-.07,19.36,19.36,0,0,1-3.23,0,11,11,0,0,0-1.52,0c-.69,0-1.38-.07-2.09,0s-1.38-.05-2.07-.05-1.52.05-2.28.07a13.44,13.44,0,0,1-2.76-.25,3.73,3.73,0,0,0-.75,0L181,36v-.41l.43-.39a12.78,12.78,0,0,0,3.14-.72,8,8,0,0,0,.15-1.16,17.35,17.35,0,0,1,.24-2.49,8.36,8.36,0,0,0,0-2.06,2.66,2.66,0,0,1,.06-1.16,4.12,4.12,0,0,1-.08-1.44c0-.42.21-.85,0-1.28a1,1,0,0,1,0-.46c0-.65,0-1.29,0-1.94s-.08-1.14-.13-1.71a5.09,5.09,0,0,0-.1-1.65c0-.08.06-.21.06-.31,0-.31,0-.61,0-.92s0-.44-.08-.66c.15-.1.2-.21,0-.41ZM170.54,20l.15.29a1.12,1.12,0,0,0,.53,1.06V22c.58.48.55,1.25,1,1.81l.3.11v.46l1.06,2.34h.31a3.31,3.31,0,0,0,.05.74c.19.56.41,1.1.64,1.65a1.09,1.09,0,0,0,.23.3l.52.12,0,.41-.31.1c.28.8.59,1.59.81,2.41a1.46,1.46,0,0,0,.84,1.17v.94l.39.9.81-1.32-.4-.56.66.09,1-2.36-.21-.34a.94.94,0,0,0,.61-.84l-.68-.63c.34-.05.6-.11.73.09.2-.64.41-1.34.64-2a1,1,0,0,0,.06-.7,2.45,2.45,0,0,0,.31-.74,2.15,2.15,0,0,0-.27-.71l.46-.2,1.08-3.39-.35-.51-.9,2.39a.82.82,0,0,1,.19.8l-.41-.06-1,2.19.07.37-.92,1.15c.08.39.41.67.08,1l-1.16-.84.11-.27-.81-2.1-.63-.35.16-.57-1-1.82c-.37-.14-.63-.4-.54-.6l.36-.24c-.59-1-.54-2.26-1.08-3.32-.05-.09,0-.22,0-.33s0,0-.07,0l-.12.33c-.33-.09-.38-.34-.47-.61l.59-.12-.58-1.09c.24-.29.14-.65-.08-1s-.4-.87-.55-1.2l-.68-.16-.18-.42.57-.31-1.12-2c-.17,0-.34.13-.42.08s-.43-.26-.3-.59l.47-.08-.91-1.07-.43.29-.54-.23c-.53.29-1.09.05-1.63.09a13.64,13.64,0,0,1-1.78-.07l-.28.19a1.41,1.41,0,0,0-1.19-.2l-.1.21-.58-.33-.13.41a2.51,2.51,0,0,0,.48.08,3.51,3.51,0,0,1,1.89.66,2.35,2.35,0,0,1,1.21,1.61l-.3.87c.38.61.38.62,0,1v.38c0,.06,0,.13,0,.19.34.36.34.39,0,.77v.51l.3.57-.45.49a3.18,3.18,0,0,1,.33.48,2.49,2.49,0,0,1,.07.53l-.26.21v.57c.1.11.25.22.24.3a7.31,7.31,0,0,1-.25.75c.16.36.52.75.14,1.05-.1.56.37,1,0,1.4a1.66,1.66,0,0,1,.14.41c.06.7.1,1.4.14,2.11s0,1.26,0,1.9c0,.3-.1.61-.11.91,0,.58,0,1.16,0,1.73a8.37,8.37,0,0,1-.13,2.18c0,.15.05.34.09.57l-.27.21.27,1.24-.2.27a.58.58,0,0,1-.15.8l.44.2a6.77,6.77,0,0,0-3.17.45c.3,0,.5.07.7.07a14.52,14.52,0,0,0,2.19,0,5.35,5.35,0,0,1,1.78-.05,15.1,15.1,0,0,0,2.12.09c.06,0,.13-.06.24-.1a1.85,1.85,0,0,0-1.3-.3c-.82,0-1-.17-1.29-.94a4.21,4.21,0,0,0-.18-.47l-.58-.34c0-.27-.11-.54.26-.64.06.16-.12.43.22.46a1.2,1.2,0,0,0-.38-1.21c-.16-.15-.27-.33-.1-.56.2.13.15.46.45.48,0-.35-.07-.67-.11-1l-.21-.27A4.59,4.59,0,0,0,167.9,30a18.74,18.74,0,0,1-.15-2.37c0-.92,0-1.83,0-2.74,0-.26.05-.51,0-.77,0-.65-.16-1.31-.17-2,0-2.6,0-5.21,0-7.83.24-.15.1-.65.6-.59a1.39,1.39,0,0,0,.12.36,3.85,3.85,0,0,1,.64,1.63,1.93,1.93,0,0,0,.94,1.57l-.14.57a6.76,6.76,0,0,1,.53,1.55A2.16,2.16,0,0,0,170.54,20Zm39.31-.13,0,0,.1-.28a5.18,5.18,0,0,1-.76-.34,1.27,1.27,0,0,1-.5-.79l.78-.14-.71-.88.24-.65-.51-1.58-.39.11c-.33-.28-.82-.47-.61-1.05l.84-.09c-.36-.4-.85-.56-.88-1.06l.3-.41-.69-1.52-.57-.07-.53-.73c.19-.48.63-.17.93-.41h-1.06l-.2,1.05c-.05.14-.5.12-.29.49l.2,0a.9.9,0,0,1,0,1l-.78-.13L204,14.17l.21.16v1l-.46-.15-.21.49.68.11v.8c-.36.26-.56-.16-.9-.17-.18,1-.36,2-.55,3l-.37.28.46.21a.89.89,0,0,1-.23,1l-.47-.26c-.05.19-.3.35-.09.61H203l.63-1.86-.32-.86.57-.13c.07-.51-.71-.68-.45-1.27h.82l.56-.75-.11-.55h1.09l-.13,1,.61,1.56.8.07v1l-.31.11a8.85,8.85,0,0,1,.46.78c.14.29.24.6.37.94h.81v.65l-.49-.06c.36.9.72,1.77,1,2.64a16,16,0,0,1,.61,1.72c.09.32.3.7,0,1h-.88c-.59,0-1.16-.1-1.75-.12a24.86,24.86,0,0,0-4.22.26,1.81,1.81,0,0,1-.39-.05l-1.35-.19-.45-.64.47-.57-.15-.56.35.1c.28-.64.55-1.28.85-1.91.13-.29.22-.57,0-.82l.5-.5-.62-.8c-.23.45-.56.91-.32,1.5l-.65.5a2,2,0,0,1-.28,1c-.25.58-.48,1.17-.72,1.75a13.64,13.64,0,0,0-.71,1.9,11.83,11.83,0,0,1-.75,2.09c-.14.34-.34.66-.48,1-.23.54-.41,1.1-.66,1.63a22.77,22.77,0,0,1-1.68,2.64,4.08,4.08,0,0,1-1.25.35c-.53,0-1,.13-1.55.15a5.55,5.55,0,0,1-2.53-.2c-.12-.06-.29,0-.49,0a2.11,2.11,0,0,1-.41-.22c-.1-.07-.23-.24-.2-.31.14-.34-.19-.62-.08-.89l-.69-.59.68-.11V33l-.69-.65.69-.21v-.94l-.5-.13v-.09h.4a1.19,1.19,0,0,0,.1-.77l-.72-.64.71-.06v-.73l-.66-.47.68-.31,0-.56c-.17-.22-.54-.23-.58-.58l.55-.16-.11-.75-.43-.31s0-.12-.05-.19l.5-.11v-.58l-.49-.34V24l.33-.15c.23-.53-.36-.7-.43-1.11l.33-.26v-.54l-.37-.54.37-.25V20.5l-.3-.4c.34-.53.18-1-.18-1.6l.41-.23a3.94,3.94,0,0,0-.22-.63.48.48,0,0,1,0-.61.51.51,0,0,0,0-.76,1.31,1.31,0,0,1-.18-.49l.39-.14-.34-1.23.35-.32L188.3,13c.23-.13.57-.06.55-.45l-.49-.36v-.57l.72-.12.15.18.73-.56-.51-.72-.28.15c-.08.21,0,.52-.38.62l-.6-.65h-.33c-.11.21-.08.57-.52.49l-.54-.49h-.42l-.12.53-.6-.27-.9,2.13c.31.38.31.39,0,.78l-.33-.07c-.22.43-.42.88-.66,1.29s-.07,1-.16,1.42l-.56.13-.18.68.66-.11.88-2.14-.1-.44.14.1.92-.94.28.14-.11.46.77.09a2.14,2.14,0,0,1-.07.88l-.56-.28v.78l.64.08,0,.58c-.31.09-.43-.43-.73-.15l.14.91.59,0v.75l-.6-.31-.11.92.74,0,0,.65a1.41,1.41,0,0,1-.37,0,1.51,1.51,0,0,1-.31-.27l-.09,1.43c.25-.43.5-.34.77-.3v.64l-.59-.23-.15.85.75.09V22l-.6-.33v.85l.63.09c-.05.26.1.53-.19.69l-.46-.3v.94l.61,0v.84l-.67-.41.2,1.09.5-.05,0,.56-.44-.27-.14.59.23.55.36-.1v.65l-.47-.37L185.74,28a.35.35,0,0,0,.48.07s.06,0,.09,0v.48l-.5-.13v1l.53.13-.08.51-.42-.29c-.17.31-.23,1.06-.07,1.18l.51-.09,0,.61-.61-.42c-.1,1.34-.21,2.62-.3,3.78l-.44.61-2.76.39c0,.13,0,.24,0,.35s.05.06.11.13c1.64-.08,3.3.07,5-.13a20.69,20.69,0,0,1,3.15-.08,31.25,31.25,0,0,0,4.64,0c1.2-.13,2.41-.11,3.62-.15a5.94,5.94,0,0,1,.79.09l.76-.1a1.19,1.19,0,0,0,1.33.35l0-.28a4.27,4.27,0,0,0-.71-.17,3.39,3.39,0,0,0-.62.12,1.67,1.67,0,0,0-1-.29c-.55-.08-1.16-.07-1.51-.65a9.41,9.41,0,0,1,.23-1c.3-.85.69-1.65,1.07-2.46.49-1,.92-2.07,1.39-3.1a1.61,1.61,0,0,1,.26-.39c.49-.07.86-.15,1.23-.17s.79,0,1.19.06a4.52,4.52,0,0,0,.52,0,7,7,0,0,1,.76-.08,5.05,5.05,0,0,0,1.4,0,2.32,2.32,0,0,1,.87,0,3.18,3.18,0,0,0,1.44,0,8.91,8.91,0,0,1,1.17-.18.76.76,0,0,1,.72.19c.19.85.67,1.58.84,2.41.14.65.5,1.23.63,1.89a4.72,4.72,0,0,0,.39,1.24,1.92,1.92,0,0,1,.12,1.76,1.22,1.22,0,0,1-.85.26q-1.44,0-2.88,0a4.4,4.4,0,0,0-.51,0c-.11.34-.22.63.07.83a7.63,7.63,0,0,1,.77-.06l4.12,0h7c.19,0,.37,0,.61,0-.2-.45-.58-.45-.87-.48a12.94,12.94,0,0,1-2.34-.45,3.41,3.41,0,0,1-1.14-1.75,2.94,2.94,0,0,0-.27-.53,7.6,7.6,0,0,1-.37-.76,12.53,12.53,0,0,0-.75-1.81,12.57,12.57,0,0,1-1-1.86c-.39-.87-.78-1.73-1.16-2.61a9.88,9.88,0,0,0-.39-1,27.2,27.2,0,0,1-1.31-2.91,9.26,9.26,0,0,0-.46-.87A4.07,4.07,0,0,0,209.85,19.86Zm-8.34,6.74a38.75,38.75,0,0,1,7.09-.34c-.23-.64-.42-1.21-.63-1.78l-.79-2.07c-.18-.47-.31-.95-.53-1.39-.34-.66-.75-1.29-1.11-1.94a1.85,1.85,0,0,1-.37-1c0-.09-.12-.18-.18-.27-.37,1.07-.73,2.09-1.09,3.12l-.07,0v.6c-.15.27-.28.47-.38.69q-.6,1.35-1.17,2.7c-.07.16-.11.33-.19.49C201.92,25.74,201.73,26.13,201.51,26.6Zm-18.15-8.77-.52-.47L182,19.81c.35.16.2.43.21.71l-.41-.06-.26.71.64,0c.16-.47.31-.92.45-1.37s.26-.88.41-1.41Zm7.76-6.95c-.15-.3-.22-.61-.65-.44l0,.65Zm1.18,0c.09-.32,0-.47-.31-.54v.52Z"/><path d="M243.92,37.1l-.48-.34-.16-1.68.25-.29,2.6-.38a1.93,1.93,0,0,0,.1-.45c0-2,.09-4,0-6.05-.07-1.18,0-2.36-.12-3.52a32.76,32.76,0,0,1-.09-4.85c0-1.08.07-2.17.12-3.25a18.9,18.9,0,0,0,.11-2.26,11.83,11.83,0,0,0-.26-1.67,1.54,1.54,0,0,0-.26-.49l-2-.25-.36-.39c.09-.69-.37-1.47.37-2.07a1.41,1.41,0,0,0,1.25,0l1.26.33c.72-.08,1.28-.15,1.85-.2s1.18-.1,1.77-.12,1.14,0,1.71,0a9.8,9.8,0,0,1,1.8,0c.56.11,1.13-.26,1.6.08a7.68,7.68,0,0,1,3-.12.3.3,0,0,0,.13,0c.45-.16.9.05,1.34,0a15.74,15.74,0,0,1,2.38,0,15,15,0,0,1,1.62.22c.61.08,1.22.14,1.92.21l.51.61c0,.42.13.94.15,1.45a9.3,9.3,0,0,1-.09,1.05c0,.11-.05.24,0,.32a2.79,2.79,0,0,1,.12,1.18c0,.56.05,1.13.1,1.69a1.3,1.3,0,0,1-.47,1.25h-1.27l-.48-.32.11-.36a2.9,2.9,0,0,1-1.19-2.12c-.05-.26-.16-.51-.19-.76-.08-.61-.5-.83-1-.95s-1-.26-1.53-.37a4.57,4.57,0,0,0-.83-.07,5.44,5.44,0,0,1-1.45-.08c-.49-.12-1-.08-1.51-.17a21.48,21.48,0,0,0-2.78-.13c-.5,0-1-.13-1.54-.2,0,.39,0,.79,0,1.19,0,.78,0,1.57,0,2.35a21.81,21.81,0,0,0,.34,2.68,11.29,11.29,0,0,1,.07,1.75c0,.38,0,.76,0,1.13s.09.47.13.71h3.95a5.29,5.29,0,0,0,1.77-1.35c.15-.52.31-1.05.45-1.6s.22-1.06.35-1.69c.47-.52.82-.57,2-.21a1.21,1.21,0,0,1,.27.85,8.28,8.28,0,0,1-.24,2.16,1.89,1.89,0,0,0,0,.53c0,1.43,0,2.86,0,4.28a12,12,0,0,0,.23,2,4.09,4.09,0,0,1-.17,2.18,2,2,0,0,1-2.2-.25c0-.26-.08-.59-.13-.91s-.13-.82-.2-1.23a6.07,6.07,0,0,0-.21-1,9.21,9.21,0,0,0-.58-1c-.47-.05-.94-.14-1.41-.16-1.15-.05-2.29-.07-3.43-.1-.2,0-.39,0-.6,0l-.19.49a7.33,7.33,0,0,1,0,2,3.07,3.07,0,0,0-.06.52,5.76,5.76,0,0,1-.21,1.49,9.24,9.24,0,0,0-.13,1.29c0,.16,0,.33,0,.55a2.72,2.72,0,0,1,.25,1.57c0,.39.11.79.08,1.18a6.76,6.76,0,0,1,0,1.55c.11,0,.24.13.34.11a18.39,18.39,0,0,1,3-.26c1,0,1.95-.16,2.92-.24a2.39,2.39,0,0,1,.8,0,11.81,11.81,0,0,0,2.45.11,1.84,1.84,0,0,0,.38-.08l1.21-.27.41-.28.83-1.47c.24-.93.51-1.9.74-2.87.08-.36.37-.47.63-.62l.74.17a3.89,3.89,0,0,1,.47.51,2.53,2.53,0,0,1,.43.87c.09.72.11,1.46.14,2.19a1.24,1.24,0,0,1-.11.57,3.54,3.54,0,0,0-.29,1.47c0,.84-.07,1.68-.14,2.52a2.12,2.12,0,0,1-.23.6,1.76,1.76,0,0,1-.37,0,22.08,22.08,0,0,0-4.45-.11c-1.5,0-3-.06-4.51,0H256.3a9.89,9.89,0,0,1-2-.22,9.77,9.77,0,0,0-1.43,0c-.28,0-.55,0-.83,0-.07,0-.15,0-.19,0-.46.28-.92,0-1.39,0a9.83,9.83,0,0,1-1.21,0c-.39,0-.78,0-1.16,0a11.45,11.45,0,0,1-1.55,0c-.51-.09-1-.19-1.55-.23A7.61,7.61,0,0,0,243.92,37.1Zm2.57-26-.58-.91-.33.17v.42l.93.3.46.7c.15.84.31,1.73.46,2.61l.77-.09v1l-.77-.56a.55.55,0,0,0-.12.21c-.06.59-.11,1.18-.14,1.78a12.41,12.41,0,0,0,0,1.83c0,.49-.1,1-.11,1.48,0,.67,0,1.34,0,2s.24,1.3,0,1.95a.2.2,0,0,0,0,.13,12.23,12.23,0,0,1,.25,3.13c0,.24-.1.49-.07.72a19.26,19.26,0,0,1,.09,2.94c0,1.14,0,2.29,0,3.44l-.08,0-.42,1c-.24,0-.45,0-.65.05l-1.94.31.05.56c1,0,2.07.09,3.08.11h4.21c1.35,0,2.7,0,4,.07a2.79,2.79,0,0,1,.76,0,2.08,2.08,0,0,0,1.33,0,1.46,1.46,0,0,0,1.17,0l1.11.08c.3,0,.57-.13.9,0a2.28,2.28,0,0,0,.84,0c1.14.13,2.16-.21,3.17-.06l1,.39c.23-.71,0-1.44.22-2.12a3.7,3.7,0,0,0,0-1c.5-.46.11-1.26.43-2-.43-.32.07-.7,0-1.1l-.48-.67-.37.94c.15.07.44,0,.44.38l-.46.1a6.78,6.78,0,0,1-.84,2.08c-.1.12-.05.35-.07.48l-.92.86-.67.52c-.19,0-.47-.15-.66-.08a2.89,2.89,0,0,1-1.23.22,14.81,14.81,0,0,1-1.49,0,9.72,9.72,0,0,0-1.52-.11,4.83,4.83,0,0,0-.61.1,1.17,1.17,0,0,0-.86,0,2.34,2.34,0,0,1-.45.07l-2.18-.08c-.1,0-.24,0-.29,0-.38.35-.85.17-1.27.19a5.33,5.33,0,0,1-1-.12l-.33-.35c0-.82-.11-1.62-.13-2.41s0-1.78,0-2.67c0-.16.09-.37-.15-.46l0,0a7.66,7.66,0,0,1,.16-1.37,10.3,10.3,0,0,0,.23-2.21,17.93,17.93,0,0,0,0-1.94,1.85,1.85,0,0,1,.27-1l.42,0-.14-.48h.33l.14.35h.82l.36-.43.13.42c.36,0,.7.29,1.11.11l-.2-.3.29-.24.32.57h.94l0-.44c.49,0,.19.45.45.59h1.05l1.5,1-.11.39.07,0,.62,3.35.6.16.33-.65-.47-.63.37-.11a1.31,1.31,0,0,0-.28-1.09,1.21,1.21,0,0,0,.07-.34c0-.4-.11-.79-.12-1.18,0-.83,0-1.66-.13-2.48a2.7,2.7,0,0,1,.05-.64c0-.48-.06-.83,0-1.18s.12-.61.13-.91c0-.49.25-1,0-1.5l-.55,0c-.11.7-.19,1.35-.33,2a8.83,8.83,0,0,1-.41,1c-.24.64-.81,1-1.3,1.35a3.79,3.79,0,0,1-2.44.67c-1.07,0-2.13-.08-3.2-.13a.57.57,0,0,1-.25-.06c-.21-.11-.41-.22-.3-.53s-.17-.41,0-.6a12.31,12.31,0,0,1-.12-2.71c0-.16,0-.31,0-.46-.07-.52-.15-1.05-.23-1.57a.64.64,0,0,0-.06-.11l-.18.34-.64-.3-.12-.54H251a1.12,1.12,0,0,0,.06-.23,1.66,1.66,0,0,0,0-.24c-.81-.43-.81-.43-.68-1l.65,0c.2-.57-.38-.44-.58-.7l-.19-.49.8-.19,0-.26c-.35-.24-.86-.35-.77-1l.83-.06.24-.54a4.27,4.27,0,0,0,.95-.13c.74-.29,1.49,0,2.24-.07a12.57,12.57,0,0,1,2.08.22c.95.07,1.9.09,2.85.15.14,0,.3.09.44.08a8.14,8.14,0,0,1,1.9.33,1.89,1.89,0,0,1,1.73,1.31,11.52,11.52,0,0,1,.46,1.84c.08.54.25.92.83,1.05l-.08.42.45.18a30.82,30.82,0,0,0-.33-5.86c-.51.07-1.05-.17-1.45,0l-1.28-.2-.25.34a1.11,1.11,0,0,0-1.11-.42l-.3.38-.29-.37h-.89l-.26.43-.16-.42h-1l-.08.37-.32-.34.19-.15,0-.09-2.39.15-.15.44-.82-.55-.54.19-.1.35-.31-.43-2.23-.17L251,11c-.66,0-.76-.45-.79-.93l-.51,0V11l-.41,0-.64-.8-.39.06-.08.77-.51-.25-.33-.59-.28,0-.2.74Zm-2-.7c0,.08-.1.13-.09.17a.15.15,0,0,0,.12.1.17.17,0,0,0,.1-.12S244.53,10.42,244.47,10.35Z"/><path d="M55.59,17.69a3.85,3.85,0,0,1,.28-2.06,1.81,1.81,0,0,0,.09-.31,6.24,6.24,0,0,1,1.11-2.27c.36-.56.91-.93,1.27-1.48A3.41,3.41,0,0,1,59,11,10.93,10.93,0,0,1,62.58,9a5.52,5.52,0,0,1,1.91-.36A11.88,11.88,0,0,1,68,9.13a10.41,10.41,0,0,1,1.53.86c.11-.27.24-.54.34-.81a.72.72,0,0,1,.73-.54h1c.26.07.45.33.79.2.28.17.36.4.23.8A5.57,5.57,0,0,0,72.41,11a9.1,9.1,0,0,1-.12,1.73c0,.09,0,.2,0,.31a1.14,1.14,0,0,1,0,.51c-.31.95.13,1.89,0,2.84.23.2.42.41.14.75a2.52,2.52,0,0,1-1.91,0l-.47-.56,0-.68c-.47-.65-1-1.34-1.46-2a3.54,3.54,0,0,0-2.36-1.62,3.9,3.9,0,0,1-.48-.21,2,2,0,0,0-1.71-.2.45.45,0,0,1-.26,0,1.49,1.49,0,0,0-1.06.47,4.25,4.25,0,0,0-1.35,3c0,.23-.08.46-.08.69a3.08,3.08,0,0,0,1,2.13,11.7,11.7,0,0,0,2.81,2.06c.83.47,1.65,1,2.51,1.39a15.35,15.35,0,0,0,1.6.59A6,6,0,0,1,71.89,24c.3.36.6.73.92,1.08a4.84,4.84,0,0,1,.9,2A5.31,5.31,0,0,1,74,28.79,11.81,11.81,0,0,1,73.71,31a12.25,12.25,0,0,1-.66,2.05,3.2,3.2,0,0,1-.58.76c-.12.14-.25.25-.35.39a2.88,2.88,0,0,1-.91.93c-.28.15-.49.45-.78.65A7.43,7.43,0,0,1,68,36.7a3.06,3.06,0,0,1-1.31.21.92.92,0,0,0-.38.11,5.37,5.37,0,0,1-2.49.28,20.89,20.89,0,0,0-3.13-.45c-.67-.29-1.46-.3-2-.84-.08-.07-.23-.06-.42-.11a2,2,0,0,1-.59,1.87H55.8l-.72-.52-.17-.37A6.13,6.13,0,0,0,55,35c0-.65,0-1.29,0-1.94a17.13,17.13,0,0,1,.5-4,4.19,4.19,0,0,0,.15-.77,1.85,1.85,0,0,0-.12-.56l.21-.6a11.79,11.79,0,0,1,3.27.32c0,.74,0,1.43,0,2.11a2.67,2.67,0,0,0,.28,1.28c0,.08.11.15.11.23A3.2,3.2,0,0,0,60.46,33a4.08,4.08,0,0,0,1.83,1.23,5.21,5.21,0,0,0,4-.06,3.6,3.6,0,0,1,.54-.22,1.25,1.25,0,0,0,.78-.52A2.28,2.28,0,0,1,68,33a1.44,1.44,0,0,0,.53-1.22c0-.5.11-1,.11-1.51A2.29,2.29,0,0,0,68,28.63c-.42-.45-.77-1-1.22-1.39a9.94,9.94,0,0,0-1.47-1.08c-.42-.26-.89-.45-1.34-.68-.72-.36-1.45-.69-2.16-1.08a12.14,12.14,0,0,1-3.5-2.53,20.11,20.11,0,0,1-1.54-2.12C56.33,19.07,56,18.34,55.59,17.69Zm5.18,18.09s.08.12.13.12c.76.12,1.52.19,2.27.33a9.81,9.81,0,0,0,4.44-.48l-.55-.63-.36.17-.17.56a.94.94,0,0,0-1.37,0l-2.59-.26-.28.25L61.22,35c-.11.32,0,.73-.46.8-.21-.23-.52-.39-.48-.79L61,35,59.79,34l-.16.45L59,34.13l.26-.68-1-1.8c-.4-.15-.74-.51-.61-.73l.43-.16v-.39l-.56-.64.3-.35a1.14,1.14,0,0,0-.31-1.06H57.1a3.52,3.52,0,0,1-.2.55c-.11.18-.37.29-.23.57l.33.13v.7l-.58-.1-.17.57.75.16v.74l-.76-.19-.16.69.9.07v.71c-.53.21-.64-.29-1-.53,0,.76,0,1.44-.06,2.13s-.05,1.35-.08,2l1-.32.08-.43c-.48,0-.51-.48-.78-.81H57l.08.47.67-.58,1.13.27L59,35h.65l.17.59ZM69.87,31a.94.94,0,0,0-.14.33,4.85,4.85,0,0,1-.52,2.08,1.64,1.64,0,0,1,0,1.14l-.53-.44-1,.84.42.15-.13.65.59-.22L68.53,35l1.13.15.79-.62-.62-.73a.92.92,0,0,1,.94-.18l.08.61.9-1.11a.81.81,0,0,1-.52-.87l1-.05a2.42,2.42,0,0,0,.58-1.88,4,4,0,0,1,.13-1.39.91.91,0,0,1-.13-.93,1,1,0,0,0-.05-.64c-.13-.43-.29-.86-.45-1.29,0,0,0-.05-.06-.07l-.23.3a1,1,0,0,1-.76-.82l.43-.19-.76-.8-.25.54-.83-.65.25-.59-.55-.37-.42.11-1-.71-.21.74-.59-.21-.28-.9c-.22-.1-.54-.23-.85-.39s-.59-.34-.93-.54l-.14.62-.55-.17-.23-.59.28-.23L64,20.67l-.31.12-.42-.23L63,20l-.48-.23v.89h-.43L61.54,20l.81-.29-1.19-1.28,0,0-.29-.51-.06.06-.63-.59a1.35,1.35,0,0,0,.12-.68c0-.17-.07-.34-.08-.51,0-.56,0-1.11,0-1.65l.4-.66-.45-.75.78-.26.81-1.2L62.5,11l.63-.17-.07-.79-.54.34v.64a.9.9,0,0,1-.8-.42c-.5.36-1.11.48-1.5.95l0,0c-.45.12-.55.49-.58.86l-.5-.06-1,1.33-.36.09v.35l.61.39-.15.63c-.32-.05-.32-.05-.9-.53l-.46,1.79H57l-.28.46.31.3a2,2,0,0,0,.48,1.55l.1-.37c.3.11.64-.12.87.25l-.2.71-.38-.12-.07.09.61.66c.06.15.13.35.22.54s.24.42.36.64l.59.11c.34.91,1.2,1.11,1.86,1.59a.86.86,0,0,1,1.05-.22v.82a1.88,1.88,0,0,0,1.18.47l.6.51.24-.53c.28,0,.56-.11.76.21,0,.23-.26.47,0,.81l1.18.52A4.46,4.46,0,0,0,67,26a9.66,9.66,0,0,1,1.73,1.65,6.1,6.1,0,0,0,.57.56l.42,1.26,1,.05v.86c-.46.14-.54-.38-.91-.45v1ZM69.3,12.44l-.36,0a13.2,13.2,0,0,1,.87,1.07,1.62,1.62,0,0,0,.93.82l.39,1.59.47-.29-.37-1.12.22-.63c-.08-.29-.25-.56-.2-.79.25-1.13-.16-2.32.36-3.41L71,9.58l-.26.28.07,1.21-.73-.13-.38.17c-.34,0-.62-.08-.89-.13s-.41-.43-.75-.31l-.19.4c-.53-.12-.63-.55-.82-.93l-.36,0-.09,1.05a2.78,2.78,0,0,1,1.87.81l.11-.36h.72Zm-3-2.4-1.57-.2a2.67,2.67,0,0,0-.4,0l-.77.13s-.05,0-.08.06l.43.22-.09.36h.46l.23-.5.6,0,.08.47a.47.47,0,0,0,.63.08l-.15-.43Z"/><path d="M91.42,37.34l-1.1.18a1.09,1.09,0,0,0-.32,0,2.74,2.74,0,0,1-1.64.18c-1.15-.16-2.3-.4-3.44-.65a3.54,3.54,0,0,1-1.37-.75,9.08,9.08,0,0,0-1.54-1A7,7,0,0,1,79.63,33a9.56,9.56,0,0,1-1.55-3.44,6.42,6.42,0,0,1-.18-1.7c0-1.79,0-3.57,0-5.35,0-.24.1-.47.11-.71s-.07-.46,0-.69a5.6,5.6,0,0,0,.15-1.44c-.08-.42.12-.77.05-1.16s.12-.88,0-1.35a6.83,6.83,0,0,1,.1-1.26c0-.39-.09-.79-.09-1.18a8.08,8.08,0,0,1,0-1.63,3.74,3.74,0,0,0,0-.75,1.53,1.53,0,0,0-1.31-.62c-.41,0-.81-.05-1.22,0a.91.91,0,0,1-.91-.78,2.13,2.13,0,0,0,0-1.22l.32-.4c.66,0,1.19,0,1.71,0s.79-.08,1.18-.12a5.77,5.77,0,0,1,.58-.08c.17,0,.35,0,.52,0s.5.15.8,0,.5.06.76.12a7.49,7.49,0,0,0,2.63,0,1.81,1.81,0,0,1,.39-.05,13.07,13.07,0,0,0,2.27.13c.38.24.93.25,1.19.8,0,.53.18,1.14-.29,1.72h-3.3c0,.77,0,1.5,0,2.23a2.31,2.31,0,0,0,.13.77,7.49,7.49,0,0,1,.15,3.52A5.6,5.6,0,0,0,83.73,20a5.72,5.72,0,0,1-.11,1c0,1-.07,1.94-.13,2.91a.35.35,0,0,1,0,.18v1.21h0a2.94,2.94,0,0,1,.1.58,9.09,9.09,0,0,0,.26,2,2.43,2.43,0,0,1,0,.47,9.14,9.14,0,0,0,.31,2.14,5.74,5.74,0,0,0,.25,1,3.53,3.53,0,0,0,1.25,1.67,5.18,5.18,0,0,0,2.31.86c.89.13,1.77.07,2.52.11.85-.25,1.58-.47,2.31-.67a6.24,6.24,0,0,0,2.1-1,7,7,0,0,1,.48-.8,2.17,2.17,0,0,0,.39-.89c.14-.64.4-1.25.48-1.9a13.79,13.79,0,0,0,0-1.93,3.87,3.87,0,0,1,.4-1.79c0-1.24,0-2.49,0-3.73,0-.65-.12-1.29-.17-1.93a6.38,6.38,0,0,1,0-1.69c.16-1,.21-1.92.29-2.89a8,8,0,0,0,.05-1.47A11.57,11.57,0,0,0,96.42,12a10,10,0,0,0-2.85.1L93,11.77c-.42-.44-.19-1-.29-1.47,0-.21.19-.47.3-.72.83-.05,1.62,0,2.4-.15,1.4-.18,2.8-.08,4.2-.12a5.77,5.77,0,0,0,.71-.1l1.53.15.74.5c.45.3.45.8.54,1.24s-.48.86-1,.88H99.92c0,.07-.09.11-.09.14,0,.57-.07,1.15-.16,1.71a26.53,26.53,0,0,0-.13,3.45c0,.24,0,.47-.07.79a4.07,4.07,0,0,1,.06,1.49c0,.25,0,.5,0,.75.06,1.38.1,2.75.14,4.12,0,.54,0,1.09,0,1.63a17.31,17.31,0,0,1-.27,2c0,.29-.1.57-.11.85A5.41,5.41,0,0,1,99,31.07a.91.91,0,0,0,0,.33,4.34,4.34,0,0,1-.66,2.18,6.81,6.81,0,0,1-1.73,2.07A4.7,4.7,0,0,1,93.83,37c-.54,0-1.07.21-1.61.29a4.68,4.68,0,0,1-.75,0Zm-9-10.11c-.39-.29,0-.47.1-.65l-.27-1a1.15,1.15,0,0,0,.09-1c-.06-.17-.09-.49,0-.56.37-.27.16-.53.06-.81l-.17-.49.43-.17V22.1a6.42,6.42,0,0,1-.38-.53,1.06,1.06,0,0,1,0-.37l.39.44v-.9l-.39-.44.07-.46.46-.17v-.39l-.6-.67.27-.2.35.63L83,18l-.79-.75L83,17a2.9,2.9,0,0,0-.6-2.34c0-.19,0-.36.08-.53s.07-.38.1-.56l-.25-.37.33-.41-.26-1,.6-.58-.79-.89-.37,0-.07.74-.48-.16c-.29-.26-.22-.82-.79-.71l-.07.72c-.42.14-.61-.07-.77-.36l.08-.39-1-.14c.39.37.21.72.21,1.15a3.27,3.27,0,0,1-.76-.7l.08-.31-.59,0v.7l1.29.74a7.69,7.69,0,0,1,0,2.95.85.85,0,0,1,.11.31c0,.75.14,1.5.13,2.25,0,.59-.16,1.17-.21,1.76,0,.36,0,.73,0,1.16-.4.27,0,.75-.14,1.15a4.88,4.88,0,0,0,0,1.32l.26.24c-.5.17-.21.51-.25.78s-.08.59-.12.9l.17.36-.25,1,.25.33a2.1,2.1,0,0,0-.08.46c0,.08.12.15.17.22l-.32.16.22.65a6.4,6.4,0,0,0,.59,3.34l.32-.07.17.63-.09.42c.31.42.57.77.82,1.13a6.94,6.94,0,0,0,.64.93,6.74,6.74,0,0,0,2,1.39.88.88,0,0,0,.33,0c0-.12,0-.18-.06-.24a.53.53,0,0,1,0-.12A2.21,2.21,0,0,0,85,36.14a6.15,6.15,0,0,0,1.81.27l.1-.2.3.15,0,.29,1.21-.46.05.1-.37.41h1l.14-.37.41.39,1-.3.16.11a4.07,4.07,0,0,1,.42-.07c.49-.05,1-.07,1.46-.15s1.2-.26,1.79-.41c.19,0,.45-.08.44-.39l0,0a4.08,4.08,0,0,0,1.6-1.09c.2-.23.39-.47.58-.71.12-.07.17-.22.28-.32A2,2,0,0,0,98,32.15c0-.37.08-.75.15-1.11a8.57,8.57,0,0,0,.24-1.82c0-.72.07-1.45.14-2.16,0-.46.15-.91.21-1.24a3.76,3.76,0,0,1,0-1.78c0-.38-.09-.62-.09-.85a10.29,10.29,0,0,1,0-1.47,8.4,8.4,0,0,0,0-1.42,4.85,4.85,0,0,1-.11-.83,23.52,23.52,0,0,0,.11-3c0-.33-.06-.66,0-1,.06-1,.1-2,.22-3a1.16,1.16,0,0,0-.24-1.09l.59-.53a6.71,6.71,0,0,0,2.89,0c0-.41-.31-.53-.61-.61l-.35.16-.17.47-.56-.66-.6,0-.11.47c-.45.1-.51-.3-.74-.5l-.48,0-.14.73c-.54,0-.66-.46-.92-.75l-.43,0-.1.88-.88-.88-.39.16,0,.59a2.59,2.59,0,0,1,1.84.6h.89v.84L97.49,12c.07.34.15.61.18.88a.59.59,0,0,0,.57.61s0,0,.07.12l-.47.19-.12.43.59.86-.46,0L97.7,16l.73.59-.56-.11a.55.55,0,0,0-.18,0l-.12.52.79.17-.61.12.59.51c-.36.27-.57-.12-.85-.16l-.1.65.94.9-.27.2-.65-.49a3.66,3.66,0,0,0,0,.95l.8-.08c-.17.17-.47.12-.41.48l.5.11,0,.26c-.33.24-.47-.11-.69-.19-.29.7.17,1.12.64,1.64l-.55-.1-.11.56.15.5a3.35,3.35,0,0,0,0,1.54,1.77,1.77,0,0,1,.33,0,2.51,2.51,0,0,1,.33.08c-.25.27-.48.14-.67.1l-.18.73.33.59-.44-.29a4.65,4.65,0,0,0-.15.68c0,.37,0,.75,0,1.13a6.6,6.6,0,0,1-.15,2,15,15,0,0,0-.45,1.75A1.53,1.53,0,0,1,96,32.36l.36.42L96,32.72l-1.08,1.13.08.4-.07,0-.32-.44a2.75,2.75,0,0,1-1.7.68c-.09,0-.17.13-.25.18a4.64,4.64,0,0,0-1.94.52l.43.56c-.49,0-.45-.48-.77-.65a3.75,3.75,0,0,0-1.09.08l.89.75A1.69,1.69,0,0,1,89,35.12a4.34,4.34,0,0,0-1.13.05l.29.53-.1.06L87.56,35l-2.32-.78q-.66-.68-1.32-1.32a1.47,1.47,0,0,1-.43-.79A4.15,4.15,0,0,0,83,30.44c-.73-.35-.74-.36-.64-.88.28.09.17.55.55.6V29.09l-.66-.63,0-.41c.22.46.22.46.63.61a3,3,0,0,0-.53-1.44l.3,0-.12-.38-.11,0Zm1.1-17.13-.45.22.07.52.84,0ZM94.11,11H95l-.23-.47h-.55ZM84.6,10.8l.68-.06L85,10.23l-.42.07Zm-8.31-.23a.72.72,0,0,0,.67,0c-.14-.37-.37-.35-.65-.28Zm6.64,6.65h-.17c-.11.18-.09.34.17.47ZM82.81,20l-.39.32.39.33ZM86,10.41l-.14.05.12.32.13,0Z"/><path d="M118.23,22.48c.16.1.22.18.3.19a11,11,0,0,1,3,1c.49.23.88.65,1.34.91A3.39,3.39,0,0,1,124,25.91a8.91,8.91,0,0,1,1.08,2.51,8.11,8.11,0,0,1,.13,1.84,3.77,3.77,0,0,0,.15,1L125,32.89a2.65,2.65,0,0,1-.64,1.3c-.59.59-1.07,1.28-1.94,1.47-.46.5-1.13.46-1.7.65a12.62,12.62,0,0,1-1.72.4c-1.08.16-2.17.28-3.26.41l-1.18.13a9.3,9.3,0,0,1-1.17.13h-2.43c-.8,0-1.6,0-2.4,0s-1.49-.12-2.37-.2a22.91,22.91,0,0,1-2.93.08l-.47-.57-.08,0-.21-1.43.36-.55a18.16,18.16,0,0,0,2.84-.32,9,9,0,0,0,0-1.35,9.13,9.13,0,0,1,.34-1.73,6.38,6.38,0,0,0,.2-1.38,30.7,30.7,0,0,0,.15-3.59c0-.33,0-.67,0-1-.19-2.46-.15-4.93-.13-7.4,0-1.15.11-2.3.17-3.54l.22-.45c0-.45,0-.89,0-1.34,0-.12-.11-.23-.18-.38L105,12.06l-.61-.21-.66-.19-.4-.72A1.69,1.69,0,0,1,105,9.71c.8,0,1.59-.09,2.38-.13.5,0,1,0,1.49,0s1,0,1.54,0,1,0,1.53,0,.84.08,1.25.11a.91.91,0,0,0,.33,0,5.89,5.89,0,0,1,2.25-.09,11.15,11.15,0,0,1,4.1.86,9.81,9.81,0,0,0,1,.38,2.89,2.89,0,0,1,1.75,1.9c.1.26.25.51.35.77a5.94,5.94,0,0,1,.31,1.82,5.67,5.67,0,0,1-.35,2.11c-.15.47-.28,1-.44,1.43a4.17,4.17,0,0,1-1.67,2c-.3.22-.59.45-.91.65s-.64.37-1,.54Zm4.17,2.86,0,0a1.37,1.37,0,0,0-.77-.65l-.5.11-.44-.57-.94-.35v.46l.47.53c-.43-.09-.63-.44-.9-.69l.13-.41-2-.69.06.36c-.45.07-.65-.27-.8-.45h-1l.47.5,1.76.67.2-.24a4.92,4.92,0,0,0,.32.65,7.52,7.52,0,0,1,1.15,2l.82.21c-.28.19-.54-.21-.67.2l.14.44.5-.12a2.55,2.55,0,0,0-.26,1.53h.21l.05.56.45-.13c-.19-.21-.44-.4-.26-.75l1.23.82,1.09-.07.2.13.8-.09v.1l-.44.07-.1.34.75.81h-.56l-.78-1.24-.73.36.84.85a1,1,0,0,1-1.15-.41l0,.6,0,0-.27-.21.26-.74-.29-.45-.68.42c.11.2.17.34.25.47s.29.19.09.38a1.1,1.1,0,0,1-.74-1.16,1.61,1.61,0,0,0,.1,1.27l.22.06.45,1.15c-.38.1-.48-.25-.63-.37-.13-.29,0-.62-.35-.79l-.36.73L120,32c-.37.23-.71.44-.66.9l.53.37.48-.08.1.3.4.07-.07.61.93.54.12.3.25-.07-.48-1.34-1-.31-.16-1.07h.34c.06.51.2.93.71,1l.42-.12-.16.36.54.11-.12.38.45.61.49-.35-.06-.43-1.16-.67c-.08-.38-.17-.75-.25-1.13,0-.05,0-.1.07-.19l.1.34.24.08.54,1,.47-.07.1.33.37,0-.61-1.42.7.19c-.15.52-.15.52.24.72l.43-1c-.67.42-.73-.17-1-.3l-.07-.8h.41l-.09.31.64.63.16,0c0-.84.39-1.67,0-2.46l-.76-.4-.17-.85h.33c.15.21.1.53.49.69a2.34,2.34,0,0,0-.54-1.34A2,2,0,0,0,123,26l-.15-.15C122.84,25.57,122.77,25.35,122.4,25.34ZM111.18,36.18l-.36-.45v.62l.37-.19v.29c.37-.05.73.16,1-.2a1.8,1.8,0,0,0,.83.1l-.9-.55h-.48l-.14.37Zm7.76-2.68-.83.81.79.37L119,35l.43.07-.08.27c.33.48.73.13,1.08.09a2.71,2.71,0,0,0,1.15-.32l-1.07-.62-.13-.6-1.26-.75-.19.43ZM106.62,35l.37,0a1.08,1.08,0,0,0,.7,1l.38-.12-.09.34h.62c-.19-.4-.72-.56-.7-1.12,0-.09-.29-.2-.46-.29s-.17,0-.12,0l-.56-.44.08-.57.69.79.6-.18-.17.36.89,1.23c.6,0,1.08.64,1.84.34l-.65-.07c-.31-.25-.59-.45-.63-.89,0-.2-.35-.39-.56-.55s-.5-.27-.74-.41l-.26-1.08.64.24-.12.38c.42.41.74.91,1.31,1.06.1.6.25.75.84.87,0,0,0,0,.08-.06l-.52-.33.43-.59a1.61,1.61,0,0,0-.23-.08,1,1,0,0,1-.89-.75,1,1,0,0,0-.69-.73c-.24-.08-.42-.36-.59-.58a1.67,1.67,0,0,1-.23-.53.33.33,0,0,1,0-.17l.46.15a1.39,1.39,0,0,0,.66,1l.25-.07.1.3.32.1.06.59c.21.13.29.4.6.4l-.13-1-.66-.53-.34-.92.56.1.09.72.36.13v-.83l-.54-.29-.34-1.07.25,0,.19,0c.1.47.1.47.45.66v-.82l-.63-.36-.35-.79.81-.27-.2-.16.21-.67C110,27.21,110,26,110,24.69l-.28-.6.52-.39c.12-.48-.61-.54-.42-1l.24-.09.2.4.89-.08.11-.36.3.37h.9l.25-.5.15.63,1.14.07-.11-.38.34-.22.07.63,1.27.17-.35-.64,1.73-.78-.34-.66h1l0,.32c.35.13.42-.16.58-.37h.53l1.2-.85-.21-.5.76.08.83-.79-.15-.68.6-.12.44-1.44a6.12,6.12,0,0,0,0-3.06l-.32-.34-.5.09-.19-.49.55-.1a1.7,1.7,0,0,0-1.16-1.27s-.08,0-.12,0l-.12.47a.64.64,0,0,1-.57-.59l.43-.16-2.19-.65-1.35-.26-.62.2a1.49,1.49,0,0,0-1.32,0,1.67,1.67,0,0,0-1.33,0l-.9-.23-.41.19-1.14-.25-.3.32-.92-.39-.33.15-.08.28-.54-.32h-.55l-.38.28-.38-.28c-.33,0-.71-.14-.94.25-.59-.31-1.13.07-1.69.11a10.32,10.32,0,0,0,2.33.51l.92.28c.11.32-.16.41-.34.52l-.18.59a1.39,1.39,0,0,0,.23.25,1.81,1.81,0,0,0,.41.15l-.32.42-.24-.08,0,.83.29-.07c.3.25.27.45,0,.64l-.41-.12v.91l.6.05v.79l-.7-.11.12.6.48.08-.08.27.28.53-.85-.2v.48l.84.89-.19.22-.63-.18-.09.72c.3.11.56-.29.83,0v.88l-.76-.22v.62l.64.8c-.26.3-.41-.11-.62-.11a2.36,2.36,0,0,0,.33,1.51l-.34,0,.38,1.44h-.27v4.44a2.33,2.33,0,0,1,0,.53,35.32,35.32,0,0,0-.67,3.81c0,.12,0,.24,0,.36-.05.36.17.71,0,1.07-.32.17-.53.52-1,.54-.66,0-1.31.09-2,.14l-.12.06v.45a22,22,0,0,0,3.83.07l-.63-.4Zm8.85-10.8-4.24-.52a9.8,9.8,0,0,0-.18,1.26,50.23,50.23,0,0,0,.13,5.35,1.27,1.27,0,0,0,0,.2,10.65,10.65,0,0,1,.13,1.24c0,.42.07.83,0,1.25a18.51,18.51,0,0,0,0,2l.85.17,1.57-.23,1.57-.22c.3-.11.61-.21.9-.33a3.84,3.84,0,0,0,2.17-1.68c.37-.72.72-1.45,1.09-2.21,0-.06-.12-.13-.12-.2a6.58,6.58,0,0,0-.16-1.93q-.15-.6-.33-1.2a3.2,3.2,0,0,0-2.5-2.56A5.45,5.45,0,0,1,115.47,24.17Zm3.59,11.06-1.3-.73-.4.24.55.3.4.7h.75Zm-1.15.74c-.36-.41-.27-.91-.75-1.13l-.68.23.3.72Zm-2.15.05h.73l-.33-.82-.93.24Zm-1.46-.17c.75.42.75.42,1,.34l-.67-.6Zm-4.53-6.32c0,.45,0,.45.32.73v-.73ZM114,36.24a.6.6,0,0,0-.49-.45C113.5,36.3,113.5,36.3,114,36.24Zm-1-.42v.08l.28,0v-.08Z"/><path d="M233.75,34.57c.54,0,1,.08,1.54.15s.9.16,1.3.24c.55.74.55.74.54,1.49-.2.54-.86.5-1.13.95a13,13,0,0,1-2.5-.12,3,3,0,0,0-.95,0,9.69,9.69,0,0,0-1.32,0,15,15,0,0,1-2,0,20.42,20.42,0,0,1-2.07,0c-.47,0-.93-.09-1.39-.12a6,6,0,0,0-.73.08l-.55-.18-.28-1.67a.66.66,0,0,0,.09-.25c0-.27.2-.31.4-.34.8-.11,1.59-.2,2.39-.32a2.74,2.74,0,0,0,.55-.25c.05-.38.12-.78.14-1.19a9,9,0,0,0,0-1.47c-.25-2.6,0-5.2-.14-7.8-.1-1.78-.12-3.56-.11-5.34a17.78,17.78,0,0,1,.21-1.77,4.57,4.57,0,0,0,.05-.52c0-1-.09-2-.13-3,0-.37.08-.76-.22-1.08a6.81,6.81,0,0,0-2.29.18,1.53,1.53,0,0,1-1-.09c-.44.26-.91.53-1.37.82a3.59,3.59,0,0,0-1.38,1.91,3.79,3.79,0,0,0-.3,1.34,3.56,3.56,0,0,1-.26.94l-.48.33-1.24.07-.45-.43c.05-.53.11-1.09.18-1.66v-.07c.05-.75.09-1.5.13-2.25.05-.9.1-1.81.14-2.71a1,1,0,0,1,.5-.81c.84,0,1.73,0,2.62,0a34.9,34.9,0,0,0,4-.09,7.11,7.11,0,0,1,.78.08,14.89,14.89,0,0,0,2.49-.24,1.22,1.22,0,0,1,.33,0,22.37,22.37,0,0,0,3.66-.13h.06a4.51,4.51,0,0,0,1.42,0,18.85,18.85,0,0,1,3.09.25,3.5,3.5,0,0,0,1.23-.16,4.32,4.32,0,0,1,2.83.31.72.72,0,0,1,.43,1l.27.39c-.27.39.12.76.08,1.15a4.29,4.29,0,0,0,0,1.19,11.61,11.61,0,0,1,.06,3.17c0,.24.13.51-.07.73a6.14,6.14,0,0,1-.47.42h-.9a2.92,2.92,0,0,1-1.1-1.69,5.06,5.06,0,0,0-.58-1.66,3.69,3.69,0,0,0-1.21-1.34,10.26,10.26,0,0,1-1.18-.9c-1.33-.07-2.71,0-4.16-.07l-.13.15a1.83,1.83,0,0,1,0,1.11,4.1,4.1,0,0,0-.16,1c0,.78-.23,1.53-.24,2.31s.05,1.64.06,2.46a7.89,7.89,0,0,1-.09.86,4.18,4.18,0,0,1,0,1.9,3.71,3.71,0,0,1,.08.53,17.65,17.65,0,0,0,.25,3.16,12.11,12.11,0,0,1,0,2,20.39,20.39,0,0,0,.25,3c0,.3,0,.63,0,.93.15.82,0,1.64.13,2.46A5.57,5.57,0,0,0,233.75,34.57Zm-14-18.86h.36c.05-.5.05-.5-.17-.72l-.17.74c-.28.23-.11.5-.11.8l.36-.07Zm8.85-4.53a6.89,6.89,0,0,0-.52-.56,1.27,1.27,0,0,0-.41-.11v.32c.56.31.56.31.94.33l.48.48v.74l-.25.13-.35.15.62.39v.6l-.45.42.51.44a2.44,2.44,0,0,1-.25.62c-.2.26-.23.23-.16.54l.36.15-.06.59-.43.2c-.09.47.31.4.53.58l-.21.65-.46.06v.44l.63.17-.05.64h-.59v.65l.43-.05c.26.52.26.52,0,.9l-.42-.1v.62l.63.09-.05.68-.6,0a1.81,1.81,0,0,0,.38,1.26l-.24.2v.77l.5.24-.17.29-.31,0-.11,1.1c0,.33.06.55.07.76,0,1.07,0,2.14,0,3.21,0,.55.09,1.09.15,1.64,0,.05.11.1.12.11a1.1,1.1,0,0,0-.14.36c0,.43,0,.87,0,1.3a6.11,6.11,0,0,1-.27,1.27,1.36,1.36,0,0,1-1.29,1,7.88,7.88,0,0,1-1.74.21c-.08,0-.18.1-.25.14l.12.57c.28,0,.53,0,.79,0h3.07a1.47,1.47,0,0,0,.47,0,7.72,7.72,0,0,1,2.25-.11c.37,0,.74.11,1.11.11.94,0,1.88,0,2.83.06a1.68,1.68,0,0,0,.55-.11l-.05-.47c-.11,0-.18-.12-.26-.12-.62-.06-1.23-.12-1.85-.15a1.42,1.42,0,0,1-1.45-1.38c0-.43-.09-.87-.14-1.31s-.1-.87-.12-1.32c-.06-1.08-.11-2.16-.14-3.24a15.41,15.41,0,0,0,0-1.8,18.12,18.12,0,0,1-.24-3c0-.36,0-.72,0-1.07A7.51,7.51,0,0,0,232,21.3c-.06-.82-.06-1.64-.07-2.46,0-1.25.07-2.51.12-3.77,0-.3.08-.6.12-.91,0-.54.11-1.09.14-1.64a2.36,2.36,0,0,0-.08-.45c0-.13-.07-.35,0-.37.34-.17.08-.51.23-.7l-.32-.6-.32-.11-.06,1L231.1,11l-.31-.57h-.26l-.3.89-1.07-.93-.11.74Zm8.9-.88-.23.76c.89-.2,1.2.59,1.79,1l.17-.4h.85a2.65,2.65,0,0,1,0,.57,1.62,1.62,0,0,1-.2.42l.56.64.24-.3h.72v.86c-.23.07-.43-.28-.62,0,0,.4.41.4.68.55l-.11,1.09.38,1.19.39,0-.13-.77a1.77,1.77,0,0,0,.09-.9,1.05,1.05,0,0,1,0-.92c-.34-1,0-1.94-.29-2.87l-.36-.79-.08.81a1.77,1.77,0,0,1-1-.83c-.09,0-.15.05-.17.08l-.35.72a4.29,4.29,0,0,1-.48-.36,3.58,3.58,0,0,1-.38-.46l-.31.09-.12.66C238,11.17,237.88,10.64,237.49,10.3ZM220.82,13l-.08.61.08,0,.9-1.16a.82.82,0,0,1-.49-.81l.87-.18.17.69.23-.49c.36-.1.69-.21,1-.27a9.88,9.88,0,0,1,1.05-.1l-.86-.7-.37.81-1.11-.82-.15.78-.73-.23-.46-.73-.15.91-.69-.06v.32l.76.07-.11,1-.79-.4v.7Zm16-1.92c-.36-.24-.37-.69-.8-.78V11Zm-16.9,2.5,0,.72c.33,0,.64.11.76-.28Zm15.27-2.45-.22-.84-.29,0-.12.59Zm-1.87-.17.51,0c-.19-.27-.18-.59-.51-.74Zm-8.36-.37.1.67.45-.21C225.35,10.79,225.34,10.46,224.92,10.54Zm1.58-.07-.16.07v.52L227,11Z"/><path d="M135.19,30.89c.13,1.1,0,2.09.1,3.07,1-.07,1.85-.05,2.71-.2a18.6,18.6,0,0,1,2.79-.11c1,0,2,0,3,0,.7,0,1.41-.06,2-.09a4.49,4.49,0,0,0,1.54-3.88l.52-.44h.44a.92.92,0,0,1,.92.91c0,.44,0,.86,0,1.29a7.64,7.64,0,0,1-.12,1.65,2.5,2.5,0,0,0,0,.77c0,.71,0,1.42,0,2.13,0,.14.13.27.22.46l-.61.43,0-.09c-.34,0-.67.06-1,.07a7.11,7.11,0,0,0-1.13,0c-.35.06-.68,0-1,0a8.22,8.22,0,0,1-1,.06c-.49,0-1-.07-1.48,0s-1.06.07-1.59.05-1,0-1.42,0c-2.22,0-4.44.08-6.67.07-.51,0-1,0-1.55,0s-1,0-1.54,0a9.61,9.61,0,0,1-2.27-.11,1.81,1.81,0,0,0-.58,0l-.38-.12c-.23-.56-.5-1.12-.06-1.69l2.26-.41a1.2,1.2,0,0,1,.15-.3,2.39,2.39,0,0,0,.46-1.67c0-.68.13-1.36.21-2.08a8,8,0,0,1-.09-.92c0-5.55,0-11.09,0-16.64v-.77a2.9,2.9,0,0,0-1.64-.71c-.41-.06-.78-.33-1.23-.25-.1,0-.21-.13-.36-.23l.2-1.44c.12,0,.23-.11.32-.09.7.15,1.44-.13,2.14.25a1.07,1.07,0,0,1,.33-.12c.91-.05,1.81-.14,2.72-.13a11.33,11.33,0,0,0,1.55.08,6.87,6.87,0,0,1,1.1-.08c.58,0,1.15.09,1.73.14.06,0,.13.08.17.06.47-.22.79.09,1.17.3-.09.53,0,1.1-.4,1.58a6.23,6.23,0,0,0-2.76.2c.09.63.17,1.19.23,1.75a1.42,1.42,0,0,1,0,.58,4.1,4.1,0,0,0,0,1.44c.05.7,0,1.41,0,2.11,0,.22-.05.44-.05.66a8.39,8.39,0,0,1-.25,2.23,3,3,0,0,0,0,.6,3.68,3.68,0,0,1-.13,1.44.09.09,0,0,0,0,.07c.19.54-.17,1.12.1,1.67a1.52,1.52,0,0,1,0,.53c0,1.62.09,3.23.14,4.85,0,.13.06.26.07.39S135.19,30.7,135.19,30.89Zm-1.41,2.63-.6.41.54.47.38-.42-.34-.48.5.12-.13-.48ZM144.25,35l.36.6c.35.1.66.31,1,.14,0-.26-.35-.44-.12-.73.38,0,.38.4.65.64l1,.29c-.33-.49-.33-.49-.37-.91h.3l.27.51a1.83,1.83,0,0,0,1.31.44c-.19-.34-.55-.56-.4-1l.51.08-.59-1.38.26-.15a1.39,1.39,0,0,0-.21-1.1,5.05,5.05,0,0,0,0-2.19V31.5l-.83,1.57c-.14.59.78.33.47,1l-.36-.45-.44.34.69.62c-.6.18-.74-.47-1.15-.62a.93.93,0,0,0-.8.36l.65.13v.12l-.53,0c-.29-.16-.39-.5-.78-.36l-.25.49L144,34.3l-.53.31-.61-.18a1.5,1.5,0,0,1-1.37.16c-.08,0-.21,0-.32,0s-.43.09-.65.1h-4.08a7.5,7.5,0,0,1-.8-.09,2.9,2.9,0,0,1-1.44,0c-.47.35-.76.26-1.34-.42l-.09-.69.84-.09a1.15,1.15,0,0,1-.72-1.15l.23-.15.44.81.69-.05s0,0,0-.08l-.13-.48h.06l.07-1.15-.23-.18.11-.71-.46.21c-.54-.13-.66-.53-.76-1,.53,0,.49.66,1,.76a9,9,0,0,0,.24-3.09c-.22-.3-.44-.46-.83-.26l.66.68h-.4l-.5-.66c.28-.45.76-.09,1-.31V24.71l-.21.28c-.29-.27-.7-.37-.75-.8l.37-.17c.17.16.05.55.47.5V23.37c-.25-.23-.71-.29-.6-.8l.64-.06-.17-.58-.06,0-.5-.68.65-.15v-.55l-.62-.66.54-.11V19.2l-.56-.69.76-.27-.73-1,.54-.15V16.5l-.6-.7.59-.13v-.56l-.5-.66.63-.26v-.38c-.17-.31-.58-.35-.57-.78l.54.06.15.39.29-2,.68-.58a.94.94,0,0,0-1-.47l-.16.35c-.35.08-.4-.19-.52-.35h-.69c-.07.24-.19.41-.51.36l-.35-.42a6,6,0,0,0-.58.17c-.05,0,0,.17-.06.25s-.12,0-.15,0c-.21-.12-.41-.24-.59-.36l-.58.07-.12.34a3.12,3.12,0,0,0-.39-.18l-.66-.26s-.12,0-.17.06v.32c.63.07,1.09.66,1.77.61l.89.31,0,.62-.51-.3.05.93.46.17.1.44-.55.09.12.59.38.1-.06.61-.45-.06v.73l.59.28-.15.48c-.22-.15-.37-.09-.47.13l.17.64.42-.07-.08.67-.55-.14a2.11,2.11,0,0,1,.14.44,2,2,0,0,1,0,.34l.44.09.08.57-.47.06c-.07.41-.15.81.39.84l.12.57-.5-.08-.06.75.51.08-.11.63L131,21.8l-.22,0a.69.69,0,0,0,.5.9v.48l-.37.13-.13.5.47.17a1.27,1.27,0,0,1,0,.94l-.33-.05v.45l.49.24-.42.26.33.46-.39,0v.43l.49.15-.46.09a.4.4,0,0,0,.13.58l-.35.92.56.59,0,.2-.48,0,.15,1,.49.38-.65.09v.7l.57.26v.59l.7,0-.08.27c.19.34.57.52.77.93l-.92,0-.51-1.05-.5-.13V33l.54.13c-.07.36.23.34.36.39l.43.88.59.06.08.47.54.06,0,.5.51.28.25-.11.47.28c-.3-.57-.3-.57-.22-1h.31a3,3,0,0,0,.42.7,3.31,3.31,0,0,0,.73.35l.65,0a1.17,1.17,0,0,1-.72-1l.34,0-.11.14.92.87a.53.53,0,0,1,0,.15h1.13l-.56-.34c-.11-.27-.41-.51-.07-.84l.66.77a2.57,2.57,0,0,0,.24-.4,1.08,1.08,0,0,0-.05-.34h.79a1.26,1.26,0,0,0,.72.85l-.06.31h1c-.42-.31-.79-.58-.78-1.14h.26l.92.81-.08.34.68-.16-.53-1,.36.05c.27.32.42.62.66.73s.41.55.79.19l-.41-.92.46,0c.49.78.9,1,1.39.8L144,35Zm-11.34.9-.11-.63-.39-.39-.56-.07c-.15-.26-.32-.56-.48-.86s-.25-.47-.64-.4l-.2.72,1.19.8-.06,0,.66.79Zm-2.68-1.31-.13.31a4.22,4.22,0,0,0,.48.82,1.06,1.06,0,0,0,1,.17l-.54-1.05-.08.08Zm-1.09.91,0,.18.72.35.36-.16-.24-.65Zm9.22-.22-.08.47-.08.41h1.14C138.84,36.05,138.62,35.65,138.36,35.27Zm-9.49.72c-.23-.46-.52-.35-.91-.27A.77.77,0,0,0,128.87,36Zm7.39-25.25c-.13-.35-.41-.23-.63-.21s-.17.17-.31.33Zm-8.55-.44c0,.35,0,.35.4.44Zm6.51,24h.05v-.38a.83.83,0,0,0-.08.2A1.13,1.13,0,0,0,134.22,34.26Z"/><path d="M150.72,37.09a1.66,1.66,0,0,1-.31-1.81,11.3,11.3,0,0,1,2.57-.36c0-.07.16-.18.16-.29,0-.52.23-1,.27-1.48.11-1.34.13-2.7.15-4a10.46,10.46,0,0,0-.12-1.11,2.46,2.46,0,0,1,.09-.52,6.33,6.33,0,0,1-.08-2,7.38,7.38,0,0,0,0-1.56,12.09,12.09,0,0,1-.06-2,13.86,13.86,0,0,0,0-2.32c-.05-.26.16-.58,0-.88.21-.41-.1-.8-.05-1.22a9.59,9.59,0,0,0,0-1.2V15.06c0-.42,0-.85,0-1.27,0-.61-.09-1.23-.14-1.87l-1.42-.19-1.38-.14-.52-.49c0-.6-.16-1.22.5-1.66l.33.21c.66-.07,1.3-.13,1.94-.21l.78-.11a.57.57,0,0,1,.26,0,9,9,0,0,0,2.78.1,17.82,17.82,0,0,1,1.79,0,2.34,2.34,0,0,0,.45-.07,4.33,4.33,0,0,1,1.67.08L161,9l.79.26c0,.53.06,1,0,1.44a.89.89,0,0,1-.46.69,2.86,2.86,0,0,1-2.16.16l-.71.27a.71.71,0,0,0-.17.11l-.31,1c0,.92-.13,1.84-.07,2.78a12.82,12.82,0,0,1-.07,2.77l.09.65c.05.46.11.92.14,1.38s0,1.1.06,1.65,0,1.23,0,1.85c0,.21,0,.42,0,.63,0,.67,0,1.34,0,2A10,10,0,0,1,158,29a8.63,8.63,0,0,1,.09,2.38,11.52,11.52,0,0,0,.28,2.35c.08.31.22.61.33.92a4.73,4.73,0,0,0,2.45,0l.47.38-.18,1.43c-.44.59-1,.47-1.58.46a11.62,11.62,0,0,0-2.13,0,24.24,24.24,0,0,1-2.82.1,12.87,12.87,0,0,0-2,.1,5,5,0,0,1-1.37-.1C151.27,37.09,151,37.09,150.72,37.09Zm7.3-1.61a15.29,15.29,0,0,1-.79-6.3c0-.81.07-1.4.08-2s0-1.2,0-1.8V21.84l-.49-.57.42-.16c.22-.49-.11-.78-.34-1.1l.32-.28-.28-1.22.23-.81-.24-.34a2.3,2.3,0,0,0,0-1.49,2,2,0,0,0,0-1.33l.23-.95-.32-.57.31,0,.17-.73-.51-.68.74.05c0-.71.74-.52,1.12-.85l-.53-.39h-.56l-.35.29-.4-.39-.94.44-.38-.31-.81,0-.2.44-.39-.43h-.61l-.42.36-.39-.36a1.09,1.09,0,0,0-.94.36l-.38-.34-.65-.11-.13.3a3.59,3.59,0,0,0,1.32.28c.61.1,1.26-.1,1.84.22l.39.54.49,0-.06.53-.53-.3.24,1.15h.31v.54l-.33-.08v.93l.38-.06-.08.64-.52-.32.2,1,.37.12,0,.45-.49-.09.14,1,.36,0v.54l-.35-.18v.82l.38.16,0,.49-.33.05v.78l.33.13v.41h-.27l-.05.81.39.14-.32.74a29.73,29.73,0,0,0,.12,3.84V26a1.14,1.14,0,0,0-.11.57c.06.54-.07,1.09,0,1.62a28.18,28.18,0,0,1,.13,3.18.8.8,0,0,0,.08.26c-.13.4-.38.79-.3,1.1s-.08.68-.08,1a1.53,1.53,0,0,1-.14.41l.57.21,0,.23-.41-.17a1.35,1.35,0,0,0-.05,1.41l-.29-.28-.58.35a5.88,5.88,0,0,0-2.21.42c.26,0,.36,0,.46,0a19.11,19.11,0,0,0,2-.11c.82-.11,1.66,0,2.5-.14s1.5,0,2.25-.14a13.43,13.43,0,0,1,1.68,0A4,4,0,0,0,158,35.48Zm3-25.66L161,9.76l-.33.44-.49.09,0,.45h.73Zm-1.4.37-.93.24c.36.49.76.26,1.18.34Zm.61,25.66.53.23,0-.39Z"/><path d="M55.65,38l-.4.14,0-.1.41-.13Z"/><path d="M231.7,38.23l.15-.14.26.22-.39,0Z"/><path d="M234.55,38.37l-.09-.22.3-.09,0,.07Z"/><path d="M211.06,38.13l-.14.19-.08-.06.15-.18Z"/><path d="M170.54,20l.64-.16v.54H171l-.3-.08Z"/><path d="M123,26l-.18.22-.44-.23-.19-.63.27,0,0,0a.58.58,0,0,0,.41.54Z"/><path d="M205.29,15.38l-.62-.66V14.3h1v.85Z"/><path d="M209.85,19.86a1.09,1.09,0,0,1-.23.94c-.43,0-.57-.4-.85-.64l.14-.37a1.14,1.14,0,0,1,1,.1Z"/><path d="M207,14.35a1,1,0,0,1-.1,1,1,1,0,0,1-.89-.81C206.33,14.21,206.33,14.21,207,14.35Z"/><path d="M204.6,13.32l.21-.38h.86v.82l-.51.1Z"/><path d="M207.68,20.61l-.24-.55c.18-.49.56-.24.86-.35a2.39,2.39,0,0,1,0,1.13Z"/><path d="M206,15.75h1v.83C206.5,16.68,206.29,16.52,206,15.75Z"/><path d="M208.35,19.57l-.87-.64v-.49h.87Z"/><path d="M206.31,13.7l-.29-.6c.28-.32.63-.14,1-.17v1Z"/><path d="M207.08,12.5h-.56l-.62-.86,1-.12C207.23,11.78,206.9,12.14,207.08,12.5Z"/><path d="M207,18h-.46l-.59-.75c.37-.26.7-.14,1-.15Z"/><path d="M208.36,17.1v.83a.46.46,0,0,1-.58-.08c-.21-.2-.42-.39-.26-.75Z"/><path d="M208,16.67c-.3-.28-.54-.5-.46-.91h.87v.84Z"/><path d="M187.75,14.32c0,.34.14.62-.14.85a.82.82,0,0,1-.75-.67C187.1,14.13,187.4,14.26,187.75,14.32Z"/><path d="M187.68,12.48a1,1,0,0,1-.81-.85h.88A1,1,0,0,1,187.68,12.48Z"/><path d="M187.67,16.68c-.38-.31-.82-.38-.79-.92h.93Z"/><path d="M187.25,13.75l-.39-.57a.71.71,0,0,1,.87-.19l.07.62Z"/><path d="M185.56,13h.73v.7C185.69,13.71,185.56,13.6,185.56,13Z"/><path d="M186.31,11.62v.8c-.56-.17-.69-.3-.75-.8A1.89,1.89,0,0,1,186.31,11.62Z"/><path d="M186.93,21.23h.77c.21.26.05.47-.08.69C187.19,21.93,187.15,21.58,186.93,21.23Z"/><path d="M187.58,17.87l-.73-.76.85-.05a1,1,0,0,1,0,.74Z"/><path d="M187.85,22.59l-.2.61c-.5.05-.52-.3-.68-.61Z"/><path d="M187.28,19.05l-.32-.6h.77l.08.56Z"/><path d="M187.83,24.17l-.29.6-.55-.66C187.29,23.93,187.53,23.72,187.83,24.17Z"/><path d="M209,21.23h.76l-.09.69C209.29,21.91,209.17,21.63,209,21.23Z"/><path d="M187.17,20.36l-.12-.45h.77l-.2.64Z"/><path d="M186.3,32.16v.59c-.35,0-.42-.24-.5-.52Z"/><path d="M186.28,35.52c-.11,0-.19,0-.22-.07a4.24,4.24,0,0,1-.34-.4l.59-.06Z"/><path d="M185.75,33.67h.55l0,.37C186.26,34.18,186.05,34.05,185.75,33.67Z"/><path d="M187.1,25.52l.52-.2V26Z"/><path d="M187.64,32.16v.65c-.22-.15-.42-.25-.36-.58Z"/><path d="M187.3,26.72c.44,0,.35.31.35.59l-.35-.12Z"/><path d="M187.51,35.54l-.36-.47.5-.09,0,.51Z"/><path d="M187.61,28.63l-.47-.37.32-.3.15.1Z"/><path d="M187.33,29.53l.28,0,0,.44c-.06,0-.09,0-.12,0S187.17,29.86,187.33,29.53Z"/><path d="M187.63,34.14,187.3,34v-.31h.33Z"/><path d="M187.45,31.46l-.24-.4.42-.19,0,.45Z"/><path d="M169.83,14.89c-.37.1-.46-.18-.67-.41l.67-.28Z"/><path d="M171.15,19.12l-.59-.36c0-.27.18-.41.4-.34S171.24,18.76,171.15,19.12Z"/><path d="M175.34,25.38v.67l-.69-.52C174.88,25.29,175.09,25.37,175.34,25.38Z"/><path d="M172.38,19.09l-.53-.65h.67V19Z"/><path d="M173.78,23.31l-.52-.72.78,0Z"/><path d="M175.36,24.58l-.51-.23c-.06-.35.11-.46.47-.45Z"/><path d="M170.41,14.51l.64-.22c.25.19.14.4.13.71Z"/><path d="M171.9,21.23h.62v.61c-.08,0-.16,0-.19,0S172.08,21.48,171.9,21.23Z"/><path d="M174,21.26l-.2.65-.58-.65Z"/><path d="M176,28.26l.42-.23c.32.14.3.38.18.74Z"/><path d="M174.67,28.23l.65-.24v.68C175,28.7,174.92,28.45,174.67,28.23Z"/><path d="M172.56,22.55l-.05.71c-.29-.18-.53-.28-.46-.66Z"/><path d="M176.21,32.21h.51l-.14.65C176.32,32.66,176.09,32.55,176.21,32.21Z"/><path d="M175.31,26.71v.53c-.22.15-.4,0-.55-.46Z"/><path d="M169.89,12.21c-.33-.12-.6-.18-.51-.58l.46-.05Z"/><path d="M173.32,24.11l.46-.23L174,24l-.13.5C173.57,24.53,173.48,24.33,173.32,24.11Z"/><path d="M169.26,13.06h.57v.49C169.4,13.65,169.36,13.34,169.26,13.06Z"/><path d="M171.17,16.23c-.4.09-.46-.19-.58-.47l.58,0Z"/><path d="M169.25,15.76h.6v.43C169.62,16.34,169.48,16.23,169.25,15.76Z"/><path d="M172.51,20.38c-.36.06-.5-.09-.47-.46l.47-.05Z"/><path d="M173.41,19.9H174l-.23.57-.46-.45Z"/><path d="M172.55,16.23c-.42.06-.54-.11-.51-.47l.48,0Z"/><path d="M179.46,28.06v.48c-.37,0-.53-.09-.45-.48Z"/><path d="M174,25.51c-.07.18-.07.41-.4.36l-.25-.42C173.6,25.31,173.8,25.3,174,25.51Z"/><path d="M176.73,26.61l-.15.84L176,27Z"/><path d="M170.63,13.06h.57l-.07.61-.57-.5Z"/><path d="M176,29.53h.63V30C176.32,30,176.23,29.76,176,29.53Z"/><path d="M171.2,17.22l0,.5c-.32,0-.44-.28-.61-.5Z"/><path d="M178,30.15l-.59-.59.59-.06Z"/><path d="M166.56,11.62l.48,0v.49C166.74,12.12,166.69,11.86,166.56,11.62Z"/><path d="M177.56,32.2H178v.62l-.5-.5Z"/><path d="M167.77,11.72l.61-.14v.6Z"/><path d="M172,17.22h.49l0,.47C172.31,17.59,172,17.59,172,17.22Z"/><path d="M168.38,13.05v.53l-.53-.35,0-.12Z"/><path d="M177.52,31l.4-.17.12.43C177.65,31.47,177.66,31.17,177.52,31Z"/><path d="M176.1,31.06l.58-.26-.08.61Z"/><path d="M168.09,35.73a.62.62,0,0,1-.51-.77Z"/><path d="M248.77,14.49a.85.85,0,0,1,.9-.18v.86A.86.86,0,0,1,248.77,14.49Z"/><path d="M249.55,12.47a1,1,0,0,1-.77-.84h.88A.86.86,0,0,1,249.55,12.47Z"/><path d="M249.69,17v.76l-.44.07-.49-.52C249,16.9,249.34,17.13,249.69,17Z"/><path d="M248.75,15.76h.93c0,.28.11.56-.12.85l-.57-.32Z"/><path d="M249.68,18.38v.79l-.46,0-.46-.49C248.93,18.22,249.32,18.48,249.68,18.38Z"/><path d="M249.68,12.85v.82l-.44.05-.56-.6Z"/><path d="M247.44,18.44h.76v.9C247.8,19.14,247.48,19,247.44,18.44Z"/><path d="M248.21,19.78v.86c-.29-.18-.69-.16-.79-.61A.7.7,0,0,1,248.21,19.78Z"/><path d="M248.2,13.71a.67.67,0,0,1-.76-.59c.21-.3.48-.17.76-.19Z"/><path d="M248.19,12.45c-.44-.09-.63-.38-.75-.83l.75,0Z"/><path d="M248.2,17.84c-.46.08-.57-.26-.77-.48.27-.29.27-.29.77-.25Z"/><path d="M248.2,15.72v.79c-.52,0-.63-.34-.8-.75Z"/><path d="M251,17.07c.17.41-.27.41-.28.73-.26-.21-.48-.31-.45-.64C250.5,17,250.75,17.1,251,17.07Z"/><path d="M247.47,21.38c.24-.25.48-.15.7-.16.19.44-.27.4-.39.65a1.92,1.92,0,0,1-.2-.23A1.56,1.56,0,0,1,247.47,21.38Z"/><path d="M249.61,20.24l-.63,0-.17-.35.63-.14Z"/><path d="M251,34c-.31.11-.35-.11-.45-.32l.45,0Z"/><path d="M251,20.22c-.37.12-.39-.12-.48-.32l.44,0Z"/><path d="M250.47,35H251l-.05.44Z"/><path d="M251,18.89l-.33-.14v-.34C251,18.44,251.06,18.58,251,18.89Z"/><path d="M266.13,32.17v.46l-.1.09-.32-.47Z"/><path d="M250.73,32.14l.35.27-.21.27C250.63,32.55,250.6,32.39,250.73,32.14Z"/><path d="M251.05,21.25l-.08.42-.52-.45Z"/><path d="M257.84,22.56v.57l-.46-.55Z"/><path d="M251,29.49l0,.46-.55-.41.59,0Z"/><path d="M250.48,28.19H251l-.07.44Z"/><path d="M247.87,35l.35,0,0,.45-.35-.3Z"/><path d="M264.81,14.39l-.05.45-.44-.38Z"/><path d="M248.06,23l-.3-.33.42-.08,0,.37Z"/><path d="M250.68,26.75l.32.1.05.34-.39-.16Z"/><path d="M248.09,27.1l-.3-.36.41,0,0,.33Z"/><path d="M251,23l-.34-.16,0-.3C250.9,22.64,251.1,22.69,251,23Z"/><path d="M258.79,22.74l.34-.22.09.57Z"/><path d="M251.14,24l-.31.44-.33-.41Z"/><path d="M248.24,32.16l-.06.46-.44-.35Z"/><path d="M249.49,32.79l-.23-.59.4,0Z"/><path d="M248.11,25.77l-.31-.23.32-.25.11.4Z"/><path d="M250.92,25.77l-.27-.2.33-.28.06.41Z"/><path d="M252.21,10.64l-.21-.37h.34v.35Z"/><path d="M264.69,12l-.34-.2.35-.26.11.39Z"/><path d="M249.69,29.5l-.19.39-.41-.34Z"/><path d="M247.79,33.64l.43,0,0,.44Z"/><path d="M247.76,24h.44v.48Z"/><path d="M250.62,31.07l.24-.21.18.29-.06.08Z"/><path d="M249.46,23.05l-.19-.45C249.67,22.64,249.53,22.86,249.46,23.05Z"/><path d="M248.22,29.7l-.4,0C247.92,29.43,248.06,29.49,248.22,29.7Z"/><path d="M256.21,10.24l.32.19-.2.22-.22-.3Z"/><path d="M259.2,21.22l0,.39-.39-.37Z"/><path d="M249.51,21.23l0,.39C249.24,21.53,249.28,21.39,249.51,21.23Z"/><path d="M247.84,28.19l.35,0,0,.44Z"/><path d="M249.45,25.36l.13.31-.08,0-.21-.25Z"/><path d="M248.16,31.22l-.29-.14,0-.11.33.09Z"/><path d="M249.46,24l.11.32-.08,0-.19-.27Z"/><path d="M249.23,33.71l.29-.05.07.42Z"/><path d="M249.43,26.72l.11.33-.13,0-.09-.34Z"/><path d="M249.53,28.16l.06.45-.32-.35Z"/><path d="M249.16,35.11l.37-.13,0,.44Z"/><path d="M263.23,11.58l.11.33-.07,0-.2-.27Z"/><path d="M264.46,13.07l.34,0,0,.23-.33-.18Z"/><path d="M249.42,31l.13.16-.13.1-.09-.21Z"/><path d="M264.49,35l.28,0v.09l-.3,0Z"/><path d="M71.21,28.23c.33-.32.67-.18,1.07-.16l-.17.95A.9.9,0,0,1,71.21,28.23Z"/><path d="M67.07,24.1c.31-.22.31-.22.87-.18.24.33.11.65,0,1A1,1,0,0,1,67.07,24.1Z"/><path d="M69.78,32.33c.28-.28.62-.11,1-.15V33C70.21,33.08,70.07,33,69.78,32.33Z"/><path d="M65.69,23.91h.9a1.12,1.12,0,0,1-.09,1A1.08,1.08,0,0,1,65.69,23.91Z"/><path d="M69.89,28.06h.87v.85C70.11,28.88,69.93,28.71,69.89,28.06Z"/><path d="M71.37,27.33l-.19-.57c.42-.07.78-.19,1.1.15l-.21.73Z"/><path d="M70.75,27.6c-.7-.11-.84-.24-.86-.86h.86Z"/><path d="M65.68,22.93l.2-.37h.72v.88C66.21,23.51,66,23.28,65.68,22.93Z"/><path d="M72.28,31.1l-.21.66a1.08,1.08,0,0,1-.87-.9C71.58,30.87,72,30.68,72.28,31.1Z"/><path d="M70.08,26.09l-.26-.68h.92a1,1,0,0,1,0,.84Z"/><path d="M69.85,31a1.28,1.28,0,0,1,.91-.12,1,1,0,0,1-.1.86c-.43-.11-.86-.18-.79-.76Z"/><path d="M69.3,23.91v1l-.73-.35v-.66Z"/><path d="M71.18,29.54c.4,0,.76-.16,1.09.17l-.24.67A1,1,0,0,1,71.18,29.54Z"/><path d="M61.16,18.39c0,.32.07.66-.21.93-.38-.06-.51-.4-.73-.65.26-.43.64-.21,1-.26Z"/><path d="M64.45,22.58h.84l-.16.86C64.44,23.24,64.39,23.18,64.45,22.58Z"/><path d="M68.5,27.1l.17-.38h.75l-.14.88C68.87,27.67,68.74,27.32,68.5,27.1Z"/><path d="M60.91,20.77l-.72-.7c.43-.32.43-.32.85-.26C61.19,20.19,61.19,20.19,60.91,20.77Z"/><path d="M63.8,23.47c-.69-.27-.72-.29-.72-.89l.66,0C64,22.87,63.85,23.16,63.8,23.47Z"/><path d="M67,25.39h1l0,.65a1,1,0,0,1-.24.11,1.85,1.85,0,0,1-.33,0Z"/><path d="M58.32,16.61a.92.92,0,0,1-.81-.85h1Z"/><path d="M69.09,26.33l-.53-.47v-.48h.71C69.32,25.69,69.45,26,69.09,26.33Z"/><path d="M60.22,11.59h.87a.82.82,0,0,1-.11.88,1,1,0,0,1-.74-.9Z"/><path d="M60.74,22c-.2-.25-.56-.35-.47-.79h.82C61.19,21.8,61.19,21.8,60.74,22Z"/><path d="M57.81,17.84l-.3-.73c.4-.05.72-.14,1,.16l-.19.57Z"/><path d="M58.82,19.94l.83-.25v.95C59.12,20.73,59.1,20.26,58.82,19.94Z"/><path d="M59.67,15.17a.79.79,0,0,1-.75-.65c.24-.26.24-.26.75-.22Z"/><path d="M62.46,22H62l-.38-.77h.86Z"/><path d="M58.84,18.44h.82v.83l-.54-.13Z"/><path d="M63.81,22h-.5L63,21.25h.84Z"/><path d="M59.06,16.34l-.18-.57h.78v.8Z"/><path d="M58.81,17.19l.86-.15v.79C59.22,17.91,59.06,17.63,58.81,17.19Z"/><path d="M59.7,13l0,.67c-.47.13-.54-.29-.83-.49C59.14,13,59.37,12.82,59.7,13Z"/><path d="M57.55,33.71c.3-.06.53-.32.87-.1l-.1.86C58,34.3,57.62,34.21,57.55,33.71Z"/><path d="M56.86,34.43c-.53-.29-.53-.29-.61-.73l.7-.21A1,1,0,0,1,56.86,34.43Z"/><path d="M57.57,32.2h.75v.68C57.81,33,57.7,32.88,57.57,32.2Z"/><path d="M69.81,13.18c.46-.29.46-.29,1-.2v.84C70.22,13.93,70.12,13.47,69.81,13.18Z"/><path d="M69.82,11.61h.92a1.07,1.07,0,0,1,0,.86C70.19,12.39,70,12.05,69.82,11.61Z"/><path d="M80.54,19.83l-.66.34.56.33-.27.35a3,3,0,0,1-.73-.79A.92.92,0,0,1,80.54,19.83Z"/><path d="M79.6,11.61h.78v.77C79.91,12.34,79.71,12.08,79.6,11.61Z"/><path d="M79.65,22.56h.83l-.42.18c-.15.36.19.43.4.59-.43.16-.48.14-1-.34a1,1,0,0,1,0-.24C79.53,22.69,79.59,22.64,79.65,22.56Z"/><path d="M80.89,11.61h.82v.74C81.17,12.42,81.14,12,80.89,11.61Z"/><path d="M79.63,13.11l.57-.19c.29.41.29.41,0,.78C79.87,13.68,79.72,13.47,79.63,13.11Z"/><path d="M80.47,26.68,79.9,27c0,.35.3.31.5.4l-.18.19c-.71-.29-.72-.31-.64-.88Z"/><path d="M80.77,18.44l.36,0,.31.63.44-.12-.21.46L81,19.12Z"/><path d="M80.15,17.83c-.51.1-.52-.28-.67-.54.34-.23.34-.23.91-.19l-.36.3Z"/><path d="M81.46,22l.26-.81c.17.39.17.39-.08,1a6.14,6.14,0,0,1-.63-.48.89.89,0,0,1-.16-.34s.05-.1.09-.18Z"/><path d="M81.63,20.78a1.07,1.07,0,0,1-.79-.8.64.64,0,0,1,.9-.07l-.46,0-.12.37.27.3.47-.15Z"/><path d="M79.46,18.8l.19-.4.78.88-.48.07Z"/><path d="M80.49,28.83a.55.55,0,0,1-.78-.1c-.2-.19-.32-.41-.13-.68.32,0,.3.25.32.44Z"/><path d="M81,13c.36-.09.31.3.53.51l.13-.53.1-.11a.55.55,0,0,1,.07.24,4.86,4.86,0,0,1-.11.55C81.24,13.65,81.06,13.47,81,13Z"/><path d="M80.42,14.92c-.65.15-.78,0-.74-.64C80.11,14.28,80,14.88,80.42,14.92Z"/><path d="M81.85,14.41c0,.12,0,.24,0,.35s-.08.25-.13.41a.81.81,0,0,1-.73-.71l.2-.18c.11.23,0,.58.4.63l.12-.51Z"/><path d="M83.56,33.71c.17-.05.32-.35.55-.05l-.24.27.67.52c-.05,0-.14.11-.19.09A1.41,1.41,0,0,1,83.56,33.71Z"/><path d="M83,34.57a2.17,2.17,0,0,1-.44-.19.51.51,0,0,1-.28-.61c.1-.3.35-.29.61-.21-.19.14-.44.24-.31.59l.46.35Z"/><path d="M79.52,25.4l.23,0,.57.86C79.91,26.23,79.6,25.94,79.52,25.4Z"/><path d="M79.47,23.91h.34l.29.88c-.25,0-.37-.18-.48-.34A1.51,1.51,0,0,1,79.47,23.91Z"/><path d="M81.26,24.52l.46.34a.9.9,0,0,1-.88-.78l.34-.24Z"/><path d="M80.3,22.08,79.77,22c-.13-.23-.37-.42-.22-.74.3,0,.3.23.41.38Z"/><path d="M80.81,25.41l.3-.06.22.63.46-.06-.13.29C81.14,26.18,81,25.83,80.81,25.41Z"/><path d="M81.22,31.28l.48.53a1.34,1.34,0,0,1-.9-.91l.49-.07Z"/><path d="M92.57,35.77c-.56,0-.61-.39-.87-.83.24.11.37.13.43.2S92.4,35.53,92.57,35.77Z"/><path d="M86.48,35l.72.79C86.53,35.76,86.47,35.7,86.48,35Z"/><path d="M82.32,32.15,83,33c-.29,0-.29,0-.69-.4Z"/><path d="M81.6,23.38c-.55,0-.61-.39-.81-.82C81.3,22.68,81.21,23.27,81.6,23.38Z"/><path d="M81.67,30.32l-.13.1c-.3,0-.65-.53-.59-1,.18.4.29.78.74.79l0,0A.59.59,0,0,1,81.67,30.32Z"/><path d="M80.4,16.51c-.66-.11-.77-.25-.68-.76Z"/><path d="M81.36,33c-.43-.17-.46-.21-.48-.86.15.14.28.21.32.32a3.29,3.29,0,0,1,.15.56Z"/><path d="M80.77,26.76a1.89,1.89,0,0,1,.32-.06h.4l-.36.3.23.42-.1.06Z"/><path d="M82.51,30.86l0,.38.58.43C82.48,31.7,82.25,31.43,82.51,30.86Z"/><path d="M80.83,17.26l.74-.25-.31.73Z"/><path d="M80.31,30.47c-.42-.25-.79-.4-.81-.91Z"/><path d="M85,35l.34,0,0,.64C85.11,35.48,85,35.34,85,35Z"/><path d="M93.43,35.07l.41.71c-.28,0-.46-.22-.57-.55Z"/><path d="M82.84,16.41c-.43-.11-.44-.38-.57-.71C82.68,15.84,82.66,16.14,82.84,16.41Z"/><path d="M81,15.76l.6.77A.71.71,0,0,1,81,15.76Z"/><path d="M81.23,28.82l-.44-.51L81,28l.17.81Z"/><path d="M81.87,15.76l0,.52c-.1-.07-.19-.1-.19-.13a2.87,2.87,0,0,1,0-.41Z"/><path d="M81.21,28.84l.61-.07c-.24.24-.41.27-.59.05Z"/><path d="M94.88,35.51c-.21-.08-.31-.23-.21-.57l.19.59Z"/><path d="M81.35,33l.51-.1c-.23.22-.35.32-.5.08Z"/><path d="M98,27.53h.29v.06H98Z"/><path d="M81.76,27.44l-.17.18-.1-.1.19-.15Z"/><path d="M88.46,35.83l.16-.17.1.09-.19.15Z"/><path d="M118.36,18.94l-.66,1.28,0,0-.19.67-.53-.32-1.21.62.51.09c0,.28.12.55-.1.82-.49,0-.74-.27-.93-.7l-.39.15,0,.55c-.52,0-1-.48-1.5,0a1.25,1.25,0,0,0-.87-.1,3.33,3.33,0,0,1-1.22,0c-.28,0-.57,0-1,0-.14-.16-.51-.29-.48-.78l.63.07-.15-.68-.51-.7c.38-.06.66-.18.5-.65l-.52-.75.68-.17-.55-1.07.4-.15.1-.69-.35-.6.34-.2.07-.56-.35-.49.33-.79-.35-.68.35-.24.07-.64-.42-.61a3.17,3.17,0,0,1,.81-.3c1.13-.07,2.27-.1,3.41-.15a3.62,3.62,0,0,1,2.08.49,3,3,0,0,0,.44.2c.22-.15.43-.49.81-.13v.64a1.61,1.61,0,0,0,1.42.68,1.25,1.25,0,0,0,0,1.17.62.62,0,0,1,.06.3c0,.77-.09,1.54-.13,2.31a4.58,4.58,0,0,0,.06.5l-.36,1,.32.09a.45.45,0,0,1-.17.62Zm-7.45,2.36a7,7,0,0,0,2.71-.31,13,13,0,0,0,2.56-1,2.64,2.64,0,0,0,1.47-1.66,11.94,11.94,0,0,0,.47-3.56,1.66,1.66,0,0,0-.69-1.44,12.94,12.94,0,0,0-1.26-.82c-.4-.22-.84-.36-1.37-.59l-3.69.18a4.62,4.62,0,0,1,0,.48c0,.55-.09,1.11-.11,1.67-.08,1.63.11,3.27-.12,4.91A14.88,14.88,0,0,0,110.91,21.3Z"/><path d="M108.55,19.73l.7.07c.06.35.16.63-.17.87l-.53-.25Z"/><path d="M109.15,19.32c-.38-.19-.77-.34-.59-.89h.68A.93.93,0,0,1,109.15,19.32Z"/><path d="M108.54,17.08h.71c0,.24,0,.45,0,.67C108.71,17.92,108.54,17.77,108.54,17.08Z"/><path d="M108.5,21.66l.06-.47c.1.06.17.08.19.13a1,1,0,0,0,.32.42l.18-.51V22C108.86,22.1,108.7,21.87,108.5,21.66Z"/><path d="M120.24,18.47V19c-.47.11-.49-.26-.64-.55A.69.69,0,0,1,120.24,18.47Z"/><path d="M108,31.12l.28-.41.11.72.44.57C108.25,31.9,108.11,31.54,108,31.12Z"/><path d="M121.48,14.93l-.37-.23c-.06-.24,0-.39.23-.42a.38.38,0,0,1,.33.13C121.81,14.6,121.73,14.78,121.48,14.93Z"/><path d="M120.1,16.43l-.64-.65h.78v.57Z"/><path d="M119,11.63l-.1.48c-.19.16-.4,0-.57-.48Z"/><path d="M121.5,17.8l-.58-.53.64-.2.2.2Z"/><path d="M120.23,14.2v.68c-.4.12-.46-.17-.59-.44Z"/><path d="M120.24,17.7c-.47.07-.49-.27-.65-.53l.65-.07Z"/><path d="M121.75,15.76l-.1.62c-.33-.13-.63-.19-.56-.62Z"/><path d="M118.28,19.91H119l-.21.59C118.37,20.29,118.37,20.29,118.28,19.91Z"/><path d="M109.14,23.52c-.4-.24-.78-.39-.75-.93l.25,0Z"/><path d="M109.26,15l-.62-.28c0-.38.19-.47.5-.44Z"/><path d="M109.17,15.7c0,.28.21.5-.13.7l-.46-.6Z"/><path d="M120.23,13.55c-.42.11-.37-.31-.57-.48h.57Z"/><path d="M109.17,24.81c-.5-.09-.5-.09-.78-.68a.39.39,0,0,1,.06-.11l.15-.11A1,1,0,0,0,109.17,24.81Z"/><path d="M107.63,33.26c-.41.23-.54,0-.74-.25l.15-.28Z"/><path d="M108.58,11.74l.56-.19.06.73Z"/><path d="M109.21,13l-.07.53c-.37,0-.32-.3-.57-.53Z"/><path d="M113.4,22.78l-.35-.2h.39Z"/><path d="M111.76,22.57l.26,0v.08l-.26,0Z"/><path d="M120.45,27l.75-.44-.08.48.66.54-.21.26C121.06,27.83,120.83,27.45,120.45,27Z"/><path d="M123.15,27.68l-.3.23-.65-.32-.18-.36.23-.5.5,0-.26.41Z"/><path d="M121.73,30.84h.36l.1.71.52.36-.24.26-.72-.86v-.49Z"/><path d="M122.4,28l-.05.62.21.34-.06.06-.44-.31-.22-.67Z"/><path d="M120.94,25.37a1.07,1.07,0,0,0,.64.7l-.17.2C121.19,26,120.73,25.88,120.94,25.37Z"/><path d="M119.54,25.37l.22.69c-.29-.23-.42-.41-.37-.66Z"/><path d="M118.92,33.52h.32l.12.59.56.64c-.5,0-.5,0-.89-.73l-.09-.52Z"/><path d="M231.75,11.5v.93c-.54.09-.7,0-1-.79Z"/><path d="M230.89,13.51l-.12-.42c.28-.3.62-.12,1-.17v.87C231.37,14,231.17,13.65,230.89,13.51Z"/><path d="M229.34,13h1.06a.8.8,0,0,1-.2.88C229.73,13.8,229.59,13.43,229.34,13Z"/><path d="M229.33,11.68l1-.17c.36.33,0,.63,0,1C229.71,12.56,229.64,12.07,229.33,11.68Z"/><path d="M231.75,15.12a1.1,1.1,0,0,1-.91-.61c.23-.41.58-.2.91-.25Z"/><path d="M231.76,18.45v.68c-.61.06-.73,0-.75-.68Z"/><path d="M230.86,21.24h.89V22C231.23,22,231.09,21.61,230.86,21.24Z"/><path d="M231.51,20.77l-.59-.81.64-.21C231.86,20.14,231.87,20.22,231.51,20.77Z"/><path d="M231.76,17.08v.75c-.44.08-.6-.2-.77-.48C231.15,17,231.45,17.09,231.76,17.08Z"/><path d="M231,15.76h.73v.71C231.18,16.37,231.09,16.29,231,15.76Z"/><path d="M230.29,18.4v.78c-.48,0-.61-.27-.73-.58C229.74,18.3,230,18.44,230.29,18.4Z"/><path d="M229.38,20l.89-.29v1Z"/><path d="M229.6,21.26l.67-.06V22C229.77,21.91,229.74,21.87,229.6,21.26Z"/><path d="M229.63,14.73c.08-.5.32-.52.66-.42v.89Z"/><path d="M231,24.15c.18-.35.46-.26.73-.24l-.24.34.33.3-.12.17C231.51,24.85,231.2,24.6,231,24.15Z"/><path d="M230.29,17v.84a.76.76,0,0,1-.73-.62Z"/><path d="M229.45,15.76l.82,0v.82A1.86,1.86,0,0,1,229.45,15.76Z"/><path d="M231.75,23.42,231,23.1v-.41l.15-.11.26.59.14-.1.18-.41Z"/><path d="M229.62,25.4c.23.22.61.3.71.76C229.9,26,229.62,25.84,229.62,25.4Z"/><path d="M229.46,22.62l.85.43,0,.28C229.82,23.36,229.71,23,229.46,22.62Z"/><path d="M231,25.43c.06,0,.07-.06.09-.06h.24l0,.51C231.06,25.85,231,25.7,231,25.43Z"/><path d="M229.68,24l.45.68C229.69,24.47,229.69,24.47,229.68,24Z"/><path d="M232.6,35l.28.58-.13.06-.32-.54Z"/><path d="M231.25,28.41l.24.19-.05.08-.26-.17Z"/><path d="M229.92,26.82l-.17.24-.08,0,.14-.29Z"/><path d="M241.34,12.54c-.52-.13-.69-.47-.87-.88a2,2,0,0,1,.87-.07A1.47,1.47,0,0,1,241.34,12.54Z"/><path d="M131.52,30.87H132l.12.54.57.16c.12.37-.18.43-.42.56l-.51-.33A4.51,4.51,0,0,1,131.52,30.87Z"/><path d="M133.19,31.68,132.9,31c.2-.31.45-.14.66-.19l0,.53.62.29-.2.43Z"/><path d="M132.51,24.92c-.32-.2-.73-.32-.72-.84l.6-.2C132.79,24.2,132.81,24.45,132.51,24.92Z"/><path d="M132.18,28a.77.77,0,0,0,.54.94l-.16.29a1.15,1.15,0,0,1-.87-1.05Z"/><path d="M132.69,30.36v.1c-.61.15-.86-.08-1-.95Z"/><path d="M133.44,28l.12.53.57.45c-.17.05-.25.11-.31.09-.3-.09-.57-.41-.82-.92Z"/><path d="M132,26.08l-.26-.68.5,0,.38.93Z"/><path d="M133.12,25.4l.37,0L134,26C133.52,26.23,133.42,26.16,133.12,25.4Z"/><path d="M132.54,19.21c-.29-.31-.58-.4-.46-.77h.64Z"/><path d="M132.09,22.59h.55c.15.28-.07.43-.17.69C132.25,23.05,132,23,132.09,22.59Z"/><path d="M134,11.56v.67a.64.64,0,0,1-.62-.58Z"/><path d="M132.28,14.93,132,14.5c.1-.08.2-.22.29-.22s.32.09.36.2S132.63,14.89,132.28,14.93Z"/><path d="M132.29,26.73c-.27.15-.33.32-.12.57l.54.12c-.44.36-.72.16-.93-.65a.63.63,0,0,1,.22-.07A1.06,1.06,0,0,1,132.29,26.73Z"/><path d="M132.53,20.51c-.23-.14-.55-.16-.45-.61l.67,0Z"/><path d="M132.75,15.77l-.22.59c-.24-.13-.56-.17-.46-.59Z"/><path d="M132.5,22l-.55-.71h.79Z"/><path d="M132,17.29l.65-.24c.2.3,0,.48-.15.72Z"/><path d="M132.51,12.29c-.11-.29-.55-.24-.43-.67h.65Z"/><path d="M132.52,13l.21.18-.29.55-.5-.52Z"/><path d="M132.56,26.6l.13.13-.06.07-.18-.11Z"/><path d="M156,33.09h-.43l-.44-.52.16-.42C155.55,32.51,155.49,33,156,33.09Z"/><path d="M156.62,32.2l.63.85C156.64,32.91,156.48,32.71,156.62,32.2Z"/><path d="M156.83,34.05l.5.41c-.51-.08-.51-.08-.81-.74l.39-.2Z"/><path d="M155.61,18.44h.46V19C155.75,19,155.53,18.84,155.61,18.44Z"/><path d="M155.91,15l-.43-.44.58-.31v.67Z"/><path d="M156.1,21.71c-.42.06-.53-.11-.51-.47l.48,0Z"/><path d="M155.59,11.62h.48v.46C155.68,12.15,155.58,12,155.59,11.62Z"/><path d="M156.07,13.62c-.29-.15-.52-.26-.48-.64l.48.09Z"/><path d="M155.59,15.75h.47v.53C155.83,16.16,155.54,16.17,155.59,15.75Z"/><path d="M156.61,35l.78.88A.85.85,0,0,1,156.61,35Z"/><path d="M155.1,33.76l.54-.26-.17.78Z"/><path d="M156.08,17.16v.55l-.67-.38Z"/><path d="M156.07,19.88v.34c-.28.1-.42,0-.5-.3Z"/><path d="M155.38,35l.16.73C155.36,35.52,155.05,35.34,155.38,35Z"/><path d="M155.36,31.3l-.16-.3C155.53,30.94,155.38,31.18,155.36,31.3Z"/></g></g></g></g></svg>