<svg xmlns="http://www.w3.org/2000/svg" viewBox="0 0 247.66 21.26"><defs><style>.cls-1{fill:#f05323;}</style></defs><title>logo-jack-morton-worldwide</title><g id="Layer_2" data-name="Layer 2"><g id="Logos"><g id="logo-jack-morton-worldwide"><path class="cls-1" d="M88.66,1.78V15.64c0,1.61-.12,3.23-1.51,3.23A2.52,2.52,0,0,1,85.37,18l-.28-.28-1.44,2.06.22.16a5.11,5.11,0,0,0,3.28,1.34,4,4,0,0,0,3.23-1.56,6.43,6.43,0,0,0,1-4.12V1.73H88.66Z"/><path class="cls-1" d="M117.37,1.45a9.18,9.18,0,1,0,0,18.36,9.1,9.1,0,0,0,5.29-1.72l.17-.11V14.64l-.61.61a7.09,7.09,0,0,1-4.9,2.17,6.74,6.74,0,0,1,0-13.47,6.88,6.88,0,0,1,5,2.17l.61.61V3.39l-.16-.11A8.56,8.56,0,0,0,117.37,1.45Z"/><path class="cls-1" d="M97.17,15.69H104c.11.28,1,2.45,1.55,3.79h2.84l-7.73-18-8,18.08h2.84C96.11,18.2,97.06,16,97.17,15.69Zm3.45-8.07c.45,1.12,2.06,4.9,2.34,5.63H98.23C98.56,12.52,100.18,8.74,100.62,7.62Z"/><path class="cls-1" d="M136.52,19.53s-6.29-7.06-8.46-9.46c2.39-2.39,8.24-8.29,8.24-8.29h3.56l-8.41,8.29c.39.45,8.57,9.46,8.57,9.46ZM128.11,1.78h-2.56V19.53h2.56Z"/><path class="cls-1" d="M186,10.63a9.24,9.24,0,0,1-18.47,0,9.24,9.24,0,0,1,18.47,0Zm-2.56,0a6.68,6.68,0,1,0-6.67,6.73A6.7,6.7,0,0,0,183.43,10.63Z"/><path class="cls-1" d="M231.07,10.63a9.24,9.24,0,1,1-9.24-9.18A9.21,9.21,0,0,1,231.07,10.63Zm-2.56,0a6.65,6.65,0,1,0-6.68,6.73A6.7,6.7,0,0,0,228.51,10.63Z"/><path class="cls-1" d="M201.41,1.78V4.23h4.12v15.3h2.56V4.23h4.17V1.78Z"/><path class="cls-1" d="M245,1.78V13.52c-2.5-2.67-9.07-9.51-11.46-12v18h2.56V7.85l11.52,12v-18L245,1.78Z"/><path class="cls-1" d="M162.73,1.45s-4.79,9.46-6.4,12.69c-1.61-3.18-6.4-12.69-6.4-12.69l-3.73,18h2.62l2.06-10c1.67,3.17,4.84,9.18,5.45,10.3.61-1.12,3.79-7.13,5.45-10.3l2.06,10h2.62Z"/><path class="cls-1" d="M196.12,11.85A5.1,5.1,0,0,0,199.63,7a5.21,5.21,0,0,0-5.18-5.18H189V19.53h2.56V4.23h2.73a2.73,2.73,0,0,1,0,5.45h-2.73c.33.5,6.79,9.85,6.79,9.85h3.17C201.58,19.53,197.9,14.36,196.12,11.85Z"/><path class="cls-1" d="M38.18,14.36a2.79,2.79,0,0,1-2.78,2.78,2.76,2.76,0,0,1-2.79-2.78,2.79,2.79,0,0,1,5.57,0ZM35.45,1.78a8.88,8.88,0,1,0,8.85,8.91A8.85,8.85,0,0,0,35.45,1.78Zm10.63,8.85A10.63,10.63,0,1,1,35.45,0,10.67,10.67,0,0,1,46.08,10.63Zm23,0a8.85,8.85,0,1,1-8.85-8.9A8.84,8.84,0,0,1,69.07,10.63ZM60.22,0A10.63,10.63,0,1,0,70.85,10.63,10.62,10.62,0,0,0,60.22,0Zm0,15.36A3.93,3.93,0,0,1,56.6,13H54.71a5.74,5.74,0,0,0,11,0h-1.9A3.93,3.93,0,0,1,60.22,15.36ZM19.53,10.63a8.85,8.85,0,1,1-8.84-8.9A8.94,8.94,0,0,1,19.53,10.63ZM10.63,0A10.63,10.63,0,1,0,21.26,10.63,10.63,10.63,0,0,0,10.63,0Zm4.12,13.47H6.51v1.78h8.24Z"/></g></g></g></svg>