<svg xmlns="http://www.w3.org/2000/svg" viewBox="0 0 175 64.2"><defs><style>.cls-1{fill:#cea744;}</style></defs><title>logo-virani-jewelers</title><g id="Layer_2" data-name="Layer 2"><g id="Logos"><g id="logo-virani-jewelers"><path class="cls-1" d="M87.4,25.7h0c-5.6-2.9-9.2-8.4-11.2-14.2a36,36,0,0,1-1.5-6.3l.1.3.3.5.6.9a5,5,0,0,0,.7.8c.9,1,1.9,1.9,2.8,2.8A33.21,33.21,0,0,1,81.9,13a31.12,31.12,0,0,1,2.3,2.8c.3.5.6,1,.9,1.6.1.3.3.5.4.8l.2.4.2.4.6,1.8a11.63,11.63,0,0,1,.4,1.8c.2,1,.3,2,.5,3.1"/><path class="cls-1" d="M80.7,0a7.55,7.55,0,0,0-1.3,2.3A6.9,6.9,0,0,0,79,4.8a14.65,14.65,0,0,1-2.8-1.4A3.49,3.49,0,0,1,75,1.9,2.28,2.28,0,0,1,74.7.8a2.2,2.2,0,0,0-.1-.8Z"/><path class="cls-1" d="M80.9,10.2a28.93,28.93,0,0,1-3.5-3.5,13.24,13.24,0,0,1-2-3.2c0-.1,0-.1-.1-.2l.6.6a12.67,12.67,0,0,0,3.3,2c.1.3.1.6.2.9a5.78,5.78,0,0,0,.5,1.4,9.14,9.14,0,0,0,.7,1.4,3.33,3.33,0,0,0,.3.6"/><path class="cls-1" d="M100.3,5.1a35,35,0,0,1-1.5,6.4,35.36,35.36,0,0,1-3.6,7.3,12.41,12.41,0,0,0-.3-2.7,11.81,11.81,0,0,0-1.4-3.7c.7-.7,1.5-1.4,2.3-2.1a37,37,0,0,0,2.8-2.8,5,5,0,0,1,.7-.8l.6-.9.3-.5Z"/><path class="cls-1" d="M94.9,19.2c-.1.1-.1.2-.2.2a20.2,20.2,0,0,1-7.1,6.2h-.1c.1-1.1.3-2.1.5-3.2.1-.6.3-1.2.4-1.8l.6-1.8.2-.4.2-.4a2,2,0,0,1,.4-.8c.3-.5.6-1.1.9-1.6a18.39,18.39,0,0,1,1.7-2.2c-.2-.3-.5-.6-.7-.9A14.37,14.37,0,0,0,89.9,15a21.69,21.69,0,0,0-1.5,3.5c-.2.6-.3,1.2-.5,1.9s-.2,1.3-.3,1.9a5.7,5.7,0,0,0-.1,1.3h0c0-.5-.1-.9-.1-1.4s-.2-1.3-.3-1.9a13.32,13.32,0,0,0-.5-1.9,21.69,21.69,0,0,0-1.5-3.5,16.58,16.58,0,0,0-2.3-3.1c-.4-.5-.9-.9-1.3-1.4l-.6-1.2a7.84,7.84,0,0,1-.5-1.4c-.1-.4-.2-.9-.3-1.3V6.4c0-.2-.1-.3-.1-.5,2.4.9,4.8,1.6,7,2.5a12.61,12.61,0,0,1,5.2,3.5,3,3,0,0,1,.5.7c.1.1.1.2.2.2.3.4.5.9.8,1.3a12.2,12.2,0,0,1,.7,1.7c.2,1.4.4,2.4.5,3.4"/><path class="cls-1" d="M95.2,5.3A6.75,6.75,0,0,1,95,6.7a7.37,7.37,0,0,1-.4,1.4,7.84,7.84,0,0,1-.5,1.4l-.6,1.2-.7.7a18.88,18.88,0,0,0-2-2,14.79,14.79,0,0,0-3.5-1.9c-2.4-1-5-1.6-7.5-2.4h0a6.44,6.44,0,0,1,.5-2.4A6.62,6.62,0,0,1,81.8.5l.4-.4a14.87,14.87,0,0,0,5.4,1A15.56,15.56,0,0,0,93,.1l.4.4a8.55,8.55,0,0,1,1.5,2.2,7.43,7.43,0,0,1,.3,2.6"/><path class="cls-1" d="M100.3,0a13.59,13.59,0,0,1-.7,3.5,11.56,11.56,0,0,1-2,3.2c-1.1,1.2-2.3,2.3-3.5,3.5.1-.2.2-.3.3-.5a6.11,6.11,0,0,0,.7-1.4,12.13,12.13,0,0,0,.5-1.4l.3-1.5a7.5,7.5,0,0,0-.3-3A5.76,5.76,0,0,0,94.3.1h6Z"/><polygon class="cls-1" points="11.2 63.8 0 35.8 2.1 35.8 11.3 59.7 20.7 35.8 22.3 35.8 11.2 63.8"/><rect class="cls-1" x="38.9" y="36.4" width="1.9" height="26.7"/><path class="cls-1" d="M64.2,49.6h2.9c4.3,0,9.3-1.1,9.3-6.5,0-4.4-3.2-6.2-8.9-6l-3.3.1Zm3.3-13.4c5.8-.1,11.1,1.2,11.1,6.8,0,4.4-3.1,6.8-8.1,7,4.7.2,6.5,1.9,7.4,6.3.9,4.2,2,7.1,5.5,6.6V63a7.08,7.08,0,0,1-2.6.5c-2.9,0-3.8-2.4-4.9-7.2-1.2-5.3-3.4-5.7-8.6-5.7h-3V63H62.4V36.2Z"/><path class="cls-1" d="M98.7,53.8H109L103.8,40Zm5.3-18,10.7,28h-2l-3.2-8.5H98.1l-3.2,8.5H93.4Z"/><polygon class="cls-1" points="151.7 36.4 151.7 64.2 132.2 40.1 132.2 63.1 130.8 63.1 130.8 35.3 150.3 59.6 150.3 36.4 151.7 36.4"/><rect class="cls-1" x="173.1" y="36.4" width="1.9" height="26.7"/></g></g></g></svg>