<svg xmlns="http://www.w3.org/2000/svg" viewBox="0 0 61.31 89.36"><defs><style>.cls-1{fill:#010101;}.cls-2{fill:#00b1b2;}</style></defs><title>logo-august-jackson</title><g id="Layer_2" data-name="Layer 2"><g id="Logos"><g id="logo-august-jackson"><path class="cls-1" d="M40.87,89.3c5.67-1.18,6.52-5.23,6.5-10.06-.08-18.17,0-36.35-.08-54.53,0-2.1.34-3.06,2.73-2.86a83.32,83.32,0,0,0,8.8,0c1.32,0,2,.12,2,1.78-.07,17.33,0,34.66-.1,52,0,4.74-3,8-6.76,10.51A20.75,20.75,0,0,1,40.87,89.3Z"/><path class="cls-1" d="M18.38,20.79c5.28.6,9.57,1.44,13.13,4.43a12.63,12.63,0,0,1,4.8,10.1c0,7.47-.06,15,0,22.42,0,2.58.11,5.39,3.79,5.9-7.68,4-17.2-1.5-17.31-9.94-.11-8.13-.08-16.27,0-24.4C22.86,25.93,22.45,22.87,18.38,20.79Z"/><path class="cls-1" d="M17.35,41.39c-4.75,5.75-5.52,18.89-1.44,23a16.78,16.78,0,0,1-6.7.4c-4.83-.94-8.07-3.6-9-8.5s1-8.66,4.85-11.55C8.64,42.06,12.93,41.86,17.35,41.39Z"/><path class="cls-1" d="M30.06,79.51a7.17,7.17,0,0,1,7.11-7,7.27,7.27,0,0,1,7.1,7.3,7.11,7.11,0,0,1-7.3,7A7,7,0,0,1,30.06,79.51Z"/><path class="cls-1" d="M16.41,32.41a7,7,0,0,1-7.18,7.11,7.11,7.11,0,0,1,0-14.21A7.07,7.07,0,0,1,16.41,32.41Z"/><path class="cls-2" d="M54.07,14.11a6.77,6.77,0,0,1-7-6.95A7,7,0,0,1,54,0a7.25,7.25,0,0,1,7.34,7.06A7,7,0,0,1,54.07,14.11Z"/></g></g></g></svg>