<svg xmlns="http://www.w3.org/2000/svg" viewBox="0 0 163 84.07"><defs><style>.cls-1{fill:#1f1f1f;}</style></defs><title>logo-avant-gardner-brooklyn</title><g id="Layer_2" data-name="Layer 2"><g id="Logos"><g id="logo-avant-gardner-brooklyn"><path class="cls-1" d="M98,12.05a8.51,8.51,0,0,0-.21,1.48c0,4.43.07,8.85.12,13.27v2h-5l0-28.8h4.46s6,11,9.18,16.84V.33l5.06-.16v28.7H107.1s-.71-1.2-1.06-1.85c-2.35-4.27-4.71-8.54-7-12.82-.38-.71-.67-1.46-1-2.19l-.11.12Z"/><path class="cls-1" d="M95.2,36H100l9.19,16.88V36h5.1V64.75h-4.62l-9.33-17c.23,5.88.35,11.41.16,17.05H95.2C95.19,55.15,95.2,45.62,95.2,36Z"/><path class="cls-1" d="M20,41l-4.5,2.27c-.31-.18-.44-.21-.5-.3a6,6,0,0,0-7.39-2.51,3.31,3.31,0,0,0-2.21,3.36c0,2.81,0,5.62,0,8.44,0,1.55,0,3.1,0,4.65A3.28,3.28,0,0,0,8.9,60.43h.52c4,0,5.21-1.39,4.52-5.71-.76,0-1.58-.11-2.4-.15l-2.49-.11V49.83H19.36c.05.61.13,1.17.13,1.73,0,1.78,0,3.56,0,5.34,0,4.92-2.8,8-7.67,8.42a24.62,24.62,0,0,1-5.15-.15A7.45,7.45,0,0,1,0,57.61Q0,50.38,0,43.14A7.29,7.29,0,0,1,6.46,35.6a31.61,31.61,0,0,1,7.53,0C17,36,18.72,38.11,20,41Z"/><path class="cls-1" d="M137.91,36v4.7H126.27a51.1,51.1,0,0,0-.17,6.78c3.28.58,6.49,0,9.8.41v4.73h-9.68v7.34c3.9.29,7.72,0,11.68.18v4.64H121.07L121,36Z"/><path class="cls-1" d="M58.77,18.84,63.92.05h5.75S63.82,19.29,60.9,28.87H56.68L47.92.21,53.59,0S57,12.38,58.77,18.84Z"/><path class="cls-1" d="M127,28.87h-5.3v-24l-5.94-.18V.25l17-.09V4.72h-5.56s-.16,5.49-.2,8.1,0,5.28,0,7.92Z"/><path class="cls-1" d="M112.34,76.5v7.42h-1.42V73.61h1.66l5.69,7.88V73.64h1.51v10.2h-1.69l-5.37-7.49-.37-.46Z"/><path class="cls-1" d="M93.65,84H91l-4.54-4.15V84H85V73.68h1.48s-.08,2.45,0,4l3.73-4H92c-1.53,1.75-4.21,4.88-4.21,4.88Z"/><polygon class="cls-1" points="94.7 83.87 94.7 73.66 96.05 73.66 96.05 82.41 100.96 82.41 100.96 83.87 94.7 83.87"/><path class="cls-1" d="M105.13,78.12l2.39-4.37h1.59c-1,2.15-3.21,6.18-3.21,6.18l0,3.86H104.3l0-3.86L101,73.66l1.56-.07Z"/><path class="cls-1" d="M98,12.05,98,12h0Z"/><path class="cls-1" d="M158.56,51.69c.59-.69,1-1.2,1.41-1.65,2.72-2.81,3.1-6.06,1.67-9.54-1.37-3.31-4.1-4.63-7.55-4.65-3.05,0-6.09,0-9.13,0-.61,0-1.77.11-1.77.11l.05,28.76h5c0-2.12,0-4.07,0-6a43.22,43.22,0,0,1,.15-6h4.63l4.24,12H163Zm-4.2-4.11c-1.91.17-3.85,0-5.94,0a28.19,28.19,0,0,1,.06-6.87c2,0,3.9-.12,5.76,0a3.31,3.31,0,0,1,2.86,3.35A3.35,3.35,0,0,1,154.36,47.58Z"/><path class="cls-1" d="M61.59,51.43l1-.89a8.42,8.42,0,0,0,2.91-7.21c-.32-3.87-3-7.1-6.74-7.34-4.11-.27-12.46-.06-12.46-.06l.14,28.82h5v-12h4.77c1.44,4.08,2.86,8.11,4.23,12h5.7C64.54,60.16,63.06,55.8,61.59,51.43ZM57.75,47.5a58.78,58.78,0,0,1-6.25.06V40.82a60.57,60.57,0,0,1,6.19,0,3.1,3.1,0,0,1,2.44,3.29C60.14,45.78,59.22,47.34,57.75,47.5Z"/><path class="cls-1" d="M89.92,43.65A7.69,7.69,0,0,0,82,35.86c-3.38-.07-6.76,0-10.15,0-.33,0-1.09.1-1.09.1l.16,28.91s7.6.12,11.43,0a7.61,7.61,0,0,0,7.58-7.77Q90.07,50.36,89.92,43.65ZM84.57,57a2.9,2.9,0,0,1-2.64,2.95c-1.92.18-3.86,0-6,0V40.83c2.17,0,4.22-.15,6.23.05a2.91,2.91,0,0,1,2.41,3Q84.67,50.4,84.57,57Z"/><path class="cls-1" d="M34.55,36H30.32C27.41,45.52,24.51,55,21.55,64.76H27.2c.53-1.71,1-3.39,1.58-5.12h7.27c.55,1.78,1.06,3.46,1.58,5.16h5.71ZM30.22,54.39l2.1-8.18.28,0c.64,2.64,1.27,5.27,2,8.13Z"/><path class="cls-1" d="M40.67,0H36.49c-1.48,4.84-3,9.58-4.38,14.35s-3.06,9.5-4.32,14.53h5.54l1.6-5.19h7.23c.56,1.79,1.08,3.47,1.6,5.17h5.7C46.49,19.12,43.58,9.58,40.67,0ZM36.38,18.49c.71-2.84,1.36-5.42,2-8l.33-.07c.64,2.58,1.29,5.16,2,7.9C39.33,18.93,38,18.68,36.38,18.49Z"/><path class="cls-1" d="M81.09,0H76.9L68.12,28.82h5.67s1-3.39,1.56-5.1h7.26c.56,1.83,1.55,5.1,1.55,5.1h6Zm-4.3,18.49c.75-2.94,1.4-5.52,2.06-8.1h.3c.64,2.63,1.28,5.26,2,8.11Z"/><path class="cls-1" d="M48.66,79c-.22-.33-.51-.61-.78-.94.09-.24.19-.44.25-.66.57-2.12-.34-3.55-2.49-3.75-1.12-.1-2.26,0-3.45,0V83.84a29.83,29.83,0,0,0,4.55,0A3,3,0,0,0,48.66,79Zm-5.1-3.77H46c1.17,0,1.39,2,.1,2.36H43.56Zm2.65,7.19c-.84.05-1.68,0-2.62,0V79.22a24.73,24.73,0,0,1,2.73,0,1.62,1.62,0,0,1-.11,3.22Z"/><path class="cls-1" d="M77.5,73.53a5.27,5.27,0,1,0,.07,10.54,5.27,5.27,0,0,0-.07-10.54Zm0,9a3.65,3.65,0,0,1-3.77-3.78,3.73,3.73,0,0,1,3.78-3.64,3.83,3.83,0,0,1,3.81,3.83A3.76,3.76,0,0,1,77.53,82.49Z"/><path class="cls-1" d="M65.47,73.53a5.26,5.26,0,1,0,5.23,5.28A5.31,5.31,0,0,0,65.47,73.53Zm0,9a3.64,3.64,0,0,1-3.86-3.7,3.76,3.76,0,0,1,3.69-3.74,3.83,3.83,0,0,1,3.88,3.57A3.7,3.7,0,0,1,65.51,82.49Z"/><path class="cls-1" d="M56.45,79.72c.34-.27.57-.43.79-.61a3,3,0,0,0,.93-3.44,2.76,2.76,0,0,0-2.73-2c-1.3-.06-2.61,0-4,0V83.84h1.43v-4l1.62-.08L57.44,84h1.75Zm-1.53-1.41c-.62,0-1.25,0-2,0v-3H56a1.57,1.57,0,0,1,.75,2.06A1.67,1.67,0,0,1,54.92,78.31Z"/></g></g></g></svg>