<svg xmlns="http://www.w3.org/2000/svg" viewBox="0 0 152.07 67.29"><defs><style>.cls-1{fill:#fff;}</style></defs><title>logo-fnv-fruits-and-vegetables</title><g id="Layer_2" data-name="Layer 2"><g id="Logos"><g id="logo-fnv-fruits-and-vegetables"><path d="M152.07,2.15c-.48.33-.52.93-.66,1.38C150.82,5.31,150,7,149.31,8.7c-.78,1.87-1.51,3.76-2.33,5.61-.68,1.55-1.25,3.15-1.89,4.71-.32.77-.71,1.5-1,2.26-.4,1-.72,1.94-1.13,2.89s-.7,1.87-1.11,2.76c-.58,1.24-1.06,2.51-1.58,3.77-.37.88-.67,1.78-1.07,2.64A27.57,27.57,0,0,0,138.1,36c-.25.74-.67,1.42-.95,2.15-.49,1.28-.93,2.59-1.51,3.8s-1.07,2.78-1.78,4.1a30.81,30.81,0,0,0-1.38,3.58c-.31.77-.74,1.49-1,2.26-1,2.8-2.39,5.45-3.27,8.3-.86,1.24-1.11,2.76-1.83,4.07a25.08,25.08,0,0,0-1.18,3.05H0a2.34,2.34,0,0,1,.15-1.16c.46-1.23,1-2.47,1.46-3.68s1-2.36,1.5-3.54c1-2.5,2.23-4.89,3-7.47A39.26,39.26,0,0,0,8,47.36,27.47,27.47,0,0,0,9.31,44c.32-.86.78-1.65,1.06-2.52.55-1.73,1.31-3.39,2-5.08.45-1.15,1-2.28,1.42-3.43.59-1.5,1.19-3,1.85-4.46.85-1.89,1.52-3.84,2.39-5.72a18.7,18.7,0,0,0,1.3-3.36c.12-.5.67-.92.74-1.42.11-.79.67-1.34.86-2.07a19.31,19.31,0,0,1,.75-2c.86-2.29,2-4.47,2.73-6.79.26-.78.76-1.48,1-2.25.56-1.6,1.3-3.13,1.91-4.71a.82.82,0,0,0,0-.27H152.07Zm-3.23-.06,1.34-.32v-.1H111.63l-.15.44h-.66l-.15-.46h-83c.42.68.17,1.37.26,2l-.74.42L26.82,5.5c.51.37.17.93.22,1.51H25.78c0,.17-.07.29-.11.41l-.49.19c0,.71,0,1.42,0,2.13,0,.06-.11.12-.13.15l-.43.13v1.74l-1.09.1v2.05l-.82.52v1.7h-1c-.08,1,0,2-.06,2.87l-.51.12v1.59L19.83,21l.36.48-.91.68c-.26.65.94.9.45,1.64l-1,.1v2.62L17.42,27v2.19l-.55.2c0,.76,0,1.55,0,2.37H15v.6l.85.55-.94.63v1.69H13.87V37l-.51.13v2.36H12v2.79l-1,.84v3.19l-.44.44H9.87l-.8.74v2.73H7.71v2.24c-.21.18-.36.29-.5.42a3.59,3.59,0,0,1-.51.52,1.76,1.76,0,0,1-.58.1l.06.76.48-.36c.48.26.7.57.47,1.08l-1,.11v1l-.55.15v2.28c-.46.09-1-.13-1.29.52v1.29l-.61.25.58.2V62.2l-1.34.09c.53.66.2,1.35.35,2.09l-1.63.48H3.42l.1-.49.7,0,.09.44H5.83l.11-.49,1.21.08.14.44h3.87l.16-.45H12l.15.43h2.55l.11-.49.69,0,.1.48h.92l.19-.48h.63l.17.47h1.45l.16-.45h.66l.15.43h1.48l.09-.42h1.28c0,.52.2.59.51.39l.1-.42h1.2l.19.56.25-.54h.66l.11.43h1l.11-.49.7,0,.1.51,1.07-.07-.37-.43h1.05l.15.44h.67l.13-.43h1l-.3.45H32.6l.17-.48h.65l.16.47h.93l.15-.45h.67l.12.43H37l.09-.45h1.19l.31.72.45-.72h1.14l.16.47H44.2L44,64.44h1l.1.49.7-.05.1-.5c.29,0,.56,0,.82,0,.07,0,.13.09.16.12l.1.37h1.2l.16-.46H49l.15.45h1.48l.11-.43h1.48l.2.55.22-.53h1.53l-.28.41H56l.15-.44h.67l.13.48h1.44l.16-.46H60l.21.55.21-.58h1.18l.18.51.37-.06.15-.44H63l.14.43h1.58l-.38-.41h1.59l.19.51.25-.53h1.46L68,65l.28-.57h.58l.18.5h.88l.19-.48h.63l.17.47h.65l.16-.45h.66l.15.43H74l.09-.42h1.52l.12.61.28-.64h.62l.17.47h.92l.16-.45h.66l.16.48h.58l.23-.47h1l-.37.41h1.06l.15-.43H82l.11.45h1a1.75,1.75,0,0,1-.14-.24,1.07,1.07,0,0,1-.07-.19h1l.21.55.21-.58h1.45l.19.56.26-.54h1.06l.58.6.21-.59h1.2l.2.56.22-.59h.91l.16.47h.66l.16-.5h.61l.16.48h1l.11-.49.69,0,.11.51,1.06-.07-.41-.48,1.2.06-.32.42H97.3l.1-.45h.92l.21.52.64-.07.14-.5,1,.1-.32.41h1l.12-.45h.65l.18.5,1,0-.37-.41h1.13l-.33.41H107l.12-.43h1l-.32.45h1l.17-.47h.65l.16.45h1l-.22-.43h1.08l-.32.45h1.54l.17-.47h.92l.16.45h.66l.15-.44h1l-.18.24s-.08.06-.09.1,0,.06.09.12h.87l.21-.52.64.07.13.44h.92l.16-.45h.66l.2.58.2-.57h1.23l.1.49.52-.09-.36-.4h1.59l.2.57.22-.64h1.34l-.34-.38.8-.51V62.09l.4-.39h.8s.06-.06.14-.14V58.2h1v-.72l-.46-.16v-.66l.55-.18V54.75l1-.06V52.41l.55-.2v-.84c.17-.16.28-.33.44-.39a2.29,2.29,0,0,1,.53,0,1.54,1.54,0,0,0,.35-.1l0-.14-1.41-.06.47-.74,1-.06v-1l.56-.12V46.94c.31,0,.54,0,.76,0a5,5,0,0,0,.63-.12l-1.39-.39V45h1.88V42.16l.47-.12,0-1h1.28V40.5h-1.28V39.15h1.28l.06-.71.55-.19V35.41h1v-1l.67-.08a10.11,10.11,0,0,1-.1-3h1.31V29.6l.57-.2-.54-.26v-1h1.78c-.4-.87-.12-1.72-.23-2.56l.83-.51V23.19l.57-.57V21.35c.32-.64.86-.3,1.28-.5v-2l.52-.19.09-1.3h1V14.16l.82-.63c0-.65-.58-1.13-.19-1.7l.34-.33h.84l.1-.41.51-.2V9.1h1.41a1.06,1.06,0,0,1-.26-1.28c.07-.24.23-.6.14-.71-.4-.43-.16-.92-.23-1.35l1.33-1.11Z"/><path class="cls-1" d="M148.84,2.09V4.65l-1.33,1.11c.07.43-.17.92.23,1.35.09.11-.07.47-.14.71a1.06,1.06,0,0,0,.26,1.28h-1.41v1.79l-.51.2-.1.41H145l-.34.33c-.39.57.2,1.05.19,1.7l-.82.63v3.23h-1l-.09,1.3-.52.19v2c-.42.2-1-.14-1.28.5v1.27l-.57.57v1.86l-.83.51c.11.84-.17,1.69.23,2.56h-1.78v1l.54.26-.57.2v1.74h-1.31a10.11,10.11,0,0,0,.1,3l-.67.08v1h-1v2.84l-.55.19-.06.71h-1.28V40.5h1.28V41h-1.28l0,1-.47.12V45h-1.88v1.41l1.39.39a5,5,0,0,1-.63.12c-.22,0-.45,0-.76,0v1.81l-.56.12v1l-1,.06-.47.74,1.41.06,0,.14a1.54,1.54,0,0,1-.35.1,2.29,2.29,0,0,0-.53,0c-.16.06-.27.23-.44.39v.84l-.55.2v2.28l-1,.06v1.73l-.55.18v.66l.46.16v.72h-1v3.35c-.08.08-.11.14-.14.14h-.8l-.4.39v1.39l-.8.51.34.38h-1.34L123,65l-.2-.57h-1.59l.36.4-.52.09-.1-.49h-1.23l-.2.57-.2-.58h-.66l-.16.45h-.92l-.13-.44-.64-.07-.21.52h-.87c0-.06-.09-.1-.09-.12s.06-.06.09-.1l.18-.24h-1l-.15.44h-.66l-.16-.45H113l-.17.47h-1.54l.32-.45h-1.08l.22.43h-1l-.16-.45H109l-.17.47h-1l.32-.45h-1l-.12.43h-3.47l.33-.41h-1.13l.37.41-1,0-.18-.5h-.65l-.12.45h-1l.32-.41-1-.1-.14.5-.64.07-.21-.52H97.4l-.1.45H95.72l.32-.42-1.2-.06.41.48-1.06.07-.11-.51-.69,0-.11.49h-1l-.16-.48h-.61l-.16.5h-.66l-.16-.47h-.91l-.22.59-.2-.56H88l-.21.59-.58-.6H86.18l-.26.54-.19-.56H84.28l-.21.58-.21-.55h-1a1.07,1.07,0,0,0,.07.19,1.75,1.75,0,0,0,.14.24h-1L82,64.42h-.66l-.15.43H80.12l.37-.41h-1l-.23.47h-.58l-.16-.48h-.66l-.16.45h-.92l-.17-.47H76l-.28.64-.12-.61H74.06l-.09.42H72.49l-.15-.43h-.66l-.16.45h-.65l-.17-.47h-.63l-.19.48H69l-.18-.5h-.58L68,65l-.18-.53H66.32l-.25.53-.19-.51H64.29l.38.41H63.09L63,64.43h-.66l-.15.44-.37.06-.18-.51H60.41L60.2,65,60,64.45H58.52l-.16.46H56.92l-.13-.48h-.67l-.15.44H53.88l.28-.41H52.63l-.22.53-.2-.55H50.73l-.11.43H49.14L49,64.42h-.65l-.16.46H47l-.1-.37s-.09-.12-.16-.12c-.26,0-.53,0-.82,0l-.1.5-.7.05-.1-.49H44l.21.44H40.29l-.16-.47H39l-.45.72-.31-.72H37l-.09.45h-1.5l-.12-.43h-.67l-.15.45h-.93l-.16-.47h-.65l-.17.48H31.07l.3-.45h-1l-.13.43h-.67l-.15-.44H28.36l.37.43-1.07.07-.1-.51-.7,0-.11.49h-1l-.11-.43H25l-.25.54-.19-.56h-1.2l-.1.42c-.31.2-.5.13-.51-.39H21.48l-.09.42H19.91l-.15-.43H19.1l-.16.45H17.49l-.17-.47h-.63l-.19.48h-.92l-.1-.48-.69,0-.11.49H12.13L12,64.43h-.66l-.16.45H7.29l-.14-.44-1.21-.08-.11.49H4.31l-.09-.44-.7,0-.1.49H1.6l1.63-.48c-.15-.74.18-1.43-.35-2.09l1.34-.09V60.71l-.58-.2.61-.25V59c.32-.65.83-.43,1.29-.52V56.17L6.09,56v-1l1-.11c.23-.51,0-.82-.47-1.08l-.48.36-.06-.76a1.76,1.76,0,0,0,.58-.1,3.59,3.59,0,0,0,.51-.52c.14-.13.29-.24.5-.42V50.19H9.07V47.46l.8-.74h.65l.44-.44V43.09l1-.84V39.46h1.35V37.1l.51-.13V35.18h1.06V33.49l.94-.63L15,32.31v-.6h1.83c0-.82,0-1.61,0-2.37l.55-.2V27l1.33-.39V23.94l1-.1c.49-.74-.71-1-.45-1.64l.91-.68L19.83,21l1.32-.33V19.12l.51-.12c.1-.9,0-1.87.06-2.87h1v-1.7l.82-.52V11.86l1.09-.1V10l.43-.13s.13-.09.13-.15c0-.71,0-1.42,0-2.13l.49-.19L25.78,7H27c-.05-.58.29-1.14-.22-1.51l.32-1.39.74-.42c-.09-.67.16-1.36-.26-2h83.05l.15.46h.66l.15-.44h38.54v.1ZM60,6.88l-.12.23.65.24-.13.08h1.65l-.56-.78A8.79,8.79,0,0,0,60,7V5.7c-.55-.47-1-.52-1.49,0V7A8.18,8.18,0,0,0,60,6.88Zm30,.32L89,7.31V8l-1,.06v3H87.1v2.11h-.87l-.64.95v1.23l.56.37-.57.22-.11,1H84.24c-.13.82.09,1.61-.11,2.31l-.5.16v1.34l-.83.57v2.25l-1,.06v1.47l-.53.2c-.08.94,0,1.91-.08,2.91h-1l0,1-.83.48v1.72h-1v2.9l-.49.11-.08,1.05H76.44c-.08,1,0,2-.06,2.86h-.73v-.67l.41-.15c.34-.63-.21-.82-.39-1.08V35.18l.49-.11,0-.69-.5-.1c0-1.79,0-3.55-.05-5.36H74.42l1.15-.49v-1.3L74.21,27c.14-.15.26-.21.26-.28,0-1.55,0-3.1,0-4.71l-.65-.42.89-.7-1-.71v-.45l.85-.62-.91-.53v-6l-1.24-.1v-.77h1.3l0-.82H72.48c.4-1.32.07-2.63.2-3.84l-.35-.35H70.59l-.21.55-.21-.58h-2L68,7.3l-.26-.54H66.27l-.17.62-.23-.65H64.39l-.17.66L64,6.75H63l-1.6,1.63V11l-1,0v2l-.83.49V14.9l-1.11.41v1.52l-.55.19V19.3c-.46.06-1-.15-1.28.47v1.3L56,21.3v1.47l-1.08.08v2.3l-.5.17v2.73L53,28.82l.1,0-.67.69c.16.42.62.17,1,.23.06,0,.12.11.18.17l0,.62H53L51.7,31.65v2.64l-1.08.12v1l-.55.15v2.83a1.62,1.62,0,0,0-1.29.42v1.35l-.57.57V42.6l-1.08.13v1.75l-.46.12V46l-.84.5v2.36H44.46c.14.72-.18,1.4.27,2l-.83.53v.92l-.33,0L43.09,51h-.7v1.25a4.79,4.79,0,0,0,.69.88,7.22,7.22,0,0,0,1.15.53,4.7,4.7,0,0,0-1.1.43,5.61,5.61,0,0,0-.8.94v2.06L41,57.17V58.6l-.48.5v1.22h.71l.1-1h3.41l-.3.56.45.47,1.26-.06v-1l.46,0,.05,1h.73l.11-1h1.17l.35,1h1.8c.1-.1.27-.19.28-.29a4.19,4.19,0,0,0-.1-2.43s0-.13.06-.24h1l.75-1V54.51c.47-.15,1.07.16,1.37-.74V52.62l.46-.11V50.26l.6-.21V48.24h1V45.55l.84-.65c-.18-.43-.52-.74-.21-1.15a1.71,1.71,0,0,0,1.28-.44V41H59l-.18-1.53,1.25-.07V37.61l.5-.13V35.19c.5-.12,1,.13,1.31-.49L62,33.3l.5-.11V31.24l.57-.57V28.73h.67l.17.48.71.07c-.49.8-.19,1.63-.24,2.44s0,1.6,0,2.41v2.53c.27.7,1,.14,1.37.5v6.22l.46.16V45l-.44.11v1.51l.46.12v4.48l1.07.39v1.24h-1v1.57l1.39.06c-.15.16-.26.22-.26.28,0,1.38,0,2.75,0,4.2l.35.35h2.74l.11,1h1.26l0-1H74l0,.95h1.63v-1h2l1-1.17V56h1v-1.4l.81-.52a9.05,9.05,0,0,0-.19-2.56c.41-.12.93.15,1.24-.52v-.69l.78-.49a2.52,2.52,0,0,0-.17-1.52l1.33-.09V45.38l.46-.12V43.88l.57-.57V41.39c.28-.68,1-.12,1.37-.51V39.49l.51-.13V37.05l1-.06V35.34a4.86,4.86,0,0,1,.89-.64,4,4,0,0,1,1-.17V33.2L88,32.88v-.13h1.32V31.28l.85-.52c-.12-.67.14-1.36-.19-2l.75-.5V26.85l1-.06V25.11l.86-.52c-.16-.85.18-1.72-.24-2.57L93.63,22V21l.55-.19V17.73l.72,0L96,16.8v-.91l-.82-.13.9-.59-.23-1h1.25V12l.79-.49A2.52,2.52,0,0,0,97.67,10l.76-.08V7.54l1.07-.06,0-.73H98.14l-.41.56-.21-.58H95.83l-.31.73-.45-.72H93.93l-.19.56-.25-.54H92l-.16.62-.24-.65H90.16Zm6.81,47.56V56l.72.3-.74.41v2.23l.38.37h2v1c.59.11.94,0,1-.57l-.26-.4h3l-.44.58.61.6a2.8,2.8,0,0,0,.46-.45,2.43,2.43,0,0,0,.14-.48l.14-.37h.91l.06-.72,1.35-.07V57l1.09-.47V55h1.81V53.43l.76-.91h.88V50.85l1.38-.9V48.79h1.32l-.17-1.54.63-.09.09-.45,1-.09v-.88l1-1h.85L117,43l.52-.16V41h1.89V39.68l.73-.79c.28-.07.79.19,1.12-.52l-.13-1.27.7-.46V36l.81-.09,1.2-1.27.94,0V32.78l.51-.13v-1l1.09-.06V29.78H127l.87-1.09h.79l-.14-.14.67-.26-.43-.58.86-.54V25.48h.91l.25-.52.7,0V23.46l1.1-.45v-.77l1.25-1.32h.71l.43-.43V19.11l.51-.13V17.73l1-.05V16.34c.68-.72,1.74-.7,2.23-1.59l-.34-.47.75-.12.19-.52h1V12l1.1-1V10l1.36-.08V8.36l.43-.11V6.74h-.68l-.15.46h-1.47l-.22-.63-1.24.67c-.58-.47-.58-.47-1.22-.46L138,7.2h-.66l-.15-.44h-.94l-.11.49-.69,0-.1-.48h-2l-.19.49-.83,0-.53.83h-.93l-.09,1.52-.5.13V11h-1l-.9.78v1.36l-1,.05-.12.74-.47.1v1.7l-.55.23v1h-1.1c-.29.28-.41.41-.55.52s-.34.27-.55.43l.22,1.48h-1.19l-.1,1-.49.1v1.29h-1l-.92,1.81v1.16h-1.54v1.68l-.86.54.23,1.24h-1l-1.18,1.39h-1v1.75l-.55.19v1H114l-1.17,1v1.43h-.74l-.88.74v1.43l-.82.72.34.57c-.49,0-1-.15-1.38.54v1.28h-1.24l-.31-.76h1.29V31.76l.56-.21,0-.66-.51-.11.08-1,.5-.15V22l1.09-.09V14.26l.71-.08V13a2,2,0,0,0-.34-.33,1.88,1.88,0,0,0-.39-.12V12l.78-.48c0-1.34,0-2.63,0-3.92a4.09,4.09,0,0,0-.24-.87,17,17,0,0,0-1.85.08l-.13.55-.28-.56h-1.44l-.21.59-.19-.58h-2l-.19.58-.23-.61h-1.67l-.48.47H102l-.15-.45h-.67l-.16.5h-.84l-.43.44v6.2l-.46.12v1.31l.57.37-.58.23v3l.55.2-.62.29v7.07l-1.25.09v.77h1.3l0,.76c-.5.08-1-.13-1.28.45v1.2h1.28v.76l-.94.05.15.16-.55.19c.2.93.87.61,1.34.74v.7c-.41.19-1-.17-1.33.69v5.47l-.47.16v.66l.49.17v.58l-.55.26,0,.62.52.1,0,1-.47.09v1.18l.47.47v.65l-.55.19v7.6l-.49.13,0,.68.49.1v1.5ZM40.79,28.17l-.11-1H40l-.06,1-.81-.05V27.08L38,27.15v1H36.7V27.06H35.41a2.37,2.37,0,0,0,0-2.14h1.36V23.36l.55-.45v-2h1V19.21l.79-.48,0-1H53.78l.19-.51.72-.14V15.54l.6-.4v-2h1.06v-1.8l.5-.12V9.37h1.29V7.25H57l-.21-.52h-.62L56,7.21h-.64l-.17-.46h-.65l-.21.62-.45-.6H52.61l-.2.55-.22-.58H50.74l-.19.56-.27-.59H49.06l-.4.6-.24-.58H47.27l-.18.5h-.58L46,6.71H44.38l-.63.57-.53-.54H41.38l-.57.55-.15-.59-.64,0-.2.53a1.39,1.39,0,0,1-1-.52H37.06l-.19.56-.25-.54H35.16L35,7.38l-.24-.65H33.4l-.72,1V9l-.48.18c-.13.77.06,1.56-.12,2.38h-1V13l-.84.54V15c-.47.12-1.06-.16-1.3.57.12.54-.21,1.21.21,1.77l-.77.48v2.55l-1.09.1v1.22l-.54.19v1.77H25.47v2.83l-.53.19-.07,1.48-.45.09c-.12.9.06,1.77-.11,2.6a2.69,2.69,0,0,0-.52-.23,2.75,2.75,0,0,0-.53.05V32.3l-.82.58v1.44a1.66,1.66,0,0,0-1.29.41c.06.55-.12,1.14.22,1.72l-.8.48v1.32l-1.06.39V41l-.51.11v1.38l-.83.53v2l-1.09.12V46.9l-.5.13v2.9h-1v.87l-.83.52v1.4l-1.32.4v2.55l-.5.49-.1,1h-1v1.73l.4.4h2.56v1c.54.16.9,0,1-.48l-.25-.48h1.54l.1,1h1.53l.05-.95h1.89v1l1.09-.06V58.5l1,0V57l.87-.51L23.44,55h1.24V52.65l.55-.19V50.21l.51-.13v-.87l.42-.43h.9V47L27.89,46c-.12-.69.16-1.47-.23-2.22.44-.06.94.15,1.25-.44l.08-.88.46-.09c.08-1-.05-1.95.08-2.95h1l.14-.49H43.75c1.08-.23.57-.91.82-1.28l.52-.18V35.16h.66L46.87,34V33.3l-.82-.49.83-.14.07-1,.54-.12V29.19h1v-2H47.22l-.12,1-.18,0V27.08l-1.13.07v1H44.47v-1H42.93l-.1,1Zm50.9,30.62H90.46l-.37.37.06,1.15h1.54Zm-53.4,1.54V58.77h-1.2c-.52.7-.52.84,0,1.56Zm75.15-42.48c-.53-.64-1.08-.37-1.57-.37V19h1.19l.38-.38Zm11.22-2.64V14h-1.53V15.2A1,1,0,0,0,124.66,15.21ZM52.23,5V3.82H50.7V5A1,1,0,0,0,52.23,5Zm5.92,46H56.8c-.25.54-.47,1,.12,1.51h1.23Zm76.7-16.43V33.34c-.81-.49-1.17-.47-1.51,0v1.23ZM29.31,51c-.52.7-.52.84,0,1.6l1.17-.06V51ZM42.6,25.59c-.73-.52-.87-.52-1.56,0-.06.47-.13.95.33,1.19H42.6Zm82.08,31.59h-1.6l.06,1.25h1.54ZM79.62,21.77H78.37v1.52h1.25Zm6.14-12.4V8.12H84.24V9.37Zm8.12,29.48h1.25V37.33H93.88ZM87.39,60.67H86.14v1.52h1.25Zm28-4.65h1.52V54.77h-1.52ZM31.11,48.24h1.33L32.38,47H31.11ZM47.18,24.88h1.29V23.59l-1.29.07Zm-8.27,24V50.1h1.25V48.85Zm78.36,0v1.3h1.28l-.07-1.3Zm-51-44v1h1.52v-1ZM92.49,43.57c-.27-.36-.58-.52-1-.3v1.64l1-.36ZM76.35,29.73h1.79l-.39-1H76.62ZM108,62v-1.2l-1-.28V62.3Zm6.82-1.53v1.85l1-.37V60.89Zm17.22-16.77c.43-.37.58-.68.32-1H131c-.25.49,0,.77.33,1ZM35.62,45.45a.71.71,0,0,0-1-.31v1.65l1-.37ZM28.44,3.78V5l.59.45.4-.55V3.78Zm85.34,20H115v-1h-1.2l-.42.52Zm-21.27,12c-.26-.31-.54-.57-1-.33v1.65l1-.41Zm-58,25.33c.36-.27.52-.59.3-1H33.12l.36,1ZM51.76,23l.6.39.46-.48,0-1.14h-1Zm63-10.19.6.39.46-.48,0-1.14h-1ZM89.63,52.72v1.85l1-.37V53.11Zm33.31-.39.42,1h1c.35-.3.55-.61.28-1ZM83.41,14.2c-.14-1-.14-1-1.26-1a.7.7,0,0,0-.26,1Zm44-5.93h1.26l.41-.57-.42-.4h-1.25ZM114,7a5,5,0,0,0,0-1.17c0-.19-.35-.32-.59-.52l-.41.46V7Zm6.91,9.12.39-.6-.48-.46-1.14.06v1ZM75.1,18.66c.28.36.59.53,1,.31V17.31l-1,.39ZM90.62,3.8h-1V5l.19-.19.27,1,.4-.9.17.15Zm-29,43.37.44-.58-.55-.4h-1l-.27,1ZM115.18,55l-.43-1.07h-.93l-.47.58.54.49Zm15.69-22.24-.49.72v1.24l1-.39v-.83ZM30.52,60.06c-.55.13-1.15-.23-1.57.43l.61.61h1ZM47.2,5.86h1.33l-.05-1H47.2Zm31.14,1.4V8.33l1.25-.06v-1Zm42.34,41.59a8.74,8.74,0,0,0,0,.91c0,.14.12.37.2.38a4.38,4.38,0,0,0,.82,0V48.85Zm0-40.78a8.89,8.89,0,0,0,0,.92c0,.14.12.37.2.38a4.33,4.33,0,0,0,.82,0V8.07ZM94.11,29.32l-1.1.54.42,1.21h.68Zm24.68,32.94c.68-.26.55-.77.41-1.12l-.27-.64-.26,0-.23.66A.71.71,0,0,0,118.79,62.26ZM21.65,24.92V23.6l-1,0v1.27ZM141,5.28l.38.59c.57,0,1.12.16,1.29-.55-.26-.62-.77-.51-1.24-.47ZM95.48,50.94c-.68.26-.55.78-.41,1.13l.26.63.27,0,.22-.66A.71.71,0,0,0,95.48,50.94ZM60.57,57.18H59.51l.06,1.25h1Zm23.31-.9.84.42c.36.14,1,.34,1.09-.43-.25-.6-.75-.49-1.1-.31Zm5.17-13.75,1.07-.43-.07-1h-1ZM82.28,56V54.92l-1-.26V56Zm-70.8,6.31-1.07.43.07,1h1ZM126.9,45.09v1.56h.71V45.09ZM78,6.76a4.8,4.8,0,0,0-1.56,0v.68H78ZM19.8,35.46h-.72V37h.72Zm95.56-8.88v.71h1.52v-.71ZM83.71,14v1.26l.2-.16.14.62.72-1.26A.81.81,0,0,0,83.71,14Zm33.17,3.68V17h-1.52v.71ZM97,62.73c0-.81-.18-1-.63-1s-.58.22-.62,1Zm29.35-25.44V39l.75-.48-.06-1.25ZM48.27,34.56H49V32.87l-.72.46ZM24.94,56h.71V54.77h-.71Zm-15.39,0V54.77H8.81l.06,1.29Zm46.53,1.1v1.3h.71v-1.3Zm-1.66,5.37a6.76,6.76,0,0,1,0,.78c-.08.66.31.58.76.48V62.53ZM125,45.29h1.29v-.71H125ZM41.28,63.82a6.76,6.76,0,0,1,0-.78c.08-.66-.31-.58-.76-.48v1.26ZM7.73,62.55H7V63.8h.72ZM125,9.88h1.29V9.17H125Zm-7.58-5c-.53-.14-.88,0-1,.49a.73.73,0,0,0,1,.46ZM82.34,7.78a.74.74,0,0,0-1-.47v1A.75.75,0,0,0,82.34,7.78ZM122.6,7.3v1a.73.73,0,0,0,1.05-.47C123.48,7.28,123.13,7.16,122.6,7.3Zm-1.15,46.57c-.69.13-.86.48-.72,1.08h1.13ZM39.11,55c.1-.61-.07-.94-.57-1.06-.43.25-.65.57-.38,1.06ZM139.36,21.05c-.41-.58-.71-.83-1.18-.59v1.15ZM5.73,61.52c-.59.41-.83.71-.59,1.19H6.28Zm21.1-3.25v.94a.75.75,0,0,0,1.08-.53C27.66,58.36,27.4,58.06,26.83,58.27Zm78.65,2.95h.34c.12-.24.27-.48.37-.73a.91.91,0,0,0,0-.33H105Zm-26-47.06c.54.19.85,0,1.06-.57L80,13.1C79.41,13.33,79.26,13.66,79.43,14.16Zm-52.6-1c0,.38-.27.83.18,1,.22.1.59-.16.86-.25l-.38-.76ZM76.14,23.8c.08-.56-.08-.89-.56-1l-.58.37C75.25,23.83,75.59,24,76.14,23.8Zm-57,8c.2-.78,0-1.13-.56-1.25l-.57.69Zm109.34,7.59c.57.14.89,0,1-.56l-.38-.55C128.51,38.52,128.37,38.87,128.52,39.39ZM90.22,51.11c-.34-.62-.66-.87-1.17-.58a.74.74,0,0,0,.62,1Zm-27.61-.58c-.71-.18-1.06-.05-1.26.54l.72.59Zm61.06-7.34c-.27-.5-.59-.68-1.06-.46-.15.49,0,.82.66,1.08ZM61.88,58.1l-.57.75.7.52.58-.7ZM54.47,4.85v1h.71v-1ZM144.54,6.1l.65-.79-.62-.55.12.26-1,.27Zm-113.78,1-.57.75.7.52.59-.7Zm86.68,15c-.07-1-.21-1.21-.66-1.21l-.39.81Zm16.07,7.09v-1h-.71v1ZM45,42.9v-.79l-1,0v.74Zm-2.34.84.85-.47c-.26-.51-.55-.79-1.23-.49ZM25.19,22l-.09-1.18c-.61.32-.91.6-.63,1.18Zm86.13,38.14c0,.38-.15.75.12,1.08a.75.75,0,0,0,.6-1.08ZM36.14,48.75h1.07v-.68C36.62,47.92,36.27,48.09,36.14,48.75ZM11.46,50.64v-.7c-.59-.13-1,0-1.07.7Zm80.29,2.65.62-.73a.58.58,0,0,0-.92-.11V53Zm-8.92,3.38a.73.73,0,0,0,.9.73c.07,0,.13-.09.16-.1v-.63ZM57.94,45.25c.66,0,1.05-.13,1-.38-.27-.31-.57-.5-1-.24Zm28.12.81c-.5.37-.64.68-.41,1.16l.81,0Zm7.13,1.09h1.09l-.6-1.25ZM14.44,41.08,16,41l-.77-.87Zm74,7.68-.8-.88-.64.88ZM93,26.86c.35.45.67.7,1.09.41v-.81ZM32,52.31l.47,1.15L33,53l-.07-.66ZM94.62,3.26l1,.91.51-.91Zm25.21,4.23v-.8l-.71.06v.74ZM33.48,56.64h-.8l.06.72h.74Z"/><path d="M90.06,7.2l.1-.47h1.46l.24.65L92,6.76h1.47l.25.54.19-.56h1.14l.45.72.31-.73h1.69l.21.58.41-.56h1.32l0,.73-1.07.06V9.88l-.76.08a2.52,2.52,0,0,1,.19,1.52l-.79.49v2.21H95.82l.23,1-.9.59.82.13v.91l-1.07.89-.72,0v3.06l-.55.19v1L92.31,22c.42.85.08,1.72.24,2.57l-.86.52v1.68l-1,.06v1.46l-.75.5c.33.59.07,1.28.19,2l-.85.52v1.47H88v.13l1.31.32v1.33a4,4,0,0,0-1,.17,4.86,4.86,0,0,0-.89.64V37l-1,.06v2.31l-.51.13v1.39c-.4.39-1.09-.17-1.37.51v1.92l-.57.57v1.38l-.46.12v2.85l-1.33.09a2.52,2.52,0,0,1,.17,1.52l-.78.49V51c-.31.67-.83.4-1.24.52a9.05,9.05,0,0,1,.19,2.56l-.81.52V56h-1v2.09l-1,1.17h-2v1H74l0-.95h-2.1l0,1H70.58l-.11-1H67.73L67.38,59c0-1.45,0-2.82,0-4.2,0-.06.11-.12.26-.28l-1.39-.06V52.86h1V51.62l-1.07-.39V46.75l-.46-.12V45.12l.44-.11V43.54l-.46-.16V37.16c-.41-.36-1.1.2-1.37-.5V34.13c0-.81,0-1.61,0-2.41s-.25-1.64.24-2.44l-.71-.07-.17-.48h-.67v1.94l-.57.57v1.95l-.5.11-.07,1.4c-.29.62-.81.37-1.31.49v2.29l-.5.13v1.78l-1.25.07L59,41h-.81v2.32a1.71,1.71,0,0,1-1.28.44c-.31.41,0,.72.21,1.15l-.84.65v2.69h-1v1.81l-.6.21v2.25l-.46.11v1.15c-.3.9-.9.59-1.37.74v1.85l-.75,1h-1c0,.11-.08.19-.06.24a4.19,4.19,0,0,1,.1,2.43c0,.1-.18.19-.28.29H49l-.35-1H47.51l-.11,1h-.73l-.05-1-.46,0v1l-1.26.06-.45-.47.3-.56H41.34l-.1,1h-.71V59.1l.48-.5V57.17l1.32-.06V55.05a5.61,5.61,0,0,1,.8-.94,4.7,4.7,0,0,1,1.1-.43,7.22,7.22,0,0,1-1.15-.53,4.79,4.79,0,0,1-.69-.88V51h.7l.48,1.29.33,0v-.92l.83-.53c-.45-.6-.13-1.28-.27-2h1.37V46.48l.84-.5V44.6l.46-.12V42.73l1.08-.13V40.68l.57-.57V38.76a1.62,1.62,0,0,1,1.29-.42V35.51l.55-.15v-1l1.08-.12V31.65L53,30.57h.57l0-.62c-.06-.06-.12-.16-.18-.17-.38-.06-.84.19-1-.23l.67-.69-.1,0,1.41-.77V25.32l.5-.17v-2.3L56,22.77V21.3l.58-.23v-1.3c.32-.62.82-.41,1.28-.47V17l.55-.19V15.31l1.11-.41V13.48l.83-.49V11l1,0V8.38L63,6.75h1l.22.64.17-.66h1.48l.23.65.17-.62h1.46L68,7.3l.19-.56h2l.21.58.21-.55h1.74l.35.35c-.13,1.21.2,2.52-.2,3.84H73.7l0,.82h-1.3v.77l1.24.1v6l.91.53-.85.62v.45l1,.71-.89.7.65.42c0,1.61,0,3.16,0,4.71,0,.07-.12.13-.26.28l1.36.1v1.3l-1.15.49h1.15c.1,1.81,0,3.57.05,5.36l.5.1,0,.69-.49.11v1.23c.18.26.73.45.39,1.08l-.41.15v.67h.73c.11-.89,0-1.86.06-2.86h1.27l.08-1.05.49-.11v-2.9h1V29.67l.83-.48,0-1h1c.13-1,0-2,.08-2.91l.53-.2V23.64l1-.06V21.33l.83-.57V19.42l.5-.16c.2-.7,0-1.49.11-2.31h1.23l.11-1,.57-.22-.56-.37V14.1l.64-.95h.87V11h.82v-3L89,8V7.31Z"/><path d="M96.87,54.76l.45-.09v-1.5l-.49-.1,0-.68.49-.13v-7.6l.55-.19v-.65l-.47-.47V42.17l.47-.09,0-1-.52-.1,0-.62.55-.26v-.58l-.49-.17v-.66l.47-.16V33.08c.3-.86.92-.5,1.33-.69v-.7c-.47-.13-1.14.19-1.34-.74l.55-.19-.15-.16.94-.05v-.76H97.91v-1.2c.28-.58.78-.37,1.28-.45l0-.76h-1.3v-.77l1.25-.09V19.45l.62-.29-.55-.2v-3l.58-.23-.57-.37V14l.46-.12V7.69l.43-.44H101l.16-.5h.67l.15.45h.64l.48-.47h1.67l.23.61.19-.58h2l.19.58.21-.59h1.44l.28.56.13-.55a17,17,0,0,1,1.85-.08,4.09,4.09,0,0,1,.24.87c0,1.29,0,2.58,0,3.92l-.78.48v.56a1.88,1.88,0,0,1,.39.12,2,2,0,0,1,.34.33v1.22l-.71.08v7.68l-1.09.09v7.65l-.5.15-.08,1,.51.11,0,.66-.56.21v7.65h-1.29l.31.76h1.24V38.89c.33-.69.89-.49,1.38-.54l-.34-.57.82-.72V35.63l.88-.74h.74V33.46l1.17-1h.7v-1l.55-.19V29.56h1l1.18-1.39h1l-.23-1.24.86-.54V24.71h1.54V23.55l.92-1.81h1V20.45l.49-.1.1-1h1.19l-.22-1.48c.21-.16.39-.29.55-.43s.26-.24.55-.52h1.1v-1l.55-.23V14l.47-.1.12-.74,1-.05V11.76l.9-.78h1V9.74l.5-.13.09-1.52h.93l.53-.83.83,0,.19-.49h2l.1.48.69,0,.11-.49h.94l.15.44H138l.15-.42c.64,0,.64,0,1.22.46l1.24-.67.22.63h1.47l.15-.46h.68V8.25l-.43.11V9.88l-1.36.08V11l-1.1,1v1.65h-1l-.19.52-.75.12.34.47c-.49.89-1.55.87-2.23,1.59v1.34l-1,.05V19l-.51.13v1.38l-.43.43h-.71l-1.25,1.32V23l-1.1.45v1.46l-.7,0-.25.52h-.91v1.69l-.86.54.43.58-.67.26.14.14h-.79L127,29.78h-.61v1.84l-1.09.06v1l-.51.13v1.79l-.94,0-1.2,1.27-.81.09v.66l-.7.46.13,1.27c-.33.71-.84.45-1.12.52l-.73.79V41h-1.89v1.81L117,43l-.08,1.77H116l-1,1v.88l-1,.09-.09.45-.63.09.17,1.54h-1.32V50l-1.38.9v1.67h-.88l-.76.91V55h-1.81v1.57l-1.09.47v1.44l-1.35.07-.06.72h-.91l-.14.37a2.43,2.43,0,0,1-.14.48,2.8,2.8,0,0,1-.46.45l-.61-.6.44-.58h-3l.26.4c-.11.53-.46.68-1,.57v-1h-2l-.38-.37V56.7l.74-.41-.72-.3Z"/><path d="M40.79,28.17h2l.1-1h1.54v1h1.32v-1l1.13-.07v1.05l.18,0,.12-1h1.27v2h-1v2.39L47,31.7l-.07,1-.83.14.82.49V34l-1.12,1.13h-.66v2.27l-.52.18c-.25.37.26,1-.82,1.28H30.64l-.14.49h-1c-.13,1,0,2-.08,2.95l-.46.09-.08.88c-.31.59-.81.38-1.25.44.39.75.11,1.53.23,2.22L27.06,47v1.76h-.9l-.42.43v.87l-.51.13v2.25l-.55.19V55H23.44l.17,1.56-.87.51v1.42l-1,0v1.81l-1.09.06v-1H18.77l-.05.95H17.19l-.1-1H15.55l.25.48c-.14.52-.5.64-1,.48v-1H12.2l-.4-.4V57.18h1l.1-1,.5-.49V53.12l1.32-.4v-1.4l.83-.52v-.87h1V47l.5-.13V45.14L18.17,45V43l.83-.53V41.11l.51-.11V38.64l1.06-.39V36.93l.8-.48c-.34-.58-.16-1.17-.22-1.72a1.66,1.66,0,0,1,1.29-.41V32.88l.82-.58V30.64a2.75,2.75,0,0,1,.53-.05,2.69,2.69,0,0,1,.52.23c.17-.83,0-1.7.11-2.6l.45-.09.07-1.48.53-.19V23.63h1.27V21.86l.54-.19V20.45l1.09-.1V17.8l.77-.48c-.42-.56-.09-1.23-.21-1.77.24-.73.83-.45,1.3-.57V13.52l.84-.54V11.59h1c.18-.82,0-1.61.12-2.38L32.68,9V7.74l.72-1h1.35l.24.65.17-.62h1.46l.25.54.19-.56h1.71a1.39,1.39,0,0,0,1,.52l.2-.53.64,0,.15.59.57-.55h1.84l.53.54.63-.57H46l.54.52h.58l.18-.5h1.15l.24.58.4-.6h1.22l.27.59.19-.56h1.45l.22.58.2-.55h1.22l.45.6.21-.62h.65l.17.46H56l.17-.48h.62l.21.52h1.19V9.37H56.85v1.82l-.5.12v1.8H55.29v2l-.6.4v1.54l-.72.14-.19.51H39.16l0,1-.79.48v1.68h-1v2l-.55.45v1.56H35.4a2.37,2.37,0,0,1,0,2.14H36.7v1.08H38v-1l1.08-.07v1.05l.81.05.06-1h.72ZM35,27.36h-.13v.81H35Z"/><path d="M91.69,58.79v1.52H90.15l-.06-1.15.37-.37Z"/><path d="M38.29,60.33h-1.2c-.52-.72-.52-.86,0-1.56h1.2Z"/><path d="M113.44,17.85v.79l-.38.38h-1.19V17.48C112.36,17.48,112.91,17.21,113.44,17.85Z"/><path d="M60,7H58.52V5.69c.45-.51.94-.46,1.49,0Z"/><path d="M124.66,15.21a1,1,0,0,1-1.53,0V14h1.53Z"/><path d="M52.23,5A1,1,0,0,1,50.7,5V3.82h1.53Z"/><path d="M58.15,51v1.51H56.92c-.59-.49-.37-1-.12-1.51Z"/><path d="M134.85,34.58h-1.51V33.35c.34-.48.7-.5,1.51,0Z"/><path d="M29.31,51h1.2v1.54l-1.17.06C28.79,51.83,28.79,51.69,29.31,51Z"/><path d="M42.6,25.59v1.19H41.37c-.46-.24-.39-.72-.33-1.19C41.73,25.07,41.87,25.07,42.6,25.59Z"/><path d="M124.68,57.18v1.25h-1.54l-.06-1.25Z"/><path d="M79.62,21.77v1.52H78.37V21.77Z"/><path d="M85.76,9.37H84.24V8.12h1.52Z"/><path d="M93.88,38.85V37.33h1.25v1.52Z"/><path d="M87.39,60.67v1.52H86.14V60.67Z"/><path d="M115.34,56V54.77h1.52V56Z"/><path d="M31.11,48.24V47h1.27l.06,1.25Z"/><path d="M47.18,24.88V23.66l1.29-.07v1.29Z"/><path d="M38.91,48.85h1.25V50.1H38.91Z"/><path d="M117.27,48.82h1.21l.07,1.3h-1.28Z"/><path d="M66.27,4.85h1.52v1H66.27Z"/><path d="M92.49,43.57v1l-1,.36V43.27C91.91,43.05,92.22,43.21,92.49,43.57Z"/><path d="M76.35,29.73l.27-1h1.13l.39,1Z"/><path d="M108,62l-1,.27V60.55l1,.28Z"/><path d="M114.85,60.5l1,.39V62l-1,.37Z"/><path d="M132.07,43.73h-.79c-.31-.27-.58-.55-.33-1h1.44C132.65,43.05,132.5,43.36,132.07,43.73Z"/><path d="M35.62,45.45v1l-1,.37V45.14A.71.71,0,0,1,35.62,45.45Z"/><path d="M28.44,3.78h1V4.93l-.4.55L28.44,5Z"/><path d="M113.78,23.83l-.42-.47.42-.52H115v1Z"/><path d="M92.51,35.81v.91l-1,.41V35.48C92,35.24,92.25,35.5,92.51,35.81Z"/><path d="M34.46,61.14h-1l-.36-1h1.64C35,60.55,34.82,60.87,34.46,61.14Z"/><path d="M51.76,23V21.77h1l0,1.14-.46.48Z"/><path d="M114.8,12.81V11.58h1l0,1.14-.46.48Z"/><path d="M89.63,52.72l1,.39V54.2l-1,.37Z"/><path d="M122.94,52.33h1.66c.27.42.07.73-.28,1h-1Z"/><path d="M83.41,14.2H81.89a.7.7,0,0,1,.26-1C83.27,13.17,83.27,13.17,83.41,14.2Z"/><path d="M127.42,8.27v-1h1.25l.42.4-.41.57Z"/><path d="M114,7h-1V5.72l.41-.46c.24.2.54.33.59.52A5,5,0,0,1,114,7Z"/><path d="M120.88,16.07h-1.23v-1l1.14-.06.48.46Z"/><path d="M75.1,18.66v-1l1-.39V19C75.69,19.19,75.38,19,75.1,18.66Z"/><path d="M90.62,3.8V5l-.17-.15-.4.9-.27-1L89.59,5V3.8Z"/><path d="M61.61,47.17H60.26l.27-1h1l.55.4Z"/><path d="M115.18,55h-1.29l-.54-.49.47-.58h.93Z"/><path d="M130.87,32.75l.54.74v.83l-1,.39V33.47Z"/><path d="M30.52,60.06v1h-1L29,60.49C29.37,59.83,30,60.19,30.52,60.06Z"/><path d="M47.2,5.86v-1h1.28l.05,1Z"/><path d="M78.34,7.26h1.25v1l-1.25.06Z"/><path d="M120.68,48.85h1v1.27a4.38,4.38,0,0,1-.82,0c-.08,0-.18-.24-.2-.38A8.74,8.74,0,0,1,120.68,48.85Z"/><path d="M120.68,8.07h1V9.34a4.33,4.33,0,0,1-.82,0c-.08,0-.18-.24-.2-.38A8.89,8.89,0,0,1,120.68,8.07Z"/><path d="M94.11,29.32v1.75h-.68L93,29.86Z"/><path d="M118.79,62.26a.71.71,0,0,1-.35-1.12l.23-.66.26,0,.27.64C119.34,61.49,119.47,62,118.79,62.26Z"/><path d="M21.65,24.92h-1V23.65l1,0Z"/><path d="M141,5.28l.43-.43c.47,0,1-.15,1.24.47-.17.71-.72.6-1.29.55Z"/><path d="M95.48,50.94a.71.71,0,0,1,.34,1.12l-.22.66-.27,0-.26-.63C94.93,51.72,94.8,51.2,95.48,50.94Z"/><path d="M60.57,57.18v1.25h-1l-.06-1.25Z"/><path d="M83.88,56.28l.83-.32c.35-.18.85-.29,1.1.31-.14.77-.73.57-1.09.43Z"/><path d="M89.05,42.53V41.09h1l.07,1Z"/><path d="M82.28,56h-1V54.66l1,.26Z"/><path d="M11.48,62.35V63.8h-1l-.07-1Z"/><path d="M126.9,45.09h.71v1.56h-.71Z"/><path d="M60,6.88l1.49-.23.56.78H60.44l.13-.08-.65-.24Z"/><path d="M78,6.76v.68H76.47V6.76A4.8,4.8,0,0,1,78,6.76Z"/><path d="M19.8,35.46V37h-.72V35.46Z"/><path d="M115.36,26.58h1.52v.71h-1.52Z"/><path d="M83.71,14a.81.81,0,0,1,1.06.46l-.72,1.26-.14-.62-.2.16Z"/><path d="M116.88,17.68h-1.52V17h1.52Z"/><path d="M97,62.73H95.78c0-.81.18-1,.62-1S97,61.92,97,62.73Z"/><path d="M126.38,37.29h.69l.06,1.25-.75.48Z"/><path d="M48.27,34.56V33.33l.72-.46v1.69Z"/><path d="M24.94,56V54.77h.71V56Z"/><path d="M9.55,56.06H8.87l-.06-1.29h.74Z"/><path d="M56.08,57.16h.71v1.3h-.71Z"/><path d="M54.42,62.53h.76v1.26c-.45.1-.84.18-.76-.48A6.76,6.76,0,0,0,54.42,62.53Z"/><path d="M125,45.29v-.71h1.29v.71Z"/><path d="M41.28,63.82h-.76V62.56c.45-.1.84-.18.76.48A6.76,6.76,0,0,0,41.28,63.82Z"/><path d="M7.73,62.55V63.8H7V62.55Z"/><path d="M125,9.88V9.17h1.29v.71Z"/><path d="M117.42,4.88v1a.73.73,0,0,1-1-.46C116.54,4.87,116.89,4.74,117.42,4.88Z"/><path d="M82.34,7.78a.75.75,0,0,1-1,.48v-1A.74.74,0,0,1,82.34,7.78Z"/><path d="M122.6,7.3c.53-.14.88,0,1.05.48a.73.73,0,0,1-1.05.47Z"/><path d="M121.45,53.87l.41,1.08h-1.13C120.59,54.35,120.76,54,121.45,53.87Z"/><path d="M39.11,55h-1c-.27-.49,0-.81.38-1.06C39,54,39.21,54.36,39.11,55Z"/><path d="M139.36,21.05l-1.18.56V20.46C138.65,20.22,139,20.47,139.36,21.05Z"/><path d="M5.73,61.52l.55,1.19H5.14C4.9,62.23,5.14,61.93,5.73,61.52Z"/><path d="M26.83,58.27c.57-.21.83.09,1.08.41a.75.75,0,0,1-1.08.53Z"/><path d="M105.48,61.22,105,60.15h1.18a.91.91,0,0,1,0,.33c-.1.25-.25.49-.37.73Z"/><path d="M79.43,14.16c-.17-.5,0-.83.54-1.06l.52.49C80.28,14.13,80,14.35,79.43,14.16Z"/><path d="M26.83,13.17h.66l.38.76c-.27.09-.64.35-.86.25C26.56,14,26.85,13.55,26.83,13.17Z"/><path d="M76.14,23.8c-.55.17-.89,0-1.14-.63l.58-.37C76.06,22.91,76.22,23.24,76.14,23.8Z"/><path d="M19.18,31.8l-1.13-.56.57-.69C19.2,30.67,19.38,31,19.18,31.8Z"/><path d="M128.52,39.39c-.15-.52,0-.87.65-1.11l.38.55C129.41,39.34,129.09,39.53,128.52,39.39Z"/><path d="M90.22,51.11l-.55.42a.74.74,0,0,1-.62-1C89.56,50.24,89.88,50.49,90.22,51.11Z"/><path d="M62.61,50.53l-.54,1.13-.72-.59C61.55,50.48,61.9,50.35,62.61,50.53Z"/><path d="M123.67,43.19l-.4.62c-.66-.26-.81-.59-.66-1.08C123.08,42.51,123.4,42.69,123.67,43.19Z"/><path d="M61.88,58.1l.71.57-.58.7-.7-.52Z"/><path d="M54.47,4.85h.71v1h-.71Z"/><path d="M144.54,6.1l-.86-.81,1-.27-.12-.26.62.55Z"/><path d="M30.76,7.13l.72.57-.59.7-.7-.52Z"/><path d="M117.44,22.13l-1-.4.39-.81C117.23,20.92,117.37,21.13,117.44,22.13Z"/><path d="M133.51,29.22h-.71v-1h.71Z"/><path d="M45,42.9H44v-.74l1,0Z"/><path d="M42.65,43.74l-.38-1c.68-.3,1,0,1.23.49Z"/><path d="M25.19,22h-.72c-.28-.58,0-.86.63-1.18Z"/><path d="M111.32,60.11H112a.75.75,0,0,1-.6,1.08C111.17,60.86,111.32,60.49,111.32,60.11Z"/><path d="M36.14,48.75c.13-.66.48-.83,1.07-.68v.68Z"/><path d="M11.46,50.64H10.39c.12-.67.48-.83,1.07-.7Z"/><path d="M91.75,53.29l-.3-.31v-.53a.58.58,0,0,1,.92.11Z"/><path d="M82.83,56.67h1.06v.63s-.09.09-.16.1A.73.73,0,0,1,82.83,56.67Z"/><path d="M57.94,45.25v-.62c.41-.26.71-.07,1,.24C59,45.12,58.6,45.28,57.94,45.25Z"/><path d="M86.06,46.06l.4,1.11-.81,0C85.42,46.74,85.56,46.43,86.06,46.06Z"/><path d="M93.19,47.15l.49-1.25.6,1.25Z"/><path d="M14.44,41.08l.8-1L16,41Z"/><path d="M88.44,48.76H87l.64-.88Z"/><path d="M93,26.86l1.09-.4v.81C93.66,27.56,93.34,27.31,93,26.86Z"/><path d="M32,52.31h.88L33,53l-.48.49Z"/><path d="M94.62,3.26h1.47l-.51.91Z"/><path d="M119.83,7.49h-.71V6.75l.71-.06Z"/><path d="M33.48,56.64v.72h-.74l-.06-.72Z"/><ellipse class="cls-1" cx="34.97" cy="27.76" rx="0.09" ry="0.57"/></g></g></g></svg>