<svg xmlns="http://www.w3.org/2000/svg" viewBox="0 0 272.74 48.5"><defs><style>.cls-1{fill:#737474;}</style></defs><title>logo-disney-vacation-club</title><g id="Layer_2" data-name="Layer 2"><g id="Logos"><g id="logo-disney-vacation-club"><path class="cls-1" d="M18.19,22.24c-.22,3.25-.26,6.85-.23,9.13a18.72,18.72,0,0,1-9.71-6.32c-.58-.91,1.58-1.46,2.63-1.76a33.66,33.66,0,0,1,7.31-1.05m96.92,2.57c-.41,2.76-3.8,5.09-5.49,5.56a5,5,0,0,1-1.47.18,28.05,28.05,0,0,1,6.32-8.48c.46-.46.76,1.81.64,2.74M51.24,18.09c-.66-.06-.86.92-1,1.41a65.31,65.31,0,0,0-.65,11.22c0,1.42-.18,3.34,1.58,3.69.7.18,2,0,2.1-.47a92.59,92.59,0,0,0-.46-14,2.55,2.55,0,0,0-1.58-1.87M99,17.92c-2.33-.33-7.25.64-10.71,1.16-.47.06-.35.47-.23.82.3,1.41,1.81,1.17,2.81,1.7a17.48,17.48,0,0,1-1.23,2.81c-.53.18-1.4.06-1.46.87-.05.51.35.84.31,1.49-.55,1.38-1.5,2.85-1.14,4.66.45,1.59,1.21,3.32,2.34,3.56,3.63.71,6.62-1.34,9.37-3.39.48-.48-.44-2-.77-2-2.45-.29-4.73.76-7.19.7a9.82,9.82,0,0,1,1.12-3.17c2-.29,5,.14,6.2-.81a1.79,1.79,0,0,0-.13-1.86,14,14,0,0,0-5-.25c.24-.78.5-1.65.77-2.45a21.18,21.18,0,0,0,3.75-.06c1.25-.1,2.75.12,3.63-.87.25-.5-.74-1.86-1.29-2.28s-.79-.6-1.11-.64m-29.43.23C64.6,17.31,59,17.56,55.45,21a4,4,0,0,0-.53,2.8,2.26,2.26,0,0,0,1.41,1.34c3.92.88,8.94-.17,12.28,2.46.41.53,0,1.09-.47,1.35-3.09,1.29-6.39,2.2-10,1.44-.48-.14-1.23-.64-1-1.15,1.45-2.22,3.91-.06,5.73.24a4.83,4.83,0,0,0,3.91-1.12c.32-.59-.77-.95-1.52-1.17-2.57-.7-6.19-1.52-8.59.12a2.7,2.7,0,0,0-.76,3c2,3.22,5.8,4.3,9.35,3.75,2.42-.38,5.33-1.23,5.92-4,.27-1.74.17-3.62-1.29-4.85-3.4-2.29-8.25-1.06-12-2.58-.12-.17,0-.23.17-.35,4-1.23,8.66-.76,12.76-1.75.59-.18,1.13-1.13.87-1.59a3.7,3.7,0,0,0-2.17-.81m36.44.23c-3,3.63-6.26,8.42-3.73,13.17A46.19,46.19,0,0,0,98.9,45.17,4,4,0,0,0,101,48.1c.35.17,1.18.65,1.28.23a76,76,0,0,1,3.63-13.57,7.11,7.11,0,0,0,4.56-.76c3.51-1.7,6.85-5.38,7-9.41a6.1,6.1,0,0,0-2.64-5.45,1.85,1.85,0,0,0-1.81.06c-3.62,2.11-8,7-9,9.12-.16-4.15,3.34-6.78,3.64-10.58,0-.95-1.28.06-1.71.64m-24.86-3c-.62-.09-.55.79-.41,1.28.76,3.22,1.93,6.32,2.23,9.71.06.71.3,1.65-.18,2.23-2.51-3.1-4-6.79-7-9.48-.48-.39-1.07,0-1.35.53A24.59,24.59,0,0,0,72.24,29c-.12,1.78-.47,4.15,1.39,5.09.53.18,1.27.09,1.47-.41.82-2.69.71-5.83.82-8.84,0-.27.19-.82.35-.57,1.26,2.42,2.53,4.58,3.92,6.84.7,1.14,1.32,2.24,2.63,2.16A4.22,4.22,0,0,0,85.75,31a15.61,15.61,0,0,0-1.58-12.64c-.76-1.17-1.64-2.68-3-3M59.6,7.62c.39,1-.93,2.63-2.19,3.38a10.76,10.76,0,0,1-6.51,1.57A6.72,6.72,0,0,1,52.79,10c1.7-1.67,4-3.74,6.23-3,.26.09.41.19.58.64M52.23,6.56A17.9,17.9,0,0,0,48.08,11c-.59-1,.35-2.11,1.05-3a4.49,4.49,0,0,1,3.1-1.47m2.11-3.39c-3.57.64-7.49,2.81-8.66,6.5a4,4,0,0,0,1.11,3.8c-.12.9-.23,2.16.76,2.81s1.35-.73,1.93-1.23c3.28,1.28,6.44-.24,8.9-2.17,1.93-1.63,4.26-3.62,3.32-6.32A3.11,3.11,0,0,0,59,4.87a4.83,4.83,0,0,0-4.62-1.7M36.14,8C26.65,2,14.38-2.21,2.45,1.25A4.19,4.19,0,0,0,0,4.75c.76,1,1.93.77,3.16.77.28-.18.81-.18.88-.6-.42-.87-1.59-.57-2.23-1,.35-.35.88-.23,1.29-.46,11.57-1.7,23,1.88,32.06,8.42,4.78,3.46,9.35,8.6,7.77,14.8-2.07,6-10.17,6.91-16.49,6.84a11,11,0,0,1-3.86-.69c0-3.75,0-8.38-.1-10.77a28.76,28.76,0,0,1,11,2.1c.64.43-1.23,1.69-1.94,2.35-.38.45,1,.89,2,.82a4.57,4.57,0,0,0,3.27-2.75,3.11,3.11,0,0,0-1-3.17c-3.57-3-8.47-3-13.28-3.14a37.68,37.68,0,0,0-.4-5.72,2.7,2.7,0,0,0-2.18-2.42,6.23,6.23,0,0,0-1.16,3.63c-.2,1.63-.37,3.41-.53,4.91,0,0-2.62.51-4.15.88S6.5,21.8,7,24.88c.68,2.73,5,6,8,8a28.71,28.71,0,0,0,3,1.7,6.7,6.7,0,0,0,1.28,3.91c.31.29,1.37.17,2.18,0,1-.4,1-1.47,1.1-2.27,1.05.17,2.29.47,4.11.7,7.25.9,16.14-1.17,20.11-8.43,3.34-7-2.46-13.71-6.8-17.46a45,45,0,0,0-3.91-3"/><path class="cls-1" d="M129.77,33.48h-2.14l-6-18.17h2.86l4.18,13.22,4.18-13.22h2.92Z"/><path class="cls-1" d="M143.29,33.48V32.31a4.26,4.26,0,0,1-3.44,1.32,4.58,4.58,0,0,1-3.47-1.17,4,4,0,0,1-1-2.78c0-2.17,1.51-3.72,4.5-3.72h3.4V25c0-1.66-.79-2.43-2.84-2.43a3.11,3.11,0,0,0-2.83,1.27l-1.68-1.6c1.2-1.43,2.45-1.89,4.62-1.89,3.56,0,5.32,1.53,5.32,4.44v8.65Zm0-5.72h-3c-1.58,0-2.38.67-2.38,1.87s.75,1.83,2.46,1.83a3,3,0,0,0,2.33-.74,2.42,2.42,0,0,0,.58-1.9Z"/><path class="cls-1" d="M154.32,33.63c-2.91,0-5.76-1.78-5.76-6.63s2.85-6.61,5.76-6.61a5.32,5.32,0,0,1,4.26,1.81l-1.79,1.74a3,3,0,0,0-2.47-1.23,2.94,2.94,0,0,0-2.4,1.15,4.8,4.8,0,0,0-.76,3.14,4.88,4.88,0,0,0,.76,3.17,3,3,0,0,0,2.4,1.15,3,3,0,0,0,2.47-1.23l1.79,1.71A5.34,5.34,0,0,1,154.32,33.63Z"/><path class="cls-1" d="M168.22,33.48V32.31a4.25,4.25,0,0,1-3.44,1.32,4.57,4.57,0,0,1-3.47-1.17,4,4,0,0,1-1-2.78c0-2.17,1.51-3.72,4.49-3.72h3.4V25c0-1.66-.8-2.43-2.84-2.43a3.14,3.14,0,0,0-2.84,1.27l-1.68-1.6c1.2-1.43,2.45-1.89,4.62-1.89,3.57,0,5.33,1.53,5.33,4.44v8.65Zm0-5.72h-3c-1.57,0-2.37.67-2.37,1.87s.74,1.83,2.46,1.83a3.09,3.09,0,0,0,2.34-.74,2.5,2.5,0,0,0,.57-1.9Z"/><path class="cls-1" d="M178.17,33.48a3.36,3.36,0,0,1-3.54-3.6V22.53h-1.48v-2h1.48v-3.7h2.6v3.7h2.5v2h-2.5v7.23a1.31,1.31,0,0,0,1.43,1.5h1.07v2.22Z"/><path class="cls-1" d="M182.54,18V15.24h2.75V18Zm.07,15.49V20.54h2.61V33.48Z"/><path class="cls-1" d="M196.9,32.1A5.22,5.22,0,0,1,193,33.63a5.14,5.14,0,0,1-3.85-1.53c-1.24-1.28-1.54-2.9-1.54-5.1s.3-3.81,1.54-5.08A5.18,5.18,0,0,1,193,20.39a5.26,5.26,0,0,1,3.87,1.53c1.23,1.27,1.53,2.91,1.53,5.08S198.13,30.82,196.9,32.1Zm-2-8.65a2.62,2.62,0,0,0-1.91-.74,2.55,2.55,0,0,0-1.89.74c-.79.8-.9,2.15-.9,3.55s.11,2.76.9,3.55a2.61,2.61,0,0,0,1.89.77,2.69,2.69,0,0,0,1.91-.77c.79-.79.89-2.14.89-3.55S195.73,24.25,194.94,23.45Z"/><path class="cls-1" d="M208.66,33.48V25.6c0-2-1.15-2.89-2.6-2.89a2.58,2.58,0,0,0-2.68,2.89v7.88h-2.6V20.54h2.55v1.3a4.63,4.63,0,0,1,3.45-1.45A4.41,4.41,0,0,1,210,21.57a4.72,4.72,0,0,1,1.31,3.65v8.26Z"/><path class="cls-1" d="M227.57,33.63a6.34,6.34,0,0,1-4.7-1.83C221.11,30,221,28.2,221,24.4s.08-5.62,1.84-7.4a6.68,6.68,0,0,1,11.18,3.75h-2.81a3.61,3.61,0,0,0-3.67-3.14,3.55,3.55,0,0,0-2.68,1.13c-.91,1-1.1,2.06-1.1,5.66s.19,4.69,1.1,5.67a3.57,3.57,0,0,0,2.68,1.11,3.67,3.67,0,0,0,3.72-3.13h2.76A6.29,6.29,0,0,1,227.57,33.63Z"/><path class="cls-1" d="M240.3,33.48a3.29,3.29,0,0,1-3.54-3.57V15.31h2.59V29.76c0,1,.37,1.5,1.41,1.5h1.15v2.22Z"/><path class="cls-1" d="M252.09,33.48v-1.3a4.61,4.61,0,0,1-3.45,1.45,4.45,4.45,0,0,1-3.18-1.17,4.67,4.67,0,0,1-1.3-3.64V20.54h2.59v7.89c0,2,1.15,2.89,2.61,2.89A2.58,2.58,0,0,0,252,28.43V20.54h2.6V33.48Z"/><path class="cls-1" d="M266.89,32.49a4.51,4.51,0,0,1-3.16,1.14,4,4,0,0,1-3.42-1.53v1.38h-2.56V15.31h2.6v6.53a4,4,0,0,1,3.4-1.45,4.42,4.42,0,0,1,3.14,1.15c1.25,1.27,1.45,3.34,1.45,5.46S268.14,31.21,266.89,32.49Zm-3.83-9.78c-2.37,0-2.71,2-2.71,4.29s.34,4.32,2.71,4.32,2.68-2,2.68-4.32S265.4,22.71,263.06,22.71Z"/><path class="cls-1" d="M270.18,20a2.57,2.57,0,1,1,2.56-2.56A2.58,2.58,0,0,1,270.18,20Zm0-4.65a2.09,2.09,0,1,0,2,2.09A2.06,2.06,0,0,0,270.18,15.34Zm.53,3.47-.56-1.1h-.36v1.1h-.5V16h1a.87.87,0,0,1,.9.85.78.78,0,0,1-.55.75l.62,1.17Zm-.45-2.34h-.47v.84h.47a.42.42,0,1,0,0-.84Z"/></g></g></g></svg>