<svg xmlns="http://www.w3.org/2000/svg" viewBox="0 0 320.82 219.02"><defs><style>.cls-1{fill:#231f20;}</style></defs><title>logo-marie-forleo-logomark</title><g id="Layer_2" data-name="Layer 2"><g id="Layer_1-2" data-name="Layer 1"><path class="cls-1" d="M188.73,108.84l2,.5c0,9.76-.31,19.52.06,29.27.73,19.47,1.55,39,8.29,57.6,9.1,25.18,30.5,25.72,48,16.21,8.74-4.74,11-14.53,5.73-22-5.1-7.26-14.4-8.53-21.9-2.27-4.1,3.42-6.29,2.49-7.91-1.74-2.07-5.42-4.32-10.87-5.48-16.51a289.31,289.31,0,0,1-4.3-88.37c.91-8.87-2-14.4-7.89-16.18-6.32-1.9-10.8,1-15.26,9.09-12.66,23.1-28.75,43.48-49.11,60.26-11.13,9.18-15.39,7.6-19.19-6.27a19.34,19.34,0,0,1-1-4.44c-.52-19.92-1.66-39.87-1.17-59.78.38-15.38,3.27-30.68,4.21-46.07.59-9.62-5-16.22-13.23-17.79C101.84-1.32,94.65,3,91,12.14c-1.86,4.7-3.51,9.49-5.47,14.15C61.6,83.15,38.82,140.58,3.19,191.64c-4.28,6.14-4.21,13,0,19.31,4,6,9.85,8.84,16.94,7.89,7.36-1,12.69-5.22,14.72-12.53,9.39-33.61,25.14-64.49,40.77-95.43,3.11-6.14,6.51-12.14,10.55-19.62.82,7.24,1.28,12.53,2,17.79,2.21,15.41,5.67,30.4,15.9,42.84s30.31,17.27,43.9,2.47c5-5.41,10.12-10.64,15-16.12C171.63,128.51,180.15,118.65,188.73,108.84Zm132.09,79.23c0-11.85-8.62-20.7-20.38-20.85-12.14-.15-21.14,8.82-21.05,21,.09,11.73,9,20.48,20.8,20.47A20.19,20.19,0,0,0,320.82,188.07Z"/><path class="cls-1" d="M188.73,108.84c-8.58,9.81-17.1,19.67-25.77,29.4-4.88,5.48-10,10.71-15,16.12-13.59,14.8-33.7,9.92-43.9-2.47s-13.69-27.43-15.9-42.84c-.76-5.26-1.22-10.55-2-17.79-4,7.48-7.44,13.48-10.55,19.62C59.94,141.82,44.19,172.7,34.8,206.31c-2,7.31-7.36,11.55-14.72,12.53C13,219.79,7.09,217,3.14,211c-4.16-6.35-4.23-13.17,0-19.31C38.82,140.58,61.6,83.15,85.55,26.29c2-4.66,3.61-9.45,5.47-14.15C94.65,3,101.84-1.32,110.58.36c8.19,1.57,13.82,8.17,13.23,17.79-.94,15.39-3.83,30.69-4.21,46.07-.49,19.91.65,39.86,1.17,59.78a19.34,19.34,0,0,0,1,4.44c3.8,13.87,8.06,15.45,19.19,6.27,20.36-16.78,36.45-37.16,49.11-60.26,4.46-8.14,8.94-11,15.26-9.09,5.94,1.78,8.8,7.31,7.89,16.18a289.31,289.31,0,0,0,4.3,88.37c1.16,5.64,3.41,11.09,5.48,16.51,1.62,4.23,3.81,5.16,7.91,1.74,7.5-6.26,16.8-5,21.9,2.27,5.25,7.46,3,17.25-5.73,22-17.54,9.51-38.94,9-48-16.21-6.74-18.61-7.56-38.13-8.29-57.6-.37-9.75-.06-19.51-.06-29.27Z"/><path class="cls-1" d="M320.82,188.07a20.19,20.19,0,0,1-20.63,20.59c-11.82,0-20.71-8.74-20.8-20.47-.09-12.15,8.91-21.12,21.05-21C312.2,167.37,320.85,176.22,320.82,188.07Z"/></g></g></svg>