<svg xmlns="http://www.w3.org/2000/svg" viewBox="0 0 189.6 84.27"><defs><style>.cls-1{fill:#ed2224;}.cls-2{fill:#fff;}</style></defs><title>logo-uniqlo</title><g id="Layer_2" data-name="Layer 2"><g id="Logos"><g id="logo-uniqlo"><path class="cls-1" d="M105.33,0V84.27H189.6V0Z"/><rect class="cls-2" x="167.43" y="11.53" width="5.32" height="26.62"/><path class="cls-2" d="M133.72,29.28a8.87,8.87,0,0,1-17.74,0h0V11.53h5.33V29.28h0a3.54,3.54,0,1,0,7.07,0V11.53h5.34Z"/><polygon class="cls-2" points="158.55 72.74 140.82 72.74 140.82 72.74 140.82 46.12 146.13 46.12 146.13 67.41 158.55 67.41 158.55 72.74"/><polygon class="cls-2" points="158.55 38.15 153.23 38.15 146.13 22.93 146.13 38.15 140.82 38.15 140.82 11.53 146.13 11.53 153.23 26.74 153.23 11.53 158.55 11.53 158.55 38.15"/><path class="cls-2" d="M124.85,46.12A8.87,8.87,0,0,0,116,55v8.86a8.87,8.87,0,0,0,8.87,8.87,9.82,9.82,0,0,0,1.72-.15l1.81,5.48h5.34l-2.63-7.89a8.87,8.87,0,0,0,2.63-6.31V55A8.88,8.88,0,0,0,124.85,46.12Zm3.53,17.75a3.54,3.54,0,1,1-7.07,0V55a3.54,3.54,0,1,1,7.07,0Z"/><path class="cls-2" d="M170.1,46.12A8.89,8.89,0,0,0,161.21,55v8.86a8.87,8.87,0,1,0,17.74,0V55A8.87,8.87,0,0,0,170.1,46.12Zm3.54,17.75a3.55,3.55,0,0,1-7.1,0V55a3.55,3.55,0,1,1,7.1,0Z"/><path class="cls-1" d="M0,0V84.27H84.27V0Z"/><rect class="cls-2" x="47.9" y="31.93" width="23.93" height="5.31"/><rect class="cls-2" x="50.56" y="11.53" width="18.63" height="5.32"/><polygon class="cls-2" points="31.05 11.53 15.07 11.53 15.07 16.85 25.73 16.85 25.73 31.93 12.43 31.93 12.43 37.25 36.37 37.25 36.37 31.93 31.05 31.93 31.05 11.53"/><path class="cls-2" d="M47.9,47h0V72.74H71.83V47H47.9ZM66.51,67.41H53.21V52.34h13.3Z"/><polygon class="cls-2" points="15.07 47 12.36 59.88 17.67 59.88 19.28 52.34 29.95 52.34 26.82 67.41 10.82 67.41 9.76 72.74 31.05 72.74 36.37 47 15.07 47"/></g></g></g></svg>