<svg xmlns="http://www.w3.org/2000/svg" viewBox="0 0 280.72 41.51"><title>logo-marie-forleo</title><g id="Layer_2" data-name="Layer 2"><g id="Logos"><g id="logo-marie-forleo"><path d="M2.06,21.93V10.65c0-.68,0-.68.69-.68H5.22c.42,0,.45,0,.45.47v3.14a1.77,1.77,0,0,0,0,.2,1.14,1.14,0,0,0,.16-.15A10.8,10.8,0,0,1,8.34,11a7.64,7.64,0,0,1,4.29-1.49,9.24,9.24,0,0,1,3.62.42,8,8,0,0,1,4.48,3.83.7.7,0,0,0,.13.24.21.21,0,0,0,.19,0,1.19,1.19,0,0,0,.21-.29,9.2,9.2,0,0,1,6.88-4.18,9.68,9.68,0,0,1,5.57.93,7.43,7.43,0,0,1,3.2,3.15,9.78,9.78,0,0,1,1.18,4c0,.52.08,1,.08,1.56,0,4.67,0,9.35,0,14,0,.63,0,.63-.64.63H35.11c-.54,0-.55,0-.55-.55V19.9A10.48,10.48,0,0,0,34,16.44a5.41,5.41,0,0,0-4.88-3.61,7.06,7.06,0,0,0-2.82.33,6.15,6.15,0,0,0-3.79,3.73A7.33,7.33,0,0,0,22,19.51c0,.85-.06,1.7-.07,2.55V33.25c0,.63,0,.63-.64.63H19c-.6,0-.6,0-.6-.59,0-4.34,0-8.68,0-13a16.38,16.38,0,0,0-.26-2.62,6.19,6.19,0,0,0-1.55-3.18,5.2,5.2,0,0,0-3.18-1.59,6.58,6.58,0,0,0-3.26.3A6.22,6.22,0,0,0,6.76,16,8.48,8.48,0,0,0,5.67,20.3V33.15c0,.11,0,.23,0,.35s-.09.39-.36.39H2.4c-.25,0-.35-.11-.34-.36V21.93Z"/><path d="M64.85,26v7.11c0,.12,0,.24,0,.36s-.12.38-.37.4h-2.6c-.48,0-.6-.12-.61-.57,0-.83,0-1.67,0-2.5a2,2,0,0,0,0-.24.67.67,0,0,0-.22.13,9.64,9.64,0,0,1-2,1.79A10.08,10.08,0,0,1,55.76,34a11.68,11.68,0,0,1-4,.33,9.69,9.69,0,0,1-3.81-1,8.16,8.16,0,0,1-2.33-1.71A6.06,6.06,0,0,1,44.16,29a8.51,8.51,0,0,1-.34-1.92,7.25,7.25,0,0,1,1.25-4.35,7.81,7.81,0,0,1,4.1-2.88,16.51,16.51,0,0,1,2.52-.6,10.07,10.07,0,0,1,1.73-.12c1.15,0,2.3,0,3.44.1a20.35,20.35,0,0,1,2.34.37c.57.1,1.13.25,1.7.37.32.08.37,0,.37-.28a8.75,8.75,0,0,0-.33-2.83A5.15,5.15,0,0,0,58,13.6,6.66,6.66,0,0,0,55.76,13c-.69,0-1.37-.09-2-.09a13.6,13.6,0,0,0-4.33.8c-.68.23-1.34.5-2,.77-.24.1-.38,0-.46-.17s-.22-.56-.32-.84c-.17-.46-.34-.93-.5-1.39s-.16-.46.26-.64c.65-.27,1.3-.54,2-.77a16.83,16.83,0,0,1,3.51-.86,17.55,17.55,0,0,1,4.58-.1,16.1,16.1,0,0,1,3,.68,7.93,7.93,0,0,1,5.15,6.2,14.68,14.68,0,0,1,.29,2.89C64.83,21.67,64.85,23.83,64.85,26ZM54.72,21.88c-.33,0-.65,0-1,0a8,8,0,0,0-3.1.56,4.56,4.56,0,0,0-2.7,2.34,5.13,5.13,0,0,0-.39,2,4.19,4.19,0,0,0,2.37,3.82,7.31,7.31,0,0,0,3.57.84,12,12,0,0,0,2.07-.24A7.26,7.26,0,0,0,60,28.76a4.85,4.85,0,0,0,1.25-2.58c.11-1,.09-2,.12-3a.35.35,0,0,0-.31-.41,2.63,2.63,0,0,1-.3-.08A21,21,0,0,0,54.72,21.88Z"/><path d="M114.47,23.32H105.6c-.37,0-.41,0-.35.39A8.48,8.48,0,0,0,109.07,30,7.92,7.92,0,0,0,113,31.19a10.52,10.52,0,0,0,4.2-.66,9.07,9.07,0,0,0,2.38-1.41c.38-.29.72-.63,1.07-.95s.39-.31.71,0c.55.48,1.08,1,1.61,1.49.26.25.26.31,0,.58A12.56,12.56,0,0,1,117,34a12.87,12.87,0,0,1-3.49.46,12.15,12.15,0,0,1-5.61-1.29,10.5,10.5,0,0,1-2.45-1.69,11.64,11.64,0,0,1-2.41-3,14.82,14.82,0,0,1-1.14-2.9,14.07,14.07,0,0,1-.46-3.58,13.34,13.34,0,0,1,.6-4.05,12.1,12.1,0,0,1,2.51-4.6,11.07,11.07,0,0,1,4-2.94,11,11,0,0,1,3.87-.83,12,12,0,0,1,2.93.22,10,10,0,0,1,5.17,2.85,11.9,11.9,0,0,1,2.84,5,14.78,14.78,0,0,1,.58,3.24c0,.6.07,1.19.08,1.79s-.1.71-.74.71Zm-1.7-2.71h7.07c.5,0,.53,0,.49-.53a.55.55,0,0,0,0-.18,13.13,13.13,0,0,0-.9-3.08,7,7,0,0,0-2.73-3.22,6.79,6.79,0,0,0-2.8-1,7.21,7.21,0,0,0-4,.58,7.76,7.76,0,0,0-3.55,3.41,10.39,10.39,0,0,0-1.1,3.29c-.12.64-.05.7.58.7Z"/><path d="M232.33,23.3h-9c-.21,0-.27.07-.24.26a8.42,8.42,0,0,0,4.41,6.76,8.15,8.15,0,0,0,3.39.87,10.92,10.92,0,0,0,3.41-.4,8.34,8.34,0,0,0,3.06-1.61c.41-.32.8-.67,1.19-1s.38-.26.68,0l1.6,1.43c.26.24.26.32,0,.59a12.33,12.33,0,0,1-4.48,3.26,11.83,11.83,0,0,1-3.77.91,13.47,13.47,0,0,1-3.86-.21,15.35,15.35,0,0,1-2.7-.92,10.62,10.62,0,0,1-3.7-2.82,11.69,11.69,0,0,1-2.48-4.66,14.49,14.49,0,0,1-.48-2.86,13.29,13.29,0,0,1,.85-5.88,11.82,11.82,0,0,1,2.08-3.57A10.89,10.89,0,0,1,227.4,10a11.36,11.36,0,0,1,2.9-.49,11,11,0,0,1,5.86,1.28,9.85,9.85,0,0,1,3.33,3,12,12,0,0,1,1.86,4,17,17,0,0,1,.6,4.81c0,.66-.08.73-.76.73h-8.86Zm-1.67-2.69h7.12c.42,0,.43,0,.4-.41a10.37,10.37,0,0,0-.81-3.15,6.92,6.92,0,0,0-7-4.48,7,7,0,0,0-4,1.46,8.17,8.17,0,0,0-2.65,3.59,9.59,9.59,0,0,0-.67,2.59c0,.33,0,.38.36.4h7.21Z"/><path d="M271.49,22.1a12.46,12.46,0,0,1-12.81,12.31,12.25,12.25,0,0,1-12.1-13,12.31,12.31,0,0,1,12.7-11.95C266.21,9.59,271.4,14.85,271.49,22.1Zm-21.13-.27a8.65,8.65,0,0,0,.56,3.46,8.59,8.59,0,0,0,8.8,5.81,8,8,0,0,0,4.67-1.8,9,9,0,0,0,3.31-6.45,10.07,10.07,0,0,0-.43-3.85,8.79,8.79,0,0,0-2.17-3.7,8.48,8.48,0,0,0-3.37-2.14,8.73,8.73,0,0,0-2.77-.45,9.17,9.17,0,0,0-3,.53A7.94,7.94,0,0,0,252,16.32,9,9,0,0,0,250.36,21.83Z"/><path d="M158.92,21.8a12.37,12.37,0,0,1,1.75-6.29,12.22,12.22,0,0,1,7.87-5.74,12.5,12.5,0,0,1,11.08,2.73,12.06,12.06,0,0,1,3.88,6.69,11.81,11.81,0,0,1,.33,3.19,12.61,12.61,0,0,1-3.51,8.24,11,11,0,0,1-2.22,1.8,11.58,11.58,0,0,1-3.2,1.46,21.11,21.11,0,0,1-2.5.45,7.44,7.44,0,0,1-1.25.09,12.19,12.19,0,0,1-11.62-8.52A13,13,0,0,1,158.92,21.8Zm21.12.26A7.63,7.63,0,0,0,180,21a15.61,15.61,0,0,0-.41-1.92,8.57,8.57,0,0,0-4.42-5.42,8.2,8.2,0,0,0-4.36-.91,8.73,8.73,0,0,0-2.91.64,8.18,8.18,0,0,0-3.83,3.31,9,9,0,0,0-1.32,3.72,10.94,10.94,0,0,0,.06,3.38,9.41,9.41,0,0,0,1.09,3,8.49,8.49,0,0,0,3.45,3.35,8.66,8.66,0,0,0,5.37.92,8.2,8.2,0,0,0,5.92-3.91A8.74,8.74,0,0,0,180,22.06Z"/><path d="M148.93,23.53v9.62c0,.12,0,.24,0,.36s-.1.38-.36.38H145.7c-.33,0-.36-.05-.38-.4V14c0-.9.1-.79-.82-.8h-2c-.4,0-.44,0-.44-.44V10.49c0-.4,0-.44.44-.44h2.24c.55,0,.54,0,.55-.58,0-1,0-2,.11-3a7.11,7.11,0,0,1,2.48-5A5.86,5.86,0,0,1,150.39.27a11,11,0,0,1,5.7.23c.42.13.43.15.44.6,0,.77,0,1.55,0,2.33,0,.34,0,.36-.37.27a11.05,11.05,0,0,0-3.43-.51,4.05,4.05,0,0,0-2.26.73,3.48,3.48,0,0,0-1.18,1.76,8.15,8.15,0,0,0-.36,2.78c0,.38,0,.77,0,1.16s0,.44.43.44h6.53c.57,0,.57,0,.57.58V12.7c0,.49,0,.51-.5.51h-6.36c-.71,0-.66,0-.66.65Z"/><path d="M190.09,21.93V10.42c0-.33.09-.43.43-.44h2.82c.36,0,.44.1.44.52v4.79a3.59,3.59,0,0,0,.05.46c.08-.12.16-.24.23-.37a11.24,11.24,0,0,1,4.67-4.79,8.93,8.93,0,0,1,3.47-1c.25,0,.5-.07.75-.08s.5.1.5.47v3.08c0,.34,0,.36-.4.4-.59.06-1.19.09-1.77.19a8.23,8.23,0,0,0-5.14,3,10.75,10.75,0,0,0-2.26,5.64,15.22,15.22,0,0,0-.1,1.65c0,3.05,0,6.09,0,9.14v.35c0,.32-.09.43-.4.43-1,0-1.93,0-2.9,0a.35.35,0,0,1-.39-.39c0-.14,0-.27,0-.4Z"/><path d="M72.26,21.91V10.82c0-.12,0-.24,0-.36,0-.41.06-.48.46-.48H75.4c.42,0,.53.1.54.54q0,1,0,2c0,1,0,2.06,0,3.08a.43.43,0,0,0,0,.16,1.66,1.66,0,0,0,.13-.14A11.74,11.74,0,0,1,77.83,13a9.44,9.44,0,0,1,5-3.13c.69-.15,1.4-.23,2.11-.33.49-.06.62.07.62.55,0,1,0,1.91,0,2.86,0,.45,0,.48-.46.54-.8.11-1.6.2-2.39.32a6.33,6.33,0,0,0-2.14.86A8.55,8.55,0,0,0,76.89,19a12.07,12.07,0,0,0-1,4.78c0,3.09,0,6.18,0,9.26,0,.81,0,.86-.86.86H72.84c-.53,0-.58-.06-.58-.6Z"/><path d="M212.68,17.05V33.21c0,.67,0,.67-.69.67h-2.47c-.42,0-.44,0-.45-.46V1c0-.84-.06-.77.78-.77h2.28c.55,0,.55,0,.55.55v16.3Z"/><path d="M91.23,21.88V10.65c0-.68,0-.68.7-.68h2.41c.48,0,.5,0,.5.52V33.21c0,.67,0,.67-.69.67H91.73c-.48,0-.5,0-.5-.51Z"/><path d="M20.16,41.51H.7c-.7,0-.7,0-.7-.68,0-.31,0-.62,0-.93s0-.37.39-.39H39.61c.71,0,.71,0,.71.7,0,.3,0,.59,0,.89s0,.4-.42.41H20.16Z"/><path d="M280.72,31.42v2c0,.41,0,.45-.42.45h-3.49c-.37,0-.41,0-.41-.42q0-2.05,0-4.11c0-.37,0-.4.42-.41h3.49c.37,0,.4,0,.41.42Z"/><path d="M93,4.89H91.38c-.36,0-.4,0-.4-.39,0-1.07,0-2.14,0-3.21,0-.27.11-.38.37-.38h3.4c.34,0,.37,0,.38.4,0,1.06,0,2.12,0,3.17,0,.35,0,.39-.38.39Z"/></g></g></g></svg>