<svg xmlns="http://www.w3.org/2000/svg" viewBox="0 0 258.74 127.88"><defs><style>.cls-1{fill:#d82f27;}</style></defs><title>logo-ladyland</title><g id="Layer_2" data-name="Layer 2"><g id="Logos"><g id="logo-ladyland"><path class="cls-1" d="M95.3,60.23a14.73,14.73,0,0,0-1.1-4.47,12.08,12.08,0,0,0-1.63-3.46A7.31,7.31,0,0,0,89,49.88c-.48-.18-1.84-.78-1.85.13a4.12,4.12,0,0,0,.33.86c.1.31.18.62.27.93a9.87,9.87,0,0,1,0,4.77,14.12,14.12,0,0,1-2,4.13,12.75,12.75,0,0,1-6.26,5.39,23.27,23.27,0,0,1-10.1,1.59,19.31,19.31,0,0,1-5-1.25c-1.47-.55-3-.84-4.47-1.43a51.37,51.37,0,0,1-8.22-4.37c-2.65-1.68-5.4-3.16-8.08-4.8-.74-.46-1.41-1-2.19-1.37a9.48,9.48,0,0,1-1.87-1.05c-.52-.46,0-1.17.25-1.72.3-.73.51-1.51.86-2.23.71-1.49,1.2-3.09,1.86-4.61s1.2-3.05,1.76-4.58a42.3,42.3,0,0,0,1.55-4.74c.18-.77.25-1.55.5-2.3a6,6,0,0,0,.34-1.14,2.49,2.49,0,0,1,.14-.71,1.86,1.86,0,0,1,1.3-.86c.77-.24,1.48-.63,2.23-.94a16.41,16.41,0,0,0,4.14-2.24,36.1,36.1,0,0,0,6.38-7,26.36,26.36,0,0,0,3.79-9.19c.33-1.59.83-3.37.47-5a7.48,7.48,0,0,0-1.66-3.94,10.8,10.8,0,0,0-1.5-1A4.81,4.81,0,0,0,60.47.43,8.12,8.12,0,0,0,55.84.28,9.28,9.28,0,0,0,51.9,2.71a19,19,0,0,0-2.35,2.77,36.65,36.65,0,0,0-2.11,3.68c-.7,1.46-1.43,2.9-2.15,4.35a41.68,41.68,0,0,0-1.67,4.87c-.5,1.43-.92,2.85-1.46,4.29-.23.6-.4,1.82-1.08,2.06a3.81,3.81,0,0,1-2-.27A8.21,8.21,0,0,1,35.25,22a10.66,10.66,0,0,1-1.67-4.44,6.59,6.59,0,0,1-.13-2.34,4.08,4.08,0,0,1,.23-1.06c.12-.24.3-.36.39-.55a7.3,7.3,0,0,1,.35-1.06c.15-.25.31-.51.47-.75a5.28,5.28,0,0,1,1.23-1.39,7.2,7.2,0,0,1,3.7-1.65,14.82,14.82,0,0,1,2.4-.08c.87.07,1.25.33,1.41-.73A4.52,4.52,0,0,0,42.42,4.3a8.17,8.17,0,0,0-3.73-2.19,11.28,11.28,0,0,0-5-.45,8.36,8.36,0,0,0-4.1,1.72,15,15,0,0,0-1.79,1.68c-.36.41-.63,1-1.14,1.26a13.9,13.9,0,0,1-1.22,2.77,7.9,7.9,0,0,0-.8,2.93,25.92,25.92,0,0,0,.65,6.63c.84,3.73,3.53,6.85,6.46,9.19a15.31,15.31,0,0,0,4.91,2.62c.51.16,2.09.25,2.22.85.08.33-.3,1-.39,1.34-.15.47-.28,1-.45,1.42-.34.93-.73,1.86-1.09,2.77s-.5,1.6-.77,2.42c-.55,1.7-1.25,3.45-1.89,5.1-.35.92-.5,2-.84,2.92-.18.5-.53,1.81-1.12,1.89-.39,0-.89-.39-1.22-.52s-.84-.28-1.24-.47a9.62,9.62,0,0,1-1.58-.66,9,9,0,0,1-2.42-.74c-.85-.24-1.62-.69-2.48-.94A43.21,43.21,0,0,0,18.48,45a13.82,13.82,0,0,0-5.47.33c-.84.22-1.67.37-2.51.55s-1.5.87-2.17.86c-.53.38-1.22.54-1.79.88A20.46,20.46,0,0,0,4.76,49a10.07,10.07,0,0,0-1.62,1.36,10.53,10.53,0,0,0-1.21,2,19.13,19.13,0,0,0-1.7,4.56,16.88,16.88,0,0,0-.08,5,12.75,12.75,0,0,0,.4,2.46A4.29,4.29,0,0,0,.78,65c.12.21.35.41.47.64s.05.5.14.72.28.37.41.58.22.52.39.75.43.38.56.65a7,7,0,0,0,1.14,1.69,11.56,11.56,0,0,0,1.58,1.15c.54.43.82,1,1.52,1.32.25.1.43.08.65.25s.23.31.34.4a2.5,2.5,0,0,0,.41.25,11.87,11.87,0,0,0,2.1.83,8,8,0,0,0,1.67.69,24.89,24.89,0,0,0,4.65.62A41.63,41.63,0,0,0,21.54,75a14.8,14.8,0,0,0,4.09-1.36,10.47,10.47,0,0,0,1.05-.68c.18-.11.53-.14.65-.24s.33-.46.53-.63.61-.48.91-.72a17.2,17.2,0,0,0,3.41-3.12c.24-.34.46-.68.7-1a6.7,6.7,0,0,1,.68-1c.42-.34.75.13,1.1.39a23.59,23.59,0,0,0,3.94,2.38c1.41.66,2.75,1.56,4.11,2.34s2.89,1.59,4.4,2.27c3.12,1.41,6.27,2.89,9.49,4a7.65,7.65,0,0,0,1.78.54,13.77,13.77,0,0,1,1.65.53c1.32.3,2.71.52,4,.86.39.11.79.07,1.14.15s.54.19.84.26c.62.14,1.22.19,1.83.37a18.55,18.55,0,0,0,5.16.36,31.29,31.29,0,0,0,5-.41c.74-.14,1.54-.23,2.29-.41a17.08,17.08,0,0,0,1.62-.64c.8-.27,1.68-.44,2.49-.75a13,13,0,0,0,1.83-.7,22.7,22.7,0,0,0,3.22-2,22.23,22.23,0,0,0,3-3A14.67,14.67,0,0,0,94.64,69C95.69,66.17,95.49,63.25,95.3,60.23ZM50.39,20.29c.19-.65.34-1.31.56-1.95a32.24,32.24,0,0,1,1.51-3.89c.68-1.35,2.81-5.3,4.76-3.88.94.68.76,2,.54,3a10.16,10.16,0,0,1-1.93,3.68c-1.59,2.17-3.29,4.06-5.93,4.84C49.81,21.33,50.2,21,50.39,20.29ZM26.81,62.16c-.18.42-1.24.86-1.63,1.09-.56.33-1.14.64-1.73.93a17,17,0,0,1-7.7,1.94c-2.76.31-5.37-2.94-4.35-5.57.9-2.32,4-3.2,6.22-3.31C20.16,57.1,23,58.48,25,59.88,25.51,60.23,27.13,61.43,26.81,62.16Z"/><path class="cls-1" d="M192,105.85c-.07-.37-.32-.69-.37-1.09a2.75,2.75,0,0,0-.31-.9,16.56,16.56,0,0,1-.56-1.73,7.84,7.84,0,0,0-2.58-3.82A7.24,7.24,0,0,0,186,97.2c-.36-.12-1.49-.65-1.79-.2s.47,1.77.58,2.24a9.07,9.07,0,0,1,0,2.55,11.06,11.06,0,0,1-1.56,5.18c-1.69,3-4,5.46-7.32,6.49a32.63,32.63,0,0,1-5.32,1.34,14.9,14.9,0,0,1-5.41,0c-1.81-.46-3.59-1.07-5.36-1.67-.87-.3-1.76-.48-2.64-.73a16.28,16.28,0,0,1-2.18-1,45.23,45.23,0,0,1-4.8-2.59c-1.54-1-3-2-4.62-3s-3.31-1.8-4.92-2.79c-.8-.49-1.59-1-2.39-1.49-.49-.3-1.86-.73-2.07-1.26-.13-.34.31-1,.43-1.32s.32-.82.5-1.22c.37-.83.68-1.68,1-2.54.66-1.72,1.4-3.42,2.08-5.14a77.55,77.55,0,0,0,3.08-9.91,4.13,4.13,0,0,1,.81-2.06,5.55,5.55,0,0,1,1.83-.79,25.76,25.76,0,0,0,4.56-2.25,18.77,18.77,0,0,0,3.74-3.38,35.61,35.61,0,0,0,3.37-4.08,23.27,23.27,0,0,0,2.42-4.4c.29-.77.7-1.57.92-2.35s.41-1.7.63-2.55c.82-3.14,1-7.48-2.08-9.45a10,10,0,0,0-1.69-1.07,8.27,8.27,0,0,0-2.34-.41,8,8,0,0,0-5,1.17,13.1,13.1,0,0,0-3.72,3.84,30.57,30.57,0,0,0-2.81,4.83c-.4.86-.81,1.71-1.23,2.57s-.56,1.55-.87,2.33c-.72,1.84-1.24,3.74-1.9,5.6-.3.81-.62,1.62-.92,2.43-.16.43-.33,1.44-.67,1.74-.94.82-3.56-.63-4.39-1.15a6.54,6.54,0,0,1-1.87-1.55,12.29,12.29,0,0,1-1-1.92,12.43,12.43,0,0,1-.56-1.93A9.13,9.13,0,0,1,130.3,63a8.11,8.11,0,0,1,5.55-7.59,5.25,5.25,0,0,1,2.72-.19c.46.11,1.26.67,1.75.46,1-.45-.13-3.12-.54-3.7-2-2.75-6.73-4-9.91-3a7.56,7.56,0,0,0-2.36,1,25.07,25.07,0,0,0-2.05,1.65,12.85,12.85,0,0,0-2.85,4.17,9.81,9.81,0,0,0-1.07,5.18,25.45,25.45,0,0,0,.86,5.56c1.07,3.43,3.46,6.08,6.13,8.37a14.07,14.07,0,0,0,4.72,2.63,13.55,13.55,0,0,0,1.51.42,2.75,2.75,0,0,1,.89.21c.43.34,0,1.08-.12,1.54-.54,1.83-1.36,3.54-2,5.34-.15.42-.19.85-.32,1.27-.06.18-.17.35-.22.52s0,.28,0,.4c-.17.3-.38.31-.48.74a4.74,4.74,0,0,1-.23.9,14.71,14.71,0,0,0-.7,2c-.19.66-.45,1.3-.61,2a13.74,13.74,0,0,1-.35,1.44,7.51,7.51,0,0,1-.54.87c-.06.12-.53,1.4-.57,1.39a13.85,13.85,0,0,1-2.26-.87c-.71-.26-1.43-.6-2.18-.86s-1.65-.6-2.5-.82a5.76,5.76,0,0,1-1-.41,6.21,6.21,0,0,0-1.06-.43,31.33,31.33,0,0,0-4.65-.81,16.84,16.84,0,0,0-5.66.21,18.3,18.3,0,0,0-3.06.66c-.79.32-1.49.82-2.27,1.12a7.84,7.84,0,0,0-2.49,1.35,10.5,10.5,0,0,0-1.45,1.11c-.28.32-.48.69-.77,1a5.3,5.3,0,0,0-.83.93c-.21.34-.28.72-.45,1.06s-.31.46-.43.72a11,11,0,0,0-1.32,4.83c0,.52,0,1,0,1.5s.09.63.11,1c0,.92,0,1.85.12,2.77a7,7,0,0,0,.82,2.5c.19.34.48.65.66,1s.15.64.37.86c.28.07.34.56.52.77s.47.31.65.57a9.15,9.15,0,0,0,.45.88,3.76,3.76,0,0,0,.87.71,9.77,9.77,0,0,1,1.39,1,4.15,4.15,0,0,0,.68.64c.28.18.61.21.86.39s.31.38.67.53a4,4,0,0,1,.71.3,5.21,5.21,0,0,0,1.27.64,2.48,2.48,0,0,1,.69.17c.31.21.31.31.71.43a16.24,16.24,0,0,0,2.07.43c.86.14,1.73.24,2.6.3a13.55,13.55,0,0,0,2.69-.26,13.18,13.18,0,0,0,1.41-.08c.36-.07.68-.28,1-.35a18.26,18.26,0,0,0,2-.51,11.51,11.51,0,0,0,4.46-2.5c1.11-1,2.43-1.83,3.47-2.88.54-.55,1-1.33,1.5-2,.21-.26.36-1,.74-1s1.39.93,1.76,1.15c.69.42,1.33.91,2,1.3.38.22.81.31,1.19.51s.57.42.85.59l1.11.65a5.24,5.24,0,0,0,.53.28,4.43,4.43,0,0,0,.51.11,5.51,5.51,0,0,0,.74.56c.34.16.57.39.88.57.51.3,1.13.54,1.67.8a15.48,15.48,0,0,0,2,1,9.29,9.29,0,0,1,1.58.78c.51.26,1.12.47,1.56.66a3.71,3.71,0,0,0,.49.24c.1.17.2.2.29.1l.08-.06c.06,0,.13.19.17.2a3.63,3.63,0,0,1,.56.09c.27.11.36.29.64.45,0,0,.2-.06.23-.05l.28.14c.21.11.5.34.69.42s.75.08,1.07.27a2.45,2.45,0,0,0,1,.39c.44.09.42.27.76.46s.67.09,1,.2a6.62,6.62,0,0,0,1,.38c.42.09.81.31,1.21.42s.86.08,1.28.18.84.12,1.08.2.42.28.71.33.84,0,1.22.11a8.89,8.89,0,0,0,1.07.33,19.11,19.11,0,0,1,2,.35,11.77,11.77,0,0,0,2.62.39,4.57,4.57,0,0,1,.85.15c.32,0,.75,0,1.06,0a17.32,17.32,0,0,0,2.39,0,24.29,24.29,0,0,0,2.83-.17c1.6-.26,3.34-.72,4.92-1.13.73-.18,1.39-.47,2.12-.64a7.89,7.89,0,0,0,1.14-.44l.51-.2a3.47,3.47,0,0,1,.37-.21,16.83,16.83,0,0,0,6.81-5.25c.48-.65.88-1.36,1.3-2a7.81,7.81,0,0,0,1-2.2,24.66,24.66,0,0,0,.69-4.85,25.71,25.71,0,0,0-.21-2.91A13.74,13.74,0,0,0,192,105.85Zm-44.74-38.4c.83-2.53,1.55-5.25,3.06-7.48.55-.82,1.66-2.39,2.74-2.55s1.82,1.09,1.82,2c.06,2.72-2.1,5.35-3.89,7.21a12.75,12.75,0,0,1-1.47,1.47,9,9,0,0,1-1.5.8c-.32.16-1.42,1-1.53.26C146.47,68.84,147.17,67.79,147.29,67.45Zm-23.54,41.91c-.16.45-1.08.78-1.46,1-.55.3-1.08.63-1.65.92a20.53,20.53,0,0,1-7.89,2.18,4.66,4.66,0,0,1-4.55-5.28,4.59,4.59,0,0,1,2.32-2.67,9.45,9.45,0,0,1,3.8-1c2.51-.27,5.22,1.07,7.29,2.4C122.21,107.26,124.05,108.48,123.75,109.36Z"/><path class="cls-1" d="M138.14,117.68l0,0Z"/><path class="cls-1" d="M111.34,85.06c1.65-.32,3.26-.76,4.93-1s3.41-.7,5.08-.46a6,6,0,0,1,3.39,1.91,5.32,5.32,0,0,1,1.88,3.18.31.31,0,0,1,.09.36l-.17.24c0,.49.12.22.13.44s-.27.71-.21,1c.16.65.6-.28.73-.48a9.92,9.92,0,0,0,1.7-7.93,11.44,11.44,0,0,0-5.52-7.06c-2.87-1.5-6.89-1.33-10-.66A28.57,28.57,0,0,0,109,76.21a4.66,4.66,0,0,1-4.52-.43,4.73,4.73,0,0,1-2-3.22,4.64,4.64,0,0,1,1.46-4,58.8,58.8,0,0,1,7.73-6.8,109.29,109.29,0,0,0,15.36-14.28,35.49,35.49,0,0,0,3.53-4c.52-.78,1.06-1.55,1.59-2.32.4-.59,1-1.22,1.3-1.82s.57-1.51.9-2.2a6.55,6.55,0,0,0,.72-2.31c.08-1.27-1.23-2.84-2.56-2.17a10,10,0,0,0-1.83,1.56c-.59.51-1.22,1-1.78,1.51s-1.16.93-1.7,1.44a18.84,18.84,0,0,1-1.6,1.36c-2.48,1.9-4.9,4-7.47,5.79-1.18.83-2.49,2-3.94,2.28a1.91,1.91,0,0,1-2-.65,1.81,1.81,0,0,1,.34-1.75c.86-1.36,2.23-2.35,3.08-3.74.23-.38.29-.82.53-1.19a2.93,2.93,0,0,0,.52-.93,17.3,17.3,0,0,0,.71-2.53,4.67,4.67,0,0,0-1.68-4c-.69-.64-3.09-1.75-3.43-.09-.08.38.24.72.33,1.12a2.65,2.65,0,0,1,0,1,12.48,12.48,0,0,1-.73,1.89,12.65,12.65,0,0,1-2.5,3.88c-1.2,1.34-2.44,2.68-3.73,3.92a12.53,12.53,0,0,1-3.14,2.65,8.31,8.31,0,0,1-2.4.66c-.42.06-1.46.42-1.83.09s0-1.18.17-1.53.37-.46.52-.72.27-.75.46-1.09a22.62,22.62,0,0,1,2.82-3.72c1-1.19,2-2.47,3.06-3.63.49-.54.87-1.22,1.36-1.8s1-1.19,1.52-1.8.91-1.2,1.39-1.72c.15-.17.25-.42.38-.56s.34-.44.44-.54c.25-.26.11-.28.57-.32a5.14,5.14,0,0,1,1.3,0,19.32,19.32,0,0,0,2.53.18,23.31,23.31,0,0,0,5.28-.28,15.52,15.52,0,0,0,2.52-.84,14.63,14.63,0,0,0,2-.8,8.36,8.36,0,0,0,3.13-2.89c.38-.65.6-1.37.93-2.05a5.43,5.43,0,0,0,.74-2.12,8.56,8.56,0,0,0-.22-2.62c-.09-.31-.17-.64-.27-.95a4.71,4.71,0,0,0-.43-.92c-1.34-2.55-4.75-3.66-7.49-3.12-3.23.64-6.27,2.86-8.62,5.05A10.74,10.74,0,0,0,110.81,20c-.39.61-.94,1.07-1.37,1.67-.3.42-.66,1.3-1.26,1.35s-1.33-.67-1.75-1a44.7,44.7,0,0,0-3.73-2.84,11.47,11.47,0,0,0-4.27-1.79C97.6,17.3,96.84,17,96,17a11.75,11.75,0,0,0-2.37.07,16.67,16.67,0,0,0-2.53.51c-.61.18-1.28.81-1.93.77-.47.48-1.13.66-1.57,1.16a7.85,7.85,0,0,0-1.19,1.77A7.1,7.1,0,0,0,85.79,26c.14.46.4,1.64,1,1.65s.93-1,1.24-1.34a5.77,5.77,0,0,1,3.28-1.83,16.31,16.31,0,0,1,5-.38,18.75,18.75,0,0,1,5.11,1.15c.79.34,1.53.78,2.33,1.09.45.17,1.2.49,1.08,1.1-.06.36-.6.82-.82,1.09l-.88,1.09c-.51.64-1,1.33-1.55,1.95s-.92,1.11-1.39,1.69a3.14,3.14,0,0,0-.53.7,4.24,4.24,0,0,1-.53.86c-.28.35-.54.73-.82,1.08s-.25.42-.54.23-.36-.69-.5-.9a8.67,8.67,0,0,0-.75-1,6.34,6.34,0,0,0-4.57-1.88,13.72,13.72,0,0,0-5,1.08,18,18,0,0,0-2.3,1.1c-.65.37-1.35.58-2,.93-2.5,1.33-4.43,3.51-6.46,5.46-.62.59-1.16,1.24-1.77,1.84s-1.21,1-1.77,1.56a7.7,7.7,0,0,1-2,1.55,10.49,10.49,0,0,1-2,.88,1.41,1.41,0,0,1-1.22-.41c-.18-.27,0-.4.08-.65a11.12,11.12,0,0,1,.93-2,32.68,32.68,0,0,1,3.31-4.29c1-1.09,2.57-2.63,2.12-4.26-.33-1.18-2.29-1.67-3.31-1.67a4.42,4.42,0,0,0-2.05.62c-.6.33-.92,1-1.59,1.22s-.64-.44-1.05-.87a4.92,4.92,0,0,0-1.66-1.19c-3-1.29-6.46,0-9.24,1.25A13.64,13.64,0,0,0,51,37.14a32.32,32.32,0,0,0-3.32,3.5c-1.61,2.2-3.33,6.4-1.92,9a3.71,3.71,0,0,0,1.54,1.62,6,6,0,0,0,2,.22,12.15,12.15,0,0,0,5-1.07,23.39,23.39,0,0,0,4.24-2.28c.34-.24,1.15-1,1.53-.64.15.15.15.78.21,1a5.06,5.06,0,0,0,.41.92,4.22,4.22,0,0,0,1.41,1.78,6,6,0,0,0,2.47.24,11.92,11.92,0,0,0,5-1.27,15.9,15.9,0,0,0,4-2.76c.48-.45,1-1.24,1.11-.17a4.31,4.31,0,0,0,.71,2.2A5,5,0,0,0,77,50.8a4.24,4.24,0,0,0,2,.58,6.24,6.24,0,0,0,2.28-.27c.69-.2,1.43-.2,2.15-.4A20.4,20.4,0,0,0,87.83,49a13.51,13.51,0,0,0,1.93-1.19c.26-.21,1-.8,1.31-.72s.65,1.12.7,1.28a2.82,2.82,0,0,0,.94,1.35c1.14,1.09,2.39,1.16,3.9,1.18a10.29,10.29,0,0,0,1.22,0,7.88,7.88,0,0,0,.92-.28,11.77,11.77,0,0,0,2.31-.9c.53-.29,1.4-1,2-1s.29.4.43.85c.9,2.9,4.9,3.65,7.48,3.26a14,14,0,0,0,4.65-1.66c.28-.15,1.39-1.12,1.72-.88s-.24.7-.38.85c-.47.56-.88,1.12-1.39,1.63a14.93,14.93,0,0,1-1.22,1,40.26,40.26,0,0,1-3.82,2.48c-1.48.89-2.93,1.84-4.41,2.72-.63.37-1.32.86-2,1.32-.26.19-.44.43-.71.63s-.5.22-.71.4-.41.53-.71.74-.58.29-.85.46a11.76,11.76,0,0,0-1.85,1.46,24.65,24.65,0,0,0-1.79,1.89,5.46,5.46,0,0,0-1.25,1.62,6.68,6.68,0,0,1-.41.8c-.15.32-.17.7-.33,1a8.07,8.07,0,0,0-.46.87,6.29,6.29,0,0,0-.18,1.07,14.2,14.2,0,0,0-.31,2.2,5.7,5.7,0,0,1-.13.91,1.88,1.88,0,0,0-.06.57c0,.16.12.18.14.3.15.81.13,1.67.22,2.49a5.81,5.81,0,0,0,.48,1.58c.26.66.48,1.19.77,1.83,0,0,.14,0,.18.1s-.06.15,0,.33a3.33,3.33,0,0,0,.62.78c2.3,2.23,6.1,3.08,9.2,3.21A22.39,22.39,0,0,0,111.34,85.06Zm3-60.2a15.49,15.49,0,0,1,1.1-1.46c.82-.92,1.65-1.81,2.53-2.66,1.42-1.37,4.11-3.82,6.2-2.51,2.66,1.66.35,4.4-1.48,5.58a8.54,8.54,0,0,1-3.24,1.45,31.71,31.71,0,0,1-4,.22C114.74,25.48,113.7,25.7,114.3,24.86ZM62.71,40.15c0,.55-1,1.38-1.28,1.85s-.38.35-.71.58-.45.53-.74.76a2.9,2.9,0,0,0-.74.66,2.68,2.68,0,0,1-.65.65,2.1,2.1,0,0,1-.42.22c-.2,0-.29.06-.29.24-.25.15-.46.29-.75.43A37.07,37.07,0,0,1,53.3,47.3c-.58.2-1.24.53-1.74,0s-.21-1.13.16-1.7a11.46,11.46,0,0,1,3-3.26c.67-.48,1.26-1.06,1.94-1.53s1.28-.75,1.87-1.18a5.18,5.18,0,0,1,.84-.57,6.76,6.76,0,0,0,.84-.47,5.53,5.53,0,0,1,2.13-.6C63.75,38,63.42,39.39,62.71,40.15ZM92,41a9.09,9.09,0,0,1-2,2.57c-.42.4-.82.83-1.28,1.19a6,6,0,0,1-1.36,1c-.77.45-2.68,2-3.58,1.17s.42-2.61,1-3.41a16.63,16.63,0,0,1,2.67-3.24,23.08,23.08,0,0,1,3.26-2.74c.81-.49,2.38-1.1,2.67.33C93.53,39,92.48,40.08,92,41Z"/><path class="cls-1" d="M254.66,61.65a8.14,8.14,0,0,0-6.43-.18,9.8,9.8,0,0,1-1.72.74c0,.42-1.42.88-1.77,1.09a11.16,11.16,0,0,0-1.86,1.42c-.56.54-1.21.93-1.74,1.52s-1.15,1.39-1.77,2c-.47.49-.79,1-1.21,1.53s-.84,1.11-1.55,1.07-1.56-.48-2.38-.55-1.57-.26-2.36-.38a18.19,18.19,0,0,1-2.74-.54,17.93,17.93,0,0,0-2.28-.64c-1.83-.34-3.59-1-5.4-1.39-1-.23-1.93-.42-2.89-.64-.79-.18-1.57-.49-2.36-.59-1.62-.21-3.23-.38-4.85-.59a28.45,28.45,0,0,0-5-.33c-.86,0-1.65.34-2.5.43a8.75,8.75,0,0,0-2.3.59,14.24,14.24,0,0,0-4.23,2.5,11.12,11.12,0,0,0-2.75,3.17,8.39,8.39,0,0,0-.68,4.6,6.17,6.17,0,0,0,1.8,4c.15.16.57.66.78.71s.26,0,.38-.27a10.06,10.06,0,0,0,.18-1.26,7.46,7.46,0,0,1,.31-1A7.3,7.3,0,0,1,200.19,75a14.51,14.51,0,0,1,4.56-2,17.19,17.19,0,0,1,5.23-.84,27.36,27.36,0,0,1,5.24.9c3.6.72,7.09,1.87,10.63,2.83A46,46,0,0,0,231,77c.22,0,.93,0,1,.26s-.21.46-.33.62a20.15,20.15,0,0,1-1.32,1.61c-1.07,1.21-1.88,2.54-2.84,3.83-.16.21-.48.85-.78.84s-.49-.51-.61-.7a8,8,0,0,0-1.41-1.8c-2.47-2-6.62-1.42-9.29-.16a18.91,18.91,0,0,0-2.15,1.1,21.24,21.24,0,0,1-2,1A13.49,13.49,0,0,0,209.23,85a20.92,20.92,0,0,0-1.76,1.34A46.08,46.08,0,0,0,204,90c-.49.62-.87,1.39-1.4,2a16,16,0,0,1-1.78,1.49,16.83,16.83,0,0,1-2.29,1.65c-.65.38-1.32.52-.88-.47a15.16,15.16,0,0,1,1.41-1.91c.37-.58.66-1.19,1.05-1.76.51-.75,1-1.54,1.4-2.33a6.68,6.68,0,0,0,.87-1.9,3.08,3.08,0,0,0-2.27-3.25,9.78,9.78,0,0,0-5.09.19,19.86,19.86,0,0,0-4.37,2,44.07,44.07,0,0,0-4.32,3c-.3.22-1.55,1.38-1.53.57a4.31,4.31,0,0,1,.44-1,7.2,7.2,0,0,0,.36-1.2,3.12,3.12,0,0,0-1.23-3.43,7.39,7.39,0,0,0-4.27-.7c-4.75,1.12-8,5.33-11.21,8.68-.83.87-1.69,1.71-2.59,2.52A7.51,7.51,0,0,1,163.61,96c-2.59.73.06-3.51.51-4.22a41.41,41.41,0,0,1,3.95-4.83c.58-.64,1.39-1.28,1.18-2.24s-.83-1.07-1.56-1.21a6.68,6.68,0,0,0-2.95.09,6.82,6.82,0,0,0-1.38.54,9.26,9.26,0,0,1-1.16.73c-.42.11-.45,0-.72-.39a4.27,4.27,0,0,0-.73-1,5.35,5.35,0,0,0-2.48-1c-4.13-.7-8.16,1.47-11.12,4.15a24,24,0,0,0-3.94,4.59c-.91,1.37-2,3.57-1.5,5.25A4.46,4.46,0,0,0,143.09,99a3.9,3.9,0,0,0,2.21.85c1.89.07,4-1,5.71-1.84a26.77,26.77,0,0,0,2.92-1.74c.39-.25,1.87-1.54,2.23-1,.16.26-.15.88-.06,1.24a3.61,3.61,0,0,0,2.44,2.3c4.18,1.1,8.09-1.75,10.92-4.43,1.48-1.4,2.91-2.87,4.47-4.19.75-.62,1.42-1.47,2.19-2,.34-.25.72-.42,1.06-.69a1.48,1.48,0,0,1,1.18-.43,15.38,15.38,0,0,1-2.56,3.85,42.88,42.88,0,0,0-3,3.93c-.49.77-1.92,2.65-1,3.56A4.14,4.14,0,0,0,174,99a10.76,10.76,0,0,0,2-.13c1.47-.2,2.73-1.78,3.78-2.74a73.13,73.13,0,0,1,7.92-6.21,26,26,0,0,1,4.17-2.45c.48-.21,3.75-1.64,3.48-.22-.09.48-1.27,1.27-1.63,1.61-.59.57-1.17,1.15-1.72,1.75a12,12,0,0,0-2.48,3.86c-.51,1.39-.7,3,.65,4a3.53,3.53,0,0,0,1.8.77,9.3,9.3,0,0,0,1.18,0,5.1,5.1,0,0,0,.68,0c.12,0,.16-.16.3-.18.43,0,.6,0,1-.17a6.86,6.86,0,0,1,.76-.4c.7-.29,1.39-.56,2.06-.9a17.65,17.65,0,0,0,3.59-2.21c.33-.29,1.36-1.11,1.87-.84.23.12.15,1,.2,1.41.07.57.23.49.46.9.11.19.11.37.21.54s.32.34.37.38c.26.23.43.41.69.64,1.14,1,3,.86,4.35.68a20.37,20.37,0,0,0,4.78-1.29,19.4,19.4,0,0,0,4.2-2.16c.44-.32,1-1,1.44-.46s.39,1.14.71,1.62a3.66,3.66,0,0,0,2.95,1.73,13.11,13.11,0,0,0,4.3-.14,6.86,6.86,0,0,0,2.24-1.09,5.26,5.26,0,0,0,.66-.68,7.83,7.83,0,0,1,.61-.51c.69-.53,2.35-2.8,1.63-3.55-.53-.55-1-.2-1.44.21A16.26,16.26,0,0,1,230.1,94a5.46,5.46,0,0,1-2.09.92,1.38,1.38,0,0,1-.94,0c-.4-.25-.2-.2-.09-.56a5.45,5.45,0,0,1,.54-1.58c.33-.49.54-1.14.92-1.65s.66-1,1.05-1.62.84-.9,1.2-1.41a13.23,13.23,0,0,1,1.42-1.48c.56-.6,1-1.32,1.55-2,1-1.33,2.06-2.64,3.16-3.91.53-.62,1-1.29,1.51-1.94.37-.5.79-1.29,1.43-1.46a8.58,8.58,0,0,1,2.3.16c.82,0,1.64.08,2.45.15a21.67,21.67,0,0,0,5-.31,10,10,0,0,0,4.22-1.5c2.62-1.67,4.64-3.83,5-7A7.31,7.31,0,0,0,254.66,61.65ZM159.56,86.5c-.21,1.36-1.38,2.67-2.23,3.67a22.1,22.1,0,0,1-2.94,3,36.75,36.75,0,0,1-3.61,2.49c-.64.41-2.95,1.84-2.89.11.05-1.23,1.35-2.65,2.13-3.51,1-1.06,1.92-2.13,3-3.1a22.79,22.79,0,0,1,3.33-2.36,8.49,8.49,0,0,1,2-1.14C158.83,85.54,159.66,85.81,159.56,86.5Zm62.1.91a12.43,12.43,0,0,1-1.92,3.08,17.63,17.63,0,0,1-3,2.67,7.76,7.76,0,0,1-3.47,1.74c-2.71.08,1-4.54,1.6-5.24a25,25,0,0,1,2.86-2.78c.9-.8,1.86-1.87,3.15-2a1.11,1.11,0,0,1,1.17.7C222.3,86.17,221.89,86.86,221.66,87.41ZM253.32,70a11,11,0,0,1-5.89,2.26c-.5-.08-3.27-.27-3.26-.76s.78-1,1-1.28c.42-.44.84-.88,1.28-1.3,1.29-1.25,3.38-3.35,5.35-3.17S255.1,68.6,253.32,70Z"/></g></g></g></svg>