<svg xmlns="http://www.w3.org/2000/svg" viewBox="0 0 267.38 66.03"><defs><style>.cls-1{fill:#2a357a;}</style></defs><title>logo-ebb-and-flow-music</title><g id="Layer_2" data-name="Layer 2"><g id="Logos"><g id="logo-ebb-and-flow-music"><path class="cls-1" d="M26.65,58.53a4.14,4.14,0,0,0,.47,2A4.75,4.75,0,0,0,28.35,62a5.78,5.78,0,0,0,1.78,1,6.34,6.34,0,0,0,2.08.34,4.7,4.7,0,0,0,2.54-.67,8.08,8.08,0,0,0,2-1.79l2.36,1.8A8.67,8.67,0,0,1,31.8,66a9.21,9.21,0,0,1-3.53-.65,7.6,7.6,0,0,1-2.68-1.83,8.25,8.25,0,0,1-1.69-2.74,9.85,9.85,0,0,1-.59-3.43A8.94,8.94,0,0,1,24,54a8.66,8.66,0,0,1,1.77-2.75,8.15,8.15,0,0,1,2.69-1.82,8.68,8.68,0,0,1,3.41-.67,8.26,8.26,0,0,1,3.7.77,7.36,7.36,0,0,1,2.49,2,7.84,7.84,0,0,1,1.4,2.78,11.56,11.56,0,0,1,.44,3.14v1.12ZM36.52,56a6.43,6.43,0,0,0-.33-1.92,4.29,4.29,0,0,0-.88-1.51,4.23,4.23,0,0,0-1.48-1,5.47,5.47,0,0,0-2.07-.36A5.05,5.05,0,0,0,28,52.8a5.17,5.17,0,0,0-1,1.54A4.34,4.34,0,0,0,26.65,56Z"/><path class="cls-1" d="M43.61,39.34h3.13V51.51h.07a5.7,5.7,0,0,1,2.4-2,7.73,7.73,0,0,1,3.33-.75,8.71,8.71,0,0,1,3.46.67,7.84,7.84,0,0,1,2.64,1.82A8.3,8.3,0,0,1,60.33,54a10.18,10.18,0,0,1,0,6.83,8.46,8.46,0,0,1-1.69,2.74A7.64,7.64,0,0,1,56,65.38a8.89,8.89,0,0,1-3.46.65,7.79,7.79,0,0,1-3.25-.72,6,6,0,0,1-2.48-2.06h-.07v2.36H43.61Zm8.55,23.77a5.66,5.66,0,0,0,2.26-.43,4.94,4.94,0,0,0,1.7-1.18,5.19,5.19,0,0,0,1.08-1.81,7.21,7.21,0,0,0,0-4.62,5.19,5.19,0,0,0-1.08-1.81,4.94,4.94,0,0,0-1.7-1.18,6,6,0,0,0-4.52,0,4.94,4.94,0,0,0-1.7,1.18,5.19,5.19,0,0,0-1.08,1.81,7.21,7.21,0,0,0,0,4.62A5.19,5.19,0,0,0,48.2,61.5a4.94,4.94,0,0,0,1.7,1.18A5.66,5.66,0,0,0,52.16,63.11Z"/><path class="cls-1" d="M64.85,39.34H68V51.51H68a5.83,5.83,0,0,1,2.4-2,7.77,7.77,0,0,1,3.34-.75,8.78,8.78,0,0,1,3.46.67,7.94,7.94,0,0,1,2.64,1.82A8.44,8.44,0,0,1,81.56,54a10.18,10.18,0,0,1,0,6.83,8.61,8.61,0,0,1-1.68,2.74,7.73,7.73,0,0,1-2.64,1.85,9,9,0,0,1-3.46.65,7.73,7.73,0,0,1-3.25-.72A6,6,0,0,1,68,63.25H68v2.36H64.85ZM73.4,63.11a5.61,5.61,0,0,0,2.25-.43,5.08,5.08,0,0,0,1.71-1.18,5.17,5.17,0,0,0,1.07-1.81,7.21,7.21,0,0,0,0-4.62,5.17,5.17,0,0,0-1.07-1.81,5.08,5.08,0,0,0-1.71-1.18,5.61,5.61,0,0,0-2.25-.44,5.71,5.71,0,0,0-2.27.44,4.94,4.94,0,0,0-1.7,1.18,5.35,5.35,0,0,0-1.08,1.81,7.21,7.21,0,0,0,0,4.62,5.35,5.35,0,0,0,1.08,1.81,4.94,4.94,0,0,0,1.7,1.18A5.71,5.71,0,0,0,73.4,63.11Z"/><path class="cls-1" d="M90.57,56.93h5.79V51.14h2v5.79h5.79v2H98.34v5.8h-2v-5.8H90.57Z"/><path class="cls-1" d="M114.57,51.85H111v-2.7h3.55V45.46a7.9,7.9,0,0,1,1.26-4.91c.85-1.09,2.3-1.62,4.36-1.62l1.1,0a6.47,6.47,0,0,1,1.23.21L122.18,42a4.38,4.38,0,0,0-.87-.24,5.14,5.14,0,0,0-.9-.07,3.24,3.24,0,0,0-1.4.26,1.89,1.89,0,0,0-.81.75,2.89,2.89,0,0,0-.39,1.16,14.14,14.14,0,0,0-.08,1.55v3.79h3.71v2.7h-3.75V65.61h-3.12Z"/><path class="cls-1" d="M125.17,39.34h3.12V65.61h-3.12Z"/><path class="cls-1" d="M132.46,57.38a8.39,8.39,0,0,1,.68-3.37,8.79,8.79,0,0,1,16.16,0,8.22,8.22,0,0,1,.68,3.37,8.55,8.55,0,0,1-2.54,6.13,9,9,0,0,1-2.78,1.85,9.17,9.17,0,0,1-6.88,0A8.9,8.9,0,0,1,135,63.51a8.42,8.42,0,0,1-1.86-2.74A8.55,8.55,0,0,1,132.46,57.38Zm3.34,0a6.87,6.87,0,0,0,.38,2.31,5.19,5.19,0,0,0,1.08,1.81,4.94,4.94,0,0,0,1.7,1.18,6.15,6.15,0,0,0,4.52,0,4.94,4.94,0,0,0,1.7-1.18,5,5,0,0,0,1.08-1.81,7.21,7.21,0,0,0,0-4.62,5,5,0,0,0-1.08-1.81,4.94,4.94,0,0,0-1.7-1.18,6,6,0,0,0-4.52,0,4.94,4.94,0,0,0-1.7,1.18,5.19,5.19,0,0,0-1.08,1.81A6.91,6.91,0,0,0,135.8,57.38Z"/><path class="cls-1" d="M151.92,49.15h3.51l3.7,12.3h.07l4-12.3h3.33l4.18,12.3h.06l3.51-12.3h3.34l-5.32,16.46h-3.16l-4.36-12.3h-.07l-4,12.3h-3.34Z"/><path class="cls-1" d="M49.9,16.27c-10,3.11-18.79,11.33-18.2,11.53.57,0,10.71-7.48,20.41-10.41A62.69,62.69,0,0,1,68.47,14.3c7.88-.49,17.46.62,27.17,2.5,5,1,20.15,5.39,20.15,5.4s-14.12-4.58-20.66-6c-6.79-1.48-20-3.42-28.24-3A61.53,61.53,0,0,0,49.9,16.27Z"/><path class="cls-1" d="M59.94,21.57c-8.33,2.07-15.77,7.8-15.23,8S54,24.69,62,22.77a60,60,0,0,1,13.43-1.95A89.29,89.29,0,0,1,97.38,23.4c15.29,3.75,29.81,9.4,29.8,9.1,0,.19-14.63-5.7-30.46-9.82a91.13,91.13,0,0,0-22.78-3A58.54,58.54,0,0,0,59.94,21.57Z"/><path class="cls-1" d="M65.88,27.53c-3.86.69-7,3.34-6.6,3.51s4.9-1.4,8.47-2.44a51.13,51.13,0,0,1,16-1.28c6.86.31,13.35,2.36,13.3,2.13a73,73,0,0,0-14.08-2.87C75.64,25.83,68.56,26.33,65.88,27.53Z"/><path class="cls-1" d="M25.53,22.3C19.6,27,15.29,33.81,15.91,33.84s6.57-6.55,12.33-11c2.66-2.95,14.57-10.26,27.21-13,12.41-3.35,32.61.85,32.33.3-.08,0-20.48-3.74-33.65-.89a72.57,72.57,0,0,0-18.27,6.32A66.85,66.85,0,0,0,25.53,22.3Z"/><path class="cls-1" d="M185.09,40.71c-13.71-2.18-27.71-8.05-41.21-14s-26.55-12.3-38.33-16.85S83.24,2.22,74.73,1A76.06,76.06,0,0,0,56,.3c-14.8.83-29.25,8.62-39.69,18C5.87,27.32-.59,37.93,0,37.57c.64.4,8.65-9.82,19.89-18.16C31.19,10.73,45.68,3.93,59.82,3.11a76.31,76.31,0,0,1,17.82.54c8.1,1.15,18.14,3.87,29.42,8.19s23.79,10.08,36.84,15.83S170.54,39,184,41.11c11.1,1.86,21.94,2.24,32.46-.52C206.38,42.82,195.82,42.6,185.09,40.71Z"/><path class="cls-1" d="M266.66,3a149.92,149.92,0,0,1-10.15,11.82C246.72,25.34,235.12,33.6,223,38.45a53.51,53.51,0,0,1-6.53,2.14,61.51,61.51,0,0,0,8.23-2.43c12.41-4.5,23.81-13.37,33.46-24,3.31-3.63,6.4-7.46,9.27-11.29Z"/></g></g></g></svg>