<svg xmlns="http://www.w3.org/2000/svg" viewBox="0 0 278 20.62"><defs><style>.cls-1{fill:#231f20;}</style></defs><title>logo-marissa-webb</title><g id="Layer_2" data-name="Layer 2"><g id="Logos"><g id="logo-marissa-webb"><path class="cls-1" d="M64.66.42H54V20.2h2.55V12H65L69.9,20.2h2.91l-5-8.23.28,0a6.42,6.42,0,0,0,3.4-1.4,5.6,5.6,0,0,0,1.8-4.45C73.33,2.33,70.41.42,64.66.42ZM69.31,9.1a8.74,8.74,0,0,1-3.62.55H56.52V2.74h9.63a6.11,6.11,0,0,1,3.18.76,2.88,2.88,0,0,1,1.46,2.62A3.09,3.09,0,0,1,69.31,9.1Z"/><rect class="cls-1" x="80.8" y="0.42" width="2.54" height="19.77"/><path class="cls-1" d="M108.6,9.81a11.08,11.08,0,0,0-5.55-1.21h-2.59a16.57,16.57,0,0,1-4-.35C95,7.88,94.28,7.13,94.28,6a2.94,2.94,0,0,1,1.54-2.41,9.18,9.18,0,0,1,5.12-1.23,12.17,12.17,0,0,1,4.59.84,23,23,0,0,1,2.85,1.55l0,0L110,2.9A15.76,15.76,0,0,0,101,0a11.49,11.49,0,0,0-7.09,2,5,5,0,0,0-2.17,4c0,3.29,2.52,5,7.49,5h4.51a6.38,6.38,0,0,1,3.21.76,2.86,2.86,0,0,1,1.63,2.64,3.21,3.21,0,0,1-2,2.85A11.83,11.83,0,0,1,101,18.3a12.61,12.61,0,0,1-6.06-1.37A28.64,28.64,0,0,1,92,14.74h0l-1.81,1.64A14.51,14.51,0,0,0,93.56,19a15.37,15.37,0,0,0,7.33,1.67A14.82,14.82,0,0,0,108,19.08a5.31,5.31,0,0,0,3.14-4.76A4.91,4.91,0,0,0,108.6,9.81Z"/><path class="cls-1" d="M134,9.81a11.14,11.14,0,0,0-5.55-1.21h-2.6a16.57,16.57,0,0,1-4-.35c-1.43-.37-2.13-1.12-2.13-2.29a2.92,2.92,0,0,1,1.54-2.41,9.18,9.18,0,0,1,5.12-1.23,12.14,12.14,0,0,1,4.59.84,23,23,0,0,1,2.85,1.55l0,0,1.57-1.83a15.76,15.76,0,0,0-9-2.9,11.49,11.49,0,0,0-7.09,2,5,5,0,0,0-2.17,4c0,3.29,2.52,5,7.49,5h4.51a6.38,6.38,0,0,1,3.21.76,2.86,2.86,0,0,1,1.63,2.64,3.19,3.19,0,0,1-2,2.85,11.8,11.8,0,0,1-5.61,1.13,12.61,12.61,0,0,1-6.06-1.37,27.79,27.79,0,0,1-2.91-2.19h0l-1.81,1.64A14.51,14.51,0,0,0,118.91,19a15.37,15.37,0,0,0,7.33,1.67,14.82,14.82,0,0,0,7.09-1.54,5.31,5.31,0,0,0,3.14-4.76A4.92,4.92,0,0,0,134,9.81Z"/><polygon class="cls-1" points="211.27 11.1 220.82 11.1 220.82 8.78 211.27 8.78 211.27 2.74 226.34 2.74 226.34 0.42 208.73 0.42 208.73 20.2 226.97 20.2 226.97 17.88 211.27 17.88 211.27 11.1"/><path class="cls-1" d="M249.57,10l-.25-.15.25-.16a3.52,3.52,0,0,0,1.07-1.2,5.14,5.14,0,0,0,.71-2.68,4.78,4.78,0,0,0-2.08-4.14A8,8,0,0,0,244.63.43H232.69V20.2h11.94c5.12,0,7.72-1.87,7.72-5.56a5,5,0,0,0-1-3A6.11,6.11,0,0,0,249.57,10ZM235.23,2.74h9.4a5,5,0,0,1,3.15.87,2.53,2.53,0,0,1,1,2.11A2.76,2.76,0,0,1,247.76,8a5,5,0,0,1-3.13.89h-9.4Zm9.4,15.14h-9.4V11.23h9.4a6.9,6.9,0,0,1,3.81.9,2.9,2.9,0,0,1,1.37,2.61C249.81,16.85,248.12,17.88,244.63,17.88Z"/><path class="cls-1" d="M277,11.64A6.11,6.11,0,0,0,275.22,10L275,9.87l.24-.16a3.59,3.59,0,0,0,1.08-1.19A5.2,5.2,0,0,0,277,5.83a4.78,4.78,0,0,0-2.08-4.14A8,8,0,0,0,270.28.43H258.33V20.2h11.95c5.12,0,7.72-1.87,7.72-5.56A5,5,0,0,0,277,11.64Zm-16.11-8.9h9.41a5,5,0,0,1,3.15.87,2.56,2.56,0,0,1,1,2.11,2.79,2.79,0,0,1-1,2.3,5,5,0,0,1-3.13.89h-9.41Zm9.41,15.14h-9.41V11.23h9.41a6.9,6.9,0,0,1,3.81.9,2.9,2.9,0,0,1,1.37,2.61C275.46,16.85,273.76,17.88,270.28,17.88Z"/><path class="cls-1" d="M150.59.42,140.41,20.2h2.82L146,14.8h11.65l2.7,5.4h2.82L153.13.42Zm-3.41,12,4.68-9.19,4.6,9.19Z"/><path class="cls-1" d="M36.24.42,26.05,20.2h2.82l2.75-5.4H43.27l0,.1L46,20.2h2.82L38.78.42Zm-3.42,12L37.5,3.27l4.6,9.19Z"/><polygon class="cls-1" points="2.57 0.43 0 0.43 0 20.2 2.58 20.2 2.58 5.18 10.49 18.59 18.41 5.18 18.41 20.2 20.99 20.2 20.99 0.43 18.41 0.43 10.49 13.72 2.57 0.43"/><polygon class="cls-1" points="190.02 2.45 184.58 15.9 179.35 0.42 176.74 0.42 183.16 20.2 185.64 20.2 190.02 8.62 194.41 20.2 196.89 20.2 203.31 0.42 200.7 0.42 195.47 15.9 190.02 2.45"/></g></g></g></svg>