<svg xmlns="http://www.w3.org/2000/svg" viewBox="0 0 215.94 76.23"><title>logo-thelabnyc</title><g id="Layer_2" data-name="Layer 2"><g id="Logos"><g id="logo-thelabnyc"><path d="M215.94,43.45c-.1.49-.2,1-.32,1.46a9.65,9.65,0,0,1-3.76,5.87,8.47,8.47,0,0,1-6.05,1.5A8.86,8.86,0,0,1,202,51.17c-.58-.36-1.08-.83-1.67-1.28v1.69h-5.88V17.49h5.87V33.78a6.75,6.75,0,0,1,2.73-1.89c3.23-1.06,6.35-1,9.16,1.17a9.82,9.82,0,0,1,3.51,6c.07.35.15.71.22,1.06Zm-15.66-1.74c.05.44.09.88.16,1.31a4.68,4.68,0,0,0,7.18,3.12,5.27,5.27,0,0,0,2.07-5.59,4.69,4.69,0,0,0-6.12-3.64A4.77,4.77,0,0,0,200.28,41.71Z"/><path d="M37,76.23a18,18,0,0,1-2.08-.65,8.27,8.27,0,0,1-5.24-7.15,8.53,8.53,0,0,1,17-1.67A8.56,8.56,0,0,1,40,76.05c-.21,0-.41.12-.62.18Z"/><path d="M112.72,33.68a8,8,0,0,1,4.36-2.26,10,10,0,0,1,4.71.19,6,6,0,0,1,4.29,5.13,15.19,15.19,0,0,1,.19,2.52c0,3.89,0,7.78,0,11.67v.66h-5.91V51c0-3.46,0-6.93,0-10.39a6.64,6.64,0,0,0-.25-1.77,2.73,2.73,0,0,0-2.41-2.07,4.08,4.08,0,0,0-5,4.31c0,3.3,0,6.61,0,9.91v.6h-5.91V51q0-16.41,0-32.83c0-.51.1-.7.66-.68,1.56,0,3.12,0,4.67,0h.58Z"/><path d="M188.84,51.6H183V49.8c-.5.43-.91.83-1.37,1.16a7.61,7.61,0,0,1-3.39,1.24,9.42,9.42,0,0,1-5-.43A8.91,8.91,0,0,1,168,46a12.73,12.73,0,0,1,.45-9.62,8.54,8.54,0,0,1,8.85-5.14,8.36,8.36,0,0,1,4.46,1.45c.39.29.74.64,1.17,1V32c.19,0,.33,0,.46,0,1.66,0,3.32,0,5,0,.34,0,.51.05.51.46q0,9.47,0,18.93C188.86,51.38,188.85,51.47,188.84,51.6ZM173.46,42a10.42,10.42,0,0,0,.16,1.21,4.72,4.72,0,0,0,8.31,1.94,5.61,5.61,0,0,0,.92-4.52A4.69,4.69,0,0,0,176,37.21C174.22,38.18,173.5,39.78,173.46,42Z"/><path d="M151.66,43.65H136.58a5,5,0,0,0,1.2,2.52,4.9,4.9,0,0,0,4.72,1.59,6.28,6.28,0,0,0,3.86-2c.08-.09.18-.16.29-.27l4.44,2.32a9.26,9.26,0,0,1-4.55,3.69,13.73,13.73,0,0,1-10.83-.43,9.29,9.29,0,0,1-5.12-7.2,11.35,11.35,0,0,1,.89-7,9.6,9.6,0,0,1,7.16-5.37,11.1,11.1,0,0,1,7.88,1.12,9.59,9.59,0,0,1,5.13,7.89C151.73,41.53,151.66,42.57,151.66,43.65Zm-15-3.81h9.09a4.46,4.46,0,0,0-4.08-3.6C139,36.12,137.06,37.53,136.62,39.84Z"/><path d="M38.06,29.45a8.54,8.54,0,1,1-8.56,8.46A8.47,8.47,0,0,1,38.06,29.45Z"/><path d="M17.17,50.45A8.54,8.54,0,1,1,8.62,59,8.49,8.49,0,0,1,17.17,50.45Z"/><path d="M25.75,17.2A8.53,8.53,0,1,1,8.7,17a8.53,8.53,0,0,1,17.05.24Z"/><path d="M67.71,29.56a8.53,8.53,0,1,1-.24,17.05,8.53,8.53,0,0,1,.24-17Z"/><path d="M8.56,29.66a8.54,8.54,0,0,1,8.52,8.9,8.64,8.64,0,0,1-8.81,8.16,8.53,8.53,0,0,1,.29-17.06Z"/><path d="M29.49,8.57a8.56,8.56,0,1,1,17.11,0,8.56,8.56,0,0,1-17.11,0Z"/><path d="M50.47,59.07a8.53,8.53,0,0,1,8.86-8.54,8.55,8.55,0,0,1-.58,17.08A8.47,8.47,0,0,1,50.47,59.07Z"/><path d="M59.05,25.81a8.49,8.49,0,0,1-8.53-8.55,8.54,8.54,0,1,1,17.08,0A8.5,8.5,0,0,1,59.05,25.81Z"/><path d="M97.77,24.47v7.45h2.72c1.29,0,1.29,0,1.29,1.31,0,1.13,0,2.26,0,3.39,0,.45-.15.56-.58.55-1.12,0-2.25,0-3.41,0,0,.21,0,.36,0,.52,0,2.28,0,4.55,0,6.83a3.28,3.28,0,0,0,.13.94,1.62,1.62,0,0,0,2.41,1,13.45,13.45,0,0,0,1.41-.87c0,.14,0,.27,0,.4,0,1.45,0,2.9,0,4.35a.88.88,0,0,1-.23.54,6.49,6.49,0,0,1-8,.19A4.63,4.63,0,0,1,92,47.56c-.08-3.11-.07-6.22-.09-9.32,0-.34,0-.67,0-1.06H88.61l.71-5.24h2.51V25.43Z"/><path d="M157,17.49h5.84V51.58H157Z"/></g></g></g></svg>